/* XPM */
static char *result[] = {
/* columns rows colors chars-per-pixel */
"64 64 147 2 ",
"   c #020202",
".  c #080A07",
"X  c #0B0E0B",
"o  c #120D05",
"O  c #0F110F",
"+  c #151107",
"@  c #1A1304",
"#  c #1E1C0E",
"$  c #121312",
"%  c #141A12",
"&  c #191A19",
"*  c #231C0B",
"=  c #1B2718",
"-  c #1E2918",
";  c #2E200B",
":  c #2A2412",
">  c #2C2A16",
",  c #362A12",
"<  c #3A2E15",
"1  c #342C18",
"2  c #3C331E",
"3  c #252625",
"4  c #262D24",
"5  c #2C2C2C",
"6  c #31222C",
"7  c #273822",
"8  c #293B24",
"9  c #3D3523",
"0  c #3B3C24",
"q  c #3B3B3B",
"w  c #562F21",
"e  c #413620",
"r  c #4C3F29",
"t  c #5A3325",
"y  c #442E3C",
"u  c #693327",
"i  c #693428",
"p  c #2E432A",
"a  c #3C4026",
"s  c #304529",
"d  c #364E30",
"f  c #394D33",
"g  c #3C5432",
"h  c #3D5835",
"j  c #3E503A",
"k  c #4D4229",
"l  c #43453E",
"z  c #5C4D35",
"x  c #445131",
"c  c #415A35",
"v  c #425A3C",
"b  c #744434",
"n  c #744C37",
"m  c #7A4738",
"M  c #764C3A",
"N  c #65553D",
"B  c #73503C",
"V  c #7A523E",
"C  c #44623D",
"Z  c #49643D",
"A  c #333740",
"S  c #494843",
"D  c #434548",
"F  c #474848",
"G  c #4D4D4D",
"H  c #534E46",
"J  c #56544E",
"K  c #4E4F51",
"L  c gray32",
"P  c #5B5750",
"I  c #565B54",
"U  c #5B5C54",
"Y  c #5D5D5D",
"T  c #6D5B43",
"R  c #7C5642",
"E  c #7E5E48",
"W  c #615E56",
"Q  c #4C6D43",
"!  c #507246",
"~  c #53774A",
"^  c #587D4D",
"/  c #597D55",
"(  c #6F6247",
")  c #7A644A",
"_  c #796B4F",
"`  c #7E6E52",
"'  c gray40",
"]  c #6D6961",
"[  c #6B6A6A",
"{  c #717171",
"}  c #7A7A7A",
"|  c #815441",
" . c #816C51",
".. c #896F55",
"X. c #867657",
"o. c #887055",
"O. c #8D7558",
"+. c #8A7B5C",
"@. c #917A5D",
"#. c #927E60",
"$. c #59814E",
"%. c #5C8351",
"&. c #5F8854",
"*. c #608753",
"=. c #608A55",
"-. c #669259",
";. c #69965D",
":. c #6D9C5F",
">. c #6D9D60",
",. c #71A364",
"<. c #76AA69",
"1. c #7DB56F",
"2. c #7FB671",
"3. c #7FB871",
"4. c #938464",
"5. c #9C8365",
"6. c #9E8D6D",
"7. c #9F906F",
"8. c #A38D6C",
"9. c #A59271",
"0. c #A89674",
"q. c #B29F7B",
"w. c #80B771",
"e. c #82BB73",
"r. c #838383",
"t. c #888888",
"y. c #9D9D9E",
"u. c #A5A5A5",
"i. c #ABABAB",
"p. c #AFB2B0",
"a. c #B6B6B6",
"s. c #BBBBBB",
"d. c #C397B5",
"f. c #C4BFC3",
"g. c #C4C4C4",
"h. c #CCCCCC",
"j. c #D3D3D3",
"k. c #DCDCDC",
"l. c #E3DFD6",
"z. c #E2E0D6",
"x. c #E6DBE2",
"c. c #E6E5E5",
"v. c #E8E8E7",
"b. c gray92",
"n. c #EFF0F0",
"m. c #F4F4F4",
"M. c #FCFCFC",
/* pixels */
"e.e.e.e.e.e.e.e.e.e.e.e.e.e.e.e.e.e.e.e.e.e.e.e.e.e.e.e.e.e.e.e.e.e.e.e.e.e.e.e.e.e.e.e.e.e.e.e.e.e.e.e.e.e.e.e.e.e.e.e.e.e.e.e.",
"e.e.e.e.e.e.e.e.e.e.e.e.e.e.e.e.e.e.e.e.e.e.e.e.e.e.e.e.e.e.e.e.e.e.e.e.e.e.e.e.e.e.e.e.e.e.e.e.e.e.e.e.e.e.e.e.e.e.e.e.e.e.e.e.",
"e.e.e.e.e.e.e.e.e.e.e.e.e.e.e.e.e.e.e.e.e.e.e.e.e.e.e.e.e.e.e.e.e.e.e.e.e.e.e.e.e.e.e.e.e.e.e.e.e.e.e.e.e.e.e.e.e.e.e.e.e.e.e.e.",
"e.e.e.e.e.e.e.e.e.e.e.e.e.e.e.e.e.e.e.e.e.e.e.e.e.e.e.e.e.e.e.e.e.e.e.e.e.e.e.e.e.e.e.e.e.e.e.e.e.e.e.e.e.e.e.e.e.e.e.e.e.e.e.e.",
"e.e.e.e.e.e.e.e.e.e.e.e.e.e.e.e.e.e.e.e.e.e.e.e.e.e.e.e.e.e.e.%.e./ e.e.e.e.e.e.e.e.e.e.e.e.e.e.e.e.e.e.e.e.e.e.e.e.e.e.e.e.e.e.",
"e.e.e.e.e.e.e.e.e.e.e.e.e.e.e.e.e.e.e.e.e.e.e.e.e.e.e.e.e.e.e.e./ e.e.e.e.e.e.e.e.e.e.e.e.e.e.e.e.e.e.e.e.e.e.e.e.e.e.e.e.e.e.e.",
"e.e.e.e.e.e.e.e.e.e.e.e.e.e.e.e.e.e.e.e.e.e.e.e.e.e.e.e.e.e.e.e.e.e.e.e.e.e.e.e.e.e.e.e.e.e.e.e.e.e.e.e.e.e.e.e.e.e.e.e.e.e.e.e.",
"e.e.e.e.e.e.e.e.e.e.e.e.e.e.e.e.e.e.e.e.e.e.e.e.e.e.e.e.e.e.e.e.e.e.e.e.e.e.e.e.e.e.e.e.e.e.e.e.e.e.e.e.e.e.e.e.e.e.e.e.e.e.e.e.",
"e.e.e.e.e.e.e.e.e.e.e.e.e.e.e.e.e.e.e.e.e.e.e.e.e.e.e.e.e.e.e.e.e.e.e.e.e.e.e.e.e.e.e.e.e.e.e.e.e.e.e.e.e.e.e.e.e.e.e.e.e.e.e.e.",
"e.e.e.e.e.e.e.e.e.e.e.e.e.e.e.e.e.e.e.e.e.e.e.e.e.e.e.e.e.e.e.e.e.e.e.e.e.e.e.e.e.e.e.e.e.e.e.e.e.e.e.e.e.e.e.e.e.e.e.e.e.e.e.e.",
"e.e.e.e.e.e.e.e.e.e.e.e.e.e.e.e.e.e.e.e.e.e.e.e.e.e.e.e.e.e.e.$.X O %.e.e.e.e.e.e.e.e.e.e.e.e.e.e.e.e.e.e.e.e.e.e.e.e.e.e.e.e.e.",
"e.e.e.e.e.e.e.e.e.e.e.e.e.e.e.e.e.e.e.e.e.e.e.e.e.e.e.e.e.e.~ D i.i.D ~ e.e.e.e.e.e.e.e.e.e.e.e.e.e.e.e.e.e.e.e.e.e.e.e.e.e.e.e.",
"e.e.e.e.e.e.e.e.e.e.e.e.e.e.e.e.e.e.e.e.e.e.e.e.e.e.e.e.e.e.p Y M.M.Y p e.e.e.3.e.e.e.e.e.e.e.e.e.e.e.e.e.e.e.e.e.e.e.e.e.e.e.e.",
"e.e.e.e.e.e.e.e.e.e.e.e.e.e.e.e.e.e.e.e.e.e.e.e.e.e.e.1.-.:.8 L m.m.L 8 ,.;.1.e.e.e.e.e.e.e.e.e.e.e.e.e.e.e.e.e.e.e.e.e.e.e.e.e.",
"e.e.e.e.e.e.e.e.e.e.e.e.e.e.e.e.e.e.e.e.e.e.e.e.e.1.e.*.: >   K m.m.L   : : &.e.1.e.e.e.e.e.e.e.e.e.e.e.e.e.e.e.e.e./ e.%.e.e.e.",
"e.e.e.e.e.e.e.e.e.e.e.e.e.e.e.e.e.e.e.e.e.1.e.e.e.c - a ` X.o D m.m.F o X.` a - c e.e.e.2.e.e.e.e.e.e.e.e.e.e.e.e.e.e./ e.e.e.e.",
"e.e.e.e.e.e.e.e.e.e.e.e.e.e.e.e.e.e.w.e.e.e.;.c Z r z _ 9.q.+ A M.M.A + q.0._ z k Z h ;.e.e.e.w.e.e.e.e.e.e.e.e.e.e.e.e.e.e.e.e.",
"e.e.e.e.e.e.e.e.e.e.e.e.e.e.e.e.e.e.e.w.=.>.x e : M #.9.4.6.9 J l.z.J 9 6.4.8.#.B ; e x :.=.w.e.e.e.e.e.e.e.e.e.e.e.e.e.e.e.e.e.",
"e.e.e.e.e.e.e.e.e.e.e.e.e.e.e.e.e.e.e.-.> # N ) * t R o.4.#.4.4.4.+.4.@.4.@...| t * ) N * > -.e.e.e.e.e.e.e.e.e.e.e.e.e.e.e.e.e.",
"e.e.e.e.e.e.e.e.e.e.e.e.e.e.e.e.e.e./ 0 ` ) O.T o w m n V M R V n n V R B V M m t @ T O.) _ 0 ^ e.e.e.e.e.e.e.e.e.e.e.e.e.e.e.e.",
"e.e.e.e.e.e.e.e.e.e.e.e.e.e.e.e.e.e.g k 0.0.4. .N M b u i i i i i i i i i i i b B z _ 5.0.0.k d e.e.e.e.e.e.e.e.e.e.e.e.e.e.e.e.",
"e.e.e.e.e.e.e.e.e.e.e.e.e.e.e.e.e.e.&.0 T 4.6.7.0.#.E R R R R R R R R R R R R ) +.8.6.6.4.( 0 &.e.e.e.e.e.e.e.e.e.e.e.e.e.e.e.e.",
"e.e.e.e.e.e.e.e.e.e.e.e.e.e.e.e.e.e.e.>.> ( 4.+.+.#.4.4.4.4.4.4.4.4.4.4.4.4.4.4.4.+.X.5.( > :.e.e.e.e.e.e.e.e.e.e.e.e.e.e.e.e.e.",
"e.e.e.e.e.e.e.%.e.%.e.e.e.e.e.e.e.e.e.e.>.0 e 1 9  .9.7.7.7.6.8.7.6.7.8.6.6.9.8.` 2 1 e 0 :.e.e.e.e.e.e.e.e.e.e.e.e.e.e.e.e.e.e.",
"e.e.e.e.e.e.e.e./ e.e.e.e.e.e.e.e.e.2.e.e.&.! h * ; , < , , , , , , , , , , 1 < ; * c ! *.e.e.e.e.e.e.e.e.e.e.e.e.e.e.e.e.e.e.e.",
"e.e.e.e.e.e.e.e.e.e.e.e.e.e.e.e.e.e.e.e.e.e.e.>.# S W W ] U J P P P P P P P H J l # :.e.e.e.e.e.e.e.e.e.e.e.e.e.e.e.e.e.e.e.e.e.",
"e.e.e.e.e.e.e.e.e.e.e.e.e.e.e.e.e.e.e.e.e.e.e.&.$ g.M.b.k.n.m.m.m.m.m.m.m.m.c.n.i.O =.e.e.e.e.e.e.e.e.e.e.e.e.e.e.e.e.e.e.e.e.e.",
"e.e.e.e.e.e.e.e.e.e.e.e.e.e.e.e.e.e.e.e.e.e.e.&.$ s.M.y.3 g.M.b.b.b.b.b.b.b.b.m.u.$ &.e.e.e.e.e.e.e.e.e.e.e.e.e.e.e.e.e.e.e.e.e.",
"e.e.e.e.e.e.e.e.e.e.e.e.e.e.e.e.e.e.e.e.e.2.e.>.X p.M.t.  a.M.c.v.v.c.v.v.v.b.m.y.$ &.e.e.e.e.e.e.e.e.e.e.e.e.e.e.e.e.e.e.e.e.e.",
"e.e.e.e.e.e.e.e.e.e.e.e.e.e.e.e.e.e.e.e.e.e.,.f y f.M.t.  a.M.v.v.v.v.v.v.c.c.b.y.$ =.e.e.e.e.e.e.e.e.e.e.e.e.e.e.e.e.e.e.e.e.e.",
"e.e.e.e.e.e.e.e.e.e.e.e.e.e.e.e.e.e.e.e.e.e.g 6 d.x.M.y.5 g.m.v.v.v.c.c.c.k.h.c.u.$ =.e.e.e.e.e.e.e.e.e.e.e.e.e.e.e.e.e.e.e.e.e.",
"e.e.e.e.e.e.e.e.e.e.e.e.e.e.e.e.e.e.e.e.e.e.h q c.b.b.c.j.c.b.c.c.v.b.c.k.j.h.v.i.$ &.e.e.e.e.e.e.e.e.e.e.e.e.e.e.e.e.e.e.e.e.e.",
"e.e.e.e.e.e.e.e.e.e.e.e.e.e.e.e.e.e.e.e.e.e.d G M.m.k.n.m.b.v.v.c.c.v.k.j.h.m.u.3 ^ 1.e.e.e.e.e.e.e.e.e.e.e.e.e.e.e.e.e.e.e.e.e.",
"e.e.e.e.e.e.e.e.e.e.e.e.e.e.e.e.e.e.e.e.e.e.;.8 r.b.M.M.m.m.c.k.k.j.k.k.c.v.u.5 ~ e.e.e.e.e.e.e.e.e.e.e.e.e.e.e.e.e.e.e.e.e.e.e.",
"e.e.e.e.e.e.e.e.e.e.e.e.e.e.e.e.e.e.e.e.e.w.e.<.= t.h.p.y.y.a.h.g.g.h.a.u.u.3 ^ e.e.e.e.e.e.e.e.e.e.e.e.e.e.e.e.e.e.e.e.e.e.e.e.",
"e.e.e.e.e.e.e.e.e.e.e.e.e.e.e.e.e.e.e.e.e.e.3.e.<.4 O $ O   { j.s.s.j.{ . $ ^ 3.e.e.e.e.e.e.e.e.e.e.e.e.e.e.e.e.e.e.e.e.e.e.e.e.",
"e.e.e.e.e.e.e.e.e.e.e.e.e.e.e.e.e.e.e.e.e.e.e.e.e.;.^ >.>.% ' b.h.j.m.[ % ;.e.e.e.e.e.e.e.e.e.e.e.e.e.e.e.e.e.e.e.e.e.e.e.e.e.e.",
"e.e.e.e.e.e.e.e.e.e.e.e.e.e.e.e.e.e.e.e.e.e.e.e.e.e.e.2.Q U s.n.k.c.m.g.I C e.>.Q e.e.w.e.e.e.e.e.e.e.e.e.e.e.e.e.e.e.e.e.e.e.e.",
"e.e.e.e.e.e.e.e.e.e.e.e.e.e.e.e.e.e.e.e.e.e.e.e.e.e.e.~ & j.M.k.v.v.c.M.v.G Q v q %.2.e.e.e.e.e.e.e.e.e.e.e.e.e.e.e.e.e.e.e.e.e.",
"e.e.e.e.e.e.e.e.e.e.e.e.e.e.e.e.e.e.e.e.e.e.e.e.e.e.e.%.& s.m.c.v.v.v.v.b.b.5 [ k.$ &.e.e.e.e.e./ e./ e.e.e.e.e.e.e.e.e.e.e.e.e.",
"e.e.e.e.e.e.e.e.e.e.e.e.e.e.e.e.e.e.e.e.e.e.e.e.e.e.e.%.$ s.M.c.v.v.v.k.v.m.5 [ k.$ $.e.e.e.e.e.e./ e.e.e.e.e.e.e.e.e.e.e.e.e.e.",
"e.e.e.e.e.e.e.e.e.e.e.e.e.e.e.e.e.e.e.e.e.e.e.e.e.e.e.;.& j.M.c.v.c.b.k.k.b.q $ L C <.e.e.e.e.e.e.e.e.e.e.e.e.e.e.e.e.e.e.e.e.e.",
"e.e.e.e.e.e.e.e.e.e.e.e.e.e.e.e.e.e.e.e.e.e.e.e.e.e.<.f O } k.M.m.M.M.b.c.v.F . C e.e.e.e.e.e.e.e.e.e.e.e.e.e.e.e.e.e.e.e.e.e.e.",
"e.e.e.e.e.e.e.e.e.e.e.e.e.e.e.e.e.e.e.e.e.e.e.e.e.e.d       } n.j.j.j.k.m.c.D h e.e.e.e.e.e.e.e.e.e.e.e.e.e.e.e.e.e.e.e.e.e.e.e.",
"e.e.e.e.e.e.e.e.e.e.e.e.e.e.e.e.e.e.e.e.e.e.e.e.e.e.s       $ 5 5 3 O } M.M.G d e.e.e.e.e.e.e.e.e.e.e.e.e.e.e.e.e.e.e.e.e.e.e.e.",
"e.e.e.e.e.e.e.e.e.e.e.e.e.e.e.e.e.e.e.e.e.e.e.e.e.e.,.8     8 / Q Q $.j [ ' j ,.e.e.e.e.e.e.e.e.e.e.e.e.e.e.e.e.e.e.e.e.e.e.e.e.",
"e.e.e.e.e.e.e.e.e.e.e.e.e.e.e.e.e.e.e.e.e.e.e.e.e.w.e.<.s 8 ,.e.3.e.e.>.7 p <.e.2.e.e.e.e.e.e.e.e.e.e.e.e.e.e.e.e.e.e.e.e.e.e.e.",
"e.e.e.e.e.e.e.e.e.e.e.e.e.e.e.e.e.e.e.e.e.e.e.e.e.e.w.w.e.w.e.e.e.e.3.e.3.e.e.3.e.e.e.e.e.e.e.e.e.e.e.e.e.e.e.e.e.e.e.e.e.e.e.e.",
"e.e.e.e.e.e.e.e.e.e.e.e.e.e.e.e.e.e.e.e.e.e.e.e.e.e.e.e.e.e.e.e.e.e.e.e.e.e.e.e.e.e.e.e.e.e.e.e.e.e.e.e.e.e.e.e.e.e.e.e.e.e.e.e.",
"e.e.e.e.e.e.e.e.e.e.e.e.e.e.e.e.e.e.e.e.e.e.e.e.e.e.e.e.e.e.e.e.e.e.e.e.e.e.e.e.e.e.e.e.e.e.e.e.e.e.e.e.e.e.e.e.e.e.e.e.e.e.e.e.",
"e.e.e.e.e.e.e.e.e.e.e.e.e.e.e.e.e.e.e.e.e.e.e.e.e.e.e.e.e.e.e.e.e.e.e.e.e.e.e.e.e.e.e.e.e.e.e.e.e.e.e.e.e.e.e.e.e.e.e.e.e.e.e.e.",
"e.e.e.e.e.e.e.e.e.e.e.e.e.e.e.e.e.e.e.e.e.e.e.e.e.e.e.e.e.e.e.e.e.e.e.e.e.e.e.e.e.e.e.e.e.e.e.e.e.e.e.e.e.e.e.e.e.e.e.e.e.e.e.e.",
"e.e.e.e.e.e.e.e.e.e.e.e.e.e.e.e.e.e.e.e.e.e.e.e.e.e.e.e.e.e.e.e.e.e.e.e.e.e.e.e.e.e.e.e.e.e.e.e.e.e.e.e.e.e.e.e.e.e.e.e.e.e.e.e.",
"e.e.e.e.e.e.e.e.e.e.e.e.e.e.e.e.e.e.e.e.e.e.e.e.e.e.e.e.e.e.e.e.e.e.e.e.e.e.e.e.e.e.e.e.e.e.e.e.e.e.e.e.e.e.e.e.e.e.e.e.e.e.e.e.",
"e.e.e.e.e.e.e.e.e.e.e.e.e.e.e.e.e.e.e.e.e.e.e.e.e.e.e.e.e.e.e.e.e.e.e.e.e.e.e.e.e.e.e.e.e.e.e.e.e.e.e.e.e.e.e.e.e.e.e.e.e.e.e.e.",
"e.e.e.e.e.e.e.e.e.e.e.e.e.e.e.e./ e./ e.e.e.e.e.e.e.e.e.e.e.e.e.e.e.e.e.e.e.e.e.e.e.e.e.e.e.e.e.e.e.e.e.e.e.e.e.e.e.e.e.e.e.e.e.",
"e.e.e.e.e.e.e.e.e.e.e.e.e.e.e.e.e.=.e.e.e.e.e.e.e.e.e.e.e.e.e.e.e.e.e.e.e.e.e.e.e.e.e.e.e.e.e.e.e.e.e.e.e.e.e.e.e.e.e.e.e.e.e.e.",
"e.e.e.e.e.e.e.e.e.e.e.e.e.e.e.e.e.e.e.e.e.e.e.e.e.e.e.e.e.e.e.e.e.e.e.e.e.e.e.e.e.e.e.e.e.e.e.e.e.e.e.e.e.e.e.e.e.e.e.e.e.e.e.e.",
"e.e.e.e.e.e.e.e.e.e.e.e.e.e.e.e.e.e.e.e.e.e.e.e.e.e.e.e.e.e.e.e.e.e.e.e.e.e.e.e.e.e.e.e.e.e.e.e.e.e.e.e.e.e.e.e.e.e.e.e.e.e.e.e.",
"e.e.e.e.e.e.e.e.e.e.e.e.e.e.e.e.e.e.e.e.e.e.e.e.e.e.e.e.e.e.e.e.e.e.e.e.e.e.e.e.e.e.e.e.e.e.e.e.e.e.e.e.e.e.e.e.e.e.%.e./ e.e.e.",
"e.e.e.e.e.e.e.e.e.e.e.e.e.e.e.e.e.e.e.e.e.e.e.e.e.e.e.e.e.e.e.e.e.e.e.e.e.e.e.e.e.e.e.e.e.e.e.e.e.e.e.e.e.e.e.e.e.e.e./ e.e.e.e.",
"e.e.e.e.e.e.e.e.e.e.e.e.e.e.e.e.e.e.e.e.e.e.e.e.e.e.e.e.e.e.e.e.e.e.e.e.e.e.e.e.e.e.e.e.e.e.e.e.e.e.e.e.e.e.e.e.e.e.e.e.e.e.e.e.",
"e.e.e.e.e.e.e.e.e.e.e.e.e.e.e.e.e.e.e.e.e.e.e.e.e.e.e.e.e.e.e.e.e.e.e.e.e.e.e.e.e.e.e.e.e.e.e.e.e.e.e.e.e.e.e.e.e.e.e.e.e.e.e.e.",
"e.e.e.e.e.e.e.e.e.e.e.e.e.e.e.e.e.e.e.e.e.e.e.e.e.e.e.e.e.e.e.e.e.e.e.e.e.e.e.e.e.e.e.e.e.e.e.e.e.e.e.e.e.e.e.e.e.e.e.e.e.e.e.e."
};