/* XPM */
static char *result[] = {
/* columns rows colors chars-per-pixel */
"64 64 167 2 ",
"   c #020302",
".  c #070906",
"X  c #080B07",
"o  c #0B0D0B",
"O  c #0E120C",
"+  c #11140C",
"@  c #10180E",
"#  c #1D1B0B",
"$  c #131313",
"%  c #141C11",
"&  c #1B1B1B",
"*  c #291908",
"=  c #291E08",
"-  c #371D10",
";  c #1D2111",
":  c #1D2B1A",
">  c #26200F",
",  c #2C210B",
"<  c #2D2613",
"1  c #262915",
"2  c #2F2815",
"3  c #212A1F",
"4  c #332B16",
"5  c #342D19",
"6  c #382F19",
"7  c #24331F",
"8  c #2E341C",
"9  c #3B311B",
"0  c #301E26",
"q  c #272826",
"w  c #2B2B2B",
"e  c #312D25",
"r  c #243420",
"t  c #2A3C25",
"y  c #2E3A2B",
"u  c #3B3624",
"i  c #373B22",
"p  c #343534",
"a  c #383B37",
"s  c #3B3C3B",
"d  c #402E1D",
"f  c #433C26",
"g  c #473F2A",
"h  c #4B3E29",
"j  c #503725",
"k  c #6A3629",
"l  c #6D3A2D",
"z  c #2E4329",
"x  c #334529",
"c  c #3C4328",
"v  c #344A2D",
"b  c #3C4F2F",
"n  c #394437",
"m  c #3A5333",
"M  c #3E5738",
"N  c #4A432C",
"B  c #44492E",
"V  c #44493B",
"C  c #564B35",
"Z  c #445534",
"A  c #415E39",
"S  c #5A5138",
"D  c #734535",
"F  c #744937",
"G  c #764A39",
"H  c #7C4838",
"J  c #69523B",
"K  c #6D593F",
"L  c #7A513E",
"P  c #45633C",
"I  c #4B643C",
"U  c #48683F",
"Y  c #454545",
"T  c #4C5449",
"R  c #535353",
"E  c #5C5C5C",
"W  c #695E43",
"Q  c #775842",
"!  c #7E5C46",
"~  c #7F5E48",
"^  c #4C6C42",
"/  c #4F7246",
"(  c #517145",
")  c #527649",
"_  c #567A4A",
"`  c #597E4D",
"'  c #597D55",
"]  c #6D6247",
"[  c #74674A",
"{  c #74664B",
"}  c #66645E",
"|  c #7B6D51",
" . c #7F7055",
".. c #646564",
"X. c #6D6B64",
"o. c #74716B",
"O. c #6F6F70",
"+. c #777777",
"@. c #7B7B7A",
"#. c #81664B",
"$. c #8E6750",
"%. c #846C52",
"&. c #837355",
"*. c #8A7255",
"=. c #8C7458",
"-. c #86795B",
";. c #8C7A5C",
":. c #987359",
">. c #927C5E",
",. c #59804F",
"<. c #5E8551",
"1. c #5E8854",
"2. c #628C56",
"3. c #638E58",
"4. c #659259",
"5. c #68955C",
"6. c #6C9A5F",
"7. c #6D9E60",
"8. c #6FA163",
"9. c #72A465",
"0. c #75A867",
"q. c #76AB69",
"w. c #79AD6B",
"e. c #7CB36E",
"r. c #7FB670",
"t. c #7FB871",
"y. c #948465",
"u. c #9B8365",
"i. c #9C8668",
"p. c #9A8C6B",
"a. c #9F916F",
"s. c #82807A",
"d. c #A08C6B",
"f. c #A59372",
"g. c #AB9B78",
"h. c #B19F7B",
"j. c #80B771",
"k. c #82BB73",
"l. c #B5A37E",
"z. c #936F86",
"x. c gray52",
"c. c #8C8983",
"v. c #8B8B8B",
"b. c #918E82",
"n. c #8C8E93",
"m. c #959696",
"M. c #999999",
"N. c #A38D9B",
"B. c #ADAA9D",
"V. c gray65",
"C. c #AAAAAA",
"Z. c gray70",
"A. c #BCBCBC",
"S. c #BEC0C6",
"D. c #C3C3C3",
"F. c #CCCCCC",
"G. c #CDCED1",
"H. c #D4D4D4",
"J. c #DADADA",
"K. c #EAE7DA",
"L. c #F3D9EA",
"P. c #DFE0E2",
"I. c #E5E5E5",
"U. c #EAEAEA",
"Y. c #F3F4F3",
"T. c #F7F8F9",
"R. c #FDFDFD",
/* pixels */
"k.k.k.k.k.k.k.k.k.k.k.k.k.k.k.k.k.k.k.k.k.k.k.k.k.k.k.k.k.k.k.k.k.k.k.k.k.k.k.k.k.k.k.k.k.k.k.k.k.k.k.k.k.k.k.k.k.k.k.k.k.k.k.k.",
"k.k.k.k.k.k.k.k.k.k.k.k.k.k.k.k.k.k.k.k.k.k.k.k.k.k.k.k.k.k.k.k.k.k.k.k.k.k.k.k.k.k.k.k.k.k.k.k.k.k.k.k.k.k.k.k.k.k.k.k.k.k.k.k.",
"k.k.k.k.k.k.k.k.k.k.k.k.k.k.k.k.k.k.k.k.k.k.k.k.k.k.k.k.k.k.k.k.k.k.k.k.k.k.k.k.k.k.k.k.k.k.k.k.k.k.k.k.k.k.k.k.k.k.k.k.k.k.k.k.",
"k.k.k.k.k.k.k.k.k.k.k.k.k.k.k.k.k.k.k.k.k.k.k.k.k.k.k.k.k.k.k.k.k.k.k.k.k.k.k.k.k.k.k.k.k.k.k.k.k.k.k.k.k.k.k.k.k.k.k.k.k.k.k.k.",
"k.k.k.k.k.k.k.k.k.k.k.k.k.k.k.k.k.k.k.k.k.k.k.k.k.k.k.k.k.k.k.' k.<.k.k.k.k.k.k.k.k.k.k.k.k.k.k.k.k.k.k.k.k.k.k.k.k.k.k.k.k.k.k.",
"k.k.k.k.k.k.k.k.k.k.k.k.k.k.k.k.k.k.k.k.k.k.k.k.k.k.k.k.k.k.k.k.' k.k.k.k.k.k.k.k.k.k.k.k.k.k.k.k.k.k.k.k.k.k.k.k.k.k.k.k.k.k.k.",
"k.k.k.k.k.k.k.k.k.k.k.k.k.k.k.k.k.k.k.k.k.k.k.k.k.k.k.k.k.k.k.k.k.k.k.k.k.k.k.k.k.k.k.k.k.k.k.k.k.k.k.k.k.k.k.k.k.k.k.k.k.k.k.k.",
"k.k.k.k.k.k.k.k.k.k.k.k.k.k.k.k.k.k.k.k.k.k.k.k.k.k.k.k.k.k.k.k.k.k.k.k.k.k.k.k.k.k.k.k.k.k.k.k.k.k.k.k.k.k.k.k.k.k.k.k.k.k.k.k.",
"k.k.k.k.k.k.k.k.k.k.k.k.k.k.k.k.k.k.k.k.k.k.k.k.k.k.k.k.k.k.k.k.k.k.k.k.k.k.k.k.k.k.k.k.k.k.k.k.k.k.k.k.k.k.k.k.k.k.k.k.k.k.k.k.",
"k.k.k.k.k.k.k.k.k.k.k.k.k.k.k.k.k.k.k.k.k.k.k.k.k.k.k.k.k.k.k.k.7.) 4.k.k.t.k.k.k.k.k.k.k.k.k.k.k.k.k.k.k.k.k.k.k.k.k.k.k.k.k.k.",
"k.k.k.k.k.k.k.k.k.k.k.k.k.k.k.k.k.k.k.k.k.k.k.k.k.k.k.k.k.k.t.e.x $ q 8.k.k.k.k.k.k.k.k.k.k.k.k.k.k.k.k.k.k.k.k.k.k.k.k.k.k.k.k.",
"k.k.k.k.k.k.k.k.k.k.k.k.k.k.k.k.k.k.k.k.k.k.k.k.k.k.k.k.k.k.9.t @.P.M.3 3.k.k.k.k.k.k.k.k.k.k.k.k.k.k.k.k.k.k.k.k.k.k.k.k.k.k.k.",
"k.k.k.k.k.k.k.k.k.k.k.k.k.k.k.k.k.k.k.k.k.k.k.k.k.k.k.t.k.k.w.o V.R.G.$ 4.k.k.k.k.k.k.k.k.k.k.k.k.k.k.k.k.k.k.k.k.k.k.k.k.k.k.k.",
"k.k.k.k.k.k.k.k.k.k.k.k.k.k.k.k.k.k.k.k.k.k.k.k.t.k.k.k.6.` ^ O M.R.A.$ M <.4.k.k.k.t.k.k.k.k.k.k.k.k.k.k.k.k.k.k.k.k.k.k.k.k.k.",
"k.k.k.k.k.k.k.k.k.k.k.k.k.k.k.k.k.k.k.k.k.k.k.k.t.r.0.e.B u >   m.R.A.$ + 9 i 9.0.r.t.k.k.k.k.k.k.k.k.k.k.k.k.k.k.k.' k.<.k.k.k.",
"k.k.k.k.k.k.k.k.k.k.k.k.k.k.k.k.k.k.k.k.k.k.k.k.k.5.1 ; S p.W   n.R.A.o N d.W 2 # _ k.k.k.k.k.k.k.k.k.k.k.k.k.k.k.k.k.' k.k.k.k.",
"k.k.k.k.k.k.k.k.k.k.k.k.k.k.k.k.k.k.k.j.k.k.k.^ c B J W >.h. .  n.R.D.  S l.y.] K N b b e.k.k.t.k.k.k.k.k.k.k.k.k.k.k.k.k.k.k.k.",
"k.k.k.k.k.k.k.k.k.k.k.k.k.k.k.k.k.k.k.k.7.( ^ g 4 d $.>.p.a.-.u b.K.B.a { a.y.i.:.j < h I ) 4.t.k.k.k.k.k.k.k.k.k.k.k.k.k.k.k.k.",
"k.k.k.k.k.k.k.k.k.k.k.k.k.k.k.k.k.k.k.j.Z 9 6 =.C * l #.%.;.>.u.;.#.*.u.>.;.&.! G - u >.N 4 c 0.k.k.k.k.k.k.k.k.k.k.k.k.k.k.k.k.",
"k.k.k.k.k.k.k.k.k.k.k.k.k.k.k.k.k.k.r.x S >.%.>.f - l D G G G G F F F G G G G F H < 5 =.%.>.K 8 9.k.k.k.k.k.k.k.k.k.k.k.k.k.k.k.",
"k.k.k.k.k.k.k.k.k.k.k.k.k.k.k.k.k.k.e.# { l.y.y.{ J L l k k k k k k k k k k k k H Q [ >.y.h.*.# 7.t.k.k.k.k.k.k.k.k.k.k.k.k.k.k.",
"k.k.k.k.k.k.k.k.k.k.k.k.k.k.k.k.k.k.r._ f | a.d.f.i.=.#.! ~ ~ ~ ~ ~ ~ ~ ~ ~ ~ ~ %.d.g.a.f.;.N I w.k.k.k.k.k.k.k.k.k.k.k.k.k.k.k.",
"k.k.k.k.k.k.k.k.k.k.k.k.k.k.k.k.k.k.k.k.' 5 &.&.| -.p.p.p.p.p.p.p.p.p.p.p.p.p.p.i.-.|  .;.f P k.k.t.k.k.k.k.k.k.k.k.k.k.k.k.k.k.",
"k.k.k.k.k.k.k.<.k.1.k.k.k.k.k.k.k.k.k.k.k.<.2 2 # h ;.y.y.y.y.y.y.y.y.y.y.y.y.y.u.C # 2 2 U k.k.k.k.k.k.k.k.k.k.k.k.k.k.k.k.k.k.",
"k.k.k.k.k.k.k.k.' k.k.k.k.k.k.k.k.k.k.t.k.e.1.4.x = = , = = = = > , = , = = , = & = e 2.<.q.k.k.k.k.k.k.k.k.k.k.k.k.k.k.k.k.k.k.",
"k.k.k.k.k.k.k.k.k.k.k.k.k.k.k.k.k.k.k.k.k.k.k.k.P e X.} X.o.o.o.o.o.o.o.X.s.c.o.;.V t k.k.k.t.k.k.k.k.k.k.k.k.k.k.k.k.k.k.k.k.k.",
"k.k.k.k.k.k.k.k.k.k.k.k.k.k.k.k.k.k.k.k.k.k.k.k.m Y U.Y.T.R.R.R.R.R.R.R.R.P.F.R.R.@.r r.k.k.k.k.k.k.k.k.k.k.k.k.k.k.k.k.k.k.k.k.",
"k.k.k.k.k.k.k.k.k.k.k.k.k.k.k.k.k.k.k.k.k.k.k.k.m s J.U.U.U.I.U.I.I.U.I.R...& I.R.O.r r.k.k.k.k.k.k.k.k.k.k.k.k.k.k.k.k.k.k.k.k.",
"k.k.k.k.k.k.k.k.k.k.k.k.k.k.k.k.k.k.k.k.k.k.k.k.m Y J.U.U.U.U.I.I.U.U.I.R.E $ I.R...t k.k.k.k.k.k.k.k.k.k.k.k.k.k.k.k.k.k.k.k.k.",
"k.k.k.k.k.k.k.k.k.k.k.k.k.k.k.k.k.k.k.k.k.k.k.k.m s J.J.I.U.I.I.I.I.I.I.R.R . J.R.N.0 A w.k.k.k.k.k.k.k.k.k.k.k.k.k.k.k.k.k.k.k.",
"k.k.k.k.k.k.k.k.k.k.k.k.k.k.k.k.k.k.k.k.k.k.k.k.v Y I.H.F.I.I.I.U.I.I.U.R.v.R I.Y.L.z.. 4.k.k.k.k.k.k.k.k.k.k.k.k.k.k.k.k.k.k.k.",
"k.k.k.k.k.k.k.k.k.k.k.k.k.k.k.k.k.k.k.k.k.k.k.k.A s G.H.F.H.I.I.U.I.U.I.I.U.U.I.I.R.C.o 7.k.k.k.k.k.k.k.k.k.k.k.k.k.k.k.k.k.k.k.",
"k.k.k.k.k.k.k.k.k.k.k.k.k.k.k.k.k.k.k.k.k.k.k.k.e.A p F.I.F.H.I.I.I.I.U.U.Y.U.U.I.R.A.o 4.t.k.k.k.k.k.k.k.k.k.k.k.k.k.k.k.k.k.k.",
"k.k.k.k.k.k.k.k.k.k.k.k.k.k.k.k.k.k.k.k.k.k.k.t.k.j.A a Z.T.I.J.H.H.H.J.U.Y.T.R.R.A.p ) e.k.k.k.k.k.k.k.k.k.k.k.k.k.k.k.k.k.k.k.",
"k.k.k.k.k.k.k.k.k.k.k.k.k.k.k.k.k.k.k.k.k.k.k.k.j.k.k.P Y M.n.A.F.D.D.D.m.@.v.m.Z.a ) k.t.t.k.k.k.k.k.k.k.k.k.k.k.k.k.k.k.k.k.k.",
"k.k.k.k.k.k.k.k.k.k.k.k.k.k.k.k.k.k.k.k.k.k.k.k.k.k.k.k.P   + V.F.A.D.D.w X % $ . / k.k.k.k.k.k.k.k.k.k.k.k.k.k.k.k.k.k.k.k.k.k.",
"k.k.k.k.k.k.k.k.k.k.k.k.k.k.k.k.k.k.k.k.k.k.k.k.j.j.k.k.k.^ $ A.U.H.H.J.w m t.9.7.e.k.k.k.k.k.k.k.k.k.k.k.k.k.k.k.k.k.k.k.k.k.k.",
"k.k.k.k.k.k.k.k.k.k.k.k.k.k.k.k.k.k.k.k.k.k.k.t.k.9.v k.8.y C.P.Y.P.K.P.A.T _ j.k.k.j.k.k.k.k.k.k.k.k.k.k.k.k.k.k.k.k.k.k.k.k.k.",
"k.k.k.k.k.k.k.k.k.k.k.k.k.k.k.k.k.k.k.k.k.k.k.k.9.V E ^ y C.R.U.I.I.I.I.R.v.O e.k.k.k.k.k.k.k.k.k.k.k.k.k.k.k.k.k.k.k.k.k.k.k.k.",
"k.k.k.k.k.k.k.k.k.k.k.k.k.k.k.k.k.k.k.k.k.k.k.k.z ..Y.& x.R.I.U.I.I.I.I.R.+.: e.k.k.k.k.k.k.k.k.' k.' k.k.k.k.k.k.k.k.k.k.k.k.k.",
"k.k.k.k.k.k.k.k.k.k.k.k.k.k.k.k.k.k.k.k.k.k.k.k.v R H.$ @.R.J.I.U.I.U.I.R.+.: w.k.k.k.k.k.k.k.k.k.<.k.k.k.k.k.k.k.k.k.k.k.k.k.k.",
"k.k.k.k.k.k.k.k.k.k.k.k.k.k.k.k.k.k.k.k.k.k.k.k.q.M s   v.R.H.I.U.I.I.I.R.v.r k.k.j.k.k.k.k.k.k.k.k.k.k.k.k.k.k.k.k.k.k.k.k.k.k.",
"k.k.k.k.k.k.k.k.k.k.k.k.k.k.k.k.k.k.k.k.k.k.k.k.k.e.z . x.R.I.R.R.T.R.R.Z.p O U w.k.k.k.k.k.k.k.k.k.k.k.k.k.k.k.k.k.k.k.k.k.k.k.",
"k.k.k.k.k.k.k.k.k.k.k.k.k.k.k.k.k.k.k.k.k.k.k.k.t.t.r.@ x.R.U.A.Z.A.A.S.3       <.k.k.k.k.k.k.k.k.k.k.k.k.k.k.k.k.k.k.k.k.k.k.k.",
"k.k.k.k.k.k.k.k.k.k.k.k.k.k.k.k.k.k.k.k.k.k.k.k.k.k.0.; n.R.F.7 o $ $ $       . 2.k.k.k.k.k.k.k.k.k.k.k.k.k.k.k.k.k.k.k.k.k.k.k.",
"k.k.k.k.k.k.k.k.k.k.k.k.k.k.k.k.k.k.k.k.k.k.k.k.k.k.t.7.n T n ,.5.2.2.2.@   o ,.r.k.k.k.k.k.k.k.k.k.k.k.k.k.k.k.k.k.k.k.k.k.k.k.",
"k.k.k.k.k.k.k.k.k.k.k.k.k.k.k.k.k.k.k.k.k.k.k.k.k.k.k.k.2.z U k.k.k.k.k.,.z ) k.k.r.k.k.k.k.k.k.k.k.k.k.k.k.k.k.k.k.k.k.k.k.k.k.",
"k.k.k.k.k.k.k.k.k.k.k.k.k.k.k.k.k.k.k.k.k.k.k.k.k.k.k.t.k.k.k.k.k.k.k.r.k.k.k.k.k.k.k.k.k.k.k.k.k.k.k.k.k.k.k.k.k.k.k.k.k.k.k.k.",
"k.k.k.k.k.k.k.k.k.k.k.k.k.k.k.k.k.k.k.k.k.k.k.k.k.k.k.k.k.k.k.k.k.k.k.k.k.k.k.k.k.k.k.k.k.k.k.k.k.k.k.k.k.k.k.k.k.k.k.k.k.k.k.k.",
"k.k.k.k.k.k.k.k.k.k.k.k.k.k.k.k.k.k.k.k.k.k.k.k.k.k.k.k.k.k.k.k.k.k.k.k.k.k.k.k.k.k.k.k.k.k.k.k.k.k.k.k.k.k.k.k.k.k.k.k.k.k.k.k.",
"k.k.k.k.k.k.k.k.k.k.k.k.k.k.k.k.k.k.k.k.k.m.k.k.k.k.k.k.k.k.k.k.k.k.k.k.k.k.k.k.k.k.k.k.k.k.k.k.k.k.k.k.k.k.k.k.k.k.k.k.k.k.k.k.",
"k.k.k.k.k.k.k.k.k.k.k.k.k.k.k.k.k.k.k.k.k.k.k.k.k.k.k.k.k.k.k.k.k.k.k.k.k.k.k.k.k.k.k.k.k.k.k.k.k.k.k.k.k.k.k.k.k.k.k.k.k.k.k.k.",
"k.k.k.k.k.k.k.k.k.k.k.k.k.k.k.k.k.k.k.k.k.k.k.k.k.k.k.k.k.k.k.k.k.k.k.k.k.k.k.k.k.k.k.k.k.k.k.k.k.k.k.k.k.k.k.k.k.k.k.k.k.k.k.k.",
"k.k.k.k.k.k.k.k.k.k.k.k.k.k.k.k.k.k.k.k.k.k.k.k.k.k.k.k.k.k.k.k.k.k.k.k.k.k.k.k.k.k.k.k.k.k.k.k.k.k.k.k.k.k.k.k.k.k.k.k.k.k.k.k.",
"k.k.k.k.k.k.k.k.k.k.k.k.k.k.k.k.k.k.k.k.k.k.k.k.k.k.k.k.k.k.k.k.k.k.k.k.k.k.k.k.k.k.k.k.k.k.k.k.k.k.k.k.k.k.k.k.k.k.k.k.k.k.k.k.",
"k.k.k.k.k.k.k.k.k.k.k.k.k.k.k.k.' k.' k.k.k.k.k.k.k.k.k.k.k.k.k.k.k.k.k.k.k.k.k.k.k.k.k.k.k.k.k.k.k.k.k.k.k.k.k.k.k.k.k.k.k.k.k.",
"k.k.k.k.k.k.k.k.k.k.k.k.k.k.k.k.k.1.k.k.k.k.k.k.k.k.k.k.k.k.k.k.k.k.k.k.k.k.k.k.k.k.k.k.k.k.k.k.k.k.k.k.k.k.k.k.k.k.k.k.k.k.k.k.",
"k.k.k.k.k.k.k.k.k.k.k.k.k.k.k.k.k.k.k.k.k.k.k.k.k.k.k.k.k.k.k.k.k.k.k.k.k.k.k.k.k.k.k.k.k.k.k.k.k.k.k.k.k.k.k.k.k.k.k.k.k.k.k.k.",
"k.k.k.k.k.k.k.k.k.k.k.k.k.k.k.k.k.k.k.k.k.k.k.k.k.k.k.k.k.k.k.k.k.k.k.k.k.k.k.k.k.k.k.k.k.k.k.k.k.k.k.k.k.k.k.k.k.k.k.k.k.k.k.k.",
"k.k.k.k.k.k.k.k.k.k.k.k.k.k.k.k.k.k.k.k.k.k.k.k.k.k.k.k.k.k.k.k.k.k.k.k.k.k.k.k.k.k.k.k.k.k.k.k.k.k.k.k.k.k.k.k.k.k.' k.1.k.k.k.",
"k.k.k.k.k.k.k.k.k.k.k.k.k.k.k.k.k.k.k.k.k.k.k.k.k.k.k.k.k.k.k.k.k.k.k.k.k.k.k.k.k.k.k.k.k.k.k.k.k.k.k.k.k.k.k.k.k.k.k.' k.k.k.k.",
"k.k.k.k.k.k.k.k.k.k.k.k.k.k.k.k.k.k.k.k.k.k.k.k.k.k.k.k.k.k.k.k.k.k.k.k.k.k.k.k.k.k.k.k.k.k.k.k.k.k.k.k.k.k.k.k.k.k.k.k.k.k.k.k.",
"k.k.k.k.k.k.k.k.k.k.k.k.k.k.k.k.k.k.k.k.k.k.k.k.k.k.k.k.k.k.k.k.k.k.k.k.k.k.k.k.k.k.k.k.k.k.k.k.k.k.k.k.k.k.k.k.k.k.k.k.k.k.k.k.",
"k.k.k.k.k.k.k.k.k.k.k.k.k.k.k.k.k.k.k.k.k.k.k.k.k.k.k.k.k.k.k.k.k.k.k.k.k.k.k.k.k.k.k.k.k.k.k.k.k.k.k.k.k.k.k.k.k.k.k.k.k.k.k.k."
};