/* XPM */
static char *f9ac489ca9134fcea43a5d2bffbb25e0e4c0qtysrqg5Lk4M[] = {
/* columns rows colors chars-per-pixel */
"64 64 11 1 ",
"  c #222124",
". c #714333",
"X c #755338",
"o c #597D55",
"O c #82634B",
"+ c #CD9636",
"@ c #928263",
"# c #82BB73",
"$ c #E1BD7A",
"% c #4098E4",
"& c #4CCBD9",
/* pixels */
"###############################o#o##############################",
"################################o###############################",
"################################################################",
"################################################################",
"################################################################",
"################################################################",
"################################################################",
"################################################################",
"################################################################",
"################################################################",
"##########################################################o#o###",
"###########################################################o####",
"################################################################",
"################################################################",
"##########################           ###########################",
"########################  @@@@@@@@@@@  #########################",
"######################  O@@@@@@@@@@@@@O  #######################",
"####################  O .@@@@@@@@@@@@@. O  #####################",
"################### @OO .O@@@@@@@@@@@O. OO@ ####################",
"#######o#o######## @@@@O...............O@@@@ ###################",
"########o######### @@@@@O.............O@@@@@ ###################",
"###################  @@@@@@@@@@@@@@@@@@@@@  ####################",
"#####################   O@@@@@@@@@@@@@O   ######################",
"###################### +               + #######################",
"##################### $$$$$$$$$$$$$$$$$$$ ######################",
"##################### $$$$$$ $$$$$$ $$$$$ ######################",
"##################### +$$$$$ $$$$$$ $$$$+ ######################",
"##################### +$$$$$ $$$$$$ $$$$+ ######################",
"##################### +$$$$$ $$$$$$ $$$$+ ######################",
"##################### +$$$$$$$$$$$$$$$$$+ ######################",
"###################### +$$$$$$$$$$$$$$$+ #######################",
"####################### +$$$$$$$$$$$$$+ ########################",
"######################## +$$$$$$$$$$$+ #########################",
"#########################   +$$$$$+   ##########################",
"######################## &@@%&$$$&%@@& #########################",
"####################### &%&@@%&%&%@@&%& ########o#o#############",
"###################### &%& @@&%&%&@@ &%& ########o##############",
"##################### $$& # @@@@@@@ # &$$ ######################",
"##################### $+ ## O@@@@@O ## +$ ######################",
"#####################   ### O@@@@@O ###   ######################",
"########################### OOO@@@@ ############################",
"###########################         ############################",
"############################## X ###############################",
"############################## X ###############################",
"############################## X ###############################",
"############################## X ###############################",
"############################## X ###############################",
"############################## X ###############################",
"############################### ################################",
"################################################################",
"################################################################",
"################o#o#############################################",
"#################o##############################################",
"################################################################",
"################################################################",
"##########################################################o#o###",
"###########################################################o####",
"################################################################",
"################################################################",
"################################################################",
"################################################################",
"################################################################",
"################################################################",
"################################################################"
};
