/* XPM */
static char *result[] = {
/* columns rows colors chars-per-pixel */
"64 64 144 2 ",
"   c #020201",
".  c #0B0D0A",
"X  c #120D05",
"o  c #0F110F",
"O  c #151107",
"+  c #1A1304",
"@  c #11180F",
"#  c #1E1C0E",
"$  c #111311",
"%  c #141B13",
"&  c #181818",
"*  c #231C0B",
"=  c #192315",
"-  c #1B2718",
";  c #1E2918",
":  c #2E200B",
">  c #32230D",
",  c #2A2412",
"<  c #2C2A16",
"1  c #202F1C",
"2  c #362A12",
"3  c #342C18",
"4  c #3C331E",
"5  c #262625",
"6  c #2C2C2C",
"7  c #31222C",
"8  c #273923",
"9  c #2A3C25",
"0  c #3D3523",
"q  c #3B3C24",
"w  c #3B3B3B",
"e  c #562F21",
"r  c #413620",
"t  c #4C3F29",
"y  c #5A3325",
"u  c #442E3C",
"i  c #693327",
"p  c #693428",
"a  c #2E4229",
"s  c #334030",
"d  c #354E30",
"f  c #394D33",
"g  c #3D5533",
"h  c #4E4229",
"j  c #43453E",
"k  c #414A3F",
"l  c #5C4D35",
"z  c #445131",
"x  c #415A35",
"c  c #425A3C",
"v  c #744434",
"b  c #744C37",
"n  c #7A4837",
"m  c #7A4738",
"M  c #764C3A",
"N  c #65553D",
"B  c #73503C",
"V  c #7A523E",
"C  c #49643C",
"Z  c #333740",
"A  c #4E4B42",
"S  c #434548",
"D  c #474848",
"F  c #534E46",
"G  c #56544E",
"H  c #4E4F51",
"J  c gray32",
"K  c #5B5750",
"L  c #565B54",
"P  c #5A5C55",
"I  c #5D5D5D",
"U  c #6D5B43",
"Y  c #7C5642",
"T  c #7E5E48",
"R  c #615E56",
"E  c #486740",
"W  c #4C6D43",
"Q  c #507246",
"!  c #53774A",
"~  c #587D4D",
"^  c #597D55",
"/  c #6F6247",
"(  c #7A644A",
")  c #796B4F",
"_  c #7E6E52",
"`  c #676767",
"'  c #6D6961",
"]  c #6A6A6A",
"[  c #717171",
"{  c #7B7B7B",
"}  c #816C51",
"|  c #867657",
" . c #887055",
".. c #8D7458",
"X. c #8A7B5C",
"o. c #917A5D",
"O. c #927E60",
"+. c #59814E",
"@. c #5C8452",
"#. c #5F8854",
"$. c #608753",
"%. c #618A55",
"&. c #669259",
"*. c #69965D",
"=. c #6D9C5F",
"-. c #6D9D60",
";. c #72A364",
":. c #76AA69",
">. c #79AE6B",
",. c #7DB46E",
"<. c #7FB771",
"1. c #7FB871",
"2. c #938464",
"3. c #9C8365",
"4. c #9E8D6D",
"5. c #9F906F",
"6. c #A38D6C",
"7. c #A4906F",
"8. c #A59271",
"9. c #A89674",
"0. c #B29F7B",
"q. c #80B771",
"w. c #82BB73",
"e. c #838383",
"r. c #8A8A8A",
"t. c #9D9D9E",
"y. c #A5A5A5",
"u. c #ABABAB",
"i. c #AFB2B0",
"p. c #B6B6B6",
"a. c #BBBBBB",
"s. c #C397B5",
"d. c #C4C4C4",
"f. c #CCCCCC",
"g. c #D3D3D3",
"h. c #DCDCDC",
"j. c #E2E0D6",
"k. c #E6DBE2",
"l. c #E5E5E5",
"z. c #E8E8E7",
"x. c #EBEBEB",
"c. c #EFF0F0",
"v. c #F4F4F5",
"b. c #FCFCFC",
/* pixels */
"w.w.w.w.w.w.w.w.w.w.w.w.w.w.w.w.w.w.w.w.w.w.w.w.w.w.w.w.w.w.w.w.w.w.w.w.w.w.w.w.w.w.w.w.w.w.w.w.w.w.w.w.w.w.w.w.w.w.w.w.w.w.w.w.",
"w.w.w.w.w.w.w.w.w.w.w.w.w.w.w.w.w.w.w.w.w.w.w.w.w.w.w.w.w.w.w.w.w.w.w.w.w.w.w.w.w.w.w.w.w.w.w.w.w.w.w.w.w.w.w.w.w.w.w.w.w.w.w.w.",
"w.w.w.w.w.w.w.w.w.w.w.w.w.w.w.w.w.w.w.w.w.w.w.w.w.w.w.w.w.w.w.w.w.w.w.w.w.w.w.w.w.w.w.w.w.w.w.w.w.w.w.w.w.w.w.w.w.w.w.w.w.w.w.w.",
"w.w.w.w.w.w.w.w.w.w.w.w.w.w.w.w.w.w.w.w.w.w.w.w.w.w.w.w.w.w.w.w.w.w.w.w.w.w.w.w.w.w.w.w.w.w.w.w.w.w.w.w.w.w.w.w.w.w.w.w.w.w.w.w.",
"w.w.w.w.w.w.w.w.w.w.w.w.w.w.w.w.w.w.w.w.w.w.w.w.w.w.w.w.w.w.w.^ w.@.w.w.w.w.w.w.w.w.w.w.w.w.w.w.w.w.w.w.w.w.w.w.w.w.w.w.w.w.w.w.",
"w.w.w.w.w.w.w.w.w.w.w.w.w.w.w.w.w.w.w.w.w.w.w.w.w.w.w.w.w.w.w.w.^ w.w.w.w.w.w.w.w.w.w.w.w.w.w.w.w.w.w.w.w.w.w.w.w.w.w.w.w.w.w.w.",
"w.w.w.w.w.w.w.w.w.w.w.w.w.w.w.w.w.w.w.w.w.w.w.w.w.w.w.w.w.w.w.w.w.w.w.w.w.w.w.w.w.w.w.w.w.w.w.w.w.w.w.w.w.w.w.w.w.w.w.w.w.w.w.w.",
"w.w.w.w.w.w.w.w.w.w.w.w.w.w.w.w.w.w.w.w.w.w.w.w.w.w.w.w.w.w.w.w.w.w.w.w.w.w.w.w.w.w.w.w.w.w.w.w.w.w.w.w.w.w.w.w.w.w.w.w.w.w.w.w.",
"w.w.w.w.w.w.w.w.w.w.w.w.w.w.w.w.w.w.w.w.w.w.w.w.w.w.w.w.w.w.w.w.w.w.w.w.w.w.w.w.w.w.w.w.w.w.w.w.w.w.w.w.w.w.w.w.w.w.w.w.w.w.w.w.",
"w.w.w.w.w.w.w.w.w.w.w.w.w.w.w.w.w.w.w.w.w.w.w.w.w.w.w.w.w.w.w.w.w.w.w.w.w.w.w.w.w.w.w.w.w.w.w.w.w.w.w.w.w.w.w.w.w.w.w.w.w.w.w.w.",
"w.w.w.w.w.w.w.w.w.w.w.w.w.w.w.w.w.w.w.w.w.w.w.w.w.w.w.w.w.w.w.@.. o @.w.w.w.w.w.w.w.w.w.w.w.w.w.w.w.w.w.w.w.w.w.w.w.w.w.w.w.w.w.",
"w.w.w.w.w.w.w.w.w.w.w.w.w.w.w.w.w.w.w.w.w.w.w.w.w.w.w.w.w.w.! k u.u.S ! w.w.w.w.w.w.w.w.w.w.w.w.w.w.w.w.w.w.w.w.w.w.w.w.w.w.w.w.",
"w.w.w.w.w.w.w.w.w.w.w.w.w.w.w.w.w.w.w.w.w.w.w.w.w.w.<.w.w.w.a I b.b.I a w.w.w.1.w.w.w.w.w.w.w.w.w.w.w.w.w.w.w.w.w.w.w.w.w.w.w.w.",
"w.w.w.w.w.w.w.w.w.w.w.w.w.w.w.w.w.w.w.w.w.w.w.w.w.w.w.,.&.-.9 J v.v.J 9 -.*.<.w.w.w.w.w.w.w.w.w.w.w.w.w.w.w.w.w.w.w.w.w.w.w.w.w.",
"w.w.w.w.w.w.w.w.w.w.w.w.w.w.w.w.w.w.w.w.w.w.w.w.w.<.w.#., <   H v.v.J   < , $.w.<.w.1.w.w.w.w.w.w.w.w.w.w.w.w.w.w.w.^ w.@.w.w.w.",
"w.w.w.w.w.w.w.w.w.w.w.w.w.w.w.w.w.w.w.w.w.<.w.w.w.x ; q _ | X S v.v.D X | _ q ; x w.w.w.1.w.w.w.w.w.w.w.w.w.w.w.w.w.w.^ w.w.w.w.",
"w.w.w.w.w.w.w.w.w.w.w.w.w.w.w.w.w.w.q.w.w.w.-.g C t l ) 8.0.O Z b.b.Z O 0.6.) N h C g *.w.w.w.w.w.w.w.w.w.w.w.w.w.w.w.w.w.w.w.w.",
"w.w.w.w.w.w.w.w.w.w.w.w.w.w.w.w.w.w.w.q.%.-.z r , M O.8.2.4.0 G j.j.G 0 4.2.4.O.B , 4 z -.%.q.w.w.w.w.w.w.w.w.w.w.w.w.w.w.w.w.w.",
"w.w.w.w.w.w.w.w.w.w.w.w.w.w.w.w.w.w.w.&.< # N ( * y Y  .O.O.2.2.2.X.2.o.2.O. .Y y * ( N * < %.w.w.w.w.w.w.w.w.w.w.w.w.w.w.w.w.w.",
"w.w.w.w.w.w.w.w.w.w.w.w.w.w.w.w.w.w.^ q _ ( ..U X e m b Y M Y V b b V Y M V M n e + U ..( _ q ~ w.w.w.w.w.w.w.w.w.w.w.w.w.w.w.w.",
"w.w.w.w.w.w.w.w.w.w.w.w.w.w.w.w.w.w.g h 8.8.3._ N M v i p p p p p p p p p p p v B l ) 3.8.9.h g w.w.w.w.w.w.w.w.w.w.w.w.w.w.w.w.",
"w.w.w.w.w.w.w.w.w.w.w.w.w.w.w.w.w.w.#.q / 2.4.5.9.O.T Y Y Y Y Y Y Y Y Y Y Y Y T o.6.4.4.2./ q #.w.w.w.w.w.w.w.w.w.w.w.w.w.w.w.w.",
"w.w.w.w.w.w.w.w.w.w.w.w.w.w.w.w.w.1.w.-.< / 2.X.X.O.2.2.2.2.2.2.2.2.2.2.2.2.2.2.2.X.X.2./ < -.w.w.w.w.w.w.w.w.w.w.w.w.w.w.w.w.w.",
"w.w.w.w.w.w.w.@.w.@.w.w.w.w.w.w.w.w.w.w.-.q r 3 0 } 8.5.5.5.4.6.5.4.4.7.4.4.8.6.} 4 3 r q -.w.w.w.w.w.w.w.w.w.w.w.w.w.w.w.w.w.w.",
"w.w.w.w.w.w.w.w.^ w.w.w.w.w.w.w.w.w.1.w.w.%.Q g * : 2 2 2 2 2 2 2 2 2 2 2 2 3 2 > * x Q $.w.w.<.w.w.w.w.w.w.w.w.w.w.w.w.w.w.w.w.",
"w.w.w.w.w.w.w.w.w.w.w.w.w.w.w.w.w.w.w.w.w.w.w.=.# A R R ' P G K K K K K K K F G j # =.w.w.w.w.w.w.w.w.w.w.w.w.w.w.w.w.w.w.w.w.w.",
"w.w.w.w.w.w.w.w.w.w.w.w.w.w.w.w.w.w.w.w.w.w.w.%.$ d.b.x.h.c.v.v.v.v.v.v.v.v.z.c.u.o %.w.w.w.w.w.w.w.w.w.w.w.w.w.w.w.w.w.w.w.w.w.",
"w.w.w.w.w.w.w.w.w.w.w.w.w.w.w.w.w.w.w.w.w.w.w.%.$ p.b.y.5 d.b.x.x.x.x.x.x.x.z.v.y.$ #.w.w.w.w.w.w.w.w.w.w.w.w.w.w.w.w.w.w.w.w.w.",
"w.w.w.w.w.w.w.w.w.w.w.w.w.w.w.w.w.w.w.w.w.1.w.;.. i.b.r.  p.b.l.l.z.z.z.z.z.x.v.t.$ #.w.w.w.w.w.w.w.w.w.w.w.w.w.w.w.w.w.w.w.w.w.",
"w.w.w.w.w.w.w.w.w.w.w.w.w.w.w.w.w.w.w.w.w.w.;.f u d.b.r.  p.b.z.z.z.z.z.z.z.l.x.t.o %.w.w.w.w.w.w.w.w.w.w.w.w.w.w.w.w.w.w.w.w.w.",
"w.w.w.w.w.w.w.w.w.w.w.w.w.w.w.w.w.w.w.w.w.w.f 7 s.k.b.t.6 d.v.z.l.z.z.z.l.h.f.l.u.o %.w.w.w.w.w.w.w.w.w.w.w.w.w.w.w.w.w.w.w.w.w.",
"w.w.w.w.w.w.w.w.w.w.w.w.w.w.w.w.w.w.w.w.w.w.g Z l.x.x.l.g.l.z.z.l.z.z.l.h.g.f.z.u.$ #.w.w.w.w.w.w.w.w.w.w.w.w.w.w.w.w.w.w.w.w.w.",
"w.w.w.w.w.w.w.w.w.w.w.w.w.w.w.w.w.w.w.w.w.w.d D b.v.l.x.v.x.z.z.l.l.z.h.g.f.v.y.5 ~ ,.w.w.w.w.w.w.w.w.w.w.w.w.w.w.w.w.w.w.w.w.w.",
"w.w.w.w.w.w.w.w.w.w.w.w.w.w.w.w.w.w.w.w.w.w.*.s e.z.b.b.v.v.l.h.h.g.h.h.l.z.y.6 ~ w.w.1.w.w.w.w.w.w.w.w.w.w.w.w.w.w.w.w.w.w.w.w.",
"w.w.w.w.w.w.w.w.w.w.w.w.w.w.w.w.w.w.w.w.w.w.w.;.- r.f.i.t.t.p.f.d.d.f.p.y.y.5 ~ w.w.w.w.w.w.w.w.w.w.w.w.w.w.w.w.w.w.w.w.w.w.w.w.",
"w.w.w.w.w.w.w.w.w.w.w.w.w.w.w.w.w.w.w.w.w.w.q.w.:.1 $ $ o   [ g.a.a.g.[ . $ ~ 1.1.w.w.w.w.w.w.w.w.w.w.w.w.w.w.w.w.w.w.w.w.w.w.w.",
"w.w.w.w.w.w.w.w.w.w.w.w.w.w.w.w.w.w.w.w.w.w.w.w.w.*.~ -.*.% ` c.f.g.v.] @ &.w.w.w.w.w.w.w.w.w.w.w.w.w.w.w.w.w.w.w.w.w.w.w.w.w.w.",
"w.w.w.w.w.w.w.w.w.w.w.w.w.w.w.w.w.w.w.w.w.w.w.w.w.w.w.<.W L a.x.h.l.v.d.L E w.-.E w.w.<.w.w.w.w.w.w.w.w.w.w.w.w.w.w.w.w.w.w.w.w.",
"w.w.w.w.w.w.w.w.w.w.w.w.w.w.w.w.w.w.w.w.w.w.w.w.w.w.w.! & h.b.h.z.z.l.b.z.H W c w @.1.w.w.w.w.w.w.w.w.w.w.w.w.w.w.w.w.w.w.w.w.w.",
"w.w.w.w.w.w.w.w.w.w.w.w.w.w.w.w.w.w.w.w.w.w.w.w.w.w.w.@.& a.v.l.z.z.z.z.x.x.6 ] h.& #.w.w.w.w.w.^ w.^ w.w.w.w.w.w.w.w.w.w.w.w.w.",
"w.w.w.w.w.w.w.w.w.w.w.w.w.w.w.w.w.w.w.w.w.w.w.w.w.1.w.&.& a.b.l.z.l.z.h.k.v.6 ` h.$ ^ 1.w.w.w.w.w.@.w.w.w.w.w.w.w.w.w.w.w.w.w.w.",
"w.w.w.w.w.w.w.w.w.w.w.w.w.w.w.w.w.w.w.w.w.w.w.w.w.w.=.; & g.b.l.l.z.x.h.k.c.5 . L E :.w.w.w.w.w.w.w.w.w.w.w.w.w.w.w.w.w.w.w.w.w.",
"w.w.w.w.w.w.w.w.w.w.w.w.w.w.w.w.w.w.w.w.w.w.w.w.,.-.=   o { h.b.v.b.b.x.k.x.e.. 1 w.w.1.w.w.w.w.w.w.w.w.w.w.w.w.w.w.w.w.w.w.w.w.",
"w.w.w.w.w.w.w.w.w.w.w.w.w.w.w.w.w.w.w.w.w.w.w.w.,.%         { x.g.g.g.h.x.x.b.;.- >.w.w.w.w.w.w.w.w.w.w.w.w.w.w.w.w.w.w.w.w.w.w.",
"w.w.w.w.w.w.w.w.w.w.w.w.w.w.w.w.w.w.w.w.w.w.w.w.>.$         % 8 5 5 o { b.b.b.r.$ >.w.w.w.w.w.w.w.w.w.w.w.w.w.w.w.w.w.w.w.w.w.w.",
"w.w.w.w.w.w.w.w.w.w.w.w.w.w.w.w.w.w.w.w.w.w.w.w.1.&.%       8 +.W Q @.f ] I ] D &.1.w.w.w.w.w.w.w.w.w.w.w.w.w.w.w.w.w.w.w.w.w.w.",
"w.w.w.w.w.w.w.w.w.w.w.w.w.w.w.w.w.w.w.w.w.w.w.1.w.w.%.8 d 9 -.w.w.w.w.-.9 s 8 %.w.1.w.w.w.w.w.w.w.w.w.w.w.w.w.w.w.w.w.w.w.w.w.w.",
"w.w.w.w.w.w.w.w.w.w.w.w.w.w.w.w.w.w.w.w.w.w.w.w.w.q.w.1.w.1.w.w.w.w.1.w.w.w.1.w.1.w.w.w.w.w.w.w.w.w.w.w.w.w.w.w.w.w.w.w.w.w.w.w.",
"w.w.w.w.w.w.w.w.w.w.w.w.w.w.w.w.w.w.w.w.w.w.w.w.w.w.w.w.w.w.w.w.w.w.w.w.w.w.w.w.w.w.w.w.w.w.w.w.w.w.w.w.w.w.w.w.w.w.w.w.w.w.w.w.",
"w.w.w.w.w.w.w.w.w.w.w.w.w.w.w.w.w.w.w.w.w.w.w.w.w.w.w.w.w.w.w.w.w.w.w.w.w.w.w.w.w.w.w.w.w.w.w.w.w.w.w.w.w.w.w.w.w.w.w.w.w.w.w.w.",
"w.w.w.w.w.w.w.w.w.w.w.w.w.w.w.w.w.w.w.w.w.w.w.w.w.w.w.w.w.w.w.w.w.w.w.w.w.w.w.w.w.w.w.w.w.w.w.w.w.w.w.w.w.w.w.w.w.w.w.w.w.w.w.w.",
"w.w.w.w.w.w.w.w.w.w.w.w.w.w.w.w.w.w.w.w.w.w.w.w.w.w.w.w.w.w.w.w.w.w.w.w.w.w.w.w.w.w.w.w.w.w.w.w.w.w.w.w.w.w.w.w.w.w.w.w.w.w.w.w.",
"w.w.w.w.w.w.w.w.w.w.w.w.w.w.w.w.w.w.w.w.w.w.w.w.w.w.w.w.w.w.w.w.w.w.w.w.w.w.w.w.w.w.w.w.w.w.w.w.w.w.w.w.w.w.w.w.w.w.w.w.w.w.w.w.",
"w.w.w.w.w.w.w.w.w.w.w.w.w.w.w.w.w.w.w.w.w.w.w.w.w.w.w.w.w.w.w.w.w.w.w.w.w.w.w.w.w.w.w.w.w.w.w.w.w.w.w.w.w.w.w.w.w.w.w.w.w.w.w.w.",
"w.w.w.w.w.w.w.w.w.w.w.w.w.w.w.w.w.w.w.w.w.w.w.w.w.w.w.w.w.w.w.w.w.w.w.w.w.w.w.w.w.w.w.w.w.w.w.w.w.w.w.w.w.w.w.w.w.w.w.w.w.w.w.w.",
"w.w.w.w.w.w.w.w.w.w.w.w.w.w.w.w.+.w.+.w.w.w.w.w.w.w.w.w.w.w.w.w.w.w.w.w.w.w.w.w.w.w.w.w.w.w.w.w.w.w.w.w.w.w.w.w.w.w.w.w.w.w.w.w.",
"w.w.w.w.w.w.w.w.w.w.w.w.w.w.w.w.w.#.w.w.w.w.w.w.w.w.w.w.w.w.w.w.w.w.w.w.w.w.w.w.w.w.w.w.w.w.w.w.w.w.w.w.w.w.w.w.w.w.w.w.w.w.w.w.",
"w.w.w.w.w.w.w.w.w.w.w.w.w.w.w.w.w.w.w.w.w.w.w.w.w.w.w.w.w.w.w.w.w.w.w.w.w.w.w.w.w.w.w.w.w.w.w.w.w.w.w.w.w.w.w.w.w.w.w.w.w.w.w.w.",
"w.w.w.w.w.w.w.w.w.w.w.w.w.w.w.w.w.w.w.w.w.w.w.w.w.w.w.w.w.w.w.w.w.w.w.w.w.w.w.w.w.w.w.w.w.w.w.w.w.w.w.w.w.w.w.w.w.w.w.w.w.w.w.w.",
"w.w.w.w.w.w.w.w.w.w.w.w.w.w.w.w.w.w.w.w.w.w.w.w.w.w.w.w.w.w.w.w.w.w.w.w.w.w.w.w.w.w.w.w.w.w.w.w.w.w.w.w.w.w.w.w.w.w.^ w.@.w.w.w.",
"w.w.w.w.w.w.w.w.w.w.w.w.w.w.w.w.w.w.w.w.w.w.w.w.w.w.w.w.w.t.w.w.w.w.w.w.w.w.w.w.w.w.w.w.w.w.w.w.w.w.w.w.w.w.w.w.w.w.w.^ w.w.w.w.",
"w.w.w.w.w.w.w.w.w.w.w.w.w.w.w.w.w.w.w.w.w.w.w.w.w.w.w.w.w.w.w.w.w.w.w.w.w.w.w.w.w.w.w.w.w.w.w.w.w.w.w.w.w.w.w.w.w.w.w.w.w.w.w.w.",
"w.w.w.w.w.w.w.w.w.w.w.w.w.w.w.w.w.w.w.w.w.w.w.w.w.w.w.w.w.w.w.w.w.w.w.w.w.w.w.w.w.w.w.w.w.w.w.w.w.w.w.w.w.w.w.w.w.w.w.w.w.w.w.w.",
"w.w.w.w.w.w.w.w.w.w.w.w.w.w.w.w.w.w.w.w.w.w.w.w.w.w.w.w.w.w.w.w.w.w.w.w.w.w.w.w.w.w.w.w.w.w.w.w.w.w.w.w.w.w.w.w.w.w.w.w.w.w.w.w."
};
