/* XPM */
static char *result[] = {
/* columns rows colors chars-per-pixel */
"64 64 180 2 ",
"   c #150E06",
".  c #1E1B0A",
"X  c #141513",
"o  c #171A15",
"O  c #161518",
"+  c #1D1F1D",
"@  c #271E0B",
"#  c #1E231D",
"$  c #2D2511",
"%  c #242916",
"&  c #362514",
"*  c #3E2D16",
"=  c #38291F",
"-  c #25331F",
";  c #2D331C",
":  c #3E341F",
">  c #1F1E22",
",  c #1F2121",
"<  c #222622",
"1  c #232A22",
"2  c #2C2826",
"3  c #2B2A2C",
"4  c #253521",
"5  c #2A3727",
"6  c #2C3D24",
"7  c #2B342A",
"8  c #3B3825",
"9  c #333335",
"0  c #3B3A3B",
"q  c #4B2619",
"w  c #44361D",
"e  c #443521",
"r  c #453A21",
"t  c #6B3729",
"y  c #38462D",
"u  c #344233",
"i  c #3C4B3A",
"p  c #3A5333",
"a  c #3E5836",
"s  c #3E5339",
"d  c #3F5B38",
"f  c #4E452D",
"g  c #52462B",
"h  c #474837",
"j  c #4C493F",
"k  c #544734",
"l  c #5A4E36",
"z  c #415734",
"x  c #405D39",
"c  c #64402E",
"v  c #654937",
"b  c #734535",
"n  c #744837",
"m  c #744C3A",
"M  c #61533A",
"N  c #6C573D",
"B  c #7A573E",
"V  c #46643E",
"C  c #4A683E",
"Z  c #403F41",
"A  c #444246",
"S  c #4D4A40",
"D  c #464749",
"F  c #524E44",
"G  c #465145",
"H  c #565349",
"J  c #4F5156",
"K  c #545456",
"L  c #565659",
"P  c #5D5C5F",
"I  c #795642",
"U  c #7C5D43",
"Y  c #4A6543",
"T  c #4B6B42",
"R  c #527346",
"E  c #54754B",
"W  c #55794B",
"Q  c #597D4E",
"!  c #597D55",
"~  c #6D6145",
"^  c #786348",
"/  c #7D725F",
"(  c #5B5E66",
")  c #626165",
"_  c #6E6D67",
"`  c #66656A",
"'  c #68676A",
"]  c #6B6B6D",
"[  c #6D706C",
"{  c #777065",
"}  c #706D70",
"|  c #707071",
" . c #777A77",
".. c #7B7C7E",
"X. c #85513E",
"o. c #845C43",
"O. c #81634C",
"+. c #887256",
"@. c #86765B",
"#. c #8C7659",
"$. c #8E7A5D",
"%. c #92795B",
"&. c #8D7F62",
"*. c #5D8552",
"=. c #648F58",
"-. c #65925A",
";. c #6B9A5E",
":. c #6E9166",
">. c #6E9E61",
",. c #72A465",
"<. c #75A867",
"1. c #76AA69",
"2. c #79AD6B",
"3. c #7DB36E",
"4. c #7FB771",
"5. c #7FB871",
"6. c #948464",
"7. c #998365",
"8. c #968A69",
"9. c #9B8B6A",
"0. c #9D906C",
"q. c #9D8F77",
"w. c #9B9278",
"e. c #A08A6B",
"r. c #A1906F",
"t. c #A39472",
"y. c #AC9976",
"u. c #AF9B78",
"i. c #81A07A",
"p. c #80B771",
"a. c #82BB73",
"s. c #828284",
"d. c #8A8685",
"f. c #8D8D8E",
"g. c #839480",
"h. c #8E8C94",
"j. c #908F97",
"k. c #939394",
"l. c #989397",
"z. c #95949B",
"x. c #9B9B9B",
"c. c #AEA88B",
"v. c #B3AD94",
"b. c #9D9CA3",
"n. c #AF88A2",
"m. c #B596AB",
"M. c #A4A4A5",
"N. c #A6A6AC",
"B. c #A9A7A9",
"V. c #ABAAAD",
"C. c #BBB1A0",
"Z. c #ACAEB5",
"A. c #B2AEB2",
"S. c #AFB1B4",
"D. c #B3B3B4",
"F. c #BDBDBE",
"G. c #C6C8C8",
"H. c #C9C9CA",
"J. c #CECDD4",
"K. c #D7CAD3",
"L. c #D4D4D4",
"P. c #D5D5DC",
"I. c #DED3DA",
"U. c #D7DAD9",
"Y. c #DBDBDB",
"T. c #DCE3DF",
"R. c #DCDBE2",
"E. c #E6E6E6",
"W. c #E9E9E7",
"Q. c #E6E6EB",
"!. c #EAE6EA",
"~. c #EBEBEB",
"^. c #EEF1EF",
"/. c #ECEBF2",
"(. c #F5E6F1",
"). c #F6ECF4",
"_. c #F3F3F3",
"`. c #F6F6FB",
"'. c #FAF4F8",
"]. c #FDFDFD",
/* pixels */
"a.a.a.a.a.a.a.a.a.a.a.a.a.a.a.a.a.a.a.a.a.a.a.a.a.a.a.a.a.a.a.a.a.a.a.a.a.a.a.a.a.a.a.a.a.a.a.a.a.a.a.a.a.a.a.a.a.a.a.a.a.a.a.a.",
"a.a.a.a.a.a.a.a.a.a.a.a.a.a.a.a.a.a.a.a.a.a.a.a.a.a.a.a.a.a.a.a.a.a.a.a.a.a.a.a.a.a.a.a.a.a.a.a.a.a.a.a.a.a.a.a.a.a.a.a.a.a.a.a.",
"a.a.a.a.a.a.a.a.a.a.a.a.a.a.a.a.a.a.a.a.a.a.a.a.a.a.a.a.a.a.a.a.a.a.a.a.a.a.a.a.a.a.a.a.a.a.a.a.a.a.a.a.a.a.a.a.a.a.a.a.a.a.a.a.",
"a.a.a.a.a.a.a.a.a.a.a.a.a.a.a.a.a.a.a.a.a.a.a.a.a.a.a.a.a.a.a.a.a.a.a.a.a.a.a.a.a.a.a.a.a.a.a.a.a.a.a.a.a.a.a.a.a.a.a.a.a.a.a.a.",
"a.a.a.a.a.a.a.a.a.a.a.a.a.a.a.a.a.a.a.a.a.a.a.a.a.a.a.a.a.a.a.*.a.! a.a.a.a.a.a.a.a.a.a.a.a.a.a.a.a.a.a.a.a.a.a.a.a.a.a.a.a.a.a.",
"a.a.a.a.a.a.a.a.a.a.a.a.a.a.a.a.a.a.a.a.a.a.a.a.a.a.a.a.a.a.a.a.! a.a.a.a.a.a.a.a.a.a.a.a.a.a.a.a.a.a.a.a.a.a.a.a.a.a.a.a.a.a.a.",
"a.a.a.a.a.a.a.a.a.a.a.a.a.a.a.a.a.a.a.a.a.a.a.a.a.a.a.a.a.a.a.a.a.a.a.a.a.a.a.a.a.a.a.a.a.a.a.a.a.a.a.a.a.a.a.a.a.a.a.a.a.a.a.a.",
"a.a.a.a.a.a.a.a.a.a.a.a.a.a.a.a.a.a.a.a.a.a.a.a.a.a.a.a.a.a.a.a.a.a.a.a.a.a.a.a.a.a.a.a.a.a.a.a.a.a.a.a.a.a.a.a.a.a.a.a.a.a.a.a.",
"a.a.a.a.a.a.a.a.a.a.a.a.a.a.a.a.a.a.a.a.a.a.a.a.a.a.a.a.a.a.a.a.a.a.a.a.a.a.a.a.a.a.a.a.a.a.a.a.a.a.a.a.a.a.a.a.a.a.a.a.a.a.a.a.",
"a.a.a.a.a.a.a.a.a.a.a.a.a.a.a.a.a.a.a.a.a.a.a.a.a.a.a.a.a.a.a.a.a.a.a.a.a.a.a.a.a.a.a.a.a.a.a.a.a.a.a.a.a.a.a.a.a.a.a.a.a.a.a.a.",
"a.a.a.a.a.a.a.a.a.a.a.a.a.a.a.a.a.a.a.a.a.a.a.a.a.a.a.a.a.a.a.a.a.a.a.a.a.a.a.a.a.a.a.a.a.a.a.a.a.a.a.a.a.a.a.a.a.a.a.a.a.a.a.a.",
"a.a.a.a.a.a.a.a.a.a.a.a.a.a.a.a.a.a.a.a.a.a.a.a.a.5.a.a.a.a.a.a.a.a.a.a.a.a.a.a.a.a.a.a.a.a.a.a.a.a.a.a.a.a.a.a.a.a.a.a.a.a.a.a.",
"a.a.a.a.a.a.a.a.a.a.a.a.a.a.a.a.a.a.a.a.a.a.a.5.a.a.;.E ;.a.a.4.a.4.*.W 3.5.5.a.a.a.a.a.a.a.a.a.a.a.a.a.a.a.a.a.a.a.a.a.a.a.a.a.",
"a.a.a.a.a.a.a.a.a.a.a.a.a.a.a.a.a.a.a.a.a.a.a.a.a.2.i A h 1.4.a.a.! 0 0 W 5.5.a.a.a.a.a.a.a.a.a.a.a.a.a.a.a.a.a.a.a.a.a.a.a.a.a.",
"a.a.a.a.a.a.a.a.a.a.a.a.a.a.a.a.a.a.a.a.a.a.a.a.1.5 x._.M.7 ,.a.T K Y.E.P T a.a.a.a.a.a.a.a.a.a.a.a.a.a.a.a.a.a.a.a.! a.*.a.a.a.",
"a.a.a.a.a.a.a.a.a.a.a.a.a.a.a.a.a.a.a.a.a.a.a.a.<.# D.].F.< 2.a.T ) `.'.] p a.a.a.a.a.a.a.a.a.a.a.a.a.a.a.a.a.a.a.a.a.! a.a.a.a.",
"a.a.a.a.a.a.a.a.a.a.a.a.a.a.a.a.a.a.a.a.a.a.a.a.4.1 B.].D.# p R - P ^._.' C a.5.a.a.a.a.a.a.a.a.a.a.a.a.a.a.a.a.a.a.a.a.a.a.a.a.",
"a.a.a.a.a.a.a.a.a.a.a.a.a.a.a.a.a.a.a.a.a.a.a.a.W + B.].S.O 8 g . K _.`.' 4 1.a.a.a.p.a.a.a.a.a.a.a.a.a.a.a.a.a.a.a.a.a.a.a.a.a.",
"a.a.a.a.a.a.a.a.a.a.a.a.a.a.a.a.a.a.a.a.a.2.2.! $ X V.].B.2 @.y.h K ~._.(   : 1.<.p.a.a.a.a.a.a.a.a.a.a.a.a.a.a.a.a.a.a.a.a.a.a.",
"a.a.a.a.a.a.a.a.a.a.a.a.a.a.a.a.a.a.a.a.a.z . r I o Z.W.q.@.6.6.@.&.C._.( = N % $ =.a.a.p.a.a.a.a.a.a.a.a.a.a.a.a.a.a.a.a.a.a.a.",
"a.a.a.a.a.a.a.a.a.a.a.a.a.a.a.a.5.a.<.6 6 l g & B v w.c.9.0.8.8.9.0.0.v.{ m c $ N y ; C a.a.p.a.a.a.a.a.a.a.a.a.a.a.a.a.a.a.a.a.",
"a.a.a.a.a.a.a.a.a.a.a.a.a.a.a.a.a.;.h M k %.l   b X.U I O.O.O.O.O.O.^ I o.X.q @ +.~ l f R 3.a.a.a.a.a.a.a.a.a.a.a.a.a.a.a.a.a.a.",
"a.a.a.a.a.a.a.a.a.a.a.a.a.a.a.a.a.p k y.e.7.M e n b t t t t t t t t t t t b c r / 7.u.#.@ ;.a.a.a.a.a.a.a.a.a.a.a.a.a.a.a.a.a.a.",
"a.a.a.a.a.a.a.*.a.*.a.a.a.a.a.a.a.C r &.7.7.&.%.O.m b n n n n b n n n n b B #.9.6.6.9.~ ; ,.a.a.a.a.a.a.a.a.a.a.a.a.a.a.a.a.a.a.",
"a.a.a.a.a.a.a.a.! a.a.a.a.a.a.a.a.a.R : 6.0.8.9.6.%.$.$.$.$.$.$.$.$.$.$.$.$.6.9.9.t.~ ; 1.a.a.a.a.a.a.a.a.a.a.a.a.a.a.a.a.a.a.a.",
"a.a.a.a.a.a.a.a.a.a.a.a.a.a.a.a.a.a.a.R : f $ w 9.r.t.r.t.t.t.t.t.t.t.t.t.y.^ @ 8 k y <.a.a.a.a.a.a.a.a.a.a.a.a.a.a.a.a.a.a.a.a.",
"a.a.a.a.a.a.a.a.a.a.a.a.a.a.a.a.a.a.a.a.*.# 0 { w w w w r r r r w r w r r * l _   5 2.a.p.a.a.a.a.a.a.a.a.a.a.a.a.a.a.a.a.a.a.a.",
"a.a.a.a.a.a.a.a.a.a.a.a.a.a.a.a.a.a.a.a.<.G H.E.h j j H H j j S S S F H F 8 d.]...E 4.a.a.a.a.a.a.a.a.a.a.a.a.a.a.a.a.a.a.a.a.a.",
"a.a.a.a.a.a.a.a.a.a.a.a.a.a.a.a.a.a.a.<.# S.].Q.~.^._.E.E.~._._.^._./.E.~._.~.~.`.` p a.a.a.a.a.a.a.a.a.a.a.a.a.a.a.a.a.a.a.a.a.",
"a.a.a.a.a.a.a.a.a.a.a.a.a.a.a.a.a.a.a.<.# V.].E.~.~.].s.L _.~.~.~._.Y.D M.].~.~.`.` s a.a.a.a.a.a.a.a.a.a.a.a.a.a.a.a.a.a.a.a.a.",
"a.a.a.a.a.a.a.a.a.a.a.a.a.a.a.a.a.a.a.<.1 b.`.Q.W.E.].] 9 _.~.E.E._.L., k.].E.E./.) x a.a.a.a.a.a.a.a.a.a.a.a.a.a.a.a.a.a.a.a.a.",
"a.a.a.a.a.a.a.a.a.a.a.a.a.a.a.a.a.a.a.<.% b.`.Q.W.E.].` 3 ~.~.^.~._.L.O f.].!.E.Q.) x a.a.a.a.a.a.a.a.a.a.a.a.a.a.a.a.a.a.a.a.a.",
"a.a.a.a.a.a.a.a.a.a.a.a.a.a.a.a.a.a.a.1., N.`.~.!.W.].l.} ^.`.K.I.].Y.) A.'.W.~._.` p 5.a.a.a.a.a.a.a.a.a.a.a.a.a.a.a.a.a.a.a.a.",
"a.a.a.a.a.a.a.a.a.a.a.a.a.a.a.a.a.a.a.1.7 h.~.~.E.!.!.)._.E.U.n.m.T.~.'.(.!.~.E.P.L V 5.a.a.a.a.a.a.a.a.a.a.a.a.a.a.a.a.a.a.a.a.",
"a.a.a.a.a.a.a.a.a.a.a.a.a.a.a.a.a.a.a.a.1.5 k.`.E.E.!.(.'.L.9 A.d.D ~.).(.!._.P.9 T p.a.a.a.a.a.a.a.a.a.a.a.a.a.a.a.a.a.a.a.a.a.",
"a.a.a.a.a.a.a.a.a.a.a.a.a.a.a.a.a.a.a.a.a.2.u z.].].].'.!.T.x.U.G.M.~.].].].L.9 V a.a.a.a.a.a.a.a.a.a.a.a.a.a.a.a.a.a.a.a.a.a.a.",
"a.a.a.a.a.a.a.a.a.a.a.a.a.a.a.a.a.a.a.a.a.a.;.T i. .( M._.!.].~._.].U.s.] g.:.Y 5.a.5.a.a.a.a.a.a.a.a.a.a.a.a.a.a.a.a.a.a.a.a.a.",
"a.a.a.a.a.a.a.a.a.a.a.a.a.a.a.a.a.a.a.a.a.5.a.a.=.h 9 f.].W.E.E.W./.U.J Z s 5.5.a.4.a.a.a.a.a.a.a.a.a.a.a.a.a.a.a.a.a.a.a.a.a.a.",
"a.a.a.a.a.a.a.a.a.a.a.a.a.a.a.a.a.a.a.a.a.a.a.*.9 L.`.~.E.E.~.E.E.E.E.^.].k.# 5.a.a.a.a.a.a.a.a.a.a.a.a.a.a.a.a.a.a.a.a.a.a.a.a.",
"a.a.a.a.a.a.a.a.a.a.a.a.a.a.a.a.a.a.a.a.a.5.a.-.3 L.).R.E.E.E.E.W.Q.E.Y.].f.4 a.a.a.a.a.a.a.a.a.! a.! a.a.a.a.a.a.a.a.a.a.a.a.a.",
"a.a.a.a.a.a.a.a.a.a.a.a.a.a.a.a.a.a.a.a.a.a.*.G D.E.R.Y.~.E.E.E.E.E.E.P.~.Y...s 1.a.a.a.a.a.a.a.a.*.a.a.a.a.a.a.a.a.a.a.a.a.a.a.",
"a.a.a.a.a.a.a.a.a.a.a.a.a.a.a.a.a.a.a.a.a.a.a ' ].^.P.R.~.E.E.E.W.W.E.R.R.].H., >.a.a.a.a.a.a.a.a.a.a.a.a.a.a.a.a.a.a.a.a.a.a.a.",
"a.a.a.a.a.a.a.a.a.a.a.a.a.a.a.a.a.a.a.a.a.a.x ) _.`.R.R.E.E.E.E.E.E.E.P.Q.].F.> ,.a.a.a.a.a.a.a.a.a.a.a.a.a.a.a.a.a.a.a.a.a.a.a.",
"a.a.a.a.a.a.a.a.a.a.a.a.a.a.a.a.a.a.a.a.a.a.T L R.U.L.R.~.~.~.~.~.E.E.R.L.E.M.7 ,.a.a.a.a.a.a.a.a.a.a.a.a.a.a.a.a.a.a.a.a.a.a.a.",
"a.a.a.a.a.a.a.a.a.a.a.a.a.a.a.a.a.a.a.a.a.a.p.Q 0 3 V.].~._._._._._.~._.| 3 i 1.a.a.a.a.a.a.a.a.a.a.a.a.a.a.a.a.a.a.a.a.a.a.a.a.",
"a.a.a.a.a.a.a.a.a.a.a.a.a.a.a.a.a.a.a.a.a.a.a.a.R X M.].J.P ) ` K f.`._.P - ,.a.a.a.a.a.a.a.a.a.a.a.a.a.a.a.a.a.a.a.a.a.a.a.a.a.",
"a.a.a.a.a.a.a.a.a.a.a.a.a.a.a.a.a.a.a.a.a.a.4.a.4.1 H.~.J V d d Y i j.]. .V a.a.a.a.a.a.a.a.a.a.a.a.a.a.a.a.a.a.a.a.a.a.a.a.a.a.",
"a.a.a.a.a.a.a.a.a.a.a.a.a.a.a.a.a.a.a.a.a.a.a.a.1.1 z.[ T 5.a.a.5.<.u x.P d a.a.a.a.a.a.a.a.a.a.a.a.a.a.a.a.a.a.a.a.a.a.a.a.a.a.",
"a.a.a.a.a.a.a.a.a.a.a.a.a.a.a.a.a.a.a.a.a.a.a.a.2.9 > Y a.a.a.a.4.a.2.< 3 E a.a.a.a.a.a.a.a.a.a.a.a.a.a.a.a.a.a.a.a.a.a.a.a.a.a.",
"a.a.a.a.a.a.a.a.a.a.a.a.a.a.a.a.a.a.a.a.a.a.a.a.a.a.a.5.a.a.a.a.a.a.a.a.a.a.a.a.a.a.a.a.a.a.a.a.a.a.a.a.a.a.a.a.a.a.a.a.a.a.a.a.",
"a.a.a.a.a.a.a.a.a.a.a.a.a.a.a.a.a.a.a.a.a.a.a.a.a.a.a.a.a.a.a.a.a.a.a.a.a.a.a.a.a.a.a.a.a.a.a.a.a.a.a.a.a.a.a.a.a.a.a.a.a.a.a.a.",
"a.a.a.a.a.a.a.a.a.a.a.a.a.a.a.a.a.a.a.a.a.a.a.a.a.a.a.a.a.a.a.a.a.a.a.a.a.a.a.a.a.a.a.a.a.a.a.a.a.a.a.a.a.a.a.a.a.a.a.a.a.a.a.a.",
"a.a.a.a.a.a.a.a.a.a.a.a.a.a.a.a.a.a.a.a.a.a.a.a.a.a.a.a.a.a.a.a.a.a.a.a.a.a.a.a.a.a.a.a.a.a.a.a.a.a.a.a.a.a.a.a.a.a.a.a.a.a.a.a.",
"a.a.a.a.a.a.a.a.a.a.a.a.a.a.a.a.a.a.a.a.a.a.a.a.a.a.a.a.a.a.a.a.a.a.a.a.a.a.a.a.a.a.a.a.a.a.a.a.a.a.a.a.a.a.a.a.a.a.a.a.a.a.a.a.",
"a.a.a.a.a.a.a.a.a.a.a.a.a.a.a.a.a.a.a.a.a.a.a.a.a.a.a.a.a.a.a.a.a.a.a.a.a.a.a.a.a.a.a.a.a.a.a.a.a.a.a.a.a.a.a.a.a.a.a.a.a.a.a.a.",
"a.a.a.a.a.a.a.a.a.a.a.a.a.a.a.a.! a.! a.a.a.a.a.a.a.a.a.a.a.a.a.a.a.a.a.a.a.a.a.a.a.a.a.a.a.a.a.a.a.a.a.a.a.a.a.a.a.a.a.a.a.a.a.",
"a.a.a.a.a.a.a.a.a.a.a.a.a.a.a.a.a.! a.a.a.a.a.a.a.a.a.a.a.a.a.a.a.a.a.a.a.a.a.a.a.a.a.a.a.a.a.a.a.a.a.a.a.a.a.a.a.a.a.a.a.a.a.a.",
"a.a.a.a.a.a.a.a.a.a.a.a.a.a.a.a.a.a.a.a.a.a.a.a.a.a.a.a.a.a.a.a.a.a.a.a.a.a.a.a.a.a.a.a.a.a.a.a.a.a.a.a.a.a.a.a.a.a.a.a.a.a.a.a.",
"a.a.a.a.a.a.a.a.a.a.a.a.a.a.a.a.a.a.a.a.a.a.a.a.a.a.a.a.a.a.a.a.a.a.a.a.a.a.a.a.a.a.a.a.a.a.a.a.a.a.a.a.a.a.a.a.a.a.a.a.a.a.a.a.",
"a.a.a.a.a.a.a.a.a.a.a.a.a.a.a.a.a.a.a.a.a.a.a.a.a.a.a.a.a.a.a.a.a.a.a.a.a.a.a.a.a.a.a.a.a.a.a.a.a.a.a.a.a.a.a.a.a.a.! a.! a.a.a.",
"a.a.a.a.a.a.a.a.a.a.a.a.a.a.a.a.a.a.a.a.a.a.a.a.a.a.a.a.a.a.a.a.a.a.a.a.a.a.a.a.a.a.a.a.a.a.a.a.a.a.a.a.a.a.a.a.a.a.a.! a.a.a.a.",
"a.a.a.a.a.a.a.a.a.a.a.a.a.a.a.a.a.a.a.a.a.a.a.a.a.a.a.a.a.a.a.a.a.a.a.a.a.a.a.a.a.a.a.a.a.a.a.a.a.a.a.a.a.a.a.a.a.a.a.a.a.a.a.a.",
"a.a.a.a.a.a.a.a.a.a.a.a.a.a.a.a.a.a.a.a.a.a.a.a.a.a.a.a.a.a.a.a.a.a.a.a.a.a.a.a.a.a.a.a.a.a.a.a.a.a.a.a.a.a.a.a.a.a.a.a.a.a.a.a.",
"a.a.a.a.a.a.a.a.a.a.a.a.a.a.a.a.a.a.a.a.a.a.a.a.a.a.a.a.a.a.a.a.a.a.a.a.a.a.a.a.a.a.a.a.a.a.a.a.a.a.a.a.a.a.a.a.a.a.a.a.a.a.a.a."
};
