/* XPM */
static char *result[] = {
/* columns rows colors chars-per-pixel */
"64 64 181 2 ",
"   c #090D07",
".  c #1E0E03",
"X  c #1C1305",
"o  c #1F1807",
"O  c #1A170B",
"+  c #121115",
"@  c #151B14",
"#  c #1B1C1B",
"$  c #241607",
"%  c #251E0C",
"&  c #2C1E0C",
"*  c #231C13",
"=  c #1B2212",
"-  c #1F251E",
";  c #1E2A1C",
":  c #26200D",
">  c #2C210A",
",  c #2D2512",
"<  c #262819",
"1  c #212F1D",
"2  c #362D1A",
"3  c #34321D",
"4  c #3D311C",
"5  c #222522",
"6  c #292525",
"7  c #232A22",
"8  c #2A2A2C",
"9  c #273621",
"0  c #3D3B25",
"q  c #333235",
"w  c #3A3A3C",
"e  c #4C271B",
"r  c #433521",
"t  c #463927",
"y  c #583525",
"u  c #433C33",
"i  c #693327",
"p  c #693428",
"a  c #6D3B2D",
"s  c #723F31",
"d  c #31442D",
"f  c #354A2C",
"g  c #3C4B2C",
"h  c #394F33",
"j  c #394C38",
"k  c #3C5434",
"l  c #3E5836",
"z  c #3D5138",
"x  c #3F5B38",
"c  c #444129",
"v  c #57422E",
"b  c #514730",
"n  c #554934",
"m  c #584C35",
"M  c #435432",
"N  c #415C3A",
"B  c #5C523A",
"V  c #6E4F3B",
"C  c #774938",
"Z  c #76513A",
"A  c #7A523E",
"S  c #44613C",
"D  c #4B673F",
"F  c #454647",
"G  c #4C4E4D",
"H  c #465D41",
"J  c #4D524C",
"K  c #504E51",
"L  c #585957",
"P  c #5B5B5C",
"I  c #625742",
"U  c #6C5B42",
"Y  c #7A5641",
"T  c #745B44",
"R  c #7D5B46",
"E  c #4B6445",
"W  c #496A41",
"Q  c #4E654A",
"!  c #537547",
"~  c #567C4D",
"^  c #597D4F",
"/  c #5C655A",
"(  c #597D55",
")  c #75654A",
"_  c #7D674C",
"`  c #63615A",
"'  c #7B6E51",
"]  c #5F5E63",
"[  c #605F65",
"{  c #5D6166",
"}  c #636365",
"|  c #666568",
" . c #68676B",
".. c #6D6C6E",
"X. c #716F69",
"o. c #75726C",
"O. c #6E6D74",
"+. c #727175",
"@. c #7B7A7A",
"#. c #804D3C",
"$. c #806049",
"%. c #846D52",
"&. c #867459",
"*. c #867759",
"=. c #8C7C5D",
"-. c #94795C",
";. c #8F7F60",
":. c #5C8552",
">. c #628C56",
",. c #65925A",
"<. c #68955C",
"1. c #6B9A5F",
"2. c #73A666",
"3. c #75A867",
"4. c #76AA69",
"5. c #79AE6B",
"6. c #7CB26E",
"7. c #7FB670",
"8. c #7FB871",
"9. c #948566",
"0. c #998264",
"q. c #968867",
"w. c #95866A",
"e. c #9B8B6A",
"r. c #82807A",
"t. c #9F9375",
"y. c #A28C6C",
"u. c #A49576",
"i. c #AF9E7A",
"p. c #80B771",
"a. c #82BB73",
"s. c #B4A179",
"d. c #807F80",
"f. c #888583",
"g. c #8C8C8D",
"h. c #969188",
"j. c #938E92",
"k. c #939394",
"l. c #9C9A97",
"z. c #959499",
"x. c #9D9D9D",
"c. c #A6889D",
"v. c #ACA089",
"b. c #A5A29D",
"n. c #9B9BA3",
"m. c #A6A6A9",
"M. c #A6A8AC",
"N. c #AAABAB",
"B. c #B1A9AF",
"V. c #ACACB3",
"C. c #B0AFB8",
"Z. c #B3B3B4",
"A. c #B6B6BA",
"S. c #BABABA",
"D. c #BBBBC1",
"F. c #C9BAC4",
"G. c #CDCDCE",
"H. c #DBD6C8",
"J. c #D8C5D2",
"K. c #D4D4D4",
"L. c #D6D5DE",
"P. c #D8D7DF",
"I. c #DBDBDC",
"U. c #DBDBE2",
"Y. c #DFE0E2",
"T. c #E6E6E6",
"R. c #EAE1E7",
"E. c #E8E8E7",
"W. c #E6E6ED",
"Q. c #EBEBEB",
"!. c #F3E6EF",
"~. c #EEF0EE",
"^. c #EDECF1",
"/. c #F4EBF2",
"(. c #FCEDF8",
"). c #EEF3F0",
"_. c #F4F4F4",
"`. c #F5F5FA",
"'. c #FBF5FC",
"]. c #F7F8F8",
"[. c #FDFDFD",
/* pixels */
"a.a.a.a.a.a.a.a.a.a.a.a.a.a.a.a.a.a.a.a.a.a.a.a.a.a.a.a.a.a.a.a.a.a.a.a.a.a.a.a.a.a.a.a.a.a.a.a.a.a.a.a.a.a.a.a.a.a.a.a.a.a.a.a.",
"a.a.a.a.a.a.a.a.a.a.a.a.a.a.a.a.a.a.a.a.a.a.a.a.a.a.a.a.a.a.a.a.a.a.a.a.a.a.a.a.a.a.a.a.a.a.a.a.a.a.a.a.a.a.a.a.a.a.a.a.a.a.a.a.",
"a.a.a.a.a.a.a.a.a.a.a.a.a.a.a.a.a.a.a.a.a.a.a.a.a.a.a.a.a.a.a.a.a.a.a.a.a.a.a.a.a.a.a.a.a.a.a.a.a.a.a.a.a.a.a.a.a.a.a.a.a.a.a.a.",
"a.a.a.a.a.a.a.a.a.a.a.a.a.a.a.a.a.a.a.a.a.a.a.a.a.a.a.a.a.a.a.a.a.a.a.a.a.a.a.a.a.a.a.a.a.a.a.a.a.a.a.a.a.a.a.a.a.a.a.a.a.a.a.a.",
"a.a.a.a.a.a.a.a.a.a.a.a.a.a.a.a.a.a.a.a.a.a.a.a.a.a.a.a.a.a.a.:.a.( a.a.a.a.a.a.a.a.a.a.a.a.a.a.a.a.a.a.a.a.a.a.a.a.a.a.a.a.a.a.",
"a.a.a.a.a.a.a.a.a.a.a.a.a.a.a.a.a.a.a.a.a.a.a.a.a.a.a.a.a.a.a.a.( a.a.a.a.a.a.a.a.a.a.a.a.a.a.a.a.a.a.a.a.a.a.a.a.a.a.a.a.a.a.a.",
"a.a.a.a.a.a.a.a.a.a.a.a.a.a.a.a.a.a.a.a.a.a.a.a.a.a.a.a.a.a.a.a.a.a.a.a.a.a.a.a.a.a.a.a.a.a.a.a.a.a.a.a.a.a.a.a.a.a.a.a.a.a.a.a.",
"a.a.a.a.a.a.a.a.a.a.a.a.a.a.a.a.a.a.a.a.a.a.a.a.a.a.a.a.a.a.a.a.a.a.a.a.a.a.a.a.a.a.a.a.a.a.a.a.a.a.a.a.a.a.a.a.a.a.a.a.a.a.a.a.",
"a.a.a.a.a.a.a.a.a.a.a.a.a.a.a.a.a.a.a.a.a.a.a.a.a.a.a.a.a.a.a.a.a.a.a.a.a.a.a.a.a.a.a.a.a.a.a.a.a.a.a.a.a.a.a.a.a.a.a.a.a.a.a.a.",
"a.a.a.a.a.a.a.a.a.a.a.a.a.a.a.a.a.a.a.a.a.a.a.a.a.a.a.a.a.a.a.a.a.a.a.a.a.a.a.a.a.a.a.a.a.a.a.a.a.a.a.a.a.a.a.a.a.a.a.a.a.a.a.a.",
"a.a.a.a.a.a.a.a.a.a.a.a.a.a.a.a.a.a.a.a.a.a.a.a.a.a.a.a.a.p.p.a.8.8.a.a.a.p.a.a.a.a.a.a.a.a.a.a.a.a.a.a.a.a.a.a.a.a.a.a.a.a.a.a.",
"a.a.a.a.a.a.a.a.a.a.a.a.a.a.a.a.a.a.a.a.a.a.a.a.a.a.:.d ^ a.a.p.a.7.x z 5.a.p.a.a.a.a.a.a.a.a.a.a.a.a.a.a.a.a.a.a.a.a.a.a.a.a.a.",
"a.a.a.a.a.a.a.a.a.a.a.a.a.a.a.a.a.a.a.a.a.a.a.a.a.1.J +.J <.p.a.7.Q } | Q 5.a.a.a.a.a.a.a.a.a.a.a.a.a.a.a.a.a.a.a.a.a.a.a.a.a.a.",
"a.a.a.a.a.a.a.a.a.a.a.a.a.a.a.a.a.a.a.a.a.a.a.a.3.< V.[.S.5 2.a.N { ~.]...k a.a.a.a.a.a.a.a.a.a.a.a.a.a.a.a.a.a.a.a.a.a.a.a.a.a.",
"a.a.a.a.a.a.a.a.a.a.a.a.a.a.a.a.a.a.a.a.a.a.a.a.4.< N.[.Z.7 3.a.W ] _.].| l a.a.a.a.a.a.a.a.a.a.a.a.a.a.a.a.a.a.a.a.( a.:.a.a.a.",
"a.a.a.a.a.a.a.a.a.a.a.a.a.a.a.a.a.a.a.a.a.a.8.8.7.7 N.[.Z.# 9 f @ P ~.].| D a.a.a.a.a.a.a.a.a.a.a.a.a.a.a.a.a.a.a.a.a.( a.a.a.a.",
"a.a.a.a.a.a.a.a.a.a.a.a.a.a.a.a.a.a.a.a.a.a.a.6.l @ m.[.Z.+ b U * K _.].} = >.a.a.a.8.a.a.a.a.a.a.a.a.a.a.a.a.a.a.a.a.a.a.a.a.a.",
"a.a.a.a.a.a.a.a.a.a.a.a.a.a.a.a.a.a.a.a.a.1.,.E r + V.[.b.u ;.i.I L I.'.{ O t >.:.6.a.a.a.a.a.a.a.a.a.a.a.a.a.a.a.a.a.a.a.a.a.a.",
"a.a.a.a.a.a.a.a.a.a.a.a.a.a.a.a.a.a.a.2.5.g % r R 6 M.H.e.q.9.9.9.q.v.T.{ t Y : , ! 6.4.a.a.a.a.a.a.a.a.a.a.a.a.a.a.a.a.a.a.a.a.",
"a.a.a.a.a.a.a.a.a.a.a.a.a.a.a.a.a.a.1.< * U m & C Y w.u.q.q.9.9.9.9.w.t.&.Y y > _ c X M p.a.a.a.a.a.a.a.a.a.a.a.a.a.a.a.a.a.a.a.",
"a.a.a.a.a.a.a.a.a.a.a.a.a.a.a.a.a.:.g ) U -.b . s A A Z Y Y Y Y Y Y A Z A #.e o %._ ) B k 4.a.a.a.a.a.a.a.a.a.a.a.a.a.a.a.a.a.a.",
"a.a.a.a.a.a.a.a.a.a.a.a.a.a.a.a.a.f b i.y.0.U v C a i i p p p p p p p p i C V m *.0.s.=.% 1.a.a.a.a.a.a.a.a.a.a.a.a.a.a.a.a.a.a.",
"a.a.a.a.a.a.a.a.a.a.a.a.a.a.a.a.a.:.0 ' q.e.y.0.%.R A Y Y Y Y Y Y Y Y Y Z $.0.u.e.e.9.m h 5.a.a.a.a.a.a.a.a.a.a.a.a.a.a.a.a.a.a.",
"a.a.a.a.a.a.a.:.a.( a.a.a.a.a.a.p.a.<.2 ' ;.*.=.9.q.q.q.9.q.9.9.9.9.q.q.q.q.=.*.=.9.m f 8.a.8.a.a.a.a.a.a.a.a.a.a.a.a.a.a.a.a.a.",
"a.a.a.a.a.a.a.a.:.a.a.a.a.a.a.a.a.a.a.<.3 2 o 4 0.q.e.e.q.e.e.e.e.e.e.e.e.y.T $ , 2 M 8.a.a.a.a.a.a.a.a.a.a.a.a.a.a.a.a.a.a.a.a.",
"a.a.a.a.a.a.a.a.a.a.a.a.a.a.a.a.a.p.a.a.4.; P h.$ & > > > & > > > > > > > X n l.# S 8.a.a.8.a.a.a.a.a.a.a.a.a.a.a.a.a.a.a.a.a.a.",
"a.a.a.a.a.a.a.a.a.a.a.a.a.a.a.a.a.a.a.p.:./ U.E.X.o.X.r.f.o.o.o.o.o.o.f.@.` m.].n.Q 2.a.a.a.a.a.a.a.a.a.a.a.a.a.a.a.a.a.a.a.a.a.",
"a.a.a.a.a.a.a.a.a.a.a.a.a.a.a.a.a.a.a.2.# D.[.Q.[.[.[.Y.K.[.[.[.[.[.[.G.Q.[.].Q.[.+.f a.a.a.a.a.a.a.a.a.a.a.a.a.a.a.a.a.a.a.a.a.",
"a.a.a.a.a.a.a.a.a.a.a.a.a.a.a.a.a.a.a.4.1 m.[.E.E.T.[...q _.Q.E.T._.K.5 k.[.E.E./.| x a.a.a.a.a.a.a.a.a.a.a.a.a.a.a.a.a.a.a.a.a.",
"a.a.a.a.a.a.a.a.a.a.a.a.a.a.a.a.a.a.a.4.5 n.`.E.T.E.[.+.w Q.Q.E.T.).K.8 l.[.E.E.W.[ l 8.a.a.a.a.a.a.a.a.a.a.a.a.a.a.a.a.a.a.a.a.",
"a.a.a.a.a.a.a.a.a.a.a.a.a.a.a.a.a.a.a.4.5 n.`.E.E.E.[.} 8 _.E._.Q._.K.+ g.[.E.E.W.[ S a.a.a.a.a.a.a.a.a.a.a.a.a.a.a.a.a.a.a.a.a.",
"a.a.a.a.a.a.a.a.a.a.a.a.a.a.a.a.a.a.a.2.# V.[.T.T.E.].B.j.Q.[.F.J.[.I.g.F._.E.Q.].O.h a.a.a.a.a.a.a.a.a.a.a.a.a.a.a.a.a.a.a.a.a.",
"a.a.a.a.a.a.a.a.a.a.a.a.a.a.a.a.a.a.a.5.k O.P.].T.E.R.'.[.Y.N.c.c.Z.Q.[.(.R.Q.Q.C.F ~ a.a.a.a.a.a.a.a.a.a.a.a.a.a.a.a.a.a.a.a.a.",
"a.a.a.a.a.a.a.a.a.a.a.a.a.a.a.a.a.a.a.a.a.h  .W.Q.Q.!.!._.K.q A.k.F )./././.Q.C.# >.a.a.a.a.a.a.a.a.a.a.a.a.a.a.a.a.a.a.a.a.a.a.",
"a.a.a.a.a.a.a.a.a.a.a.a.a.a.a.a.a.a.a.a.a.a.z +._.]._.!.E.T.G.T.I.K.Q.].].[.A.5 >.a.a.a.a.a.a.a.a.a.a.a.a.a.a.a.a.a.a.a.a.a.a.a.",
"a.a.a.a.a.a.a.a.a.a.a.a.a.a.a.a.a.a.a.a.a.a.p.N  .| w g.].E._.E.Q.].K.L G +.G :.a.a.p.a.a.a.a.a.a.a.a.a.a.a.a.a.a.a.a.a.a.a.a.a.",
"a.a.a.a.a.a.a.a.a.a.a.a.a.a.a.a.a.a.a.a.a.a.a.a.S   q V.^.T.T.T.T.Q.I.d.+ ; 1.8.a.p.a.a.a.a.a.a.a.a.a.a.a.a.a.a.a.a.a.a.a.a.a.a.",
"a.a.a.a.a.a.a.a.a.a.a.a.a.a.a.a.a.a.a.a.a.a.a.6.<.J K.[.T.T.T.Y.T.Y.E.[.x.H 7.a.a.a.a.a.a.a.a.a.a.a.a.a.a.a.a.a.a.a.a.a.a.a.a.a.",
"a.a.a.a.a.a.a.a.a.a.a.a.a.a.a.a.a.a.a.a.a.a.a.:.q K.].T.T.T.E.E.T.E.T.T.[.k.; 8.a.a.a.a.a.a.a.a.a.a.a.a.a.a.a.a.a.a.a.a.a.a.a.a.",
"a.a.a.a.a.a.a.a.a.a.a.a.a.a.a.a.a.a.a.a.a.a.a.,.8 K.^.U.Q.E.T.T.T.E.T.L.[.g.9 a.a.a.a.a.a.a.a.a.( a.( a.a.a.a.a.a.a.a.a.a.a.a.a.",
"a.a.a.a.a.a.a.a.a.a.a.a.a.a.a.a.a.a.a.a.a.a.:.J Z.T.U.U.Q.E.T.T.E.E.T.U.W.I.1.F 2.a.a.a.a.a.a.a.a.( a.a.a.a.a.a.a.a.a.a.a.a.a.a.",
"a.a.a.a.a.a.a.a.a.a.a.a.a.a.a.a.a.a.a.a.a.a.k  .[.~.L.I.E.E.R.E.T.E.T.L.P.[.U.6 1.p.a.a.a.a.a.a.a.a.a.a.a.a.a.a.a.a.a.a.a.a.a.a.",
"a.a.a.a.a.a.a.a.a.a.a.a.a.a.a.a.a.a.a.a.a.a.l } _.].U.U.E.E.E.E.T.E.Y.U.).E.d.z 4.a.a.a.a.a.a.a.a.a.a.a.a.a.a.a.a.a.a.a.a.a.a.a.",
"a.a.a.a.a.a.a.a.a.a.a.a.a.a.a.a.a.a.a.a.a.a.W L I.L.L.Y.Q.Q.E.Q.Q.Q.Y.U.^.d.d 8.a.a.a.a.a.a.a.a.a.a.a.a.a.a.a.a.a.a.a.a.a.a.a.a.",
"a.a.a.a.a.a.a.a.a.a.a.a.a.a.a.a.a.a.a.a.a.a.a.~ w 8 V.[._._._._._.).E._.@.z 8.a.a.a.a.a.a.a.a.a.a.a.a.a.a.a.a.a.a.a.a.a.a.a.a.a.",
"a.a.a.a.a.a.a.a.a.a.a.a.a.a.a.a.a.a.a.a.a.8.a.a.! @ G.K.K } } } L g.`._.] x a.8.a.a.a.a.a.a.a.a.a.a.a.a.a.a.a.a.a.a.a.a.a.a.a.a.",
"a.a.a.a.a.a.a.a.a.a.a.a.a.a.a.a.a.a.a.a.a.a.8.a.7.5 d./ W x x x E j z.[.@.l 8.a.a.a.a.a.a.a.a.a.a.a.a.a.a.a.a.a.a.a.a.a.a.a.a.a.",
"a.a.a.a.a.a.a.a.a.a.a.a.a.a.a.a.a.a.a.a.a.a.a.a.5.N - :.a.a.a.a.8.4.d x.P x a.a.a.a.a.a.a.a.a.a.a.a.a.a.a.a.a.a.a.a.a.a.a.a.a.a.",
"a.a.a.a.a.a.a.a.a.a.a.a.a.a.a.a.a.a.a.a.a.a.a.a.a.a.a.a.a.a.a.a.a.a.6.7 8 Q a.a.a.a.a.a.a.a.a.a.a.a.a.a.a.a.a.a.a.a.a.a.a.a.a.a.",
"a.a.a.a.a.a.a.a.a.a.a.a.a.a.a.a.a.a.a.a.a.a.a.a.a.a.a.a.a.a.a.a.a.a.a.a.a.a.a.a.a.a.a.a.a.a.a.a.a.a.a.a.a.a.a.a.a.a.a.a.a.a.a.a.",
"a.a.a.a.a.a.a.a.a.a.a.a.a.a.a.a.a.a.a.a.a.a.a.a.a.a.a.a.a.a.a.a.a.a.a.a.a.a.a.a.a.a.a.a.a.a.a.a.a.a.a.a.a.a.a.a.a.a.a.a.a.a.a.a.",
"a.a.a.a.a.a.a.a.a.a.a.a.a.a.a.a.a.a.a.a.a.a.a.a.a.a.a.a.a.a.a.a.a.a.a.a.a.a.a.a.a.a.a.a.a.a.a.a.a.a.a.a.a.a.a.a.a.a.a.a.a.a.a.a.",
"a.a.a.a.a.a.a.a.a.a.a.a.a.a.a.a.a.a.a.a.a.a.a.a.a.a.a.a.a.a.a.a.a.a.a.a.a.a.a.a.a.a.a.a.a.a.a.a.a.a.a.a.a.a.a.a.a.a.a.a.a.a.a.a.",
"a.a.a.a.a.a.a.a.a.a.a.a.a.a.a.a.a.a.a.a.a.a.a.a.a.a.a.a.a.a.a.a.a.a.a.a.a.a.a.a.a.a.a.a.a.a.a.a.a.a.a.a.a.a.a.a.a.a.a.a.a.a.a.a.",
"a.a.a.a.a.a.a.a.a.a.a.a.a.a.a.a.a.a.a.a.a.a.a.a.a.a.a.a.a.a.a.a.a.a.a.a.a.a.a.a.a.a.a.a.a.a.a.a.a.a.a.a.a.a.a.a.a.a.a.a.a.a.a.a.",
"a.a.a.a.a.a.a.a.a.a.a.a.a.a.a.a.( a.( a.a.a.a.a.a.a.a.a.a.a.a.a.a.a.a.a.a.a.a.a.a.a.a.a.a.a.a.a.a.a.a.a.a.a.a.a.a.a.a.a.a.a.a.a.",
"a.a.a.a.a.a.a.a.a.a.a.a.a.a.a.a.a.( a.a.a.a.a.a.a.a.a.a.a.a.a.a.a.a.a.a.a.a.a.a.a.a.a.a.a.a.a.a.a.a.a.a.a.a.a.a.a.a.a.a.a.a.a.a.",
"a.a.a.a.a.a.a.a.a.a.a.a.a.a.a.a.a.a.a.a.a.a.a.a.a.a.a.a.a.a.a.a.a.a.a.a.a.a.a.a.a.a.a.a.a.a.a.a.a.a.a.a.a.a.a.a.a.a.a.a.a.a.a.a.",
"a.a.a.a.a.a.a.a.a.a.a.a.a.a.a.a.a.a.a.a.a.a.a.a.a.a.a.a.a.a.a.a.a.a.a.a.a.a.a.a.a.a.a.a.a.a.a.a.a.a.a.a.a.a.a.a.a.a.a.a.a.a.a.a.",
"a.a.a.a.a.a.a.a.a.a.a.a.a.a.a.a.a.a.a.a.a.a.a.a.a.a.a.a.a.a.a.a.a.a.a.a.a.a.a.a.a.a.a.a.a.a.a.a.a.a.a.a.a.a.a.a.a.a.:.a.( a.a.a.",
"a.a.a.a.a.a.a.a.a.a.a.a.a.a.a.a.a.a.a.a.a.a.a.a.a.a.a.a.a.a.a.a.a.a.a.a.a.a.a.a.a.a.a.a.a.a.a.a.a.a.a.a.a.a.a.a.a.a.a.( a.a.a.a.",
"a.a.a.a.a.a.a.a.a.a.a.a.a.a.a.a.a.a.a.a.a.a.a.a.a.a.a.a.a.a.a.a.a.a.a.a.a.a.a.a.a.a.a.a.a.a.a.a.a.a.a.a.a.a.a.a.a.a.a.a.a.a.a.a.",
"a.a.a.a.a.a.a.a.a.a.a.a.a.a.a.a.a.a.a.a.a.a.a.a.a.a.a.a.a.a.a.a.a.a.a.a.a.a.a.a.a.a.a.a.a.a.a.a.a.a.a.a.a.a.a.a.a.a.a.a.a.a.a.a.",
"a.a.a.a.a.a.a.a.a.a.a.a.a.a.a.a.a.a.a.a.a.a.a.a.a.a.a.a.a.a.a.a.a.a.a.a.a.a.a.a.a.a.a.a.a.a.a.a.a.a.a.a.a.a.a.a.a.a.a.a.a.a.a.a."
};
