/* XPM */
static char *result[] = {
/* columns rows colors chars-per-pixel */
"64 64 154 2 ",
"   c #020202",
".  c #080A07",
"X  c #0A0E0A",
"o  c #120D05",
"O  c #0F110F",
"+  c #151107",
"@  c #1A1304",
"#  c #13110C",
"$  c #1E1C0E",
"%  c #131413",
"&  c #151A13",
"*  c #1D1D1D",
"=  c #231C0B",
"-  c #1B2718",
";  c #1E2918",
":  c #2E200B",
">  c #32230D",
",  c #2A2412",
"<  c #2C2A16",
"1  c #362A12",
"2  c #3A2E15",
"3  c #342C18",
"4  c #3C331E",
"5  c #252624",
"6  c #262D24",
"7  c #2B2C2B",
"8  c #31222C",
"9  c #263822",
"0  c #293C24",
"q  c #3D3523",
"w  c #3B3B24",
"e  c gray21",
"r  c #3B3B3B",
"t  c #562F21",
"y  c #413620",
"u  c #4C3F29",
"i  c #5B3325",
"p  c #442E3D",
"a  c #693327",
"s  c #693428",
"d  c #2E4229",
"f  c #39462A",
"g  c #334030",
"h  c #374C30",
"j  c #394F30",
"k  c #3D5533",
"l  c #3E5936",
"z  c #4D4229",
"x  c #42453E",
"c  c #5C4D35",
"v  c #445131",
"b  c #415A35",
"n  c #744434",
"m  c #744C37",
"M  c #7A4738",
"N  c #764C3A",
"B  c #64553D",
"V  c #73503C",
"C  c #7A523E",
"Z  c #44623D",
"A  c #49653D",
"S  c #333740",
"D  c gray25",
"F  c #474947",
"G  c #4E4B42",
"H  c #434548",
"J  c #534E46",
"K  c #4F514F",
"L  c #54544E",
"P  c #5B574F",
"I  c #4E4F51",
"U  c #525253",
"Y  c #5B5750",
"T  c #565B54",
"R  c #5B5C54",
"E  c #5E5D5D",
"W  c #6D5B43",
"Q  c #7C5642",
"!  c #7E5E48",
"~  c #615E56",
"^  c #496741",
"/  c #4B6B43",
"(  c #507246",
")  c #53774A",
"_  c #557B4C",
"`  c #587D4D",
"'  c #597D55",
"]  c #6F6247",
"[  c #7A644A",
"{  c #796B4F",
"}  c #7E6E52",
"|  c #676767",
" . c #6D6961",
".. c #6A6A6A",
"X. c #717171",
"o. c #7C7C7C",
"O. c #815441",
"+. c #816C51",
"@. c #896F55",
"#. c #867657",
"$. c #887055",
"%. c #8D7558",
"&. c #8A7B5C",
"*. c #917A5D",
"=. c #927E60",
"-. c #59804E",
";. c #5B8351",
":. c #5F8854",
">. c #608753",
",. c #618A55",
"<. c #66935A",
"1. c #69975D",
"2. c #6C9C5F",
"3. c #6D9D60",
"4. c #72A364",
"5. c #76AA69",
"6. c #7DB56F",
"7. c #7FB670",
"8. c #7FB871",
"9. c #938464",
"0. c #9C8365",
"q. c #9E8D6D",
"w. c #9F906F",
"e. c #A38D6C",
"r. c #A4906F",
"t. c #A59271",
"y. c #A89674",
"u. c #B29F7B",
"i. c #80B771",
"p. c #82BB73",
"a. c #838383",
"s. c #888888",
"d. c #929292",
"f. c #9D9D9E",
"g. c #A4A4A4",
"h. c #ABABAC",
"j. c #AFB1B0",
"k. c #B6B6B6",
"l. c #B7B8B8",
"z. c #BBBBBB",
"x. c #C397B5",
"c. c #C4BFC3",
"v. c #C4C4C4",
"b. c #CDCDCD",
"n. c #D3D3D3",
"m. c #DBDBDB",
"M. c #E2E0D6",
"N. c #E6DBE2",
"B. c #E6E6E6",
"V. c #E8E8E7",
"C. c #EBEBEB",
"Z. c #EFF0F0",
"A. c #F4F4F5",
"S. c #FCFCFC",
/* pixels */
"p.p.p.p.p.p.p.p.p.p.p.p.p.p.p.p.p.p.p.p.p.p.p.p.p.p.p.p.p.p.p.p.p.p.p.p.p.p.p.p.p.p.p.p.p.p.p.p.p.p.p.p.p.p.p.p.p.p.p.p.p.p.p.p.",
"p.p.p.p.p.p.p.p.p.p.p.p.p.p.p.p.p.p.p.p.p.p.p.p.p.p.p.p.p.p.p.p.p.p.p.p.p.p.p.p.p.p.p.p.p.p.p.p.p.p.p.p.p.p.p.p.p.p.p.p.p.p.p.p.",
"p.p.p.p.p.p.p.p.p.p.p.p.p.p.p.p.p.p.p.p.p.p.p.p.p.p.p.p.p.p.p.p.p.p.p.p.p.p.p.p.p.p.p.p.p.p.p.p.p.p.p.p.p.p.p.p.p.p.p.p.p.p.p.p.",
"p.p.p.p.p.p.p.p.p.p.p.p.p.p.p.p.p.p.p.p.p.p.p.p.p.p.p.p.p.p.p.p.p.p.p.p.p.p.p.p.p.p.p.p.p.p.p.p.p.p.p.p.p.p.p.p.p.p.p.p.p.p.p.p.",
"p.p.p.p.p.p.p.p.p.p.p.p.p.p.p.p.p.p.p.p.p.p.p.p.p.p.p.p.p.p.p.;.p.' p.p.p.p.p.p.p.p.p.p.p.p.p.p.p.p.p.p.p.p.p.p.p.p.p.p.p.p.p.p.",
"p.p.p.p.p.p.p.p.p.p.p.p.p.p.p.p.p.p.p.p.p.p.p.p.p.p.p.p.p.p.p.p.' p.p.p.p.p.p.p.p.p.p.p.p.p.p.p.p.p.p.p.p.p.p.p.p.p.p.p.p.p.p.p.",
"p.p.p.p.p.p.p.p.p.p.p.p.p.p.p.p.p.p.p.p.p.p.p.p.p.p.p.p.p.p.p.p.p.p.p.p.p.p.p.p.p.p.p.p.p.p.p.p.p.p.p.p.p.p.p.p.p.p.p.p.p.p.p.p.",
"p.p.p.p.p.p.p.p.p.p.p.p.p.p.p.p.p.p.p.p.p.p.p.p.p.p.p.p.p.p.p.p.p.p.p.p.p.p.p.p.p.p.p.p.p.p.p.p.p.p.p.p.p.p.p.p.p.p.p.p.p.p.p.p.",
"p.p.p.p.p.p.p.p.p.p.p.p.p.p.p.p.p.p.p.p.p.p.p.p.p.p.p.p.p.p.p.p.p.p.p.p.p.p.p.p.p.p.p.p.p.p.p.p.p.p.p.p.p.p.p.p.p.p.p.p.p.p.p.p.",
"p.p.p.p.p.p.p.p.p.p.p.p.p.p.p.p.p.p.p.p.p.p.p.p.p.p.p.p.p.p.p.p.p.p.p.p.p.p.p.p.p.p.p.p.p.p.p.p.p.p.p.p.p.p.p.p.p.p.p.p.p.p.p.p.",
"p.p.p.p.p.p.p.p.p.p.p.p.p.p.p.p.p.p.p.p.p.p.p.p.p.p.p.p.p.p.p.;.X X :.p.p.p.p.p.p.p.p.p.p.p.p.p.p.p.p.p.p.p.p.p.p.p.p.p.p.p.p.p.",
"p.p.p.p.p.p.p.p.p.p.p.p.p.p.p.p.p.p.p.p.p.p.p.p.p.p.p.p.p.p.) x j.j.D ) p.p.p.p.p.p.p.p.p.p.p.p.p.p.p.p.p.p.p.p.p.p.p.p.p.p.p.p.",
"p.p.p.p.p.p.p.p.p.p.p.p.p.p.p.p.p.p.p.p.p.p.p.p.p.p.8.p.p.p.d E S.S.E d p.p.p.8.p.p.p.p.p.p.p.p.p.p.p.p.p.p.p.p.p.p.p.p.p.p.p.p.",
"p.p.p.p.p.p.p.p.p.p.p.p.p.p.p.p.p.p.p.p.p.p.p.p.p.p.p.6.<.3.0 U A.A.U 0 4.<.8.p.p.p.p.p.p.p.p.p.p.p.p.p.p.p.p.p.p.p.p.p.p.p.p.p.",
"p.p.p.p.p.p.p.p.p.p.p.p.p.p.p.p.p.p.p.p.p.p.p.p.8.7.p.>., <   I A.A.U   , , >.p.8.p.p.p.p.p.p.p.p.p.p.p.p.p.p.p.p.p.' p.' p.p.p.",
"p.p.p.p.p.p.p.p.p.p.p.p.p.p.p.p.p.p.p.p.p.8.p.p.8.l , f } #.o H A.A.H # #.} w ; l p.p.p.8.p.p.p.p.p.p.p.p.p.p.p.p.p.p.' p.p.p.p.",
"p.p.p.p.p.p.p.p.p.p.p.p.p.p.p.p.p.p.i.p.p.p.1.b A u c { t.u.+ S S.S.S + u.t.{ c z A l 1.p.p.p.p.p.p.p.p.p.p.p.p.p.p.p.p.p.p.p.p.",
"p.p.p.p.p.p.p.p.p.p.p.p.p.p.p.p.p.p.p.i.,.3.v y , N =.t.9.q.q L m.M.P q e.9.e.=.V : y v 3.,.i.p.p.p.p.p.p.p.p.p.p.p.p.p.p.p.p.p.",
"p.p.p.p.p.p.p.p.p.p.p.p.p.p.p.p.p.p.p.<.< $ B [ = i Q $.9.=.9.9.9.&.9.*.9.9.@.Q i = [ B = < ,.p.p.p.p.p.p.p.p.p.p.p.p.p.p.p.p.p.",
"p.p.p.p.p.p.p.p.p.p.p.p.p.p.p.p.p.p.' w { [ %.W o t M m C N Q C m m C Q N V N M t @ W %.[ { w ` p.p.p.p.p.p.p.p.p.p.p.p.p.p.p.p.",
"p.p.p.p.p.p.p.p.p.p.p.p.p.p.p.p.p.p.j z y.t.0.} B N n a s s s s s s s s s s s n V c { 0.t.y.z k p.p.p.p.p.p.p.p.p.p.p.p.p.p.p.p.",
"p.p.p.p.p.p.p.p.p.p.p.p.p.p.p.p.p.p.,.w ] 9.q.w.y.=.! Q Q Q Q Q C O.Q Q Q ! Q ! &.e.q.q.9.] w :.p.p.p.p.p.p.p.p.p.p.p.p.p.p.p.p.",
"p.p.p.p.p.p.p.p.p.p.p.p.p.p.p.p.p.p.p.3.< ] 9.&.&.=.9.9.9.9.9.9.9.9.9.9.9.9.0.9.9.&.&.0.] < 3.p.p.p.p.p.p.p.p.p.p.p.p.p.p.p.p.p.",
"p.p.p.p.p.p.p.;.p.;.p.p.p.p.p.p.p.p.p.p.3.w y 3 q +.t.w.q.w.q.q.w.w.w.r.q.q.w.e.{ 4 3 y w 2.p.p.p.p.p.p.p.p.p.p.p.p.p.p.p.p.p.p.",
"p.p.p.p.p.p.p.p.' p.p.p.p.p.p.p.p.p.8.p.p.,.( k = = 2 2 1 1 1 1 1 1 1 1 1 1 2 2 > = k ( ,.p.p.8.p.p.p.p.p.p.p.p.p.p.p.p.p.p.p.p.",
"p.p.p.p.p.p.p.p.p.p.p.p.p.p.p.p.p.p.p.p.p.p.p.3.$ G ~ ~  .R Y Y P P P P P Y J L x $ 2.p.p.p.p.p.p.p.p.p.p.p.p.p.p.p.p.p.p.p.p.p.",
"p.p.p.p.p.p.p.p.p.p.p.p.p.p.p.p.p.p.p.p.p.p.p.,.% c.S.C.m.Z.A.A.A.A.A.A.A.A.B.Z.h.O ,.p.p.p.p.p.p.p.p.p.p.p.p.p.p.p.p.p.p.p.p.p.",
"p.p.p.p.p.p.p.p.p.p.p.p.p.p.p.p.p.p.p.p.p.p.p.,.% z.S.f.5 v.S.C.C.C.C.C.C.C.C.A.g.# ,.p.p.p.p.p.p.p.p.p.p.p.p.p.p.p.p.p.p.p.p.p.",
"p.p.p.p.p.p.p.p.p.p.p.p.p.p.p.p.p.p.p.p.p.8.p.3.X j.S.s.  k.S.B.B.V.B.V.V.V.Z.A.f.% ,.p.p.p.p.p.p.p.p.p.p.p.p.p.p.p.p.p.p.p.p.p.",
"p.p.p.p.p.p.p.p.p.p.p.p.p.p.p.p.p.p.p.p.p.p.3.h p c.S.s.  k.S.V.V.B.V.V.V.V.B.C.f.% :.p.p.p.p.p.p.p.p.p.p.p.p.p.p.p.p.p.p.p.p.p.",
"p.p.p.p.p.p.p.p.p.p.p.p.p.p.p.p.p.p.p.p.p.p.k 8 x.N.S.f.7 v.A.V.V.B.V.V.V.m.b.B.g.% ,.p.p.p.p.p.p.p.p.p.p.p.p.p.p.p.p.p.p.p.p.p.",
"p.p.p.p.p.p.p.p.p.p.p.p.p.p.p.p.p.p.p.p.p.p.l r B.C.C.B.n.B.C.V.V.V.V.V.m.b.b.B.h.% :.p.p.p.p.p.p.p.p.p.p.p.p.p.p.p.p.p.p.p.p.p.",
"p.p.p.p.p.p.p.p.p.p.p.p.p.p.p.p.p.p.p.p.p.8.j F S.A.N.C.A.Z.V.V.B.B.V.m.n.b.A.h.5 ` 6.p.p.p.p.p.p.p.p.p.p.p.p.p.p.p.p.p.p.p.p.p.",
"p.p.p.p.p.p.p.p.p.p.p.p.p.p.p.p.p.p.p.p.p.8.1.g a.V.S.S.A.Z.B.m.m.m.m.m.B.V.h.6 _ p.p.8.p.p.p.p.p.p.p.p.p.p.p.p.p.p.p.p.p.p.p.p.",
"p.p.p.p.p.p.p.p.p.p.p.p.p.p.p.p.p.p.p.p.p.8.p.5.- s.b.j.f.f.k.b.v.v.b.l.g.h.5 _ p.p.p.p.p.p.p.p.p.p.p.p.p.p.p.p.p.p.p.p.p.p.p.p.",
"p.p.p.p.p.p.p.p.p.p.p.p.p.p.p.p.p.p.p.p.p.p.8.p.5.6 O % O   X.n.l.l.n.X.  O _ 8.p.p.p.p.p.p.p.p.p.p.p.p.p.p.p.p.p.p.p.p.p.p.p.p.",
"p.p.p.p.p.p.p.p.p.p.p.p.p.p.p.p.p.p.p.p.p.p.8.p.8.3.-.3.3.& | C.b.n.A...& <.8.p.p.p.p.p.p.p.p.p.p.p.p.p.p.p.p.p.p.p.p.p.p.p.p.p.",
"p.p.p.p.p.p.p.p.p.p.p.p.p.p.p.p.p.p.p.p.p.p.p.p.8.p.8.7./ T z.Z.B.B.A.v.T ^ p.3./ p.p.i.p.p.p.p.p.p.p.p.p.p.p.p.p.p.p.p.p.p.p.p.",
"p.p.p.p.p.p.p.p.p.p.p.p.p.p.p.p.p.p.p.p.p.p.p.p.p.p.p._ * n.S.N.B.B.B.S.B.I / G r ;.8.p.p.p.p.p.p.p.p.p.p.p.p.p.p.p.p.p.p.p.p.p.",
"p.p.p.p.p.p.p.p.p.p.p.p.p.p.p.p.p.p.p.p.p.p.p.p.p.p.p.-.& z.A.B.B.B.B.B.Z.C.9 ..m.% :.p.p.p.p.p.' p.' p.p.p.p.p.p.p.p.p.p.p.p.p.",
"p.p.p.p.p.p.p.p.p.p.p.p.p.p.p.p.p.p.p.p.p.p.p.p.p.p.p.` % z.A.V.B.C.B.B.B.A.7 | m.O -.p.p.p.p.p.p.' p.p.p.p.p.p.p.p.p.p.p.p.p.p.",
"p.p.p.p.p.p.p.p.p.p.p.p.p.p.p.p.p.p.p.p.p.p.p.p.p.p.p.;.% z.S.V.V.B.B.B.S.S.H # K ^ 5.p.p.p.p.p.p.p.p.p.p.p.p.p.p.p.p.p.p.p.p.p.",
"p.p.p.p.p.p.p.p.p.p.p.p.p.p.p.p.p.p.p.p.p.p.p.p.p.p.p.;.& z.A.V.C.Z.S.b.d.g.e . Z p.p.8.p.p.p.p.p.p.p.p.p.p.p.p.p.p.p.p.p.p.p.p.",
"p.p.p.p.p.p.p.p.p.p.p.p.p.p.p.p.p.p.p.p.p.p.p.p.p.p.p.-.* v.S.C.B.m.Z.o.      l p.p.p.p.p.p.p.p.p.p.p.p.p.p.p.p.p.p.p.p.p.p.p.p.",
"p.p.p.p.p.p.p.p.p.p.p.p.p.p.p.p.p.p.p.p.p.p.p.p.p.p.p._ % n.S.S.B.D * %       h p.p.p.p.p.p.p.p.p.p.p.p.p.p.p.p.p.p.p.p.p.p.p.p.",
"p.p.p.p.p.p.p.p.p.p.p.p.p.p.p.p.p.p.p.p.p.p.p.p.p.p.p.5.^ U ....K Z ,.9     0 4.p.p.p.p.p.p.p.p.p.p.p.p.p.p.p.p.p.p.p.p.p.p.p.p.",
"p.p.p.p.p.p.p.p.p.p.p.p.p.p.p.p.p.p.p.p.p.p.p.p.p.p.p.p.p.Z 0 g l 8.p.3.9 d 5.p.8.p.p.p.p.p.p.p.p.p.p.p.p.p.p.p.p.p.p.p.p.p.p.p.",
"p.p.p.p.p.p.p.p.p.p.p.p.p.p.p.p.p.p.p.p.p.p.p.p.p.p.p.p.p.p.p.p.8.8.8.p.p.p.p.8.p.p.p.p.p.p.p.p.p.p.p.p.p.p.p.p.p.p.p.p.p.p.p.p.",
"p.p.p.p.p.p.p.p.p.p.p.p.p.p.p.p.p.p.p.p.p.p.p.p.p.p.p.p.p.p.p.p.p.p.p.p.p.p.p.p.p.p.p.p.p.p.p.p.p.p.p.p.p.p.p.p.p.p.p.p.p.p.p.p.",
"p.p.p.p.p.p.p.p.p.p.p.p.p.p.p.p.p.p.p.p.p.p.p.p.p.p.p.p.p.p.p.p.p.p.p.p.p.p.p.p.p.p.p.p.p.p.p.p.p.p.p.p.p.p.p.p.p.p.p.p.p.p.p.p.",
"p.p.p.p.p.p.p.p.p.p.p.p.p.p.p.p.p.p.p.p.p.p.p.p.p.p.p.p.p.p.p.p.p.p.p.p.p.p.p.p.p.p.p.p.p.p.p.p.p.p.p.p.p.p.p.p.p.p.p.p.p.p.p.p.",
"p.p.p.p.p.p.p.p.p.p.p.p.p.p.p.p.p.p.p.p.p.p.p.p.p.p.p.p.p.p.p.p.p.p.p.p.p.p.p.p.p.p.p.p.p.p.p.p.p.p.p.p.p.p.p.p.p.p.p.p.p.p.p.p.",
"p.p.p.p.p.p.p.p.p.p.p.p.p.p.p.p.p.p.p.p.p.p.p.p.p.p.p.p.p.p.p.p.p.p.p.p.p.p.p.p.p.p.p.p.p.p.p.p.p.p.p.p.p.p.p.p.p.p.p.p.p.p.p.p.",
"p.p.p.p.p.p.p.p.p.p.p.p.p.p.p.p.p.p.p.p.p.p.p.p.p.p.p.p.p.p.p.p.p.p.p.p.p.p.p.p.p.p.p.p.p.p.p.p.p.p.p.p.p.p.p.p.p.p.p.p.p.p.p.p.",
"p.p.p.p.p.p.p.p.p.p.p.p.p.p.p.p.p.p.p.p.p.p.p.p.p.p.p.p.p.p.p.p.p.p.p.p.p.p.p.p.p.p.p.p.p.p.p.p.p.p.p.p.p.p.p.p.p.p.p.p.p.p.p.p.",
"p.p.p.p.p.p.p.p.p.p.p.p.p.p.p.p.' p.' p.p.p.p.p.p.p.p.p.p.p.p.p.p.p.p.p.p.p.p.p.p.p.p.p.p.p.p.p.p.p.p.p.p.p.p.p.p.p.p.p.p.p.p.p.",
"p.p.p.p.p.p.p.p.p.p.p.p.p.p.p.p.p.,.p.p.p.p.p.p.p.p.p.p.p.p.p.p.p.p.p.p.p.p.p.p.p.p.p.p.p.p.p.p.p.p.p.p.p.p.p.p.p.p.p.p.p.p.p.p.",
"p.p.p.p.p.p.p.p.p.p.p.p.p.p.p.p.p.p.p.p.p.p.p.p.p.p.p.p.p.p.p.p.p.p.p.p.p.p.p.p.p.p.p.p.p.p.p.p.p.p.p.p.p.p.p.p.p.p.p.p.p.p.p.p.",
"p.p.p.p.p.p.p.p.p.p.p.p.p.p.p.p.p.p.p.p.p.p.p.p.p.p.p.p.p.p.p.p.p.p.p.p.p.p.p.p.p.p.p.p.p.p.p.p.p.p.p.p.p.p.p.p.p.p.p.p.p.p.p.p.",
"p.p.p.p.p.p.p.p.p.p.p.p.p.p.p.p.p.p.p.p.p.p.p.p.p.p.p.p.p.p.p.p.p.p.p.p.p.p.p.p.p.p.p.p.p.p.p.p.p.p.p.p.p.p.p.p.p.p.;.p.' p.p.p.",
"p.p.p.p.p.p.p.p.p.p.p.p.p.p.p.p.p.p.p.p.p.p.p.p.p.p.p.p.p.p.p.p.p.p.p.p.p.p.p.p.p.p.p.p.p.p.p.p.p.p.p.p.p.p.p.p.p.p.p.' p.p.p.p.",
"p.p.p.p.p.p.p.p.p.p.p.p.p.p.p.p.p.p.p.p.p.p.p.p.p.p.p.p.p.p.p.p.p.p.p.p.p.p.p.p.p.p.p.p.p.p.p.p.p.p.p.p.p.p.p.p.p.p.p.p.p.p.p.p.",
"p.p.p.p.p.p.p.p.p.p.p.p.p.p.p.p.p.p.p.p.p.p.p.p.p.p.p.p.p.p.p.p.p.p.p.p.p.p.p.p.p.p.p.p.p.p.p.p.p.p.p.p.p.p.p.p.p.p.p.p.p.p.p.p.",
"p.p.p.p.p.p.p.p.p.p.p.p.p.p.p.p.p.p.p.p.p.p.p.p.p.p.p.p.p.p.p.p.p.p.p.p.p.p.p.p.p.p.p.p.p.p.p.p.p.p.p.p.p.p.p.p.p.p.p.p.p.p.p.p."
};
