/* XPM */
static char *result[] = {
/* columns rows colors chars-per-pixel */
"64 64 166 2 ",
"   c #010201",
".  c #080C07",
"X  c #07090D",
"o  c #0D0D0C",
"O  c #1E0F02",
"+  c #0F110E",
"@  c #14140C",
"#  c #181608",
"$  c #11190F",
"%  c #1D1D0C",
"&  c #111314",
"*  c #171818",
"=  c #1B1C1B",
"-  c #231E0C",
";  c #2C1E0D",
":  c #34180C",
">  c #1B2315",
",  c #1B2718",
"<  c #28210E",
"1  c #31230E",
"2  c #262613",
"3  c #2A2515",
"4  c #21201C",
"5  c #362E1B",
"6  c #3F2F1D",
"7  c #25311D",
"8  c #36301C",
"9  c #3A321F",
"0  c #222222",
"q  c #282B27",
"w  c #253521",
"e  c #273822",
"r  c #2D3C23",
"t  c #353723",
"y  c #3B3923",
"u  c #3A3A3A",
"i  c #412617",
"p  c #48361D",
"a  c #463B21",
"s  c #493D25",
"d  c #543E2B",
"f  c #423E33",
"g  c #693327",
"h  c #693428",
"j  c #6E3C2D",
"k  c #2D4027",
"l  c #2E4229",
"z  c #34452B",
"x  c #354B2E",
"c  c #3F4B2D",
"v  c #3E512F",
"b  c #384A34",
"n  c #3D4C39",
"m  c #3B5433",
"M  c #3E5937",
"N  c #3E5838",
"B  c #43472D",
"V  c #4B432B",
"C  c #53452C",
"Z  c #454237",
"A  c #474338",
"S  c #534730",
"D  c #554A35",
"F  c #594F36",
"G  c #405936",
"H  c #435E39",
"J  c #495C39",
"K  c #595037",
"L  c #5C5139",
"P  c #604834",
"I  c #774E3B",
"U  c #784938",
"Y  c #61553B",
"T  c #79543E",
"R  c #46653E",
"E  c #4A653D",
"W  c #414141",
"Q  c #4D4C4D",
"!  c #504B41",
"~  c #535453",
"^  c #5D5D5D",
"/  c #665840",
"(  c #6F5F46",
")  c #7B5541",
"_  c #7C5942",
"`  c #4A6642",
"'  c #4B6B41",
"]  c #4E7145",
"[  c #537648",
"{  c #557B4B",
"}  c #597C4C",
"|  c #597D55",
" . c #786147",
".. c #746348",
"X. c #7B694D",
"o. c #7D536F",
"O. c #626362",
"+. c #676868",
"@. c #6C6F6C",
"#. c #747474",
"$. c #7D7D7D",
"%. c #825944",
"&. c #84614A",
"*. c #856B51",
"=. c #8A6B51",
"-. c #817253",
";. c #897659",
":. c #877A5D",
">. c #8C7B5D",
",. c #937C5F",
"<. c #99785C",
"1. c #917F61",
"2. c #5B824F",
"3. c #5D8452",
"4. c #5F8954",
"5. c #638D57",
"6. c #648F58",
"7. c #65935A",
"8. c #6A995E",
"9. c #6E9E61",
"0. c #6FA062",
"q. c #71A364",
"w. c #77AB69",
"e. c #79AD6B",
"r. c #7CB36E",
"t. c #7EB670",
"y. c #7FB871",
"u. c #8D8061",
"i. c #948464",
"p. c #998365",
"a. c #928669",
"s. c #9D8768",
"d. c #978969",
"f. c #9A8A6A",
"g. c #A2926F",
"h. c #A29371",
"j. c #A99271",
"k. c #80B771",
"l. c #82BB73",
"z. c #B4A07C",
"x. c #7F8388",
"c. c #838382",
"v. c #868789",
"b. c #8E8E8E",
"n. c #92888F",
"m. c #8F908F",
"M. c #919191",
"N. c #B7A580",
"B. c #BFAB84",
"V. c #A2A2A2",
"C. c gray66",
"Z. c #B7B6B4",
"A. c #BCBCBC",
"S. c #C5C5C5",
"D. c #C6C8CB",
"F. c #CBCBCB",
"G. c #DFC3D6",
"H. c #D4D4D4",
"J. c #DBDBDB",
"K. c #E6E6E5",
"L. c #E7E8E7",
"P. c #EAEAEA",
"I. c #EFEFF0",
"U. c #F2F2F3",
"Y. c #FCF9F8",
"T. c #FEFEFE",
/* pixels */
"l.l.l.l.l.l.l.l.l.l.l.l.l.l.l.l.l.l.l.l.l.l.l.l.l.l.l.l.l.l.l.l.l.l.l.l.l.l.l.l.l.l.l.l.l.l.l.l.l.l.l.l.l.l.l.l.l.l.l.l.l.l.l.l.",
"l.l.l.l.l.l.l.l.l.l.l.l.l.l.l.l.l.l.l.l.l.l.l.l.l.l.l.l.l.l.l.l.l.l.l.l.l.l.l.l.l.l.l.l.l.l.l.l.l.l.l.l.l.l.l.l.l.l.l.l.l.l.l.l.",
"l.l.l.l.l.l.l.l.l.l.l.l.l.l.l.l.l.l.l.l.l.l.l.l.l.l.l.l.l.l.l.l.l.l.l.l.l.l.l.l.l.l.l.l.l.l.l.l.l.l.l.l.l.l.l.l.l.l.l.l.l.l.l.l.",
"l.l.l.l.l.l.l.l.l.l.l.l.l.l.l.l.l.l.l.l.l.l.l.l.l.l.l.l.l.l.l.l.l.l.l.l.l.l.l.l.l.l.l.l.l.l.l.l.l.l.l.l.l.l.l.l.l.l.l.l.l.l.l.l.",
"l.l.l.l.l.l.l.l.l.l.l.l.l.l.l.l.l.l.l.l.l.l.l.l.l.l.l.l.l.l.l.3.l.| l.l.l.l.l.l.l.l.l.l.l.l.l.l.l.l.l.l.l.l.l.l.l.l.l.l.l.l.l.l.",
"l.l.l.l.l.l.l.l.l.l.l.l.l.l.l.l.l.l.l.l.l.l.l.l.l.l.l.l.l.l.l.l.| l.l.l.l.l.l.l.l.l.l.l.l.l.l.l.l.l.l.l.l.l.l.l.l.l.l.l.l.l.l.l.",
"l.l.l.l.l.l.l.l.l.l.l.l.l.l.l.l.l.l.l.l.l.l.l.l.l.l.l.l.l.l.l.l.l.l.l.l.l.l.l.l.l.l.l.l.l.l.l.l.l.l.l.l.l.l.l.l.l.l.l.l.l.l.l.l.",
"l.l.l.l.l.l.l.l.l.l.l.l.l.l.l.l.l.l.l.l.l.l.l.l.l.l.l.l.l.l.l.l.l.l.l.l.l.l.l.l.l.l.l.l.l.l.l.l.l.l.l.l.l.l.l.l.l.l.l.l.l.l.l.l.",
"l.l.l.l.l.l.l.l.l.l.l.l.l.l.l.l.l.l.l.l.l.l.l.l.l.l.l.l.l.l.l.l.l.l.l.l.l.l.l.l.l.l.l.l.l.l.l.l.l.l.l.l.l.l.l.l.l.l.l.l.l.l.l.l.",
"l.l.l.l.l.l.l.l.l.l.l.l.l.l.l.l.l.l.l.l.l.l.l.l.l.l.l.l.l.l.l.l.l.l.l.l.l.l.l.l.l.l.l.l.l.l.l.l.l.l.l.l.l.l.l.l.l.l.l.l.l.l.l.l.",
"l.l.l.l.l.l.l.l.l.l.l.l.l.l.l.l.l.l.l.l.l.l.l.l.l.l.l.l.l.l.l.l.r.w.r.l.l.y.l.l.l.l.l.l.l.l.l.l.l.l.l.l.l.l.l.l.l.l.l.l.l.l.l.l.",
"l.l.l.l.l.l.l.l.l.l.l.l.l.l.l.l.l.l.l.l.l.l.l.l.l.l.l.l.l.l.l.l.R X r y.l.y.l.l.l.l.l.l.l.l.l.l.l.l.l.l.l.l.l.l.l.l.l.l.l.l.l.l.",
"l.l.l.l.l.l.l.l.l.l.l.l.l.l.l.l.l.l.l.l.l.l.l.l.l.l.l.l.l.l.r.E ~ V.#.b 0.l.l.l.l.l.l.l.l.l.l.l.l.l.l.l.l.l.l.l.l.l.l.l.l.l.l.l.",
"l.l.l.l.l.l.l.l.l.l.l.l.l.l.l.l.l.l.l.l.l.l.l.l.l.l.l.y.l.l.e.. V.Y.J.= { l.l.l.l.l.l.l.l.l.l.l.l.l.l.l.l.l.l.l.l.l.l.l.l.l.l.l.",
"l.l.l.l.l.l.l.l.l.l.l.l.l.l.l.l.l.l.l.l.l.l.l.l.l.l.l.l.r.e.8.$ m.T.S.* ] r.w.l.l.l.y.l.l.l.l.l.l.l.l.l.l.l.l.l.l.l.| l.3.l.l.l.",
"l.l.l.l.l.l.l.l.l.l.l.l.l.l.l.l.l.l.l.l.l.l.l.l.y.l.l.l.E - >   m.T.S.* @ 2 z y.l.l.y.l.l.l.l.l.l.l.l.l.l.l.l.l.l.l.l.3.l.l.l.l.",
"l.l.l.l.l.l.l.l.l.l.l.l.l.l.l.l.l.l.l.l.l.l.l.l.l.w.x x B -.L   v.T.S.& 8 -.K z 7 5.l.l.l.y.l.l.l.l.l.l.l.l.l.l.l.l.l.l.l.l.l.l.",
"l.l.l.l.l.l.l.l.l.l.l.l.l.l.l.l.l.l.l.l.l.l.l.4.} J d V -.z.>.  x.T.D.X D B.i.F S B 2.[ r.l.l.l.l.l.l.l.l.l.l.l.l.l.l.l.l.l.l.l.",
"l.l.l.l.l.l.l.l.l.l.l.l.l.l.l.l.l.l.l.l.t.q.9.y ; 6 =.p.d.f.;.@ c.Y.A.4 L g.i.p.<.C - 5 } w.w.l.l.l.l.l.l.l.l.l.l.l.l.l.l.l.l.l.",
"l.l.l.l.l.l.l.l.l.l.l.l.l.l.l.l.l.l.l.l.[ % 3 ..D ; U &.1.d.i.:.a.h.f.:.u.d.i.*.%.i 8 X.y # v y.l.l.l.l.l.l.l.l.l.l.l.l.l.l.l.l.",
"l.l.l.l.l.l.l.l.l.l.l.l.l.l.l.l.l.l.l.' V X./ 1.V O j U ) _ _ &._ I T &._ _ _ I U : 1 <. ...K v w.l.l.l.l.l.l.l.l.l.l.l.l.l.l.l.",
"l.l.l.l.l.l.l.l.l.l.l.l.l.l.l.l.l.l.y.% ( N.s.1./ d I j h h h h h h g g g g h j U P L ;.p.z.>.< 6.l.l.l.l.l.l.l.l.l.l.l.l.l.l.l.",
"l.l.l.l.l.l.l.l.l.l.l.l.l.l.l.l.l.l.y.N V 1.s.d.s.1.*.) I I I I I I I I I T I T &.p.g.d.f.p.L t 9.l.l.l.l.l.l.l.l.l.l.l.l.l.l.l.",
"l.l.l.l.l.l.l.3.l.| l.l.l.l.l.l.l.l.l.l.H s i.s.i.i.i.1.1.1.1.1.u.u.i.u.,.u.,.u.u.i.i.p.g.Y k e.l.l.l.l.l.l.l.l.l.l.l.l.l.l.l.l.",
"l.l.l.l.l.l.l.l.3.l.l.l.l.l.l.l.l.l.l.l.y.E a V y F s.j.j.h.h.h.g.h.h.h.h.g.g.g.j.( 6 s S c e.l.l.l.l.l.l.l.l.l.l.l.l.l.l.l.l.l.",
"l.l.l.l.l.l.l.l.l.l.l.l.l.l.l.l.l.l.l.y.l.y.G H 7 ; p a a a a a a a p p V p 9 V p 3 % N m 9.l.y.l.l.l.l.l.l.l.l.l.l.l.l.l.l.l.l.",
"l.l.l.l.l.l.l.l.l.l.l.l.l.l.l.l.l.l.l.l.y.l.l.l.` 3 f f f A A f A Z Z Z f A J A ! 8 r y.l.l.y.l.l.l.l.l.l.l.l.l.l.l.l.l.l.l.l.l.",
"l.l.l.l.l.l.l.l.l.l.l.l.l.l.l.l.l.l.l.l.l.l.l.l.N u H.F.J.L.L.L.K.K.K.K.K.K.K.K.Y.#., t.l.l.y.l.l.l.l.l.l.l.l.l.l.l.l.l.l.l.l.l.",
"l.l.l.l.l.l.l.l.l.l.l.l.l.l.l.l.l.l.l.l.l.l.l.l.N u J.P.U.U.I.I.U.I.I.I.T.M.Q L.T.$., y.l.l.l.l.l.l.l.l.l.l.l.l.l.l.l.l.l.l.l.l.",
"l.l.l.l.l.l.l.l.l.l.l.l.l.l.l.l.l.l.l.l.l.l.l.l.N u H.P.P.L.L.L.L.L.L.L.T.^ X J.T.@.w l.l.l.l.l.l.l.l.l.l.l.l.l.l.l.l.l.l.l.l.l.",
"l.l.l.l.l.l.l.l.l.l.l.l.l.l.l.l.l.l.l.l.l.l.l.l.N u H.K.K.L.L.L.K.L.L.L.T.O.X H.T.n.4 3.t.l.l.l.l.l.l.l.l.l.l.l.l.l.l.l.l.l.l.l.",
"l.l.l.l.l.l.l.l.l.l.l.l.l.l.l.l.l.l.l.l.l.l.l.l.N u H.H.H.K.L.L.L.K.L.L.T.#.4 J.T.G.o.o 5.l.l.l.l.l.l.l.l.l.l.l.l.l.l.l.l.l.l.l.",
"l.l.l.l.l.l.l.l.l.l.l.l.l.l.l.l.l.l.l.l.l.l.l.l.x W K.J.F.H.K.K.P.K.P.K.I.F.S.K.P.Y.C.+ 5.l.l.l.l.l.l.l.l.l.l.l.l.l.l.l.l.l.l.l.",
"l.l.l.l.l.l.l.l.l.l.l.l.l.l.l.l.l.l.l.l.l.l.l.l.q.z O.H.L.D.J.K.K.K.K.P.K.Y.T.K.J.T.H.X 4.l.l.l.l.l.l.l.l.l.l.l.l.l.l.l.l.l.l.l.",
"l.l.l.l.l.l.l.l.l.l.l.l.l.l.l.l.l.l.l.l.l.l.l.y.l.r.w ^ F.L.J.J.J.J.J.J.K.I.I.Y.T.J.+.z q.l.l.l.l.l.l.l.l.l.l.l.l.l.l.l.l.l.l.l.",
"l.l.l.l.l.l.l.l.l.l.l.l.l.l.l.l.l.l.l.l.l.l.l.l.y.l.r.e O.H.Z.D.F.F.F.F.A.Z.A.F.L.O.l y.l.l.l.l.l.l.l.l.l.l.l.l.l.l.l.l.l.l.l.l.",
"l.l.l.l.l.l.l.l.l.l.l.l.l.l.l.l.l.l.l.l.l.l.l.l.l.l.l.r.l * q V.D.A.A.S.~ & = 0 0 b y.l.l.l.l.l.l.l.l.l.l.l.l.l.l.l.l.l.l.l.l.l.",
"l.l.l.l.l.l.l.l.l.l.l.l.l.l.l.l.l.l.l.l.l.l.l.l.y.l.l.l.r.M X C.K.F.F.H.= r 9.[ ' 0.l.y.l.l.l.l.l.l.l.l.l.l.l.l.l.l.l.l.l.l.l.l.",
"l.l.l.l.l.l.l.l.l.l.l.l.l.l.l.l.l.l.l.l.l.l.l.y.l.e.[ y.t.M @.H.U.K.J.K.M.n q.k.l.l.y.l.l.l.l.l.l.l.l.l.l.l.l.l.l.l.l.l.l.l.l.l.",
"l.l.l.l.l.l.l.l.l.l.l.l.l.l.l.l.l.l.l.l.l.l.l.l.l.` 0 5.x #.T.I.K.K.K.K.T.b.$ e.l.l.l.l.l.l.l.l.| l.| l.l.l.l.l.l.l.l.l.l.l.l.l.",
"l.l.l.l.l.l.l.l.l.l.l.l.l.l.l.l.l.l.l.l.l.l.l.l.` Q H.q O.U.I.L.K.L.K.K.T.c.> r.l.y.l.l.l.l.l.l.l.3.l.l.l.l.l.l.l.l.l.l.l.l.l.l.",
"l.l.l.l.l.l.l.l.l.l.l.l.l.l.l.l.l.l.l.l.l.l.l.l.r ^ U.= #.T.J.K.K.L.K.K.T.$.  e e.l.l.l.l.l.l.l.l.l.l.l.l.l.l.l.l.l.l.l.l.l.l.l.",
"l.l.l.l.l.l.l.l.l.l.l.l.l.l.l.l.l.l.l.l.l.l.l.l.7.b +.  b.Y.H.K.L.L.K.K.T.b.    e 0.l.l.l.l.l.l.l.l.l.l.l.l.l.l.l.l.l.l.l.l.l.l.",
"l.l.l.l.l.l.l.l.l.l.l.l.l.l.l.l.l.l.l.l.l.l.l.l.y.0.> > @.J.J.L.L.L.L.U.K.^       z l.l.l.l.l.l.l.l.l.l.l.l.l.l.l.l.l.l.l.l.l.l.",
"l.l.l.l.l.l.l.l.l.l.l.l.l.l.l.l.l.l.l.l.l.l.l.l.l.y.r.y.x Q K.L.P.L.U.U.~         m l.l.l.l.l.l.l.l.l.l.l.l.l.l.l.l.l.l.l.l.l.l.",
"l.l.l.l.l.l.l.l.l.l.l.l.l.l.l.l.l.l.l.l.l.l.l.l.y.l.l.l.z Q Y.T.T.T.L.~         m r.l.l.l.l.l.l.l.l.l.l.l.l.l.l.l.l.l.l.l.l.l.l.",
"l.l.l.l.l.l.l.l.l.l.l.l.l.l.l.l.l.l.l.l.l.l.l.l.l.l.l.l.7.n x.$.#.c.O.b R G N N e.l.y.l.l.l.l.l.l.l.l.l.l.l.l.l.l.l.l.l.l.l.l.l.",
"l.l.l.l.l.l.l.l.l.l.l.l.l.l.l.l.l.l.l.l.l.l.l.l.l.l.l.y.l.0., q w , x y.l.l.l.l.l.y.l.l.l.l.l.l.l.l.l.l.l.l.l.l.l.l.l.l.l.l.l.l.",
"l.l.l.l.l.l.l.l.l.l.l.l.l.l.l.l.l.l.l.l.l.l.l.l.l.l.l.l.l.l.t.t.t.t.l.l.l.l.l.l.l.l.l.l.l.l.l.l.l.l.l.l.l.l.l.l.l.l.l.l.l.l.l.l.",
"l.l.l.l.l.l.l.l.l.l.l.l.l.l.l.l.l.l.l.l.l.l.l.l.l.l.l.l.l.l.l.l.l.l.l.l.l.l.l.l.l.l.l.l.l.l.l.l.l.l.l.l.l.l.l.l.l.l.l.l.l.l.l.l.",
"l.l.l.l.l.l.l.l.l.l.l.l.l.l.l.l.l.l.l.l.l.l.l.l.l.l.l.l.l.l.l.l.l.l.l.l.l.l.l.l.l.l.l.l.l.l.l.l.l.l.l.l.l.l.l.l.l.l.l.l.l.l.l.l.",
"l.l.l.l.l.l.l.l.l.l.l.l.l.l.l.l.l.l.l.l.l.l.l.l.l.l.l.l.l.l.l.l.l.l.l.l.l.l.l.l.l.l.l.l.l.l.l.l.l.l.l.l.l.l.l.l.l.l.l.l.l.l.l.l.",
"l.l.l.l.l.l.l.l.l.l.l.l.l.l.l.l.l.l.l.l.l.l.l.l.l.l.l.l.l.l.l.l.l.l.l.l.l.l.l.l.l.l.l.l.l.l.l.l.l.l.l.l.l.l.l.l.l.l.l.l.l.l.l.l.",
"l.l.l.l.l.l.l.l.l.l.l.l.l.l.l.l.l.l.l.l.l.l.l.l.l.l.l.l.l.l.l.l.l.l.l.l.l.l.l.l.l.l.l.l.l.l.l.l.l.l.l.l.l.l.l.l.l.l.l.l.l.l.l.l.",
"l.l.l.l.l.l.l.l.l.l.l.l.l.l.l.l.l.l.l.l.l.l.l.l.l.l.l.l.l.l.l.l.l.l.l.l.l.l.l.l.l.l.l.l.l.l.l.l.l.l.l.l.l.l.l.l.l.l.l.l.l.l.l.l.",
"l.l.l.l.l.l.l.l.l.l.l.l.l.l.l.l.| l.| l.l.l.l.l.l.l.l.l.l.l.l.l.l.l.l.l.l.l.l.l.l.l.l.l.l.l.l.l.l.l.l.l.l.l.l.l.l.l.l.l.l.l.l.l.",
"l.l.l.l.l.l.l.l.l.l.l.l.l.l.l.l.l.| l.l.l.l.l.l.l.l.l.l.l.l.l.l.l.l.l.l.l.l.l.l.l.l.l.l.l.l.l.l.l.l.l.l.l.l.l.l.l.l.l.l.l.l.l.l.",
"l.l.l.l.l.l.l.l.l.l.l.l.l.l.l.l.l.l.l.l.l.l.l.l.l.l.l.l.l.l.l.l.l.l.l.l.l.l.l.l.l.l.l.l.l.l.l.l.l.l.l.l.l.l.l.l.l.l.l.l.l.l.l.l.",
"l.l.l.l.l.l.l.l.l.l.l.l.l.l.l.l.l.l.l.l.l.l.l.l.l.l.l.l.l.l.l.l.l.l.l.l.l.l.l.l.l.l.l.l.l.l.l.l.l.l.l.l.l.l.l.l.l.l.l.l.l.l.l.l.",
"l.l.l.l.l.l.l.l.l.l.l.l.l.l.l.l.l.l.l.l.l.l.l.l.l.l.l.l.l.l.l.l.l.l.l.l.l.l.l.l.l.l.l.l.l.l.l.l.l.l.l.l.l.l.l.l.l.l.| l.| l.l.l.",
"l.l.l.l.l.l.l.l.l.l.l.l.l.l.l.l.l.l.l.l.l.l.l.l.l.l.l.l.l.l.l.l.l.l.l.l.l.l.l.l.l.l.l.l.l.l.l.l.l.l.l.l.l.l.l.l.l.l.l.3.l.l.l.l.",
"l.l.l.l.l.l.l.l.l.l.l.l.l.l.l.l.l.l.l.l.l.l.l.l.l.l.l.l.l.l.l.l.l.l.l.l.l.l.l.l.l.l.l.l.l.l.l.l.l.l.l.l.l.l.l.l.l.l.l.l.l.l.l.l.",
"l.l.l.l.l.l.l.l.l.l.l.l.l.l.l.l.l.l.l.l.l.l.l.l.l.l.l.l.l.l.l.l.l.l.l.l.l.l.l.l.l.l.l.l.l.l.l.l.l.l.l.l.l.l.l.l.l.l.l.l.l.l.l.l.",
"l.l.l.l.l.l.l.l.l.l.l.l.l.l.l.l.l.l.l.l.l.l.l.l.l.l.l.l.l.l.l.l.l.l.l.l.l.l.l.l.l.l.l.l.l.l.l.l.l.l.l.l.l.l.l.l.l.l.l.l.l.l.l.l."
};
