/* XPM */
static char *result[] = {
/* columns rows colors chars-per-pixel */
"64 64 151 2 ",
"   c #0B0A07",
".  c #141C13",
"X  c #181719",
"o  c #251C0B",
"O  c #31160B",
"+  c #1F210E",
"@  c #1E2518",
"#  c #222B19",
"$  c #392710",
"%  c #372F1C",
"&  c #22301E",
"*  c #2E351C",
"=  c #362F25",
"-  c #273724",
";  c #283723",
":  c #343F25",
">  c #39362A",
",  c #2C2F35",
"<  c #2E3234",
"1  c #343336",
"2  c #363B37",
"3  c #363639",
"4  c #38373A",
"5  c #3A3B3C",
"6  c #44371E",
"7  c #4B301F",
"8  c #44381E",
"9  c #493E27",
"0  c #553C2A",
"q  c #403F3E",
"w  c #6A3629",
"e  c #6C392C",
"r  c #344024",
"t  c #34492E",
"y  c #394D2D",
"u  c #394538",
"i  c #3C5332",
"p  c #3D5936",
"a  c #46462C",
"s  c #4E422A",
"d  c #5D4736",
"f  c #554B32",
"g  c #5D4C32",
"h  c #445735",
"j  c #465A35",
"k  c #415D39",
"l  c #624F38",
"z  c #734736",
"x  c #744937",
"c  c #754938",
"v  c #794838",
"b  c #625037",
"n  c #64563B",
"m  c #68573F",
"M  c #78573C",
"N  c #46643D",
"B  c #434245",
"V  c #474A47",
"C  c #4F4C42",
"Z  c #4A4A4B",
"A  c #485D44",
"S  c #4D4D51",
"D  c #505354",
"F  c #5C5A57",
"G  c #55535A",
"H  c #59585D",
"J  c #6E5D4B",
"K  c #7D5441",
"L  c #7D5C44",
"P  c #496442",
"I  c #4B6A42",
"U  c #4E7045",
"Y  c #527549",
"T  c #587F4E",
"R  c #597D55",
"E  c #706346",
"W  c #6A6051",
"Q  c #5D5B62",
"!  c #605F64",
"~  c #626364",
"^  c #7C7B7D",
"/  c #804B3A",
"(  c #855C44",
")  c #81624B",
"_  c #857558",
"`  c #8E7559",
"'  c #8E7B5E",
"]  c #937C5F",
"[  c #8F7E60",
"{  c #5B8351",
"}  c #608A55",
"|  c #608059",
" . c #648F5A",
".. c #66925A",
"X. c #69965D",
"o. c #6A985F",
"O. c #7D9779",
"+. c #73A666",
"@. c #75A968",
"#. c #79AD6A",
"$. c #7CB36E",
"%. c #7EB670",
"&. c #7FB871",
"*. c #958465",
"=. c #998164",
"-. c #998867",
";. c #93856B",
":. c #968A69",
">. c #9B8C6B",
",. c #A18F6D",
"<. c #A39371",
"1. c #AC9776",
"2. c #A49B7D",
"3. c #82BB73",
"4. c #B4A17D",
"5. c #7E8186",
"6. c #87878A",
"7. c #909091",
"8. c #9A9A9A",
"9. c #AAA28B",
"0. c #A1A1A2",
"q. c #A5A4AA",
"w. c #ABAAAB",
"e. c #ACABB3",
"r. c #B2B1BA",
"t. c #BDBCB8",
"y. c #BEBDC9",
"u. c #C2C2C2",
"i. c #C4C3CC",
"p. c #D5CFC2",
"a. c #CCCBD5",
"s. c #CFCEDB",
"d. c #D3D2D4",
"f. c #D4D3DC",
"g. c #DBDBDE",
"h. c #D6D5E1",
"j. c #D8D7E2",
"k. c #DCDBE4",
"l. c #DFDEE9",
"z. c #E0DFE3",
"x. c #E6E6E6",
"c. c #E7E8E7",
"v. c #E9E9E7",
"b. c #E4E3EB",
"n. c #E8E7E9",
"m. c #EAEAEA",
"M. c #EDEDF3",
"N. c #E9E8F4",
"B. c #F2F2F3",
"V. c #F1F1FA",
"C. c #FDFEFD",
/* pixels */
"3.3.3.3.3.3.3.3.3.3.3.3.3.3.3.3.3.3.3.3.3.3.3.3.3.3.3.3.3.3.3.3.3.3.3.3.3.3.3.3.3.3.3.3.3.3.3.3.3.3.3.3.3.3.3.3.3.3.3.3.3.3.3.3.",
"3.3.3.3.3.3.3.3.3.3.3.3.3.3.3.3.3.3.3.3.3.3.3.3.3.3.3.3.3.3.3.3.3.3.3.3.3.3.3.3.3.3.3.3.3.3.3.3.3.3.3.3.3.3.3.3.3.3.3.3.3.3.3.3.",
"3.3.3.3.3.3.3.3.3.3.3.3.3.3.3.3.3.3.3.3.3.3.3.3.3.3.3.3.3.3.3.3.3.3.3.3.3.3.3.3.3.3.3.3.3.3.3.3.3.3.3.3.3.3.3.3.3.3.3.3.3.3.3.3.",
"3.3.3.3.3.3.3.3.3.3.3.3.3.3.3.3.3.3.3.3.3.3.3.3.3.3.3.3.3.3.3.3.3.3.3.3.3.3.3.3.3.3.3.3.3.3.3.3.3.3.3.3.3.3.3.3.3.3.3.3.3.3.3.3.",
"3.3.3.3.3.3.3.3.3.3.3.3.3.3.3.3.3.3.3.3.3.3.3.3.3.3.3.3.3.3.3.{ 3.{ 3.3.3.3.3.3.3.3.3.3.3.3.3.3.3.3.3.3.3.3.3.3.3.3.3.3.3.3.3.3.",
"3.3.3.3.3.3.3.3.3.3.3.3.3.3.3.3.3.3.3.3.3.3.3.3.3.3.3.3.3.3.3.3.R 3.3.3.3.3.3.3.3.3.3.3.3.3.3.3.3.3.3.3.3.3.3.3.3.3.3.3.3.3.3.3.",
"3.3.3.3.3.3.3.3.3.3.3.3.3.3.3.3.3.3.3.3.3.3.3.3.3.3.3.3.3.3.3.3.3.3.3.3.3.3.3.3.3.3.3.3.3.3.3.3.3.3.3.3.3.3.3.3.3.3.3.3.3.3.3.3.",
"3.3.3.3.3.3.3.3.3.3.3.3.3.3.3.3.3.3.3.3.3.3.3.3.3.3.3.3.3.3.3.3.3.3.3.3.3.3.3.3.3.3.3.3.3.3.3.3.3.3.3.3.3.3.3.3.3.3.3.3.3.3.3.3.",
"3.3.3.3.3.3.3.3.3.3.3.3.3.3.3.3.3.3.3.3.3.3.3.3.3.3.3.3.3.3.3.3.3.3.3.3.3.3.3.3.3.3.3.3.3.3.3.3.3.3.3.3.3.3.3.3.3.3.3.3.3.3.3.3.",
"3.3.3.3.3.3.3.3.3.3.3.3.3.3.3.3.3.3.3.3.3.3.3.3.3.3.3.3.3.3.3.3.3.3.3.3.3.3.3.3.3.3.3.3.3.3.3.3.3.3.3.3.3.3.3.3.3.3.3.3.3.3.3.3.",
"3.3.3.3.3.3.3.3.3.3.3.3.3.3.3.3.3.3.3.3.3.3.3.3.3.3.3.3.3.3.3.3.3.3.3.3.3.3.3.3.3.3.3.3.3.3.3.3.3.3.3.3.3.3.3.3.3.3.3.3.3.3.3.3.",
"3.3.3.3.3.3.3.3.3.3.3.3.3.3.3.3.3.3.3.3.3.3.3.3.3.3.3.3.3.&.3.3.3.3.3.3.3.3.3.3.3.3.3.3.3.3.3.3.3.3.3.3.3.3.3.3.3.3.3.3.3.3.3.3.",
"3.3.3.3.3.3.3.3.3.3.3.3.3.3.3.3.3.3.3.3.3.3.3.$.3.3.{ Y +.3.3.3.3.@.Y } 3.3.3.3.3.3.3.3.3.3.3.3.3.3.3.3.3.3.3.3.3.3.3.3.3.3.3.3.",
"3.3.3.3.3.3.3.3.3.3.3.3.3.3.3.3.3.3.3.3.3.3.3.3.3.X.u B A 3.3.&.3.A B 5 X.3.3.3.3.3.3.3.3.3.3.3.3.3.3.3.3.3.3.3.3.3.3.3.3.3.3.3.",
"3.3.3.3.3.3.3.3.3.3.3.3.3.3.3.3.3.3.3.3.3.3.3.3.} 5 u.M.^ t 3.3.t ^ B.u.u } 3.3.3.3.3.3.3.3.3.3.3.3.3.3.3.3.3.3.3.3.R 3.| 3.3.3.",
"3.3.3.3.3.3.3.3.3.3.3.3.3.3.3.3.3.3.3.3.3.3.3.3.{ 5 z.C.7.- 3.3.; 7.C.k.5 T 3.3.3.3.3.3.3.3.3.3.3.3.3.3.3.3.3.3.3.3.3.{ 3.3.3.3.",
"3.3.3.3.3.3.3.3.3.3.3.3.3.3.3.3.3.3.3.3.3.3.3.3.X.4 d.C.6.. N N . 6.C.d.4 ..3.3.3.3.3.3.3.3.3.3.3.3.3.3.3.3.3.3.3.3.3.3.3.3.3.3.",
"3.3.3.3.3.3.3.3.3.3.3.3.3.3.3.3.3.3.3.3.3.3.3.%.i 4 d.C.5.  s s   6.C.d.4 i %.3.3.3.3.3.3.3.3.3.3.3.3.3.3.3.3.3.3.3.3.3.3.3.3.3.",
"3.3.3.3.3.3.3.3.3.3.3.3.3.3.3.3.3.3.3.3.3.@.%.h o 3 d.C.^ = ,.,.= ^ C.f.4 o j #.+.3.3.3.3.3.3.3.3.3.3.3.3.3.3.3.3.3.3.3.3.3.3.3.",
"3.3.3.3.3.3.3.3.3.3.3.3.3.3.3.3.3.3.3.3.#.* + d d < k.p.;._ *.*._ ;.p.j., d f + * #.3.3.%.3.3.3.3.3.3.3.3.3.3.3.3.3.3.3.3.3.3.3.",
"3.3.3.3.3.3.3.3.3.3.3.3.3.3.3.3.3.3.} # r J % 7 K J 9.2.>.>.:.:.>.,.2.9.J ( 7 % m : # } 3.3.3.3.3.3.3.3.3.3.3.3.3.3.3.3.3.3.3.3.",
"3.3.3.3.3.3.3.3.3.3.3.3.3.3.3.3.3.} a n b ] % O / ( M L ) ) ) ) E ) L M ( v O % ] l n a { 3.3.3.3.3.3.3.3.3.3.3.3.3.3.3.3.3.3.3.",
"3.3.3.3.3.3.3.3.3.3.3.3.3.3.3.3.$.+ E 4.=.' s 0 v e w w w w w w w w w w e v 0 f ] =.4.E + 3.3.3.3.3.3.3.3.3.3.3.3.3.3.3.3.3.3.3.",
"3.3.3.3.3.3.3.{ 3.| 3.3.3.3.3.3.3.y f -.*.*.*.` L z x c c c c c c c v x z L [ >.*.*.-.f y 3.3.3.3.3.3.3.3.3.3.3.3.3.3.3.3.3.3.3.",
"3.3.3.3.3.3.3.3.{ 3.3.3.3.3.3.3.3.&.i f ,.:.>.*.[ [ [ ' ' ' ' ' ' ' ' ' ' ' *.>.>.>.f i 3.3.3.3.3.3.3.3.3.3.3.3.3.3.3.3.3.3.3.3.",
"3.3.3.3.3.3.3.3.3.3.3.3.3.3.3.3.3.3.$.h s 9 o g 1.<.<.<.<.<.<.<.<.<.<.<.<.1.b o 9 s h 3.3.3.3.3.3.3.3.3.3.3.3.3.3.3.3.3.3.3.3.3.",
"3.3.3.3.3.3.3.3.3.3.3.3.3.3.3.3.3.%.3.3.N   F W $ 6 6 6 6 6 6 8 6 6 6 6 6 $ J F   k 3.3.$.3.3.3.3.3.3.3.3.3.3.3.3.3.3.3.3.3.3.3.",
"3.3.3.3.3.3.3.3.3.3.3.3.3.3.3.3.3.3.3.3...D M.t.> C C C C C C C C C C C C > t.M.D  .3.3.3.3.3.3.3.3.3.3.3.3.3.3.3.3.3.3.3.3.3.3.",
"3.3.3.3.3.3.3.3.3.3.3.3.3.3.3.3.3.3.3.T 5 j.B.m.B.B.B.B.B.B.B.B.B.B.B.B.B.B.m.B.k.5 T 3.3.3.3.3.3.3.3.3.3.3.3.3.3.3.3.3.3.3.3.3.",
"3.3.3.3.3.3.3.3.3.3.3.3.3.3.3.3.3.3.3.{ 5 d.B.v.m.v.m.v.m.v.m.v.m.m.v.v.n.v.m.B.f.4 { 3.3.3.3.3.3.3.3.3.3.3.3.3.3.3.3.3.3.3.3.3.",
"3.3.3.3.3.3.3.3.3.3.3.3.3.3.3.3.3.3.3.{ 4 a.m.v.n.x.v.x.n.x.c.n.n.n.x.c.x.c.v.B.i.4  .3.3.3.3.3.3.3.3.3.3.3.3.3.3.3.3.3.3.3.3.3.",
"3.3.3.3.3.3.3.3.3.3.3.3.3.3.3.3.3.3.3.{ 4 y.M.n.x.x.n.x.c.n.x.x.x.c.x.c.n.c.n.N.i.4 } 3.3.3.3.3.3.3.3.3.3.3.3.3.3.3.3.3.3.3.3.3.",
"3.3.3.3.3.3.3.3.3.3.3.3.3.3.3.3.3.3.3.{ 4 s.V.b.c.x.c.c.x.x.c.c.x.c.x.x.x.n.b.M.f.4 T 3.3.3.3.3.3.3.3.3.3.3.3.3.3.3.3.3.3.3.3.3.",
"3.3.3.3.3.3.3.3.3.3.3.3.3.3.3.3.3.3.3.{ 2 r.b.b.l.x.x.b.x.x.x.x.x.x.n.n.x.l.N.b.e.4 { 3.3.3.3.3.3.3.3.3.3.3.3.3.3.3.3.3.3.3.3.3.",
"3.3.3.3.3.3.3.3.3.3.3.3.3.3.3.3.3.3.3.3.o.1 r.V.j.b.b.b.l.b.b.b.b.b.b.b.b.h.V.w.@ X.3.3.3.3.3.3.3.3.3.3.3.3.3.3.3.3.3.3.3.3.3.3.",
"3.3.3.3.3.3.3.3.3.3.3.3.3.3.3.3.3.3.3.3.3...2 r.C.V.V.b.j.k.k.j.k.h.l.V.V.C.q.@ ..3.3.&.3.3.3.3.3.3.3.3.3.3.3.3.3.3.3.3.3.3.3.3.",
"3.3.3.3.3.3.3.3.3.3.3.3.3.3.3.3.3.3.3.3.3.3.T R O.~ Q e.h.a.a.a.a.h.e.! ! 5.{ { 3.3.3.3.3.3.3.3.3.3.3.3.3.3.3.3.3.3.3.3.3.3.3.3.",
"3.3.3.3.3.3.3.3.3.3.3.3.3.3.3.3.3.3.3.3.3.3.3.3.I Z B q.l.d.a.a.a.l.q.q Z I 3.3.&.3.3.3.3.3.3.3.3.3.3.3.3.3.3.3.3.3.3.3.3.3.3.3.",
"3.3.3.3.3.3.3.3.3.3.3.3.3.3.3.3.3.3.3.3.3.3.3.p ~ B.B.v.m.c.c.m.m.c.m.B.B.~ p 3.&.3.3.3.3.3.3.3.3.3.3.3.3.3.3.3.3.3.3.3.3.3.3.3.",
"3.3.3.3.3.3.3.3.3.3.3.3.3.3.3.3.3.3.3.3.3.3.3.N H V.k.x.c.c.c.n.c.m.z.l.B.H N 3.3.3.3.3.3.3.3.3.{ 3.R 3.3.3.3.3.3.3.3.3.3.3.3.3.",
"3.3.3.3.3.3.3.3.3.3.3.3.3.3.3.3.3.3.3.3.3.3.N ~ a.b.h.z.m.b.f.j.b.m.z.h.b.d.~ N 3.3.3.3.3.3.3.3.9.{ 3.3.3.3.3.3.3.3.3.3.3.3.3.3.",
"3.3.3.3.3.3.3.3.3.3.3.3.3.3.3.3.3.3.3.3.3.3.@ 8.C.l.f.x.l.s.s.b.b.b.z.h.k.C.w.. &.3.3.3.3.3.3.3.3.3.3.3.3.3.3.3.3.3.3.3.3.3.3.3.",
"3.3.3.3.3.3.3.3.3.3.3.3.3.3.3.3.3.3.3.3.3.&.& 7.C.N.h.b.d.y.k.M.f.f.x.h.V.d.! I 3.3.3.3.3.3.3.3.3.3.3.3.3.3.3.3.3.3.3.3.3.3.3.3.",
"3.3.3.3.3.3.3.3.3.3.3.3.3.3.3.3.3.3.3.3.3.&.t ^ c.s.f.c.k.a.h.f.a.g.c.j.j.S U 3.3.3.3.3.3.3.3.3.3.3.3.3.3.3.3.3.3.3.3.3.3.3.3.3.",
"3.3.3.3.3.3.3.3.3.3.3.3.3.3.3.3.3.3.3.3.3.3.&.P , Z s.C.V.b.s.s.b.M.B.d.Z Y 3.&.3.3.3.3.3.3.3.3.3.3.3.3.3.3.3.3.3.3.3.3.3.3.3.3.",
"3.3.3.3.3.3.3.3.3.3.3.3.3.3.3.3.3.3.3.3.3.3.3.$.p < B.0.D ! D G S e.C.d.< } 3.%.3.3.3.3.3.3.3.3.3.3.3.3.3.3.3.3.3.3.3.3.3.3.3.3.",
"3.3.3.3.3.3.3.3.3.3.3.3.3.3.3.3.3.3.3.3.3.3.&.3. ., 5.A I p N k U u i.B.u { 3.3.3.3.3.3.3.3.3.3.3.3.3.3.3.3.3.3.3.3.3.3.3.3.3.3.",
"3.3.3.3.3.3.3.3.3.3.3.3.3.3.3.3.3.3.3.3.3.3.3.3.o.u - @.3.3.3.3.&...V 0.4 { 3.3.3.3.3.3.3.3.3.3.3.3.3.3.3.3.3.3.3.3.3.3.3.3.3.3.",
"3.3.3.3.3.3.3.3.3.3.3.3.3.3.3.3.3.3.3.3.3.3.3.&.3.&.&.3.3.3.3.3.&.3.X.X &  .3.3.3.3.3.3.3.3.3.3.3.3.3.3.3.3.3.3.3.3.3.3.3.3.3.3.",
"3.3.3.3.3.3.3.3.3.3.3.3.3.3.3.3.3.3.3.3.3.3.3.3.3.3.3.3.3.3.3.3.3.3.&.3.3.3.3.3.3.3.3.3.3.3.3.3.3.3.3.3.3.3.3.3.3.3.3.3.3.3.3.3.",
"3.3.3.3.3.3.3.3.3.3.3.3.3.3.3.3.3.3.3.3.3.3.3.3.3.3.3.3.3.3.3.3.3.3.3.3.3.3.3.3.3.3.3.3.3.3.3.3.3.3.3.3.3.3.3.3.3.3.3.3.3.3.3.3.",
"3.3.3.3.3.3.3.3.3.3.3.3.3.3.3.3.3.3.3.3.3.3.3.3.3.3.3.3.3.3.3.3.3.3.3.3.3.3.3.3.3.3.3.3.3.3.3.3.3.3.3.3.3.3.3.3.3.3.3.3.3.3.3.3.",
"3.3.3.3.3.3.3.3.3.3.3.3.3.3.3.3.3.3.3.3.3.3.3.3.3.3.3.3.3.3.3.3.3.3.3.3.3.3.3.3.3.3.3.3.3.3.3.3.3.3.3.3.3.3.3.3.3.3.3.3.3.3.3.3.",
"3.3.3.3.3.3.3.3.3.3.3.3.3.3.3.3.3.3.3.3.3.3.3.3.3.3.3.3.3.3.3.3.3.3.3.3.3.3.3.3.3.3.3.3.3.3.3.3.3.3.3.3.3.3.3.3.3.3.3.3.3.3.3.3.",
"3.3.3.3.3.3.3.3.3.3.3.3.3.3.3.3.&.3.3.3.3.3.3.3.3.3.3.3.3.3.3.3.3.3.3.3.3.3.3.3.3.3.3.3.3.3.3.3.3.3.3.3.3.3.3.3.3.3.3.3.3.3.3.3.",
"3.3.3.3.3.3.3.3.3.3.3.3.3.3.3.3.{ 3.| 3.3.3.3.3.3.3.3.3.3.3.3.3.3.3.3.3.3.3.3.3.3.3.3.3.3.3.3.3.3.3.3.3.3.3.3.3.3.3.3.3.3.3.3.3.",
"3.3.3.3.3.3.3.3.3.3.3.3.3.3.3.3.3.| 3.3.3.3.3.3.3.3.3.3.3.3.3.3.3.3.3.3.3.3.3.3.3.3.3.3.3.3.3.3.3.3.3.3.3.3.3.3.3.3.3.3.3.3.3.3.",
"3.3.3.3.3.3.3.3.3.3.3.3.3.3.3.3.3.3.3.3.3.3.3.3.3.3.3.3.3.3.3.3.3.3.3.3.3.3.3.3.3.3.3.3.3.3.3.3.3.3.3.3.3.3.3.3.3.3.3.3.3.3.3.3.",
"3.3.3.3.3.3.3.3.3.3.3.3.3.3.3.3.3.3.3.3.3.3.3.3.3.3.3.3.3.3.3.3.3.3.3.3.3.3.3.3.3.3.3.3.3.3.3.3.3.3.3.3.3.3.3.3.3.3.3.3.3.3.3.3.",
"3.3.3.3.3.3.3.3.3.3.3.3.3.3.3.3.3.3.3.3.3.3.3.3.3.3.3.3.3.3.3.3.3.3.3.3.3.3.3.3.3.3.3.3.3.3.3.3.3.3.3.3.3.3.3.3.3.3.} 3.{ 3.3.3.",
"3.3.3.3.3.3.3.3.3.3.3.3.3.3.3.3.3.3.3.3.3.3.3.3.3.3.3.3.3.3.3.3.3.3.3.3.3.3.3.3.3.3.3.3.3.3.3.3.3.3.3.3.3.3.3.3.3.3.3.{ &.3.3.3.",
"3.3.3.3.3.3.3.3.3.3.3.3.3.3.3.3.3.3.3.3.3.3.3.3.3.3.3.3.3.3.3.3.3.3.3.3.3.3.3.3.3.3.3.3.3.3.3.3.3.3.3.3.3.3.3.3.3.3.3.3.3.3.3.3.",
"3.3.3.3.3.3.3.3.3.3.3.3.3.3.3.3.3.3.3.3.3.3.3.3.3.3.3.3.3.3.3.3.3.3.3.3.3.3.3.3.3.3.3.3.3.3.3.3.3.3.3.3.3.3.3.3.3.3.3.3.3.3.3.3.",
"3.3.3.3.3.3.3.3.3.3.3.3.3.3.3.3.3.3.3.3.3.3.3.3.3.3.3.3.3.3.3.3.3.3.3.3.3.3.3.3.3.3.3.3.3.3.3.3.3.3.3.3.3.3.3.3.3.3.3.3.3.3.3.3."
};
