/* XPM */
static char *c33fdc25ea5e4540e2b673c5dbfd623298uERge2LEcx1L4M[] = {
/* columns rows colors chars-per-pixel */
"64 64 172 2 ",
"   c #020202",
".  c #070906",
"X  c #090D07",
"o  c #0A0C0A",
"O  c #0E130D",
"+  c #10160E",
"@  c #1D160A",
"#  c #11180F",
"$  c #1D190A",
"%  c #131413",
"&  c #151D12",
"*  c #1C1C1C",
"=  c #241A09",
"-  c #2A1E09",
";  c #311B0E",
":  c #1F200E",
">  c #182216",
",  c #20220F",
"<  c #2C210B",
"1  c #222614",
"2  c #2F2714",
"3  c #2F2814",
"4  c #232F1F",
"5  c #342B16",
"6  c #22321E",
"7  c #3B321C",
"8  c #2C1E23",
"9  c #272727",
"0  c #263522",
"q  c #273822",
"w  c #2B3C24",
"e  c #2C3729",
"r  c #3C3621",
"t  c #323D22",
"y  c #30342F",
"u  c #38342B",
"i  c #3C392B",
"p  c #383A34",
"a  c #47321F",
"s  c #433622",
"d  c #473925",
"f  c #433E27",
"g  c #4B3F2A",
"h  c #693427",
"j  c #6D3A2D",
"k  c #2C4027",
"l  c #2E4228",
"z  c #31462B",
"x  c #3B4428",
"c  c #354B2E",
"v  c #3C4C2D",
"b  c #374F30",
"n  c #3A4E33",
"m  c #3D4E39",
"M  c #395233",
"N  c #3F5B37",
"B  c #46472C",
"V  c #4C422C",
"C  c #404D2F",
"Z  c #52442E",
"A  c #414C3E",
"S  c #425C37",
"D  c #5C5039",
"F  c #724535",
"G  c #794636",
"H  c #744837",
"J  c #754A38",
"K  c #784E3C",
"L  c #60553D",
"P  c #6B553D",
"I  c #63583E",
"U  c #79503C",
"Y  c #44623C",
"T  c #4C683F",
"R  c gray27",
"E  c #4C4C4C",
"W  c #475044",
"Q  c #535453",
"!  c #5B5B5B",
"~  c #635940",
"^  c #6B5C44",
"/  c #7E5A45",
"(  c #7F5E48",
")  c #4C6C42",
"_  c #506E43",
"`  c #517346",
"'  c #53774A",
"]  c #577849",
"[  c #587E4E",
"{  c #597D55",
"}  c #6E6247",
"|  c #76694C",
" . c #66635C",
".. c #7B6E51",
"X. c #7D7255",
"o. c #5F5F60",
"O. c #676767",
"+. c #6F6D66",
"@. c #67686A",
"#. c #6A6A6A",
"$. c #716E67",
"%. c #73716B",
"&. c #777977",
"*. c #7D7C76",
"=. c #7B7B7B",
"-. c #805F48",
";. c #806048",
":. c #816B4B",
">. c #846D52",
",. c #956D55",
"<. c #827355",
"1. c #8A7356",
"2. c #867759",
"3. c #87785A",
"4. c #8E7B5E",
"5. c #90775B",
"6. c #917A5D",
"7. c #8E7F60",
"8. c #947F61",
"9. c #846379",
"0. c #5A814F",
"q. c #5C8451",
"w. c #628C56",
"e. c #66935A",
"r. c #69965C",
"t. c #6A995E",
"y. c #6E9E61",
"u. c #6FA062",
"i. c #71A264",
"p. c #75A967",
"a. c #76AA69",
"s. c #78AC6B",
"d. c #7CB36E",
"f. c #7FB771",
"g. c #7FB871",
"h. c #948465",
"j. c #9B8465",
"k. c #9A8C6B",
"l. c #9E906E",
"z. c #85827C",
"x. c #A18E6E",
"c. c #A39270",
"v. c #AB9A77",
"b. c #80B771",
"n. c #82BB73",
"m. c #B3A17D",
"M. c #848484",
"N. c #8A8780",
"B. c #8C8C8C",
"V. c #9D9A8E",
"C. c #998292",
"Z. c #929392",
"A. c #9A9A9A",
"S. c #A29F93",
"D. c #A4A4A5",
"F. c #A4A5A9",
"G. c #ADADAD",
"H. c #A9ACB2",
"J. c #B4B4B4",
"K. c #BCBCBC",
"L. c #C0BFBF",
"P. c #C3C3C3",
"I. c #CBCBCB",
"U. c #D4D4D4",
"Y. c #DBDBDB",
"T. c #ECE8DB",
"R. c #F2D6E8",
"E. c #E5E5E5",
"W. c #EAEAEA",
"Q. c #EFF3EF",
"!. c #F3F3F3",
"~. c #FCFCFC",
/* pixels */
"n.n.n.n.n.n.n.n.n.n.n.n.n.n.n.n.n.n.n.n.n.n.n.n.n.n.n.n.n.n.n.n.n.n.n.n.n.n.n.n.n.n.n.n.n.n.n.n.n.n.n.n.n.n.n.n.n.n.n.n.n.n.n.n.",
"n.n.n.n.n.n.n.n.n.n.n.n.n.n.n.n.n.n.n.n.n.n.n.n.n.n.n.n.n.n.n.n.n.n.n.n.n.n.n.n.n.n.n.n.n.n.n.n.n.n.n.n.n.n.n.n.n.n.n.n.n.n.n.n.",
"n.n.n.n.n.n.n.n.n.n.n.n.n.n.n.n.n.n.n.n.n.n.n.n.n.n.n.n.n.n.n.n.n.n.n.n.n.n.n.n.n.n.n.n.n.n.n.n.n.n.n.n.n.n.n.n.n.n.n.n.n.n.n.n.",
"n.n.n.n.n.n.n.n.n.n.n.n.n.n.n.n.n.n.n.n.n.n.n.n.n.n.n.n.n.n.n.n.n.n.n.n.n.n.n.n.n.n.n.n.n.n.n.n.n.n.n.n.n.n.n.n.n.n.n.n.n.n.n.n.",
"n.n.n.n.n.n.n.n.n.n.n.n.n.n.n.n.n.n.n.n.n.n.n.n.n.n.n.n.n.n.n.{ n.{ n.n.n.n.n.n.n.n.n.n.n.n.n.n.n.n.n.n.n.n.n.n.n.n.n.n.n.n.n.n.",
"n.n.n.n.n.n.n.n.n.n.n.n.n.n.n.n.n.n.n.n.n.n.n.n.n.n.n.n.n.n.n.n.{ n.n.n.n.n.n.n.n.n.n.n.n.n.n.n.n.n.n.n.n.n.n.n.n.n.n.n.n.n.n.n.",
"n.n.n.n.n.n.n.n.n.n.n.n.n.n.n.n.n.n.n.n.n.n.n.n.n.n.n.n.n.n.n.n.n.n.n.n.n.n.n.n.n.n.n.n.n.n.n.n.n.n.n.n.n.n.n.n.n.n.n.n.n.n.n.n.",
"n.n.n.n.n.n.n.n.n.n.n.n.n.n.n.n.n.n.n.n.n.n.n.n.n.n.n.n.n.n.n.n.n.n.n.n.n.n.n.n.n.n.n.n.n.n.n.n.n.n.n.n.n.n.n.n.n.n.n.n.n.n.n.n.",
"n.n.n.n.n.n.n.n.n.n.n.n.n.n.n.n.n.n.n.n.n.n.n.n.n.n.n.n.n.n.n.n.n.n.n.n.n.n.n.n.n.n.n.n.n.n.n.n.n.n.n.n.n.n.n.n.n.n.n.n.n.n.n.n.",
"n.n.n.n.n.n.n.n.n.n.n.n.n.n.n.n.n.n.n.n.n.n.n.n.n.n.n.n.n.n.n.n.t.' r.n.n.n.n.n.n.n.n.n.n.n.n.n.n.n.n.n.n.n.n.n.n.n.n.n.n.n.n.n.",
"n.n.n.n.n.n.n.n.n.n.n.n.n.n.n.n.n.n.n.n.n.n.n.n.n.n.n.n.n.n.n.s.e % 0 p.n.n.n.n.n.n.n.n.n.n.n.n.n.n.n.n.n.n.n.n.n.n.n.n.n.n.n.n.",
"n.n.n.n.n.n.n.n.n.n.n.n.n.n.n.n.n.n.n.n.n.n.n.n.n.n.n.n.n.n.y.4 M.E.B.4 t.n.n.n.n.n.n.n.n.n.n.n.n.n.n.n.n.n.n.n.n.n.n.n.n.n.n.n.",
"n.n.n.n.n.n.n.n.n.n.n.n.n.n.n.n.n.n.n.n.n.n.n.n.n.n.n.n.n.n.i.o K.~.L.o y.n.n.n.n.n.n.n.n.n.n.n.n.n.n.n.n.n.n.n.n.n.n.n.n.n.n.n.",
"n.n.n.n.n.n.n.n.n.n.n.n.n.n.n.n.n.n.n.n.n.n.n.n.n.n.n.n.r.0.Y o D.~.G.O Y 0.e.n.n.n.n.n.n.n.n.n.n.n.n.n.n.n.n.n.n.n.n.n.n.n.n.n.",
"n.n.n.n.n.n.n.n.n.n.n.n.n.n.n.n.n.n.n.n.n.n.n.n.n.d.p.s.x 7 = . D.~.G.o @ 7 x p.p.d.n.n.n.n.n.n.n.n.n.n.n.n.n.n.n.n.{ n.{ n.n.n.",
"n.n.n.n.n.n.n.n.n.n.n.n.n.n.n.n.n.n.n.n.n.n.n.n.n.w., 1 L k.L . D.~.F.. D k.~ 1 : q.n.n.n.n.n.n.n.n.n.n.n.n.n.n.n.n.n.{ n.n.n.n.",
"n.n.n.n.n.n.n.n.n.n.n.n.n.n.n.n.n.n.n.n.n.n.n.S c B P ^ 7.m.}   F.~.H.  ^ m.7.} P B c S b.n.n.n.n.n.n.n.n.n.n.n.n.n.n.n.n.n.n.n.",
"n.n.n.n.n.n.n.n.n.n.n.n.n.n.n.n.n.n.n.n.t.` ) g 5 a ,.j.k.l.X.i V.T.S.i ..l.k.j.,.d 3 g T ` r.n.n.n.n.n.n.n.n.n.n.n.n.n.n.n.n.n.",
"n.n.n.n.n.n.n.n.n.n.n.n.n.n.n.n.n.n.n.d.C 5 s 5.V - G / 1.4.6.j.1.:.1.j.6.4.1./ G ; f 5.s 5 v s.n.n.n.n.n.n.n.n.n.n.n.n.n.n.n.n.",
"n.n.n.n.n.n.n.n.n.n.n.n.n.n.n.n.n.n.s.t L h.>.6.r - G F H J J J H F H J J J H F G ; 7 6.>.8.I w a.n.n.n.n.n.n.n.n.n.n.n.n.n.n.n.",
"n.n.n.n.n.n.n.n.n.n.n.n.n.n.n.n.n.n.p.$ ..m.h.h.} P U j h h h h h h h h h h h j K ^ | 8.h.m...$ i.n.n.n.n.n.n.n.n.n.n.n.n.n.n.n.",
"n.n.n.n.n.n.n.n.n.n.n.n.n.n.n.n.n.n.d.` f 2.c.k.c.k.1.;./ ( ( ( ( ( ( ( ( ( / -.>.x.v.k.c.2.f _ d.n.n.n.n.n.n.n.n.n.n.n.n.n.n.n.",
"n.n.n.n.n.n.n.n.n.n.n.n.n.n.n.n.n.n.n.n.` r 2.<...3.k.k.k.k.k.k.k.k.k.k.k.k.k.k.k.2...<.2.r ) n.n.n.n.n.n.n.n.n.n.n.n.n.n.n.n.n.",
"n.n.n.n.n.n.n.{ n.{ n.n.n.n.n.n.n.n.n.n.n.] 2 3 $ V 8.h.h.h.h.h.h.h.h.h.h.h.h.h.h.Z $ 2 2 ` n.n.n.n.n.n.n.n.n.n.n.n.n.n.n.n.n.n.",
"n.n.n.n.n.n.n.n.{ n.n.n.n.n.n.n.n.n.n.n.n.d.q.e.t - - < < - - - - - - - - - - - = - t w.q.d.n.n.n.n.n.n.n.n.n.n.n.n.n.n.n.n.n.n.",
"n.n.n.n.n.n.n.n.n.n.n.n.n.n.n.n.n.n.n.n.g.n.n.n.b u +. .+.%.%.%.%.%.%.%.$.z.N.%.*.p c n.n.n.g.n.n.n.n.n.n.n.n.n.n.n.n.n.n.n.n.n.",
"n.n.n.n.n.n.n.n.n.n.n.n.n.n.n.n.n.n.n.n.n.n.n.n.z Q !.W.~.~.~.~.~.~.~.~.~.Y.U.~.~.@.l n.n.n.n.n.n.n.n.n.n.n.n.n.n.n.n.n.n.n.n.n.",
"n.n.n.n.n.n.n.n.n.n.n.n.n.n.n.n.n.n.n.n.n.n.n.n.z E E.W.W.W.W.W.W.W.W.W.~.Q 9 W.~.o.l n.n.n.n.n.n.n.n.n.n.n.n.n.n.n.n.n.n.n.n.n.",
"n.n.n.n.n.n.n.n.n.n.n.n.n.n.n.n.n.n.n.n.n.n.n.n.z E E.W.W.E.E.E.E.E.E.W.~.R * W.~.Q c n.n.n.n.n.n.n.n.n.n.n.n.n.n.n.n.n.n.n.n.n.",
"n.n.n.n.n.n.n.n.n.n.n.n.n.n.n.n.n.n.n.n.n.n.n.n.z E E.Y.E.W.E.E.E.E.E.W.~.p % W.~.C.8 ) d.n.n.n.n.n.n.n.n.n.n.n.n.n.n.n.n.n.n.n.",
"n.n.n.n.n.n.n.n.n.n.n.n.n.n.n.n.n.n.n.n.n.n.n.n.w Q W.I.U.E.W.E.E.E.W.W.~.=.! W.Q.R.9.. y.n.n.n.n.n.n.n.n.n.n.n.n.n.n.n.n.n.n.n.",
"n.n.n.n.n.n.n.n.n.n.n.n.n.n.n.n.n.n.n.n.n.n.n.n.b E U.U.I.U.E.E.E.E.W.W.E.W.W.E.E.~.A.+ i.n.n.n.n.n.n.n.n.n.n.n.n.n.n.n.n.n.n.n.",
"n.n.n.n.n.n.n.n.n.n.n.n.n.n.n.n.n.n.n.n.n.n.n.n.d.M R U.E.I.U.E.E.E.E.W.W.W.W.E.E.~.G.o y.n.n.n.n.n.n.n.n.n.n.n.n.n.n.n.n.n.n.n.",
"n.n.n.n.n.n.n.n.n.n.n.n.n.n.n.n.n.n.n.n.n.n.n.n.n.d.b R P.~.E.Y.U.Y.U.Y.W.!.~.~.~.J.y [ d.n.n.n.n.n.n.n.n.n.n.n.n.n.n.n.n.n.n.n.",
"n.n.n.n.n.n.n.n.n.n.n.n.n.n.n.n.n.n.n.n.n.n.n.n.f.n.n.M Q A.Z.K.P.P.P.K.Z.=.B.A.G.y 0.n.n.n.n.n.n.n.n.n.n.n.n.n.n.n.n.n.n.n.n.n.",
"n.n.n.n.n.n.n.n.n.n.n.n.n.n.n.n.n.n.n.n.n.n.n.n.n.n.n.n.M   * J.I.K.P.J.* o & O o [ n.n.n.n.n.n.n.n.n.n.n.n.n.n.n.n.n.n.n.n.n.n.",
"n.n.n.n.n.n.n.n.n.n.n.n.n.n.n.n.n.n.n.n.n.n.n.n.n.n.n.n.n.Y * I.E.U.Y.I.* Y n.i.y.d.n.n.n.n.n.n.n.n.n.n.n.n.n.n.n.n.n.n.n.n.n.n.",
"n.n.n.n.n.n.n.n.n.n.n.n.n.n.n.n.n.n.n.n.n.n.n.n.n.e.M n.r.p J.E.W.E.E.Y.J.W q.n.n.n.n.n.n.n.n.n.n.n.n.n.n.n.n.n.n.n.n.n.n.n.n.n.",
"n.n.n.n.n.n.n.n.n.n.n.n.n.n.n.n.n.n.n.n.n.n.n.n.i.A ! ) e J.~.W.E.E.E.E.~.=.> f.n.n.n.n.n.n.n.n.n.n.n.n.n.n.n.n.n.n.n.n.n.n.n.n.",
"n.n.n.n.n.n.n.n.n.n.n.n.n.n.n.n.n.n.n.n.n.n.n.n.0 =.W.o A.~.E.E.E.E.E.E.~.O.q f.n.n.n.n.n.n.n.n.{ n.{ n.n.n.n.n.n.n.n.n.n.n.n.n.",
"n.n.n.n.n.n.n.n.n.n.n.n.n.n.n.n.n.n.n.n.n.n.n.n.w O.I.o Z.~.Y.E.E.E.E.E.~.O.q f.n.n.n.n.n.n.n.n.n.{ n.n.n.n.n.n.n.n.n.n.n.n.n.n.",
"n.n.n.n.n.n.n.n.n.n.n.n.n.n.n.n.n.n.n.n.n.n.n.n.p.m y   G.~.!.W.E.E.E.W.~.O.q f.n.n.n.n.n.n.n.n.n.n.n.n.n.n.n.n.n.n.n.n.n.n.n.n.",
"n.n.n.n.n.n.n.n.n.n.n.n.n.n.n.n.n.n.n.n.n.n.n.n.n.a.w . ! M.Z.!.~.!.E.W.~.O.q f.n.n.n.n.n.n.n.n.n.n.n.n.n.n.n.n.n.n.n.n.n.n.n.n.",
"n.n.n.n.n.n.n.n.n.n.n.n.n.n.n.n.n.n.n.n.n.n.n.n.n.n.p.O     % G.K.U.!.!.~.#.6 f.n.n.n.n.n.n.n.n.n.n.n.n.n.n.n.n.n.n.n.n.n.n.n.n.",
"n.n.n.n.n.n.n.n.n.n.n.n.n.n.n.n.n.n.n.n.n.n.n.n.n.n.u.O       % . &.~.W.~.#.0 f.n.n.n.n.n.n.n.n.n.n.n.n.n.n.n.n.n.n.n.n.n.n.n.n.",
"n.n.n.n.n.n.n.n.n.n.n.n.n.n.n.n.n.n.n.n.n.n.n.n.n.n.f.e.#   X q.i.n E R R m p.n.n.n.n.n.n.n.n.n.n.n.n.n.n.n.n.n.n.n.n.n.n.n.n.n.",
"n.n.n.n.n.n.n.n.n.n.n.n.n.n.n.n.n.n.n.n.n.n.n.n.n.n.n.n.q.k ` n.n.t.c N c y.n.n.n.n.n.n.n.n.n.n.n.n.n.n.n.n.n.n.n.n.n.n.n.n.n.n.",
"n.n.n.n.n.n.n.n.n.n.n.n.n.n.n.n.n.n.n.n.n.n.n.n.n.n.n.n.n.n.n.n.f.n.n.n.n.n.n.n.n.n.n.n.n.n.n.n.n.n.n.n.n.n.n.n.n.n.n.n.n.n.n.n.",
"n.n.n.n.n.n.n.n.n.n.n.n.n.n.n.n.n.n.n.n.n.n.n.n.n.n.n.n.n.n.n.n.n.n.n.n.n.n.n.n.n.n.n.n.n.n.n.n.n.n.n.n.n.n.n.n.n.n.n.n.n.n.n.n.",
"n.n.n.n.n.n.n.n.n.n.n.n.n.n.n.n.n.n.n.n.n.n.n.n.n.n.n.n.n.n.n.n.n.n.n.n.n.n.n.n.n.n.n.n.n.n.n.n.n.n.n.n.n.n.n.n.n.n.n.n.n.n.n.n.",
"n.n.n.n.n.n.n.n.n.n.n.n.n.n.n.n.n.n.n.n.n.n.n.n.n.n.n.n.n.n.n.n.n.n.n.n.n.n.n.n.n.n.n.n.n.n.n.n.n.n.n.n.n.n.n.n.n.n.n.n.n.n.n.n.",
"n.n.n.n.n.n.n.n.n.n.n.n.n.n.n.n.n.n.n.n.n.n.n.n.n.n.n.n.n.n.n.n.n.n.n.n.n.n.n.n.n.n.n.n.n.n.n.n.n.n.n.n.n.n.n.n.n.n.n.n.n.n.n.n.",
"n.n.n.n.n.n.n.n.n.n.n.n.n.n.n.n.n.n.n.n.n.n.n.n.n.n.n.n.n.n.n.n.n.n.n.n.n.n.n.n.n.n.n.n.n.n.n.n.n.n.n.n.n.n.n.n.n.n.n.n.n.n.n.n.",
"n.n.n.n.n.n.n.n.n.n.n.n.n.n.n.n.n.n.n.n.n.n.n.n.n.n.n.n.n.n.n.n.n.n.n.n.n.n.n.n.n.n.n.n.n.n.n.n.n.n.n.n.n.n.n.n.n.n.n.n.n.n.n.n.",
"n.n.n.n.n.n.n.n.n.n.n.n.n.n.n.n.n.n.n.n.n.n.n.n.n.n.n.n.n.n.n.n.n.n.n.n.n.n.n.n.n.n.n.n.n.n.n.n.n.n.n.n.n.n.n.n.n.n.n.n.n.n.n.n.",
"n.n.n.n.n.n.n.n.n.n.n.n.n.n.n.n.{ n.{ n.n.n.n.n.n.n.n.n.n.n.n.n.n.n.n.n.n.n.n.n.n.n.n.n.n.n.n.n.n.n.n.n.n.n.n.n.n.n.n.n.n.n.n.n.",
"n.n.n.n.n.n.n.n.n.n.n.n.n.n.n.n.n.{ n.n.n.n.n.n.n.n.n.n.n.n.n.n.n.n.n.n.n.n.n.n.n.n.n.n.n.n.n.n.n.n.n.n.n.n.n.n.n.n.n.n.n.n.n.n.",
"n.n.n.n.n.n.n.n.n.n.n.n.n.n.n.n.n.n.n.n.n.n.n.n.n.n.n.n.n.n.n.n.n.n.n.n.n.n.n.n.n.n.n.n.n.n.n.n.n.n.n.n.n.n.n.n.n.n.n.n.n.n.n.n.",
"n.n.n.n.n.n.n.n.n.n.n.n.n.n.n.n.n.n.n.n.n.n.n.n.n.n.n.n.n.n.n.n.n.n.n.n.n.n.n.n.n.n.n.n.n.n.n.n.n.n.n.n.n.n.n.n.n.n.n.n.n.n.n.n.",
"n.n.n.n.n.n.n.n.n.n.n.n.n.n.n.n.n.n.n.n.n.n.n.n.n.n.n.n.n.n.n.n.n.n.n.n.n.n.n.n.n.n.n.n.n.n.n.n.n.n.n.n.n.n.n.n.n.n.{ n.{ n.n.n.",
"n.n.n.n.n.n.n.n.n.n.n.n.n.n.n.n.n.n.n.n.n.n.n.n.n.n.n.n.n.n.n.n.n.n.n.n.n.n.n.n.n.n.n.n.n.n.n.n.n.n.n.n.n.n.n.n.n.n.n.{ n.n.n.n.",
"n.n.n.n.n.n.n.n.n.n.n.n.n.n.n.n.n.n.n.n.n.n.n.n.n.n.n.n.n.n.n.n.n.n.n.n.n.n.n.n.n.n.n.n.n.n.n.n.n.n.n.n.n.n.n.n.n.n.n.n.n.n.n.n.",
"n.n.n.n.n.n.n.n.n.n.n.n.n.n.n.n.n.n.n.n.n.n.n.n.n.n.n.n.n.n.n.n.n.n.n.n.n.n.n.n.n.n.n.n.n.n.n.n.n.n.n.n.n.n.n.n.n.n.n.n.n.n.n.n.",
"n.n.n.n.n.n.n.n.n.n.n.n.n.n.n.n.n.n.n.n.n.n.n.n.n.n.n.n.n.n.n.n.n.n.n.n.n.n.n.n.n.n.n.n.n.n.n.n.n.n.n.n.n.n.n.n.n.n.n.n.n.n.n.n."
};
