/* XPM */
static char *result[] = {
/* columns rows colors chars-per-pixel */
"64 64 165 2 ",
"   c #010201",
".  c #070A06",
"X  c #0C0D0C",
"o  c #1C0F02",
"O  c #0F140C",
"+  c #15130C",
"@  c #1D1D0D",
"#  c #141616",
"$  c #141D11",
"%  c #1B1B1B",
"&  c #221E0C",
"*  c #291E0D",
"=  c #361A0E",
"-  c #201F1B",
";  c #1D210F",
":  c #1A2517",
">  c #1D2A19",
",  c #29220F",
"<  c #31230F",
"1  c #242613",
"2  c #292414",
"3  c #22211F",
"4  c #342C1A",
"5  c #24321E",
"6  c #2C381F",
"7  c #3A321F",
"8  c #232323",
"9  c #282928",
"0  c #253521",
"q  c #2B3C24",
"w  c #353723",
"e  c #3C3B24",
"r  c #363636",
"t  c #3B3B3B",
"y  c #432718",
"u  c #45341C",
"i  c #49381E",
"p  c #463B22",
"a  c #4A3C24",
"s  c #4F3F29",
"d  c #523E2A",
"f  c #423D33",
"g  c #693428",
"h  c #703E2F",
"j  c #2F452A",
"k  c #354427",
"l  c #33452E",
"z  c #354C2E",
"x  c #3C4B2C",
"c  c #3E502F",
"v  c #374C31",
"b  c #3B4938",
"n  c #395131",
"m  c #3E5937",
"M  c #45462D",
"N  c #4B422B",
"B  c #52452C",
"V  c #454237",
"C  c #464238",
"Z  c #4B473D",
"A  c #514631",
"S  c #564B35",
"D  c #5A4F37",
"F  c #415A36",
"G  c #415E3A",
"H  c #47593C",
"J  c #5A5139",
"K  c #614834",
"L  c #7B4636",
"P  c #744B37",
"I  c #784837",
"U  c #774E3B",
"Y  c #62553C",
"T  c #6A583E",
"R  c #77533B",
"E  c #45613A",
"W  c #4B643D",
"Q  c #48683F",
"!  c #494847",
"~  c #4D4D4E",
"^  c #525352",
"/  c #5C5D5C",
"(  c #685941",
")  c #7A5440",
"_  c #7C5942",
"`  c #7F5F48",
"'  c #4B6B42",
"]  c #527647",
"[  c #55794A",
"{  c #587A4B",
"}  c #597D55",
"|  c #6E6043",
" . c #726147",
".. c #786248",
"X. c #77684C",
"o. c #7E6A4E",
"O. c #646464",
"+. c #676868",
"@. c #6B6B6B",
"#. c #737473",
"$. c #7B7B7B",
"%. c #825944",
"&. c #85614A",
"*. c #89674F",
"=. c #876C52",
"-. c #827253",
";. c #8D7559",
":. c #86795C",
">. c #8C7B5C",
",. c #937C5F",
"<. c #99795D",
"1. c #805673",
"2. c #8F7F60",
"3. c #907F61",
"4. c #5A814F",
"5. c #5B8350",
"6. c #608A55",
"7. c #65935B",
"8. c #6F9F61",
"9. c #6FA062",
"0. c #72A364",
"q. c #76AA69",
"w. c #79AD6B",
"e. c #7DB36E",
"r. c #7FB770",
"t. c #7FB871",
"y. c #8D8061",
"u. c #948465",
"i. c #9A8465",
"p. c #928669",
"a. c #9A8768",
"s. c #978A69",
"d. c #998A6A",
"f. c #A3926F",
"g. c #A29371",
"h. c #A99271",
"j. c #80B771",
"k. c #82BB73",
"l. c #B5A37E",
"z. c #7B7E83",
"x. c #848484",
"c. c #8A8B8B",
"v. c #958B92",
"b. c #939394",
"n. c gray62",
"m. c #BFAB84",
"M. c #A2A2A2",
"N. c #ADA3AA",
"B. c #B2B2B2",
"V. c #BDBCBC",
"C. c #C6C6C6",
"Z. c #CBCBCB",
"A. c #CBCCD0",
"S. c #D4D4D4",
"D. c #D4D8D6",
"F. c #DCDCDC",
"G. c #E0C4D7",
"H. c #E0DFE0",
"J. c #E6E6E5",
"K. c #E7E8E7",
"L. c #EAEAEA",
"P. c #EFEFF0",
"I. c #F2F2F3",
"U. c #FCF9F8",
"Y. c #FEFEFE",
/* pixels */
"k.k.k.k.k.k.k.k.k.k.k.k.k.k.k.k.k.k.k.k.k.k.k.k.k.k.k.k.k.k.k.k.k.k.k.k.k.k.k.k.k.k.k.k.k.k.k.k.k.k.k.k.k.k.k.k.k.k.k.k.k.k.k.k.",
"k.k.k.k.k.k.k.k.k.k.k.k.k.k.k.k.k.k.k.k.k.k.k.k.k.k.k.k.k.k.k.k.k.k.k.k.k.k.k.k.k.k.k.k.k.k.k.k.k.k.k.k.k.k.k.k.k.k.k.k.k.k.k.k.",
"k.k.k.k.k.k.k.k.k.k.k.k.k.k.k.k.k.k.k.k.k.k.k.k.k.k.k.k.k.k.k.k.k.k.k.k.k.k.k.k.k.k.k.k.k.k.k.k.k.k.k.k.k.k.k.k.k.k.k.k.k.k.k.k.",
"k.k.k.k.k.k.k.k.k.k.k.k.k.k.k.k.k.k.k.k.k.k.k.k.k.k.k.k.k.k.k.k.k.k.k.k.k.k.k.k.k.k.k.k.k.k.k.k.k.k.k.k.k.k.k.k.k.k.k.k.k.k.k.k.",
"k.k.k.k.k.k.k.k.k.k.k.k.k.k.k.k.k.k.k.k.k.k.k.k.k.k.k.k.k.k.k.} k.5.k.k.k.k.k.k.k.k.k.k.k.k.k.k.k.k.k.k.k.k.k.k.k.k.k.k.k.k.k.k.",
"k.k.k.k.k.k.k.k.k.k.k.k.k.k.k.k.k.k.k.k.k.k.k.k.k.k.k.k.k.k.k.k.} k.k.k.k.k.k.k.k.k.k.k.k.k.k.k.k.k.k.k.k.k.k.k.k.k.k.k.k.k.k.k.",
"k.k.k.k.k.k.k.k.k.k.k.k.k.k.k.k.k.k.k.k.k.k.k.k.k.k.k.k.k.k.k.k.k.k.k.k.k.k.k.k.k.k.k.k.k.k.k.k.k.k.k.k.k.k.k.k.k.k.k.k.k.k.k.k.",
"k.k.k.k.k.k.k.k.k.k.k.k.k.k.k.k.k.k.k.k.k.k.k.k.k.k.k.k.k.k.k.k.k.k.k.k.k.k.k.k.k.k.k.k.k.k.k.k.k.k.k.k.k.k.k.k.k.k.k.k.k.k.k.k.",
"k.k.k.k.k.k.k.k.k.k.k.k.k.k.k.k.k.k.k.k.k.k.k.k.k.k.k.k.k.k.k.k.k.k.k.k.k.k.k.k.k.k.k.k.k.k.k.k.k.k.k.k.k.k.k.k.k.k.k.k.k.k.k.k.",
"k.k.k.k.k.k.k.k.k.k.k.k.k.k.k.k.k.k.k.k.k.k.k.k.k.k.k.k.k.k.k.k.k.k.k.k.k.k.k.k.k.k.k.k.k.k.k.k.k.k.k.k.k.k.k.k.k.k.k.k.k.k.k.k.",
"k.k.k.k.k.k.k.k.k.k.k.k.k.k.k.k.k.k.k.k.k.k.k.k.k.k.k.k.k.t.k.k.e.q.e.k.k.k.k.k.k.k.k.k.k.k.k.k.k.k.k.k.k.k.k.k.k.k.k.k.k.k.k.k.",
"k.k.k.k.k.k.k.k.k.k.k.k.k.k.k.k.k.k.k.k.k.k.k.k.k.k.k.k.k.k.k.k.' . q r.k.r.k.k.k.k.k.k.k.k.k.k.k.k.k.k.k.k.k.k.k.k.k.k.k.k.k.k.",
"k.k.k.k.k.k.k.k.k.k.k.k.k.k.k.k.k.k.k.k.k.k.k.k.k.k.k.k.k.k.e.' ^ M.#.v 8.k.k.k.k.k.k.k.k.k.k.k.k.k.k.k.k.k.k.k.k.k.k.k.k.k.k.k.",
"k.k.k.k.k.k.k.k.k.k.k.k.k.k.k.k.k.k.k.k.k.k.k.k.k.k.k.t.k.k.w.X n.U.H.3 ] k.k.k.k.k.k.k.k.k.k.k.k.k.k.k.k.k.k.k.k.k.k.k.k.k.k.k.",
"k.k.k.k.k.k.k.k.k.k.k.k.k.k.k.k.k.k.k.k.k.k.k.k.k.k.k.k.e.q.8.$ c.Y.Z.% ' e.q.k.t.k.k.k.k.k.k.k.k.k.k.k.k.k.k.k.k.k.} k.5.k.k.k.",
"k.k.k.k.k.k.k.k.k.k.k.k.k.k.k.k.k.k.k.k.k.k.k.k.r.k.k.k.' & 1   c.Y.Z.% O 1 k r.k.k.r.k.k.k.k.k.k.k.k.k.k.k.k.k.k.k.k.} k.k.k.k.",
"k.k.k.k.k.k.k.k.k.k.k.k.k.k.k.k.k.k.k.k.k.k.k.k.k.q.z z M -.J   x.Y.C.# 4 -.D x 6 6.k.k.k.j.k.k.k.k.k.k.k.k.k.k.k.k.k.k.k.k.k.k.",
"k.k.k.k.k.k.k.k.k.k.k.k.k.k.k.k.k.k.k.k.k.k.k.7.{ W s N -.l.2.  z.Y.A.X A m.u.D B M 4.] e.k.k.j.k.k.k.k.k.k.k.k.k.k.k.k.k.k.k.k.",
"k.k.k.k.k.k.k.k.k.k.k.k.k.k.k.k.k.k.k.k.e.9.9.k , y *.a.a.d.:.+ x.U.V.8 S g.u.a.<.B ; 4 { q.q.k.k.k.k.k.k.k.k.k.k.k.k.k.k.k.k.k.",
"k.k.k.k.k.k.k.k.k.k.k.k.k.k.k.k.k.k.k.k.[ ; 1 | A * U %.,.s.u.:.p.g.d.:.y.s.u.=.%.y 4 o.p + c j.k.k.k.k.k.k.k.k.k.k.k.k.k.k.k.k.",
"k.k.k.k.k.k.k.k.k.k.k.k.k.k.k.k.k.k.k.Q M X.T y.N o h I ) _ _ &._ P R &.%._ _ U L = , ;... .J c q.k.k.k.k.k.k.k.k.k.k.k.k.k.k.k.",
"k.k.k.k.k.k.k.k.k.k.k.k.k.k.k.k.k.k.k.; | l.i.i.( d U h g g g g g g g g g g g g L K J ;.u.l.>., 6.k.k.k.k.k.k.k.k.k.k.k.k.k.k.k.",
"k.k.k.k.k.k.k.k.k.k.k.k.k.k.k.k.k.k.k.F B y.i.s.a.3.=.) U U U U U U U U R U U U ` i.g.a.a.u.Y q 8.k.k.k.k.k.k.k.k.k.k.k.k.k.k.k.",
"k.k.k.k.k.k.k.5.b.5.k.k.k.k.k.k.k.k.k.k.E p u.d.u.u.u.2.3.3.2.3.2.u.y.y.,.y.y.,.y.u.u.s.h.Y 6 w.k.k.k.k.k.k.k.k.k.k.k.k.k.k.k.k.",
"k.k.k.k.k.k.k.k.5.k.k.k.k.k.k.k.k.k.k.k.k.W p N 7 D i.f.h.g.g.g.g.g.g.g.g.g.g.g.h._ w a N M q.k.k.k.k.k.k.k.k.k.k.k.k.k.k.k.k.k.",
"k.k.k.k.k.k.k.k.k.k.k.k.k.k.k.k.k.k.k.j.k.e.E E 5 , u i a a p p i p p i i e M i p < @ m n 8.k.k.k.k.k.k.k.k.k.k.k.k.k.k.k.k.k.k.",
"k.k.k.k.k.k.k.k.k.k.k.k.k.k.k.k.k.k.k.k.j.k.k.k.' 2 M f f f C f V V V V V Z Z V Z w 6 k.t.k.t.k.k.k.k.k.k.k.k.k.k.k.k.k.k.k.k.k.",
"k.k.k.k.k.k.k.k.k.k.k.k.k.k.k.k.k.k.k.k.k.k.k.k.E t Z.Z.F.L.J.J.J.J.J.J.J.J.H.J.I.$.> e.k.k.k.k.k.k.k.k.k.k.k.k.k.k.k.k.k.k.k.k.",
"k.k.k.k.k.k.k.k.k.k.k.k.k.k.k.k.k.k.k.k.k.k.k.k.G r D.L.P.I.I.P.P.P.P.P.Y.b.~ H.Y.x.> w.k.k.k.k.k.k.k.k.k.k.k.k.k.k.k.k.k.k.k.k.",
"k.k.k.k.k.k.k.k.k.k.k.k.k.k.k.k.k.k.k.k.k.k.k.k.G r S.L.L.K.K.J.K.K.K.K.Y.O.  S.Y.#.5 t.k.k.k.k.k.k.k.k.k.k.k.k.k.k.k.k.k.k.k.k.",
"k.k.k.k.k.k.k.k.k.k.k.k.k.k.k.k.k.k.k.k.k.k.k.k.G r S.J.K.K.K.K.K.J.K.K.Y.+.. D.Y.v.- } r.k.k.k.k.k.k.k.k.k.k.k.k.k.k.k.k.k.k.k.",
"k.k.k.k.k.k.k.k.k.k.k.k.k.k.k.k.k.k.k.k.k.k.k.k.G r S.S.D.J.J.K.J.L.K.K.Y.$.3 D.U.G.1.X 6.k.k.k.k.k.k.k.k.k.k.k.k.k.k.k.k.k.k.k.",
"k.k.k.k.k.k.k.k.k.k.k.k.k.k.k.k.k.k.k.k.k.k.k.k.n f J.D.Z.D.J.K.L.J.J.J.L.A.V.J.L.U.N.# 5.k.k.k.k.k.k.k.k.k.k.k.k.k.k.k.k.k.k.k.",
"k.k.k.k.k.k.k.k.k.k.k.k.k.k.k.k.k.k.k.k.k.k.k.k.0.l / S.K.Z.D.J.J.J.J.L.L.U.Y.L.H.Y.D.X 5.k.k.k.k.k.k.k.k.k.k.k.k.k.k.k.k.k.k.k.",
"k.k.k.k.k.k.k.k.k.k.k.k.k.k.k.k.k.k.k.k.k.k.k.t.k.e.q / Z.K.F.D.F.F.F.H.K.P.P.U.U.F.@.l 0.k.k.k.k.k.k.k.k.k.k.k.k.k.k.k.k.k.k.k.",
"k.k.k.k.k.k.k.k.k.k.k.k.k.k.k.k.k.k.k.k.k.k.k.k.t.k.e.q O.A.V.C.Z.Z.Z.Z.V.B.V.Z.K.+.q e.k.k.k.k.k.k.k.k.k.k.k.k.k.k.k.k.k.k.k.k.",
"k.k.k.k.k.k.k.k.k.k.k.k.k.k.k.k.k.k.k.k.k.k.k.k.j.k.k.r.l % 9 M.Z.V.V.C.^ X 3 3 8 v r.k.k.k.k.k.k.k.k.k.k.k.k.k.k.k.k.k.k.k.k.k.",
"k.k.k.k.k.k.k.k.k.k.k.k.k.k.k.k.k.k.k.k.k.k.k.k.j.k.k.k.e.m   M.J.Z.A.D.8 q 8.[ ' 9.k.k.k.k.k.k.k.k.k.k.k.k.k.k.k.k.k.k.k.k.k.k.",
"k.k.k.k.k.k.k.k.k.k.k.k.k.k.k.k.k.k.k.k.k.k.k.j.j.e.] r.t.m @.S.I.J.H.J.b.b 8.j.k.k.t.k.k.k.k.k.k.k.k.k.k.k.k.k.k.k.k.k.k.k.k.k.",
"k.k.k.k.k.k.k.k.k.k.k.k.k.k.k.k.k.k.k.k.k.k.k.k.t.' 9 5.v #.I.I.J.J.H.J.Y.b.O q.k.k.k.k.k.k.k.k.} k.} k.k.k.k.k.k.k.k.k.k.k.k.k.",
"k.k.k.k.k.k.k.k.k.k.k.k.k.k.k.k.k.k.k.k.k.k.k.k.' ! D.9 / I.L.K.J.K.J.J.Y.x.: q.k.k.k.k.k.k.k.k.k.5.k.k.k.k.k.k.k.k.k.k.k.k.k.k.",
"k.k.k.k.k.k.k.k.k.k.k.k.k.k.k.k.k.k.k.k.k.k.k.k.j ^ I.8 #.Y.F.J.K.K.J.J.Y.x.: r.k.r.k.k.k.k.k.k.k.k.k.k.k.k.k.k.k.k.k.k.k.k.k.k.",
"k.k.k.k.k.k.k.k.k.k.k.k.k.k.k.k.k.k.k.k.k.k.k.k.8.l +.  x.Y.D.J.K.K.J.J.Y.b.X E q.k.k.k.k.k.k.k.k.k.k.k.k.k.k.k.k.k.k.k.k.k.k.k.",
"k.k.k.k.k.k.k.k.k.k.k.k.k.k.k.k.k.k.k.k.k.k.k.k.t.0.: > +.F.J.J.K.K.K.L.H.O.    [ k.k.k.k.k.k.k.k.k.k.k.k.k.k.k.k.k.k.k.k.k.k.k.",
"k.k.k.k.k.k.k.k.k.k.k.k.k.k.k.k.k.k.k.k.k.k.k.k.t.k.e.t.n ~ K.L.L.J.L.I./       4.t.k.k.k.k.k.k.k.k.k.k.k.k.k.k.k.k.k.k.k.k.k.k.",
"k.k.k.k.k.k.k.k.k.k.k.k.k.k.k.k.k.k.k.k.k.k.k.k.t.k.t.k.e.z ~ K.Y.Y.Y.Y.^   . { t.k.k.k.k.k.k.k.k.k.k.k.k.k.k.k.k.k.k.k.k.k.k.k.",
"k.k.k.k.k.k.k.k.k.k.k.k.k.k.k.k.k.k.k.k.k.k.k.k.k.k.k.t.t.t.n / x.#.$.$.H G ' k.k.t.k.k.k.k.k.k.k.k.k.k.k.k.k.k.k.k.k.k.k.k.k.k.",
"k.k.k.k.k.k.k.k.k.k.k.k.k.k.k.k.k.k.k.k.k.k.k.k.k.k.k.t.t.t.t.n : 0 0 > 8.r.k.k.t.k.k.k.k.k.k.k.k.k.k.k.k.k.k.k.k.k.k.k.k.k.k.k.",
"k.k.k.k.k.k.k.k.k.k.k.k.k.k.k.k.k.k.k.k.k.k.k.k.k.k.k.k.k.k.k.t.e.t.t.t.k.k.k.k.k.k.k.k.k.k.k.k.k.k.k.k.k.k.k.k.k.k.k.k.k.k.k.k.",
"k.k.k.k.k.k.k.k.k.k.k.k.k.k.k.k.k.k.k.k.k.k.k.k.k.k.k.k.k.k.k.k.t.k.k.k.k.k.k.k.k.k.k.k.k.k.k.k.k.k.k.k.k.k.k.k.k.k.k.k.k.k.k.k.",
"k.k.k.k.k.k.k.k.k.k.k.k.k.k.k.k.k.k.k.k.k.k.k.k.k.k.k.k.k.k.k.k.k.k.k.k.k.k.k.k.k.k.k.k.k.k.k.k.k.k.k.k.k.k.k.k.k.k.k.k.k.k.k.k.",
"k.k.k.k.k.k.k.k.k.k.k.k.k.k.k.k.k.k.k.k.k.k.k.k.k.k.k.k.k.k.k.k.k.k.k.k.k.k.k.k.k.k.k.k.k.k.k.k.k.k.k.k.k.k.k.k.k.k.k.k.k.k.k.k.",
"k.k.k.k.k.k.k.k.k.k.k.k.k.k.k.k.k.k.k.k.k.k.k.k.k.k.k.k.k.k.k.k.k.k.k.k.k.k.k.k.k.k.k.k.k.k.k.k.k.k.k.k.k.k.k.k.k.k.k.k.k.k.k.k.",
"k.k.k.k.k.k.k.k.k.k.k.k.k.k.k.k.k.k.k.k.k.k.k.k.k.k.k.k.k.k.k.k.k.k.k.k.k.k.k.k.k.k.k.k.k.k.k.k.k.k.k.k.k.k.k.k.k.k.k.k.k.k.k.k.",
"k.k.k.k.k.k.k.k.k.k.k.k.k.k.k.k.k.k.k.k.k.k.k.k.k.k.k.k.k.k.k.k.k.k.k.k.k.k.k.k.k.k.k.k.k.k.k.k.k.k.k.k.k.k.k.k.k.k.k.k.k.k.k.k.",
"k.k.k.k.k.k.k.k.k.k.k.k.k.k.k.k.5.k.5.k.k.k.k.k.k.k.k.k.k.k.k.k.k.k.k.k.k.k.k.k.k.k.k.k.k.k.k.k.k.k.k.k.k.k.k.k.k.k.k.k.k.k.k.k.",
"k.k.k.k.k.k.k.k.k.k.k.k.k.k.k.k.k.5.k.k.k.k.k.k.k.k.k.k.k.k.k.k.k.k.k.k.k.k.k.k.k.k.k.k.k.k.k.k.k.k.k.k.k.k.k.k.k.k.k.k.k.k.k.k.",
"k.k.k.k.k.k.k.k.k.k.k.k.k.k.k.k.k.k.k.k.k.k.k.k.k.k.k.k.k.k.k.k.k.k.k.k.k.k.k.k.k.k.k.k.k.k.k.k.k.k.k.k.k.k.k.k.k.k.k.k.k.k.k.k.",
"k.k.k.k.k.k.k.k.k.k.k.k.k.k.k.k.k.k.k.k.k.k.k.k.k.k.k.k.k.k.k.k.k.k.k.k.k.k.k.k.k.k.k.k.k.k.k.k.k.k.k.k.k.k.k.k.k.k.k.k.k.k.k.k.",
"k.k.k.k.k.k.k.k.k.k.k.k.k.k.k.k.k.k.k.k.k.k.k.k.k.k.k.k.k.k.k.k.k.k.k.k.k.k.k.k.k.k.k.k.k.k.k.k.k.k.k.k.k.k.k.k.k.k.5.k.6.k.k.k.",
"k.k.k.k.k.k.k.k.k.k.k.k.k.k.k.k.k.k.k.k.k.k.k.k.k.k.k.k.k.k.k.k.k.k.k.k.k.k.k.k.k.k.k.k.k.k.k.k.k.k.k.k.k.k.k.k.k.k.k.} k.k.k.k.",
"k.k.k.k.k.k.k.k.k.k.k.k.k.k.k.k.k.k.k.k.k.k.k.k.k.k.k.k.k.k.k.k.k.k.k.k.k.k.k.k.k.k.k.k.k.k.k.k.k.k.k.k.k.k.k.k.k.k.k.k.k.k.k.k.",
"k.k.k.k.k.k.k.k.k.k.k.k.k.k.k.k.k.k.k.k.k.k.k.k.k.k.k.k.k.k.k.k.k.k.k.k.k.k.k.k.k.k.k.k.k.k.k.k.k.k.k.k.k.k.k.k.k.k.k.k.k.k.k.k.",
"k.k.k.k.k.k.k.k.k.k.k.k.k.k.k.k.k.k.k.k.k.k.k.k.k.k.k.k.k.k.k.k.k.k.k.k.k.k.k.k.k.k.k.k.k.k.k.k.k.k.k.k.k.k.b.k.k.k.k.k.k.k.k.k."
};
