/* XPM */
static char *result[] = {
/* columns rows colors chars-per-pixel */
"64 64 153 2 ",
"   c #060606",
".  c #0E0B09",
"X  c #190C01",
"o  c #0E120C",
"O  c #181303",
"+  c #1D1B0C",
"@  c #181719",
"#  c #201B09",
"$  c #32180C",
"%  c #1D200F",
"&  c #1C291A",
"*  c #2B2009",
"=  c #222F1F",
"-  c #322916",
";  c #322C19",
":  c #24331F",
">  c #34321C",
",  c #29292B",
"<  c #253422",
"1  c #2A3527",
"2  c #293A25",
"3  c #3E3621",
"4  c #2F3238",
"5  c #333336",
"6  c #37373A",
"7  c #39373B",
"8  c #3A3A3C",
"9  c #412718",
"0  c #693428",
"q  c #2F442A",
"w  c #31462B",
"e  c #344A2E",
"r  c #354432",
"t  c #3C473C",
"y  c #3C483A",
"u  c #3A5333",
"i  c #3D5936",
"p  c #47412B",
"a  c #464D2F",
"s  c #57482F",
"d  c #4C4433",
"f  c #415D39",
"g  c #604831",
"h  c #634A36",
"j  c #774938",
"k  c #7C4939",
"l  c #64563C",
"z  c #6D513F",
"x  c #765039",
"c  c #7C513E",
"v  c #45623D",
"b  c #3F3E42",
"n  c #454E43",
"m  c #47474A",
"M  c #485D43",
"N  c #4C5949",
"B  c #4C4B50",
"V  c #525155",
"C  c #55535A",
"Z  c #5A595C",
"A  c #655C42",
"S  c #7B5541",
"D  c #725D44",
"F  c #486740",
"G  c #4B6A41",
"H  c #527346",
"J  c #53724B",
"K  c #567A4D",
"L  c #597D55",
"P  c #746648",
"I  c #7D664D",
"U  c #7B6B4E",
"Y  c #68655E",
"T  c #605F64",
"R  c #646564",
"E  c #69686E",
"W  c #7A7265",
"Q  c #6B6A70",
"!  c #737475",
"~  c #787670",
"^  c #82654D",
"/  c #837456",
"(  c #8B7B5D",
")  c #93795D",
"_  c #8E7E60",
"`  c #927E60",
"'  c #5B8351",
"]  c #5F8954",
"[  c #608A54",
"{  c #648F58",
"}  c #66925A",
"|  c #69975D",
" . c #6A995E",
".. c #72A565",
"X. c #76AA69",
"o. c #78AD6A",
"O. c #7CB36E",
"+. c #7FB771",
"@. c #7FB871",
"#. c #948565",
"$. c #988264",
"%. c #968867",
"&. c #968768",
"*. c #968868",
"=. c #998A6A",
"-. c #9A8C70",
";. c #A28B6C",
":. c #A89673",
">. c #82BB73",
",. c #7C7D84",
"<. c #858584",
"1. c #86868A",
"2. c #8B8A8C",
"3. c #8D8C93",
"4. c #908F93",
"5. c #919091",
"6. c #919098",
"7. c #9A9A9A",
"8. c #B7A580",
"9. c #9C9BA5",
"0. c #A1A1A2",
"q. c #AEADB4",
"w. c #C2B9A8",
"e. c #BDBCC2",
"r. c #BEBDC9",
"t. c #CACAC7",
"y. c #C3C2CB",
"u. c #CECECD",
"i. c #C8C7D3",
"p. c #CCCBD5",
"a. c #CFCDDA",
"s. c #D3D3D4",
"d. c #D4D3DC",
"f. c #D7D9DD",
"g. c #DBDBDE",
"h. c #D6D5E0",
"j. c #D8D7E2",
"k. c #DDDCE5",
"l. c #DFDEE8",
"z. c #E0DFE3",
"x. c #E0DFE9",
"c. c #E6E6E6",
"v. c #E7E8E6",
"b. c #E8E8E7",
"n. c #E4E4EB",
"m. c #ECECED",
"M. c #E5E4F0",
"N. c #ECEBF3",
"B. c #F0EFF6",
"V. c #F3F4F4",
"C. c #F2F2F8",
"Z. c #F8F8F8",
"A. c #FDFEFE",
/* pixels */
">.>.>.>.>.>.>.>.>.>.>.>.>.>.>.>.>.>.>.>.>.>.>.>.>.>.>.>.>.>.>.>.>.>.>.>.>.>.>.>.>.>.>.>.>.>.>.>.>.>.>.>.>.>.>.>.>.>.>.>.>.>.>.>.",
">.>.>.>.>.>.>.>.>.>.>.>.>.>.>.>.>.>.>.>.>.>.>.>.>.>.>.>.>.>.>.>.>.>.>.>.>.>.>.>.>.>.>.>.>.>.>.>.>.>.>.>.>.>.>.>.>.>.>.>.>.>.>.>.",
">.>.>.>.>.>.>.>.>.>.>.>.>.>.>.>.>.>.>.>.>.>.>.>.>.>.>.>.>.>.>.>.>.>.>.>.>.>.>.>.>.>.>.>.>.>.>.>.>.>.>.>.>.>.>.>.>.>.>.>.>.>.>.>.",
">.>.>.>.>.>.>.>.>.>.>.>.>.>.>.>.>.>.>.>.>.>.>.>.>.>.>.>.>.>.>.>.>.>.>.>.>.>.>.>.>.>.>.>.>.>.>.>.>.>.>.>.>.>.>.>.>.>.>.>.>.>.>.>.",
">.>.>.>.>.>.>.>.>.>.>.>.>.>.>.>.>.>.>.>.>.>.>.>.>.>.>.>.>.>.>.L >.' >.>.>.>.>.>.>.>.>.>.>.>.>.>.>.>.>.>.>.>.>.>.>.>.>.>.>.>.>.>.",
">.>.>.>.>.>.>.>.>.>.>.>.>.>.>.>.>.>.>.>.>.>.>.>.>.>.>.>.>.>.>.>.L >.>.>.>.>.>.>.>.>.>.>.>.>.>.>.>.>.>.>.>.>.>.>.>.>.>.>.>.>.>.>.",
">.>.>.>.>.>.>.>.>.>.>.>.>.>.>.>.>.>.>.>.>.>.>.>.>.>.>.>.>.>.>.>.>.>.>.>.>.>.>.>.>.>.>.>.>.>.>.>.>.>.>.>.>.>.>.>.>.>.>.>.>.>.>.>.",
">.>.>.>.>.>.>.>.>.>.>.>.>.>.>.>.>.>.>.>.>.>.>.>.>.>.>.>.>.>.>.>.>.>.>.>.>.>.>.>.>.>.>.>.>.>.>.>.>.>.>.>.>.>.>.>.>.>.>.>.>.>.>.>.",
">.>.>.>.>.>.>.>.>.>.>.>.>.>.>.>.>.>.>.>.>.>.>.>.>.>.>.>.>.>.>.>.>.>.>.>.>.>.>.>.>.>.>.>.>.>.>.>.>.>.>.>.>.>.>.>.>.>.>.>.>.>.>.>.",
">.>.>.>.>.>.>.>.>.>.>.>.>.>.>.>.>.>.>.>.>.>.>.>.>.>.>.>.>.>.>.>.>.>.>.>.>.>.>.>.>.>.>.>.>.>.>.>.>.>.>.>.>.>.>.>.>.>.>.>.>.>.>.>.",
">.>.>.>.>.>.>.>.>.>.>.>.>.>.>.>.>.>.>.>.>.>.>.>.>.>.>.>.>.>.>.>.>.>.>.>.>.>.>.>.>.>.>.>.>.>.>.>.>.>.>.>.>.>.>.>.>.>.>.>.>.>.>.>.",
">.>.>.>.>.>.>.>.>.>.>.>.>.>.>.>.>.>.>.>.>.>.>.>.>.>.G w  .>.+.+.>. .w G >.>.>.>.>.>.>.>.>.>.>.>.>.>.>.>.>.>.>.>.>.>.>.>.>.>.>.>.",
">.>.>.>.>.>.>.>.>.>.>.>.>.>.>.>.>.>.>.>.>.>.>.>.+.K Z ! N ..>.>...N ! Z K >.>.>.>.>.>.>.>.>.>.>.>.>.>.>.>.>.>.>.>.>.>.>.>.>.>.>.",
">.>.>.>.>.>.>.>.>.>.>.>.>.>.>.>.>.>.>.>.>.>.>.>.K 8 g.A.4.< >.+.: 4.A.g.8 K >.>.>.>.>.>.>.>.>.>.>.>.>.>.>.>.>.>.>.>.>.>.>.>.>.>.",
">.>.>.>.>.>.>.>.>.>.>.>.>.>.>.>.>.>.>.>.>.>.>.>.' 6 f.A.2.2 >.@.2 2.A.f.7 ' >.>.>.>.>.>.>.>.>.>.>.>.>.>.>.>.>.>.>.>.L >.L >.>.>.",
">.>.>.>.>.>.>.>.>.>.>.>.>.>.>.>.>.>.>.>.>.>.>.>. .8 s.A.1.o q 2 o 1.A.s.8 | >.>.>.>.>.>.>.>.>.>.>.>.>.>.>.>.>.>.>.>.>.L >.>.>.>.",
">.>.>.>.>.>.>.>.>.>.>.>.>.>.>.>.>.>.>.+.>.>.>...< 7 s.A.,.. A l o ,.A.s.7 : ..>.>.>.>.>.>.>.>.>.>.>.>.>.>.>.>.>.>.>.>.>.>.>.>.>.",
">.>.>.>.>.>.>.>.>.>.>.>.>.>.>.>.>.>.>.>.>.[ { a ; 5 f.V._ d :.:.b _ Z.f.4 - a  .] >.>.>.>.>.>.>.>.>.>.>.>.>.>.>.>.>.>.>.>.>.>.>.",
">.>.>.>.>.>.>.>.>.>.>.>.>.>.>.>.>.>.+.X. .; + g z 7 u.w.-.#._ _ #.&.w.u.7 z g # >  .X.o.>.@.>.>.>.>.>.>.>.>.>.>.>.>.>.>.>.>.>.>.",
">.>.>.>.>.>.>.>.>.>.>.>.>.>.>.>.>.>.J + ; I 3 9 S I -.=.&.&.&.&.&.&.=.-.^ c 9 3 I ; + H >.>.>.>.>.>.>.>.>.>.>.>.>.>.>.>.>.>.>.>.",
">.>.>.>.>.>.>.>.>.>.>.>.>.>.>.>.>.G d U D ) ; $ k c x c S S S S S S c j c k $ ; ) D U d G >.>.>.>.>.>.>.>.>.>.>.>.>.>.>.>.>.>.>.",
">.>.>.>.>.>.>.>.>.>.>.>.>.>.>.>.@.% P 8.$.` l h j 0 0 0 0 0 0 0 0 0 0 0 0 j h A ) &.:.P + >.>.>.>.>.>.>.>.>.>.>.>.>.>.>.>.>.>.>.",
">.>.>.>.>.>.>.>.>.>.>.>.>.>.>.>.>.G p ( =.=.=.$.^ S S S S S S S S S S S c ^ %.:.=.=.#.p v >.>.>.>.>.>.>.>.>.>.>.>.>.>.>.>.>.>.>.",
">.>.>.>.>.>.>.] >.L >.>.>.>.>.>.>.>.H 3 ` ( / ( &.*.*.*.*.*.*.*.*.*.*.*.%.%.( / ( #.3 H >.>.>.>.>.>.>.>.>.>.>.>.>.>.>.>.>.>.>.>.",
">.>.>.>.>.>.>.>.' >.>.>.>.>.>.>.>.>.>.H ; - O s ;.=.=.=.=.=.=.%.*.=.=.=.=.;.s O - ; J >.>.>.>.>.>.>.>.>.>.>.>.>.>.>.>.>.>.>.>.>.",
">.>.>.>.>.>.>.>.>.>.>.>.>.>.>.>.>.+.>.>.] o <.W X * * * * * $ * * * * * * X W <.o ] >.>.>.>.>.>.>.>.>.>.>.>.>.>.>.>.>.>.>.>.>.>.",
">.>.>.>.>.>.>.>.>.>.>.>.>.>.>.>.>.>.>.o.J ! V.t.Y ~ ~ ~ ~ ~ ~ ~ ~ ~ ~ ~ ~ Y t.C.! J o.>.>.>.>.>.>.>.>.>.>.>.>.>.>.>.>.>.>.>.>.>.",
">.>.>.>.>.>.>.>.>.>.>.>.>.>.>.>.>.>.>.K b c.C.V.A.A.A.A.A.A.A.A.A.A.A.A.A.A.V.V.c.b K >.>.>.>.>.>.>.>.>.>.>.>.>.>.>.>.>.>.>.>.>.",
">.>.>.>.>.>.>.>.>.>.>.>.>.>.>.>.>.>.>.' 6 p.V.b.c.c.b.c.c.c.b.c.c.c.c.c.v.c.b.V.u.8 ' >.>.>.>.>.>.>.>.>.>.>.>.>.>.>.>.>.>.>.>.>.",
">.>.>.>.>.>.>.>.>.>.>.>.>.>.>.>.>.>.>.' 6 y.N.b.b.c.c.c.n.b.c.c.b.b.c.b.v.c.b.N.y.7 ' >.>.>.>.>.>.>.>.>.>.>.>.>.>.>.>.>.>.>.>.>.",
">.>.>.>.>.>.>.>.>.>.>.>.>.>.>.>.>.>.>.' 6 y.N.c.b.c.b.b.b.c.b.b.c.n.c.c.c.c.b.N.y.7 [ >.>.>.>.>.>.>.>.>.>.>.>.>.>.>.>.>.>.>.>.>.",
">.>.>.>.>.>.>.>.>.>.>.>.>.>.>.>.>.>.>.K 8 k.N.n.c.c.c.c.b.c.c.c.b.b.b.c.c.c.n.B.g.b ' >.>.>.>.>.>.>.>.>.>.>.>.>.>.>.>.>.>.>.>.>.",
">.>.>.>.>.>.>.>.>.>.>.>.>.>.>.>.>.>.>.| t 6.l.N.l.n.n.n.c.n.c.c.c.n.n.c.n.l.N.k.1.y | >.>.>.>.>.>.>.>.>.>.>.>.>.>.>.>.>.>.>.>.>.",
">.>.>.>.>.>.>.>.>.>.>.>.>.>.>.>.>.>.+.>.X.1 3.x.l.M.n.n.l.n.x.x.x.n.l.M.M.l.n.,.& o.@.>.>.>.>.>.>.>.>.>.>.>.>.>.>.>.>.>.>.>.>.>.",
">.>.>.>.>.>.>.>.>.>.>.>.>.>.>.>.>.>.>.>.>.X.1 6.C.n.n.j.j.j.j.j.j.j.k.n.n.Z.,.& O.@.>.>.>.>.>.>.>.>.>.>.>.>.>.>.>.>.>.>.>.>.>.>.",
">.>.>.>.>.>.>.>.>.>.>.>.>.>.>.>.>.>.>.>.>.>.X.n E V 6 9.j.i.i.i.i.j.9.6 C Q t X.>.>.@.>.>.>.>.>.>.>.>.>.>.>.>.>.>.>.>.>.>.>.>.>.",
">.>.>.>.>.>.>.>.>.>.>.>.>.>.>.>.>.>.>.>.>.+.>.o.w   Z e.l.d.s.d.s.z.e.Z   q o.>.@.>.>.>.>.>.>.>.>.>.>.>.>.>.>.>.>.>.>.>.>.>.>.>.",
">.>.>.>.>.>.>.>.>.>.>.>.>.>.>.>.>.>.>.>.>.>.>.+.J ! V.Z.v.b.v.v.v.c.Z.m.! J +.>.>.>.>.>.>.>.>.>.>.>.>.>.>.>.>.>.>.>.>.>.>.>.>.>.",
">.>.>.>.>.>.>.>.>.>.>.>.>.>.>.>.>.>.>.>.>.>.>.i R V.b.c.b.c.c.c.v.v.c.b.C.R i >.>.>.>.>.>.>.>.>.>.>.>.>.>.>.>.>.>.>.>.>.>.>.>.>.",
">.>.>.>.>.>.>.>.>.>.>.>.>.>.>.>.>.>.>.>.>.>.>.F Z N.k.n.b.c.b.c.v.b.n.k.B.Z v >.>.>.>.>.>.>.>.>.L >.L >.>.>.>.>.>.>.>.>.>.>.>.>.",
">.>.>.>.>.>.>.>.>.>.>.>.>.>.>.>.>.>.>.>.>.>.F R p.n.h.k.m.n.d.j.n.b.z.h.M.p.R v @.>.>.>.>.>.>.>.>.] >.>.>.>.>.>.>.>.>.>.>.>.>.>.",
">.>.>.>.>.>.>.>.>.>.>.>.>.>.>.>.>.>.>.>.>.>.& 7.A.l.d.n.z.a.a.n.M.n.n.h.l.A.7.& @.>.>.>.>.>.>.>.>.>.>.>.>.>.>.>.>.>.>.>.>.>.>.>.",
">.>.>.>.>.>.>.>.>.>.>.>.>.>.>.>.>.>.>.>.>.@.& 5.A.N.j.v.s.r.k.N.d.f.c.d.N.A.4.= >.>.>.>.>.>.>.>.>.>.>.>.>.>.>.>.>.>.>.>.>.>.>.>.",
">.>.>.>.>.>.>.>.>.>.>.>.>.>.>.>.>.>.>.>.>.>.e ,.c.a.d.b.k.i.j.d.i.f.n.d.a.M._ e @.>.>.>.>.>.>.>.>.>.>.>.>.>.>.>.>.>.>.>.>.>.>.>.",
">.>.>.>.>.>.>.>.>.>.>.>.>.>.>.>.>.>.>.>.>.>.+.M 5 m s.Z.C.M.p.p.M.B.V.s.m 5 f >.>.>.>.>.>.>.>.>.>.>.>.>.>.>.>.>.>.>.>.>.>.>.>.>.",
">.>.>.>.>.>.>.>.>.>.>.>.>.>.>.>.>.>.>.>.>.>.>.O.u 5 B.0.V T C C B q.A.s., u O.>.@.>.>.>.>.>.>.>.>.>.>.>.>.>.>.>.>.>.>.>.>.>.>.>.",
">.>.>.>.>.>.>.>.>.>.>.>.>.>.>.>.>.>.>.>.>.>.@.>.} 5 1.N G f M i G t y.B.b  .>.>.>.>.>.>.>.>.>.>.>.>.>.>.>.>.>.>.>.>.>.>.>.>.>.>.",
">.>.>.>.>.>.>.>.>.>.>.>.>.>.>.>.>.>.>.>.>.>.>.>. .r < ..>.>.>.>.>.{ n 0.5 ' >.>.>.>.>.>.>.>.>.>.>.>.>.>.>.>.>.>.>.>.>.>.>.>.>.>.",
">.>.>.>.>.>.>.>.>.>.>.>.>.>.>.>.>.>.>.>.>.>.>.>.>.>.>.>.>.>.>.>.>.>.} @ , } >.>.>.>.>.>.>.>.>.>.>.>.>.>.>.>.>.>.>.>.>.>.>.>.>.>.",
">.>.>.>.>.>.>.>.>.>.>.>.>.>.>.>.>.>.>.>.>.>.>.>.>.>.>.>.>.>.>.>.>.>.>.>.>.>.>.>.>.>.>.>.>.>.>.>.>.>.>.>.>.>.>.>.>.>.>.>.>.>.>.>.",
">.>.>.>.>.>.>.>.>.>.>.>.>.>.>.>.>.>.>.>.>.>.>.>.>.>.>.>.>.>.>.>.>.>.>.>.>.>.>.>.>.>.>.>.>.>.>.>.>.>.>.>.>.>.>.>.>.>.>.>.>.>.>.>.",
">.>.>.>.>.>.>.>.>.>.>.>.>.>.>.>.>.>.>.>.>.>.>.>.>.>.>.>.>.>.>.>.>.>.>.>.>.>.>.>.>.>.>.>.>.>.>.>.>.>.>.>.>.>.>.>.>.>.>.>.>.>.>.>.",
">.>.>.>.>.>.>.>.>.>.>.>.>.>.>.>.>.>.>.>.>.>.>.>.>.>.>.>.>.>.>.>.>.>.>.>.>.>.>.>.>.>.>.>.>.>.>.>.>.>.>.>.>.>.>.>.>.>.>.>.>.>.>.>.",
">.>.>.>.>.>.>.>.>.>.>.>.>.>.>.>.>.>.>.>.>.>.>.>.>.>.>.>.>.>.>.>.>.>.>.>.>.>.>.>.>.>.>.>.>.>.>.>.>.>.>.>.>.>.>.>.>.>.>.>.>.>.>.>.",
">.>.>.>.>.>.>.>.>.>.>.>.>.>.>.>.>.>.>.>.>.>.>.>.>.>.>.>.>.>.>.>.>.>.>.>.>.>.>.>.>.>.>.>.>.>.>.>.>.>.>.>.>.>.>.>.>.>.>.>.>.>.>.>.",
">.>.>.>.>.>.>.>.>.>.>.>.>.>.>.>.L >.' >.>.>.>.>.>.>.>.>.>.>.>.>.>.>.>.>.>.>.>.>.>.>.>.>.>.>.>.>.>.>.>.>.>.>.>.>.>.>.>.>.>.>.>.>.",
">.>.>.>.>.>.>.>.>.>.>.>.>.>.>.>.>.L >.>.>.>.>.>.>.>.>.>.>.>.>.>.>.>.>.>.>.>.>.>.>.>.>.>.>.>.>.>.>.>.>.>.>.>.>.>.>.>.>.>.>.>.>.>.",
">.>.>.>.>.>.>.>.>.>.>.>.>.>.>.>.>.>.>.>.>.>.>.>.>.>.>.>.>.>.>.>.>.>.>.>.>.>.>.>.>.>.>.>.>.>.>.>.>.>.>.>.>.>.>.>.>.>.>.>.>.>.>.>.",
">.>.>.>.>.>.>.>.>.>.>.>.>.>.>.>.>.>.>.>.>.>.>.>.>.>.>.>.>.>.>.>.>.>.>.>.>.>.>.>.>.>.>.>.>.>.>.>.>.>.>.>.>.>.>.>.>.>.>.>.>.>.>.>.",
">.>.>.>.>.>.>.>.>.>.>.>.>.>.>.>.>.>.>.>.>.>.>.>.>.>.>.>.>.>.>.>.>.>.>.>.>.>.>.>.>.>.>.>.>.>.>.>.>.>.>.>.>.>.>.>.>.>.' >.L >.>.>.",
">.>.>.>.>.>.>.>.>.>.>.>.>.>.>.>.>.>.>.>.>.>.>.>.>.>.>.>.>.>.>.>.>.>.>.>.>.>.>.>.>.>.>.>.>.>.>.>.>.>.>.>.>.>.>.>.>.>.>.L >.>.>.>.",
">.>.>.>.>.>.>.>.>.>.>.>.>.>.>.>.>.>.>.>.>.>.>.>.>.>.>.>.>.>.>.>.>.>.>.>.>.>.>.>.>.>.>.>.>.>.>.>.>.>.>.>.>.>.>.>.>.>.>.>.>.>.>.>.",
">.>.>.>.>.>.>.>.>.>.>.>.>.>.>.>.>.>.>.>.>.>.>.>.>.>.>.>.>.>.>.>.>.>.>.>.>.>.>.>.>.>.>.>.>.>.>.>.>.>.>.>.>.>.>.>.>.>.>.>.>.>.>.>.",
">.>.>.>.>.>.>.>.>.>.>.>.>.>.>.>.>.>.>.>.>.>.>.>.>.>.>.>.>.>.>.>.>.>.>.>.>.>.>.>.>.>.>.>.>.>.>.>.>.>.>.>.>.>.>.>.>.>.>.>.>.>.>.>."
};
