/* XPM */
static char *result[] = {
/* columns rows colors chars-per-pixel */
"64 64 146 2 ",
"   c #020202",
".  c #0A0602",
"X  c #070A06",
"o  c #0D0F0D",
"O  c #0D120B",
"+  c #171104",
"@  c #1A1405",
"#  c #13140F",
"$  c #1B160C",
"%  c #131412",
"&  c #1B1D1A",
"*  c #241D0F",
"=  c #1F2917",
"-  c #1B201A",
";  c #1F2B1B",
":  c #27200E",
">  c #252110",
",  c #2B2512",
"<  c #312B1E",
"1  c #2A351D",
"2  c #2D391F",
"3  c #3C321D",
"4  c #241D21",
"5  c #242524",
"6  c #232B21",
"7  c #2C2C2C",
"8  c #332E21",
"9  c #253022",
"0  c #2C3D24",
"q  c #2E372C",
"w  c #363125",
"e  c #3D3621",
"r  c #31382E",
"t  c #353634",
"y  c #393438",
"u  c gray23",
"i  c #542C1F",
"p  c #463722",
"a  c #483821",
"s  c #463D28",
"d  c #6A3629",
"f  c #613C2B",
"g  c #354C2F",
"h  c #364E30",
"j  c #3E4C3A",
"k  c #3B5333",
"l  c #4B4128",
"z  c #414C2E",
"x  c #50462F",
"c  c #534A32",
"v  c #5C4D33",
"b  c #435F3B",
"n  c #5D5035",
"m  c #694635",
"M  c #744635",
"N  c #7B4838",
"B  c #615035",
"V  c #62553B",
"C  c #6D513B",
"Z  c #69593F",
"A  c #745238",
"S  c #79523E",
"D  c #45633D",
"F  c #49643D",
"G  c #383B42",
"H  c #444445",
"J  c #46494A",
"K  c #4B514A",
"L  c #525253",
"P  c #585F57",
"I  c #5D5D5D",
"U  c #6B5D41",
"Y  c #7A5541",
"T  c #7F5E48",
"R  c #496740",
"E  c #4C6C43",
"W  c #547748",
"Q  c #567B4B",
"!  c #587E4E",
"~  c #5B6158",
"^  c #597D55",
"/  c #75644A",
"(  c #7C7255",
")  c #666768",
"_  c #747373",
"`  c #806049",
"'  c #8A654C",
"]  c #8A6D53",
"[  c #8A7256",
"{  c #857759",
"}  c #8C775B",
"|  c #87785B",
" . c #8C795B",
".. c #937B5E",
"X. c #847C62",
"o. c #917E60",
"O. c #5A824F",
"+. c #5C8451",
"@. c #618A55",
"#. c #66935A",
"$. c #69965C",
"%. c #6A995E",
"&. c #6D9D60",
"*. c #6FA063",
"=. c #72A364",
"-. c #75A867",
";. c #76AA69",
":. c #7CB26D",
">. c #7FB771",
",. c #958566",
"<. c #9A8365",
"1. c #978B6A",
"2. c #9C8D6C",
"3. c #A28F6E",
"4. c #A5906F",
"5. c #A49573",
"6. c #A99674",
"7. c #A89875",
"8. c #80B771",
"9. c #82BB73",
"0. c #B3A07C",
"q. c #9A6C8C",
"w. c #848584",
"e. c #8C8C8C",
"r. c #919191",
"t. c #9E9E9E",
"y. c #ACA38A",
"u. c #A2A2A2",
"i. c #ACABAC",
"p. c #B3B4B3",
"a. c #BBBABA",
"s. c #BFBFC0",
"d. c #C4C4C4",
"f. c #CDCDCC",
"g. c #D1D0CE",
"h. c #D5D4D4",
"j. c #DCD0D8",
"k. c #DCDCDC",
"l. c #E0DFDE",
"z. c #E6E6E6",
"x. c #EBEBEB",
"c. c #F4F4F4",
"v. c #F7F8F7",
"b. c #F7F7F8",
"n. c #F7F8F8",
"m. c #FCFCFC",
/* pixels */
"9.9.9.9.9.9.9.9.9.9.9.9.9.9.9.9.9.9.9.9.9.9.9.9.9.9.9.9.9.9.9.9.9.9.9.9.9.9.9.9.9.9.9.9.9.9.9.9.9.9.9.9.9.9.9.9.9.9.9.9.9.9.9.9.",
"9.9.9.9.9.9.9.9.9.9.9.9.9.9.9.9.9.9.9.9.9.9.9.9.9.9.9.9.9.9.9.9.9.9.9.9.9.9.9.9.9.9.9.9.9.9.9.9.9.9.9.9.9.9.9.9.9.9.9.9.9.9.9.9.",
"9.9.9.9.9.9.9.9.9.9.9.9.9.9.9.9.9.9.9.9.9.9.9.9.9.9.9.9.9.9.9.9.9.9.9.9.9.9.9.9.9.9.9.9.9.9.9.9.9.9.9.9.9.9.9.9.9.9.9.9.9.9.9.9.",
"9.9.9.9.9.9.9.9.9.9.9.9.9.9.9.9.9.9.9.9.9.9.9.9.9.9.9.9.9.9.9.9.9.9.9.9.9.9.9.9.9.9.9.9.9.9.9.9.9.9.9.9.9.9.9.9.9.9.9.9.9.9.9.9.",
"9.9.9.9.9.9.9.9.9.9.9.9.9.9.9.9.9.9.9.9.9.9.9.9.9.9.9.9.9.9.9.^ 9.^ 9.9.9.9.9.9.9.9.9.9.9.9.9.9.9.9.9.9.9.9.9.9.9.9.9.9.9.9.9.9.",
"9.9.9.9.9.9.9.9.9.9.9.9.9.9.9.9.9.9.9.9.9.9.9.9.9.9.9.9.9.9.9.9.^ 9.9.9.9.9.9.9.9.9.9.9.9.9.9.9.9.9.9.9.9.9.9.9.9.9.9.9.9.9.9.9.",
"9.9.9.9.9.9.9.9.9.9.9.9.9.9.9.9.9.9.9.9.9.9.9.9.9.9.9.9.9.9.9.9.9.9.9.9.9.9.9.9.9.9.9.9.9.9.9.9.9.9.9.9.9.9.9.9.9.9.9.9.9.9.9.9.",
"9.9.9.9.9.9.9.9.9.9.9.9.9.9.9.9.9.9.9.9.9.9.9.9.9.9.9.9.9.9.9.9.9.9.9.9.9.9.9.9.9.9.9.9.9.9.9.9.9.9.9.9.9.9.9.9.9.9.9.9.9.9.9.9.",
"9.9.9.9.9.9.9.9.9.9.9.9.9.9.9.9.9.9.9.9.9.9.9.9.9.9.9.9.9.9.9.9.9.9.9.9.9.9.9.9.9.9.9.9.9.9.9.9.9.9.9.9.9.9.9.9.9.9.9.9.9.9.9.9.",
"9.9.9.9.9.9.9.9.9.9.9.9.9.9.9.9.9.9.9.9.9.9.9.9.9.9.9.9.9.9.9.9.9.9.9.9.9.9.9.9.9.9.9.9.9.9.9.9.9.9.9.9.9.9.9.9.9.9.9.9.9.9.9.9.",
"9.9.9.9.9.9.9.9.9.9.9.9.9.9.9.9.9.9.9.9.9.9.9.9.9.9.9.9.9.9.8.9.>.8.9.9.9.9.9.9.9.9.9.9.9.9.9.9.9.9.9.9.9.9.9.9.9.9.9.9.9.9.9.9.",
"9.9.9.9.9.9.9.9.9.9.9.9.9.9.9.9.9.9.9.9.9.9.9.9.9.9.9.9.9.8.9.*.; ; =.9.:.9.9.9.9.9.9.9.9.9.9.9.9.9.9.9.9.9.9.9.9.9.9.9.9.9.9.9.",
"9.9.9.9.9.9.9.9.9.9.9.9.9.9.9.9.9.9.9.9.9.9.9.9.9.9.9.9.9.9.%.j _ _ j $.9.9.9.9.9.9.9.9.9.9.9.9.9.9.9.9.9.9.9.9.9.9.9.9.9.9.9.9.",
"9.9.9.9.9.9.9.9.9.9.9.9.9.9.9.9.9.9.9.9.9.9.9.9.9.9.9.9.9.9.0 I m.m.I 0 9.9.9.9.9.9.9.9.9.9.9.9.9.9.9.9.9.9.9.9.9.9.9.9.9.9.9.9.",
"9.9.9.9.9.9.9.9.9.9.9.9.9.9.9.9.9.9.9.9.9.9.9.9.9.9.9.8.8.8.g L v.v.L g 9.:.9.9.9.9.9.9.9.9.9.9.9.9.9.9.9.9.9.9.9.9.^ 9.+.9.9.9.",
"9.9.9.9.9.9.9.9.9.9.9.9.9.9.9.9.9.9.9.9.9.9.9.9.9.9.9.*.1 2 O L v.c.L O 2 1 *.9.9.9.9.9.9.9.9.9.9.9.9.9.9.9.9.9.9.9.9.+.9.9.9.9.",
"9.9.9.9.9.9.9.9.9.9.9.9.9.9.9.9.9.9.9.9.9.>.9.9.9.W b z V U   J c.c.J . U V z D Q 9.9.9.8.9.9.9.9.9.9.9.9.9.9.9.9.9.9.9.9.9.9.9.",
"9.9.9.9.9.9.9.9.9.9.9.9.9.9.9.9.9.9.9.9.9.9.;.@.@.p 3 V 6.0.$ G m.m.G $ 0.7.V 3 e +.@.-.9.9.9.9.9.9.9.9.9.9.9.9.9.9.9.9.9.9.9.9.",
"9.9.9.9.9.9.9.9.9.9.9.9.9.9.9.9.9.9.9.9.:.>.K : , C ..,.,.3.* H c.x.H $ 4.,.,...C , : D 8.:.9.9.9.9.9.9.9.9.9.9.9.9.9.9.9.9.9.9.",
"9.9.9.9.9.9.9.9.9.9.9.9.9.9.9.9.9.9.9.:.2 = c Z , f ' o.1.1.( X.y.y.X.( 1.1...' f : U c > 1 ;.9.9.9.9.9.9.9.9.9.9.9.9.9.9.9.9.9.",
"9.9.9.9.9.9.9.9.9.9.9.9.9.9.9.9.9.9.%.z n n [ / + i N S ` T ] ' A A ' ] T T Y N i + / [ v V z %.9.9.9.9.9.9.9.9.9.9.9.9.9.9.9.9.",
"9.9.9.9.9.9.9.9.9.9.9.9.9.9.9.9.9.9.k l 5.4.<./ s m M d d d d d d d d d d d d M m a / <.3.5.l k 9.9.9.9.9.9.9.9.9.9.9.9.9.9.9.9.",
"9.9.9.9.9.9.9.9.9.9.9.9.9.9.9.9.9.9.E e | ,.,.,.,.[ S M M M M M M M M M M M M Y ] } ,.,.,. .e E 9.9.9.9.9.9.9.9.9.9.9.9.9.9.9.9.",
"9.9.9.9.9.9.9.+.9.^ 9.9.9.9.9.9.9.9.>.W 3 { 7.3.2.,. .} } } } }  .}  . .} } } } ,.2.2.7.{ 3 Q :.9.9.9.9.9.9.9.9.9.9.9.9.9.9.9.9.",
"9.9.9.9.9.9.9.9.+.9.9.9.9.9.9.9.9.9.9.9.W l n x c  .7.5.5.5.5.5.5.7.5.5.5.5.5.7. .c x v s W 9.9.9.9.9.9.9.9.9.9.9.9.9.9.9.9.9.9.",
"9.9.9.9.9.9.9.9.9.9.9.9.9.9.9.9.9.9.>.9.9.F 0 1 @ a n v v v v v v v v v c v n B a @ 9 g F 9.9.9.9.9.9.9.9.9.9.9.9.9.9.9.9.9.9.9.",
"9.9.9.9.9.9.9.9.9.9.9.9.9.9.9.9.9.9.9.9.9.9.9.%.: < w w w 8 8 8 8 < 8 < < w < < < > &.9.9.9.9.9.9.9.9.9.9.9.9.9.9.9.9.9.9.9.9.9.",
"9.9.9.9.9.9.9.9.9.9.9.9.9.9.9.9.9.9.9.9.9.9.9.@.# u.l.g.k.g.f.f.f.f.f.f.f.g.a.d.r.% +.9.9.9.9.9.9.9.9.9.9.9.9.9.9.9.9.9.9.9.9.9.",
"9.9.9.9.9.9.9.9.9.9.9.9.9.9.9.9.9.9.9.9.9.9.9.@.% d.m.d.) k.m.b.v.v.v.m.v.m.c.m.i.o +.9.9.9.9.9.9.9.9.9.9.9.9.9.9.9.9.9.9.9.9.9.",
"9.9.9.9.9.9.9.9.9.9.9.9.9.9.9.9.9.9.9.9.9.9.9.%.O p.m.w.  p.m.z.z.z.z.z.z.z.x.c.t.% @.9.9.9.9.9.9.9.9.9.9.9.9.9.9.9.9.9.9.9.9.9.",
"9.9.9.9.9.9.9.9.9.9.9.9.9.9.9.9.9.9.9.9.9.9.>.E 4 a.m.r.  a.m.z.z.z.z.z.z.z.z.c.t.% #.9.9.9.9.9.9.9.9.9.9.9.9.9.9.9.9.9.9.9.9.9.",
"9.9.9.9.9.9.9.9.9.9.9.9.9.9.9.9.9.9.9.9.9.9.D 4 q.j.m.e.  a.m.z.z.x.z.z.z.z.h.z.u.% @.9.9.9.9.9.9.9.9.9.9.9.9.9.9.9.9.9.9.9.9.9.",
"9.9.9.9.9.9.9.9.9.9.9.9.9.9.9.9.9.9.9.9.9.>.k u j.x.c.f.u.k.x.z.x.z.x.z.z.h.d.c.a.o +.9.9.9.9.9.9.9.9.9.9.9.9.9.9.9.9.9.9.9.9.9.",
"9.9.9.9.9.9.9.9.9.9.9.9.9.9.9.9.9.9.9.9.9.>.k J m.n.k.c.m.x.x.x.z.z.z.l.h.f.x.a.L k -.>.9.9.9.9.9.9.9.9.9.9.9.9.9.9.9.9.9.9.9.9.",
"9.9.9.9.9.9.9.9.9.9.9.9.9.9.9.9.9.9.9.9.9.9.! r a.x.n.x.z.x.z.l.k.k.z.k.h.h.f.H k >.9.>.9.9.9.9.9.9.9.9.9.9.9.9.9.9.9.9.9.9.9.9.",
"9.9.9.9.9.9.9.9.9.9.9.9.9.9.9.9.9.9.9.9.9.>.9.+.& a.n.l.h.f.f.f.f.f.f.f.h.k.H h >.9.9.9.9.9.9.9.9.9.9.9.9.9.9.9.9.9.9.9.9.9.9.9.",
"9.9.9.9.9.9.9.9.9.9.9.9.9.9.9.9.9.9.9.9.9.>.9.9.+.t H u t 5 w.f.a.a.f.w.7 y k >.9.9.9.9.9.9.9.9.9.9.9.9.9.9.9.9.9.9.9.9.9.9.9.9.",
"9.9.9.9.9.9.9.9.9.9.9.9.9.9.9.9.9.9.9.9.9.9.>.9.>.Q g E E O I z.d.f.x.I O R >.9.9.9.>.9.9.9.9.9.9.9.9.9.9.9.9.9.9.9.9.9.9.9.9.9.",
"9.9.9.9.9.9.9.9.9.9.9.9.9.9.9.9.9.9.9.9.9.9.9.9.9.9.>.>.&.q t.c.k.l.m.u.q #.9.;.#.>.9.9.9.9.9.9.9.9.9.9.9.9.9.9.9.9.9.9.9.9.9.9.",
"9.9.9.9.9.9.9.9.9.9.9.9.9.9.9.9.9.9.9.9.9.9.9.9.9.9.>.+.% s.c.l.z.z.z.m.d.5 $.E - -.9.9.9.9.9.9.^ 9.^ 9.9.9.9.9.9.9.9.9.9.9.9.9.",
"9.9.9.9.9.9.9.9.9.9.9.9.9.9.9.9.9.9.9.9.9.9.9.9.9.9.9.O.% d.n.z.z.x.z.c.x.d.q ~ i.6 $.9.9.9.9.9.9.+.9.9.9.9.9.9.9.9.9.9.9.9.9.9.",
"9.9.9.9.9.9.9.9.9.9.9.9.9.9.9.9.9.9.9.9.9.9.9.9.9.9.9.O.% s.n.z.z.z.z.l.x.v.7 _ c.% Q 9.9.9.9.9.9.9.9.9.9.9.9.9.9.9.9.9.9.9.9.9.",
"9.9.9.9.9.9.9.9.9.9.9.9.9.9.9.9.9.9.9.9.9.9.9.9.9.9.9.O.% f.n.z.z.z.x.k.z.v.u 7 _ g %.9.9.9.9.9.9.9.9.9.9.9.9.9.9.9.9.9.9.9.9.9.",
"9.9.9.9.9.9.9.9.9.9.9.9.9.9.9.9.9.9.9.9.9.9.9.9.9.9.9.+.- i.c.x.x.z.z.z.l.k.J X 0 :.9.9.9.9.9.9.9.9.9.9.9.9.9.9.9.9.9.9.9.9.9.9.",
"9.9.9.9.9.9.9.9.9.9.9.9.9.9.9.9.9.9.9.9.9.9.9.9.9.9.9.>.#.6 t.m.z.z.z.v.f.t R ;.*.9.9.9.9.9.9.9.9.9.9.9.9.9.9.9.9.9.9.9.9.9.9.9.",
"9.9.9.9.9.9.9.9.9.9.9.9.9.9.9.9.9.9.9.9.9.9.9.9.9.9.9.9.;.O r.n.m.m.m.f.t D >.9.9.>.9.9.9.9.9.9.9.9.9.9.9.9.9.9.9.9.9.9.9.9.9.9.",
"9.9.9.9.9.9.9.9.9.9.9.9.9.9.9.9.9.9.9.9.9.9.9.9.9.9.9.9.:.R P t.e.e.u.K R 9.9.>.9.9.9.9.9.9.9.9.9.9.9.9.9.9.9.9.9.9.9.9.9.9.9.9.",
"9.9.9.9.9.9.9.9.9.9.9.9.9.9.9.9.9.9.9.9.9.9.9.9.9.9.9.>.9.>.k X       k 9.9.9.9.9.9.9.9.9.9.9.9.9.9.9.9.9.9.9.9.9.9.9.9.9.9.9.9.",
"9.9.9.9.9.9.9.9.9.9.9.9.9.9.9.9.9.9.9.9.9.9.9.9.9.9.9.9.9.9.9.9.9.9.9.9.9.9.9.9.9.9.9.9.9.9.9.9.9.9.9.9.9.9.9.9.9.9.9.9.9.9.9.9.",
"9.9.9.9.9.9.9.9.9.9.9.9.9.9.9.9.9.9.9.9.9.9.9.9.9.9.9.9.9.9.9.9.9.9.9.9.9.9.9.9.9.9.9.9.9.9.9.9.9.9.9.9.9.9.9.9.9.9.9.9.9.9.9.9.",
"9.9.9.9.9.9.9.9.9.9.9.9.9.9.9.9.9.9.9.9.9.9.9.9.9.9.9.9.9.9.9.9.9.9.9.9.9.9.9.9.9.9.9.9.9.9.9.9.9.9.9.9.9.9.9.9.9.9.9.9.9.9.9.9.",
"9.9.9.9.9.9.9.9.9.9.9.9.9.9.9.9.9.9.9.9.9.9.9.9.9.9.9.9.9.9.9.9.9.9.9.9.9.9.9.9.9.9.9.9.9.9.9.9.9.9.9.9.9.9.9.9.9.9.9.9.9.9.9.9.",
"9.9.9.9.9.9.9.9.9.9.9.9.9.9.9.9.9.9.9.9.9.9.9.9.9.9.9.9.9.9.9.9.9.9.9.9.9.9.9.9.9.9.9.9.9.9.9.9.9.9.9.9.9.9.9.9.9.9.9.9.9.9.9.9.",
"9.9.9.9.9.9.9.9.9.9.9.9.9.9.9.9.9.9.9.9.9.9.9.9.9.9.9.9.9.9.9.9.9.9.9.9.9.9.9.9.9.9.9.9.9.9.9.9.9.9.9.9.9.9.9.9.9.9.9.9.9.9.9.9.",
"9.9.9.9.9.9.9.9.9.9.9.9.9.9.9.9.9.9.9.9.9.9.9.9.9.9.9.9.9.9.9.9.9.9.9.9.9.9.9.9.9.9.9.9.9.9.9.9.9.9.9.9.9.9.9.9.9.9.9.9.9.9.9.9.",
"9.9.9.9.9.9.9.9.9.9.9.9.9.9.9.9.O.9.+.9.9.9.9.9.9.9.9.9.9.9.9.9.9.9.9.9.9.9.9.9.9.9.9.9.9.9.9.9.9.9.9.9.9.9.9.9.9.9.9.9.9.9.9.9.",
"9.9.9.9.9.9.9.9.9.9.9.9.9.9.9.9.9.@.9.9.9.9.9.9.9.9.9.9.9.9.9.9.9.9.9.9.9.9.9.9.9.9.9.9.9.9.9.9.9.9.9.9.9.9.9.9.9.9.9.9.9.9.9.9.",
"9.9.9.9.9.9.9.9.9.9.9.9.9.9.9.9.9.9.9.9.9.9.9.9.9.9.9.9.9.9.9.9.9.9.9.9.9.9.9.9.9.9.9.9.9.9.9.9.9.9.9.9.9.9.9.9.9.9.9.9.9.9.9.9.",
"9.9.9.9.9.9.9.9.9.9.9.9.9.9.9.9.9.9.9.9.9.9.9.9.9.9.9.9.9.9.9.9.9.9.9.9.9.9.9.9.9.9.9.9.9.9.9.9.9.9.9.9.9.9.9.9.9.9.9.9.9.9.9.9.",
"9.9.9.9.9.9.9.9.9.9.9.9.9.9.9.9.9.9.9.9.9.9.9.9.9.9.9.9.9.9.9.9.9.9.9.9.9.9.9.9.9.9.9.9.9.9.9.9.9.9.9.9.9.9.9.9.9.9.+.9.^ 9.9.9.",
"9.9.9.9.9.9.9.9.9.9.9.9.9.9.9.9.9.9.9.9.9.9.9.9.9.9.9.9.9.9.9.9.9.9.9.9.9.9.9.9.9.9.9.9.9.9.9.9.9.9.9.9.9.9.9.9.9.9.9.^ 9.9.9.9.",
"9.9.9.9.9.9.9.9.9.9.9.9.9.9.9.9.9.9.9.9.9.9.9.9.9.9.9.9.9.9.9.9.9.9.9.9.9.9.9.9.9.9.9.9.9.9.9.9.9.9.9.9.9.9.y.9.9.9.9.9.9.9.9.9.",
"9.9.9.9.9.9.9.9.9.9.9.9.9.9.9.9.9.9.9.9.9.9.9.9.9.9.9.9.9.9.9.9.9.9.9.9.9.9.9.9.9.9.9.9.9.9.9.9.9.9.9.9.9.9.9.9.9.9.9.9.9.9.9.9.",
"9.9.9.9.9.9.9.9.9.9.9.9.9.9.9.9.9.9.9.9.9.9.9.9.9.9.9.9.9.9.9.9.9.9.9.9.9.9.9.9.9.9.9.9.9.9.9.9.9.9.9.9.9.9.9.9.9.9.9.9.9.9.9.9."
};
