/* XPM */
static char *result[] = {
/* columns rows colors chars-per-pixel */
"64 64 147 2 ",
"   c #010101",
".  c #0A0602",
"X  c #0D0E0D",
"o  c #0D130B",
"O  c #1A1405",
"+  c #13140F",
"@  c #1B160C",
"#  c #141513",
"$  c #1A1B19",
"%  c #192316",
"&  c #1A2019",
"*  c #1F2B1B",
"=  c #27200E",
"-  c #252110",
";  c #2B2512",
":  c #2E291B",
">  c #312B1E",
",  c #2A351D",
"<  c #2D391F",
"1  c #3C321D",
"2  c #241D21",
"3  c #252524",
"4  c #2D2D2D",
"5  c #332E21",
"6  c #253322",
"7  c #273922",
"8  c #2C3D25",
"9  c #2E372C",
"0  c #2E3E29",
"q  c #363125",
"w  c #3D3621",
"e  c #31382E",
"r  c #343633",
"t  c gray23",
"y  c #542C1F",
"u  c #463722",
"i  c #433D27",
"p  c #483821",
"a  c #463D28",
"s  c #6A3629",
"d  c #613C2B",
"f  c #30452A",
"g  c #344B2E",
"h  c #3F4D2E",
"j  c #364C31",
"k  c #3E4C3A",
"l  c #3A5333",
"z  c #4B4028",
"x  c #414C2E",
"c  c #50462F",
"v  c #534A32",
"b  c #5C4D33",
"n  c #435F3B",
"m  c #5D5035",
"M  c #694635",
"N  c #744635",
"B  c #7B4838",
"V  c #615035",
"C  c #62553B",
"Z  c #6D513B",
"A  c #745238",
"S  c #79523E",
"D  c #46643D",
"F  c #4A633C",
"G  c #383B42",
"H  c #444545",
"J  c #46494A",
"K  c #515252",
"L  c #5C5C5C",
"P  c #6B5D41",
"I  c #7A5541",
"U  c #7F5E48",
"Y  c #4C6D43",
"T  c #547749",
"R  c #557A4B",
"E  c #587E4E",
"W  c #586055",
"Q  c #5B6158",
"!  c #597D55",
"~  c #75644A",
"^  c #7C7255",
"/  c #666768",
"(  c #6D6D6D",
")  c #747474",
"_  c #797A7A",
"`  c #806049",
"'  c #8A654C",
"]  c #8A6D53",
"[  c #8A7256",
"{  c #857759",
"}  c #8C775B",
"|  c #87785B",
" . c #8C795B",
".. c #937B5E",
"X. c #847C62",
"o. c #917E60",
"O. c #5A824F",
"+. c #5B8250",
"@. c #618A55",
"#. c #648F59",
"$. c #67965C",
"%. c #69965C",
"&. c #6A995E",
"*. c #6D9D61",
"=. c #6FA063",
"-. c #71A364",
";. c #75A967",
":. c #77AA69",
">. c #79AD6A",
",. c #7CB26D",
"<. c #7FB771",
"1. c #958566",
"2. c #9A8365",
"3. c #978B6A",
"4. c #9C8D6C",
"5. c #A28F6E",
"6. c #A5906F",
"7. c #A49573",
"8. c #A99674",
"9. c #A89875",
"0. c #80B771",
"q. c #82BB73",
"w. c #B3A07C",
"e. c #9A6C8C",
"r. c #848584",
"t. c #8D8D8D",
"y. c #919190",
"u. c #9F9F9F",
"i. c #ACA38A",
"p. c #A3A3A3",
"a. c #ADACAD",
"s. c #B3B3B3",
"d. c #BBBBBB",
"f. c #BFBFC0",
"g. c #C4C4C4",
"h. c #CDCDCC",
"j. c #D1D0CE",
"k. c #D5D4D4",
"l. c #DCD0D8",
"z. c #DBDBDB",
"x. c #E0DFDE",
"c. c #E6E6E6",
"v. c #EBEBEB",
"b. c #F4F5F4",
"n. c #F7F7F8",
"m. c #F7F8F8",
"M. c #FBFBFB",
/* pixels */
"q.q.q.q.q.q.q.q.q.q.q.q.q.q.q.q.q.q.q.q.q.q.q.q.q.q.q.q.q.q.q.q.q.q.q.q.q.q.q.q.q.q.q.q.q.q.q.q.q.q.q.q.q.q.q.q.q.q.q.q.q.q.q.q.",
"q.q.q.q.q.q.q.q.q.q.q.q.q.q.q.q.q.q.q.q.q.q.q.q.q.q.q.q.q.q.q.q.q.q.q.q.q.q.q.q.q.q.q.q.q.q.q.q.q.q.q.q.q.q.q.q.q.q.q.q.q.q.q.q.",
"q.q.q.q.q.q.q.q.q.q.q.q.q.q.q.q.q.q.q.q.q.q.q.q.q.q.q.q.q.q.q.q.q.q.q.q.q.q.q.q.q.q.q.q.q.q.q.q.q.q.q.q.q.q.q.q.q.q.q.q.q.q.q.q.",
"q.q.q.q.q.q.q.q.q.q.q.q.q.q.q.q.q.q.q.q.q.q.q.q.q.q.q.q.q.q.q.q.q.q.q.q.q.q.q.q.q.q.q.q.q.q.q.q.q.q.q.q.q.q.q.q.q.q.q.q.q.q.q.q.",
"q.q.q.q.q.q.q.q.q.q.q.q.q.q.q.q.q.q.q.q.q.q.q.q.q.q.q.q.q.q.q.+.q.! q.q.q.q.q.q.q.q.q.q.q.q.q.q.q.q.q.q.q.q.q.q.q.q.q.q.q.q.q.q.",
"q.q.q.q.q.q.q.q.q.q.q.q.q.q.q.q.q.q.q.q.q.q.q.q.q.q.q.q.q.q.q.q.! q.q.q.q.q.q.q.q.q.q.q.q.q.q.q.q.q.q.q.q.q.q.q.q.q.q.q.q.q.q.q.",
"q.q.q.q.q.q.q.q.q.q.q.q.q.q.q.q.q.q.q.q.q.q.q.q.q.q.q.q.q.q.q.q.q.q.q.q.q.q.q.q.q.q.q.q.q.q.q.q.q.q.q.q.q.q.q.q.q.q.q.q.q.q.q.q.",
"q.q.q.q.q.q.q.q.q.q.q.q.q.q.q.q.q.q.q.q.q.q.q.q.q.q.q.q.q.q.q.q.q.q.q.q.q.q.q.q.q.q.q.q.q.q.q.q.q.q.q.q.q.q.q.q.q.q.q.q.q.q.q.q.",
"q.q.q.q.q.q.q.q.q.q.q.q.q.q.q.q.q.q.q.q.q.q.q.q.q.q.q.q.q.q.q.q.q.q.q.q.q.q.q.q.q.q.q.q.q.q.q.q.q.q.q.q.q.q.q.q.q.q.q.q.q.q.q.q.",
"q.q.q.q.q.q.q.q.q.q.q.q.q.q.q.q.q.q.q.q.q.q.q.q.q.q.q.q.q.q.q.q.q.q.q.q.q.q.q.q.q.q.q.q.q.q.q.q.q.q.q.q.q.q.q.q.q.q.q.q.q.q.q.q.",
"q.q.q.q.q.q.q.q.q.q.q.q.q.q.q.q.q.q.q.q.q.q.q.q.q.q.q.q.q.q.q.q.<.0.q.q.q.q.q.q.q.q.q.q.q.q.q.q.q.q.q.q.q.q.q.q.q.q.q.q.q.q.q.q.",
"q.q.q.q.q.q.q.q.q.q.q.q.q.q.q.q.q.q.q.q.q.q.q.q.q.q.q.q.q.<.q.&.* * -.q.,.q.q.q.q.q.q.q.q.q.q.q.q.q.q.q.q.q.q.q.q.q.q.q.q.q.q.q.",
"q.q.q.q.q.q.q.q.q.q.q.q.q.q.q.q.q.q.q.q.q.q.q.q.q.q.q.q.q.q.&.k ) ) k &.q.q.q.q.q.q.q.q.q.q.q.q.q.q.q.q.q.q.q.q.q.q.q.q.q.q.q.q.",
"q.q.q.q.q.q.q.q.q.q.q.q.q.q.q.q.q.q.q.q.q.q.q.q.q.q.q.q.q.q.f L M.m.L 8 q.q.q.q.q.q.q.q.q.q.q.q.q.q.q.q.q.q.q.q.q.q.q.q.q.q.q.q.",
"q.q.q.q.q.q.q.q.q.q.q.q.q.q.q.q.q.q.q.q.q.q.q.q.q.q.q.<.,.q.g K m.n.K g q.,.<.q.q.q.q.q.q.q.q.q.q.q.q.q.q.q.q.q.q.q.! q.+.q.q.q.",
"q.q.q.q.q.q.q.q.q.q.q.q.q.q.q.q.q.q.q.q.q.q.q.q.q.q.q.=.> 7 o K n.n.K o < , -.q.q.q.q.q.q.q.q.q.q.q.q.q.q.q.q.q.q.q.q.+.q.q.q.q.",
"q.q.q.q.q.q.q.q.q.q.q.q.q.q.q.q.q.q.q.q.q.q.q.q.q.T n h P P . J n.m.J . P C h n R q.q.q.0.q.q.q.q.q.q.q.q.q.q.q.q.q.q.q.q.q.q.q.",
"q.q.q.q.q.q.q.q.q.q.q.q.q.q.q.q.q.q.q.q.q.q.;.@.@.w u m 8.9.@ G n.m.G @ w.7.C u w +.@.;.q.q.q.q.q.q.q.q.q.q.q.q.q.q.q.q.q.q.q.q.",
"q.q.q.q.q.q.q.q.q.q.q.q.q.q.q.q.q.q.q.q.,.<.D % ; A ..1.1.5.$ H b.b.H @ 6.1.1...Z ; = D 0.,.q.q.q.q.q.q.q.q.q.q.q.q.q.q.q.q.q.q.",
"q.q.q.q.q.q.q.q.q.q.q.q.q.q.q.q.q.q.q.;., , x C = d ' o.3.4.^ X.i.i.X.^ 3.3.o.' d - P v - , >.q.q.q.q.q.q.q.q.q.q.q.q.q.q.q.q.q.",
"q.q.q.q.q.q.q.q.q.q.q.q.q.q.q.q.q.q.&.h C m ] ~ O y B I ~ U ] ' A A ` ] U U I B y O ~ ] b C x &.q.q.q.q.q.q.q.q.q.q.q.q.q.q.q.q.",
"q.q.q.q.q.q.q.q.q.q.q.q.q.q.q.q.q.q.l z 7.6.2.~ a M N s s s s s s s s s s s s N M u ~ 1.5.7.a l q.q.q.q.q.q.q.q.q.q.q.q.q.q.q.q.",
"q.q.q.q.q.q.q.q.q.q.q.q.q.q.q.q.q.q.F i | 1.1.1.1.[ B N B N N N N N N N N N N S ] } 1.1.1.} w Y q.q.q.q.q.q.q.q.q.q.q.q.q.q.q.q.",
"q.q.q.q.q.q.q.+.i.+.q.q.q.q.q.q.q.q.<.R 1 { 9.4.4.1. .} } } } } } } } } } } } } 1.5.4.9.{ 1 R q.q.q.q.q.q.q.q.q.q.q.q.q.q.q.q.q.",
"q.q.q.q.q.q.q.q.+.q.q.q.q.q.q.q.q.q.q.q.T z m c c  .9.7.7.7.7.7.7.7.7.7.7.7.7.9. .v c C i T q.q.q.q.q.q.q.q.q.q.q.q.q.q.q.q.q.q.",
"q.q.q.q.q.q.q.q.q.q.q.q.q.q.q.q.q.q.<.q.q.F f , O u b b b b b b b b b m b b m V p O , 8 Y q.q.,.q.q.q.q.q.q.q.q.q.q.q.q.q.q.q.q.",
"q.q.q.q.q.q.q.q.q.q.q.q.q.q.q.q.q.q.q.q.q.q.q.&.= > 1 q q q 5 5 > > > > > > > > : - %.q.q.q.q.q.q.q.q.q.q.q.q.q.q.q.q.q.q.q.q.q.",
"q.q.q.q.q.q.q.q.q.q.q.q.q.q.q.q.q.q.q.q.q.q.q.#.+ p.x.j.z.j.h.h.h.h.j.h.j.j.d.g.y.# @.q.q.q.0.q.q.q.q.q.q.q.q.q.q.q.q.q.q.q.q.q.",
"q.q.q.q.q.q.q.q.q.q.q.q.q.q.q.q.q.q.q.q.q.q.q.@.# g.M.g./ z.M.m.m.M.m.m.m.M.b.M.a.X @.q.q.q.q.q.q.q.q.q.q.q.q.q.q.q.q.q.q.q.q.q.",
"q.q.q.q.q.q.q.q.q.q.q.q.q.q.q.q.q.q.q.q.q.<.q.*.o s.M.r.  s.M.c.c.c.c.c.c.c.v.n.u.X @.q.q.q.q.q.q.q.q.q.q.q.q.q.q.q.q.q.q.q.q.q.",
"q.q.q.q.q.q.q.q.q.q.q.q.q.q.q.q.q.q.q.q.q.q.<.F $ d.M.y.  d.m.c.c.c.c.c.c.c.c.v.u.# #.q.q.q.q.q.q.q.q.q.q.q.q.q.q.q.q.q.q.q.q.q.",
"q.q.q.q.q.q.q.q.q.q.q.q.q.q.q.q.q.q.q.q.q.q.D 2 e.l.M.t.. d.M.c.v.c.v.c.c.c.k.c.p.# #.q.q.q.q.q.q.q.q.q.q.q.q.q.q.q.q.q.q.q.q.q.",
"q.q.q.q.q.q.q.q.q.q.q.q.q.q.q.q.q.q.q.q.q.q.l t l.v.b.h.u.z.v.c.c.v.c.v.c.k.g.b.d.X +.q.q.q.q.q.q.q.q.q.q.q.q.q.q.q.q.q.q.q.q.q.",
"q.q.q.q.q.q.q.q.q.q.q.q.q.q.q.q.q.q.q.q.q.<.l J M.b.z.b.M.b.c.v.c.c.c.x.k.h.v.d.K l ;.q.q.q.q.q.q.q.q.q.q.q.q.q.q.q.q.q.q.q.q.q.",
"q.q.q.q.q.q.q.q.q.q.q.q.q.q.q.q.q.q.q.q.q.q.R e d.v.b.v.v.v.c.z.z.z.z.z.k.k.h.H j q.q.<.q.q.q.q.q.q.q.q.q.q.q.q.q.q.q.q.q.q.q.q.",
"q.q.q.q.q.q.q.q.q.q.q.q.q.q.q.q.q.q.q.q.q.q.q.+.$ d.m.c.h.h.k.h.j.j.j.j.k.z.H j q.q.q.<.q.q.q.q.q.q.q.q.q.q.q.q.q.q.q.q.q.q.q.q.",
"q.q.q.q.q.q.q.q.q.q.q.q.q.q.q.q.q.q.q.q.q.q.q.q.+.r H t r 3 r.h.d.d.h.r.4 r l <.q.q.q.q.q.q.q.q.q.q.q.q.q.q.q.q.q.q.q.q.q.q.q.q.",
"q.q.q.q.q.q.q.q.q.q.q.q.q.q.q.q.q.q.q.q.q.q.<.q.<.R j Y Y o L c.g.h.v.L o Y <.<.q.<.q.q.q.q.q.q.q.q.q.q.q.q.q.q.q.q.q.q.q.q.q.q.",
"q.q.q.q.q.q.q.q.q.q.q.q.q.q.q.q.q.q.q.q.q.q.q.<.q.q.<.q.#.9 u.b.z.x.M.p.9 *.<.:.$.q.q.q.q.q.q.q.q.q.q.q.q.q.q.q.q.q.q.q.q.q.q.q.",
"q.q.q.q.q.q.q.q.q.q.q.q.q.q.q.q.q.q.q.q.q.q.q.q.q.q.q.O.$ f.b.x.c.c.c.n.g.& *.Y $ ;.q.q.q.q.q.q.! q.! q.q.q.q.q.q.q.q.q.q.q.q.q.",
"q.q.q.q.q.q.q.q.q.q.q.q.q.q.q.q.q.q.q.q.q.q.q.q.q.q.q.O.$ g.m.c.c.c.c.b.v.g.9 Q a.6 %.q.q.q.q.q.q.+.q.q.q.q.q.q.q.q.q.q.q.q.q.q.",
"q.q.q.q.q.q.q.q.q.q.q.q.q.q.q.q.q.q.q.q.q.q.q.q.q.q.q.+.# f.m.c.c.v.c.x.v.m.4 ) v.# E q.q.q.q.q.q.q.q.q.q.q.q.q.q.q.q.q.q.q.q.q.",
"q.q.q.q.q.q.q.q.q.q.q.q.q.q.q.q.q.q.q.q.q.q.q.q.q.q.<.O.# s.m.c.c.v.c.c.b.n.t 4 _ 0 *.q.q.q.q.q.q.q.q.q.q.q.q.q.q.q.q.q.q.q.q.q.",
"q.q.q.q.q.q.q.q.q.q.q.q.q.q.q.q.q.q.q.q.q.q.q.q.q.q.q.+.$ f.m.v.v.v.v.z.h.z.H   8 >.q.q.q.q.q.q.q.q.q.q.q.q.q.q.q.q.q.q.q.q.q.q.",
"q.q.q.q.q.q.q.q.q.q.q.q.q.q.q.q.q.q.q.q.q.q.q.q.q.q.q.O.# f.m.v.m.m.M.p.$ 3 X 6 >.q.q.<.q.q.q.q.q.q.q.q.q.q.q.q.q.q.q.q.q.q.q.q.",
"q.q.q.q.q.q.q.q.q.q.q.q.q.q.q.q.q.q.q.q.q.q.q.q.q.q.q.R & z.m.h.K L ( 9     7 >.q.q.q.q.q.q.q.q.q.q.q.q.q.q.q.q.q.q.q.q.q.q.q.q.",
"q.q.q.q.q.q.q.q.q.q.q.q.q.q.q.q.q.q.q.q.q.q.q.q.q.q.<.=.j ) a.W j j j j j f :.q.q.q.q.q.q.q.q.q.q.q.q.q.q.q.q.q.q.q.q.q.q.q.q.q.",
"q.q.q.q.q.q.q.q.q.q.q.q.q.q.q.q.q.q.q.q.q.q.q.q.q.q.<.<.,.% X j q.q.<.<.q.<.q.<.q.q.q.q.q.q.q.q.q.q.q.q.q.q.q.q.q.q.q.q.q.q.q.q.",
"q.q.q.q.q.q.q.q.q.q.q.q.q.q.q.q.q.q.q.q.q.q.q.q.q.q.q.q.q.q.q.q.q.q.q.q.q.q.q.q.q.q.q.q.q.q.q.q.q.q.q.q.q.q.q.q.q.q.q.q.q.q.q.q.",
"q.q.q.q.q.q.q.q.q.q.q.q.q.q.q.q.q.q.q.q.q.q.q.q.q.q.q.q.q.q.q.q.q.q.q.q.q.q.q.q.q.q.q.q.q.q.q.q.q.q.q.q.q.q.q.q.q.q.q.q.q.q.q.q.",
"q.q.q.q.q.q.q.q.q.q.q.q.q.q.q.q.q.q.q.q.q.q.q.q.q.q.q.q.q.q.q.q.q.q.q.q.q.q.q.q.q.q.q.q.q.q.q.q.q.q.q.q.q.q.q.q.q.q.q.q.q.q.q.q.",
"q.q.q.q.q.q.q.q.q.q.q.q.q.q.q.q.q.q.q.q.q.q.q.q.q.q.q.q.q.q.q.q.q.q.q.q.q.q.q.q.q.q.q.q.q.q.q.q.q.q.q.q.q.q.q.q.q.q.q.q.q.q.q.q.",
"q.q.q.q.q.q.q.q.q.q.q.q.q.q.q.q.q.q.q.q.q.q.q.q.q.q.q.q.q.q.q.q.q.q.q.q.q.q.q.q.q.q.q.q.q.q.q.q.q.q.q.q.q.q.q.q.q.q.q.q.q.q.q.q.",
"q.q.q.q.q.q.q.q.q.q.q.q.q.q.q.q.q.q.q.q.q.q.q.q.q.q.q.q.q.q.q.q.q.q.q.q.q.q.q.q.q.q.q.q.q.q.q.q.q.q.q.q.q.q.q.q.q.q.q.q.q.q.q.q.",
"q.q.q.q.q.q.q.q.q.q.q.q.q.q.q.q.q.q.q.q.q.q.q.q.q.q.q.q.q.q.q.q.q.q.q.q.q.q.q.q.q.q.q.q.q.q.q.q.q.q.q.q.q.q.q.q.q.q.q.q.q.q.q.q.",
"q.q.q.q.q.q.q.q.q.q.q.q.q.q.q.q.+.q.O.q.q.q.q.q.q.q.q.q.q.q.q.q.q.q.q.q.q.q.q.q.q.q.q.q.q.q.q.q.q.q.q.q.q.q.q.q.q.q.q.q.q.q.q.q.",
"q.q.q.q.q.q.q.q.q.q.q.q.q.q.q.q.q.@.q.q.q.q.q.q.q.q.q.q.q.q.q.q.q.q.q.q.q.q.q.q.q.q.q.q.q.q.q.q.q.q.q.q.q.q.q.q.q.q.q.q.q.q.q.q.",
"q.q.q.q.q.q.q.q.q.q.q.q.q.q.q.q.q.q.q.q.q.q.q.q.q.q.q.q.q.q.q.q.q.q.q.q.q.q.q.q.q.q.q.q.q.q.q.q.q.q.q.q.q.q.q.q.q.q.q.q.q.q.q.q.",
"q.q.q.q.q.q.q.q.q.q.q.q.q.q.q.q.q.q.q.q.q.q.q.q.q.q.q.q.q.q.q.q.q.q.q.q.q.q.q.q.q.q.q.q.q.q.q.q.q.q.q.q.q.q.q.q.q.q.q.q.q.q.q.q.",
"q.q.q.q.q.q.q.q.q.q.q.q.q.q.q.q.q.q.q.q.q.q.q.q.q.q.q.q.q.q.q.q.q.q.q.q.q.q.q.q.q.i.q.q.q.q.q.q.q.q.q.q.q.q.q.q.q.q.+.q.! q.q.q.",
"q.q.q.q.q.q.q.q.q.q.q.q.q.q.q.q.q.q.q.q.q.q.q.q.q.q.q.q.q.q.q.q.q.q.q.q.q.q.q.q.q.q.q.q.q.q.q.q.q.q.q.q.q.q.q.q.q.q.q.! q.q.q.q.",
"q.q.q.q.q.q.q.q.q.q.q.q.q.q.q.q.q.q.q.q.q.q.q.q.q.q.q.q.q.q.q.q.q.q.q.q.q.q.q.q.q.q.q.q.q.q.q.q.q.q.q.q.q.q.q.q.q.q.q.q.q.q.q.q.",
"q.q.q.q.q.q.q.q.q.q.q.q.q.q.q.q.q.q.q.q.q.q.q.q.q.q.q.q.q.q.q.q.q.q.q.q.q.q.q.q.q.q.q.q.q.q.q.q.q.q.q.q.q.q.q.q.q.q.q.q.q.q.q.q.",
"q.q.q.q.q.q.q.q.q.q.q.q.q.q.q.q.q.q.q.q.q.q.q.q.q.q.q.q.q.q.q.q.q.q.q.q.q.q.q.q.q.q.q.q.q.q.q.q.q.q.q.q.q.q.q.q.q.q.q.q.q.q.q.q."
};
