/* XPM */
static char *result[] = {
/* columns rows colors chars-per-pixel */
"64 64 175 2 ",
"   c #010201",
".  c #060906",
"X  c #080A07",
"o  c #030409",
"O  c #0C0C0B",
"+  c #0D120C",
"@  c #10170F",
"#  c #1D1C0C",
"$  c #0D0E10",
"%  c #141414",
"&  c #141B13",
"*  c #1A1A1A",
"=  c #291D06",
"-  c #251A0A",
";  c #281A09",
":  c #291E08",
">  c #391E11",
",  c #1C2111",
"<  c #1D2A1A",
"1  c #2C210B",
"2  c #2B2511",
"3  c #252814",
"4  c #2C2A16",
"5  c #21291F",
"6  c #352715",
"7  c #322A16",
"8  c #3A2E1A",
"9  c #22321E",
"0  c #2D331B",
"q  c #34301C",
"w  c #3B321C",
"e  c #311D27",
"r  c #252525",
"t  c #2F2F2F",
"y  c #302C23",
"u  c #293A23",
"i  c #293826",
"p  c #363927",
"a  c #353635",
"s  c #373936",
"d  c #3B3C3B",
"f  c #443C26",
"g  c #473E29",
"h  c #4D3F29",
"j  c #513826",
"k  c #423E32",
"l  c #6A3629",
"z  c #6D3B2D",
"x  c #3B4127",
"c  c #33472B",
"v  c #354B2D",
"b  c #3A502E",
"n  c #374E31",
"m  c #3B5534",
"M  c #3E5A38",
"N  c #4A412B",
"B  c #43492D",
"V  c #47433B",
"C  c #594D35",
"Z  c #415030",
"A  c #435539",
"S  c #415E3A",
"D  c #585038",
"F  c #734535",
"G  c #744937",
"H  c #764A39",
"J  c #7C4838",
"K  c #6A543C",
"L  c #7A523E",
"P  c #44613C",
"I  c #4A643C",
"U  c #49683F",
"Y  c #434444",
"T  c #4D554B",
"R  c #535353",
"E  c #5D5C5C",
"W  c #6A5E43",
"Q  c #775842",
"!  c #7E5D47",
"~  c #7F5E48",
"^  c #605F5F",
"/  c #476041",
"(  c #4C6D43",
")  c #4E7145",
"_  c #517346",
"`  c #547749",
"'  c #54794A",
"]  c #597E4D",
"[  c #597D55",
"{  c #6C6045",
"}  c #6F6349",
"|  c #73664A",
" . c #66645E",
".. c #7C6E51",
"X. c #607D58",
"o. c #646665",
"O. c #6D6B64",
"+. c #686868",
"@. c #74716B",
"#. c #757575",
"$. c #7C7C7B",
"%. c #85664C",
"&. c #846C51",
"*. c #896F54",
"=. c #877457",
"-. c #8B7456",
";. c #847558",
":. c #877859",
">. c #8C7B5D",
",. c #9A7359",
"<. c #927B5D",
"1. c #927E60",
"2. c #5A814F",
"3. c #5C8451",
"4. c #5F8853",
"5. c #628D56",
"6. c #638F58",
"7. c #65925A",
"8. c #69965C",
"9. c #6D9D60",
"0. c #6FA163",
"q. c #71A364",
"w. c #75A967",
"e. c #76AA68",
"r. c #79AE6B",
"t. c #7CB36E",
"y. c #7FA475",
"u. c #7FB670",
"i. c #7FB871",
"p. c #948465",
"a. c #9B8365",
"s. c #9D8768",
"d. c #9A8C6B",
"f. c #9F916F",
"g. c #828079",
"h. c #A08C6B",
"j. c #A59372",
"k. c #AE9C79",
"l. c #B09F7B",
"z. c #80B771",
"x. c #82BB73",
"c. c #B5A37E",
"v. c #7E7E80",
"b. c #95728A",
"n. c #8D8A82",
"m. c #84888F",
"M. c #8B8B8C",
"N. c #8F9091",
"B. c gray57",
"V. c #979897",
"C. c #9A9A9A",
"Z. c #A5919E",
"A. c #8BA683",
"S. c #A5A5A4",
"D. c #AFAFAF",
"F. c #B0ACA0",
"G. c #A5B8A0",
"H. c #B4B4B4",
"J. c #BBBBBB",
"K. c #C3C3C3",
"L. c #C2C6CB",
"P. c #CCCCCC",
"I. c #CED3CD",
"U. c #CDCDD0",
"Y. c #D4D4D4",
"T. c #DBDBDB",
"R. c #EAE7DA",
"E. c #F2D9E9",
"W. c #E5E5E5",
"Q. c #E7E8E7",
"!. c #EAEAEA",
"~. c #EFF0EF",
"^. c #F4F5F4",
"/. c #F7F8F9",
"(. c #FDFEFD",
/* pixels */
"x.x.x.x.x.x.x.x.x.x.x.x.x.x.x.x.x.x.x.x.x.x.x.x.x.x.x.x.x.x.x.x.x.x.x.x.x.x.x.x.x.x.x.x.x.x.x.x.x.x.x.x.x.x.x.x.x.x.x.x.x.x.x.x.",
"x.x.x.x.x.x.x.x.x.x.x.x.x.x.x.x.x.x.x.x.x.x.x.x.x.x.x.x.x.x.x.x.x.x.x.x.x.x.x.x.x.x.x.x.x.x.x.x.x.x.x.x.x.x.x.x.x.x.x.x.x.x.x.x.",
"x.x.x.x.x.x.x.x.x.x.x.x.x.x.x.x.x.x.x.x.x.x.x.x.x.x.x.x.x.x.x.x.x.x.x.x.x.x.x.x.x.x.x.x.x.x.x.x.x.x.x.x.x.x.x.x.x.x.x.x.x.x.x.x.",
"x.x.x.x.x.x.x.x.x.x.x.x.x.x.x.x.x.x.x.x.x.x.x.x.x.x.x.x.x.x.x.x.x.x.x.x.x.x.x.x.x.x.x.x.x.x.x.x.x.x.x.x.x.x.x.x.x.x.x.x.x.x.x.x.",
"x.x.x.x.x.x.x.x.x.x.x.x.x.x.x.x.x.x.x.x.x.x.x.x.x.x.x.x.x.x.x.[ x.3.x.x.x.x.x.x.x.x.x.x.x.x.x.x.x.x.x.x.x.x.x.x.x.x.x.x.x.x.x.x.",
"x.x.x.x.x.x.x.x.x.x.x.x.x.x.x.x.x.x.x.x.x.x.x.x.x.x.x.x.x.x.x.x.[ x.x.x.x.x.x.x.x.x.x.x.x.x.x.x.x.x.x.x.x.x.x.x.x.x.x.x.x.x.x.x.",
"x.x.x.x.x.x.x.x.x.x.x.x.x.x.x.x.x.x.x.x.x.x.x.x.x.x.x.x.x.x.x.x.x.x.x.x.x.x.x.x.x.x.x.x.x.x.x.x.x.x.x.x.x.x.x.x.x.x.x.x.x.x.x.x.",
"x.x.x.x.x.x.x.x.x.x.x.x.x.x.x.x.x.x.x.x.x.x.x.x.x.x.x.x.x.x.x.x.x.x.x.x.x.x.x.x.x.x.x.x.x.x.x.x.x.x.x.x.x.x.x.x.x.x.x.x.x.x.x.x.",
"x.x.x.x.x.x.x.x.x.x.x.x.x.x.x.x.x.x.x.x.x.x.x.x.x.x.x.x.x.x.x.x.x.x.x.x.x.x.x.x.x.x.x.x.x.x.x.x.x.x.x.x.x.x.x.x.x.x.x.x.x.x.x.x.",
"x.x.x.x.x.x.x.x.x.x.x.x.x.x.x.x.x.x.x.x.x.x.x.x.x.x.x.x.x.x.x.x.9.' 7.x.x.i.x.x.x.x.x.x.x.x.x.x.x.x.x.x.x.x.x.x.x.x.x.x.x.x.x.x.",
"x.x.x.x.x.x.x.x.x.x.x.x.x.x.x.x.x.x.x.x.x.x.x.x.x.x.x.x.x.x.x.t.c % r 0.x.i.x.x.x.x.x.x.x.x.x.x.x.x.x.x.x.x.x.x.x.x.x.x.x.x.x.x.",
"x.x.x.x.x.x.x.x.x.x.x.x.x.x.x.x.x.x.x.x.x.x.x.x.x.x.x.x.x.x.e.u #.W.C.5 7.x.x.x.x.x.x.x.x.x.x.x.x.x.x.x.x.x.x.x.x.x.x.x.x.x.x.x.",
"x.x.x.x.x.x.x.x.x.x.x.x.x.x.x.x.x.x.x.x.x.x.x.x.x.x.x.z.x.x.r.+ S./.Y.* 4.i.i.i.x.x.x.x.x.x.x.x.x.x.x.x.x.x.x.x.x.x.x.x.x.x.x.x.",
"x.x.x.x.x.x.x.x.x.x.x.x.x.x.x.x.x.x.x.x.x.x.x.x.x.x.x.x.9.[ ( + B.(.K.* m 3.7.x.x.x.i.x.x.x.x.x.x.x.x.x.x.x.x.x.x.x.x.x.x.x.x.x.",
"x.x.x.x.x.x.x.x.x.x.x.x.x.x.x.x.x.x.x.x.x.x.x.x.x.t.e.t.Z 8 2   N.(.K.% @ w w 0.r.t.i.x.x.x.x.x.x.x.x.x.x.x.x.x.x.x.[ x.4.x.x.x.",
"x.x.x.x.x.x.x.x.x.x.x.x.x.x.x.x.x.x.x.x.x.x.x.x.x.8.3 , D d.W   M.(.J.$ h d.{ 4 # ` x.x.x.i.x.x.x.x.x.x.x.x.x.x.x.x.x.[ x.x.x.x.",
"x.x.x.x.x.x.x.x.x.x.x.x.x.x.x.x.x.x.x.z.x.x.x./ p B W Q >.k.;.  m.(.L.. N F.p.} W N b b u.i.x.i.x.x.x.x.x.x.x.x.x.x.x.x.x.x.x.x.",
"x.x.x.x.x.x.x.x.x.x.x.x.x.x.x.x.x.x.x.z.q.) _ N 6 f %.1.d.d.>.k g.R.F.N | f.p.s.,.j 1 h S ` 7.x.x.x.x.x.x.x.x.x.x.x.x.x.x.x.x.x.",
"x.x.x.x.x.x.x.x.x.x.x.x.x.x.x.x.x.x.x.z.A 8 8 -.C ; z %.*.>.>.1.<.&.-.a.<.<.=.! J > p <.N 6 x w.x.x.x.x.x.x.x.x.x.x.x.x.x.x.x.x.",
"x.x.x.x.x.x.x.x.x.x.x.x.x.x.x.x.x.x.z.v D 1.&.1.h ; z z G H H H G G F H H F G G J > 7 -.*.1.W 0 0.x.x.x.x.x.x.x.x.x.x.x.x.x.x.x.",
"x.x.x.x.x.x.x.x.x.x.x.x.x.x.x.x.x.x.t.# { c.p.p.| K Q z l l l l l l l l l l l l H Q | p.1.l.-.- 9.i.x.x.x.x.x.x.x.x.x.x.x.x.x.x.",
"x.x.x.x.x.x.x.x.x.x.x.x.x.x.x.x.x.x.i.] N ..d.f.j.h.*.%.! ~ ! %.| %.L %.~ ~ ~ ~ &.h.k.d.j.>.N I e.x.x.x.x.x.x.x.x.x.x.x.x.x.x.x.",
"x.x.x.x.x.x.x.x.x.x.x.x.x.x.x.x.x.x.z.x.2.q ..;...;.p.d.d.d.d.d.d.d.s.d.d.d.d.d.s.:.....>.g S x.x.i.x.x.x.x.x.x.x.x.x.x.x.x.x.x.",
"x.x.x.x.x.x.x.3.x.3.x.x.x.x.x.x.x.x.x.x.x.4.7 2 # f <.p.p.p.p.p.p.p.p.p.p.p.p.p.a.C # 4 2 ( x.x.x.x.x.x.x.x.x.x.x.x.x.x.x.x.x.x.",
"x.x.x.x.x.x.x.x.[ x.x.x.x.x.x.x.x.x.x.x.x.i.4.7.v : = 1 : : : : 1 : : : : : : : ; ; 4 4.3.e.x.i.x.x.x.x.x.x.x.x.x.x.x.x.x.x.x.x.",
"x.x.x.x.x.x.x.x.x.x.x.x.x.x.x.x.x.x.x.x.z.x.x.x.P q O. .O.@.@.@.@.@.@.@.O.g.n.@.y.V y i.x.x.i.x.x.x.x.x.x.x.x.x.x.x.x.x.x.x.x.x.",
"x.x.x.x.x.x.x.x.x.x.x.x.x.x.x.x.x.x.x.x.x.x.x.x.m Y !.~./.(.(.(.(.(.(.(.(.W.U.(.(.v.5 u.x.x.x.x.x.x.x.x.x.x.x.x.x.x.x.x.x.x.x.x.",
"x.x.x.x.x.x.x.x.x.x.x.x.x.x.x.x.x.x.x.x.x.x.x.x.m d T.!.!.Q.Q.Q.Q.Q.Q.Q.(.+.* T.(.#.9 u.x.x.x.x.x.x.x.x.x.x.x.x.x.x.x.x.x.x.x.x.",
"x.x.x.x.x.x.x.x.x.x.x.x.x.x.x.x.x.x.x.x.x.x.x.x.m d T.!.!.Q.Q.Q.W.Q.Q.Q.(.o.% T.(.+.u x.x.x.x.x.x.x.x.x.x.x.x.x.x.x.x.x.x.x.x.x.",
"x.x.x.x.x.x.x.x.x.x.x.x.x.x.x.x.x.x.x.x.x.x.x.x.m d Y.T.W.Q.W.W.Q.Q.Q.Q.(.R . T.(.Z.e S e.x.x.x.x.x.x.x.x.x.x.x.x.x.x.x.x.x.x.x.",
"x.x.x.x.x.x.x.x.x.x.x.x.x.x.x.x.x.x.x.x.x.x.x.x.n Y W.Y.U.W.W.W.Q.W.Q.Q.(.M.R T.^.E.b.o 6.x.x.x.x.x.x.x.x.x.x.x.x.x.x.x.x.x.x.x.",
"x.x.x.x.x.x.x.x.x.x.x.x.x.x.x.x.x.x.x.x.x.x.x.x.S d P.Y.P.Y.W.W.Q.W.Q.Q.Q.!.~.Q.W.(.D.% 7.x.x.x.x.x.x.x.x.x.x.x.x.x.x.x.x.x.x.x.",
"x.x.x.x.x.x.x.x.x.x.x.x.x.x.x.x.x.x.x.x.x.x.x.x.t.P a L.W.P.Y.W.W.W.W.!.!.!.~.!.W.(.K.O 6.x.x.x.x.x.x.x.x.x.x.x.x.x.x.x.x.x.x.x.",
"x.x.x.x.x.x.x.x.x.x.x.x.x.x.x.x.x.x.x.x.x.x.x.z.x.i.S s H.^.W.T.Y.Y.Y.T.!.^./.(.(.J.s ) t.x.x.x.x.x.x.x.x.x.x.x.x.x.x.x.x.x.x.x.",
"x.x.x.x.x.x.x.x.x.x.x.x.x.x.x.x.x.x.x.x.x.x.x.x.x.x.x.P Y C.M.J.P.K.K.K.V.$.M.V.H.d ) x.x.i.x.x.x.x.x.x.x.x.x.x.x.x.x.x.x.x.x.x.",
"x.x.x.x.x.x.x.x.x.x.x.x.x.x.x.x.x.x.x.x.x.x.x.x.x.x.x.i.U   $ S.U.J.K.K.t X & $ . ( x.x.i.x.x.x.x.x.x.x.x.x.x.x.x.x.x.x.x.x.x.x.",
"x.x.x.x.x.x.x.x.x.x.x.x.x.x.x.x.x.x.x.x.x.x.x.x.i.x.x.x.i.` $ J.!.Y.T.T.t b z.q.9.t.x.x.x.x.x.x.x.x.x.x.x.x.x.x.x.x.x.x.x.x.x.x.",
"x.x.x.x.x.x.x.x.x.x.x.x.x.x.x.x.x.x.x.x.x.x.x.i.x.q.v u.q.i S.W.^.W.T.T.J.T ` z.x.x.u.x.x.x.x.x.x.x.x.x.x.x.x.x.x.x.x.x.x.x.x.x.",
"x.x.x.x.x.x.x.x.x.x.x.x.x.x.x.x.x.x.x.x.x.x.x.x.q.A E ( p S.(.~.W.W.W.W.(.B.@ r.x.x.x.x.x.x.x.x.x.x.x.x.x.x.x.x.x.x.x.x.x.x.x.x.",
"x.x.x.x.x.x.x.x.x.x.x.x.x.x.x.x.x.x.x.x.x.x.x.x.c ^ ^.* $.(.W.W.Q.W.W.W.(.$.< r.x.x.x.x.x.x.x.x.[ x.[ x.x.x.x.x.x.x.x.x.x.x.x.x.",
"x.x.x.x.x.x.x.x.x.x.x.x.x.x.x.x.x.x.x.x.x.x.x.x.v T Y.% #.(.T.W.!.W.!.W.(.$.< t.x.u.x.x.x.x.x.x.x.3.x.x.x.x.x.x.x.x.x.x.x.x.x.x.",
"x.x.x.x.x.x.x.x.x.x.x.x.x.x.x.x.x.x.x.x.x.x.x.x.w.T s   #.(.T.(.(./.W.W.(.B.. u t.x.x.x.x.x.x.x.x.x.x.x.x.x.x.x.x.x.x.x.x.x.x.x.",
"x.x.x.x.x.x.x.x.x.x.x.x.x.x.x.x.x.x.x.x.x.x.x.x.x.9.  d J.(.I.A.z.G.(.(.H.s     u 0.x.x.x.x.x.x.x.x.x.x.x.x.x.x.x.x.x.x.x.x.x.x.",
"x.x.x.x.x.x.x.x.x.x.x.x.x.x.x.x.x.x.x.x.x.x.x.x.i.] * Y.(./.I.8.y.X.Y.K.r         v x.x.x.x.x.x.x.x.x.x.x.x.x.x.x.x.x.x.x.x.x.x.",
"x.x.x.x.x.x.x.x.x.x.x.x.x.x.x.x.x.x.x.x.x.x.x.x.x.3.* K.^.^.U.r . . % % .         M x.x.x.x.x.x.x.x.x.x.x.x.x.x.x.x.x.x.x.x.x.x.",
"x.x.x.x.x.x.x.x.x.x.x.x.x.x.x.x.x.x.x.x.x.x.x.x.z.u.] s Y Y d ) 5.] 6.6.@       m t.x.x.x.x.x.x.x.x.x.x.x.x.x.x.x.x.x.x.x.x.x.x.",
"x.x.x.x.x.x.x.x.x.x.x.x.x.x.x.x.x.x.x.x.x.x.x.x.z.x.x.) n m ( x.x.x.x.x.2.v m M t.x.i.x.x.x.x.x.x.x.x.x.x.x.x.x.x.x.x.x.x.x.x.x.",
"x.x.x.x.x.x.x.x.x.x.x.x.x.x.x.x.x.x.x.x.x.x.x.x.x.z.x.x.x.x.x.x.z.x.x.z.x.x.x.x.x.u.x.x.x.x.x.x.x.x.x.x.x.x.x.x.x.x.x.x.x.x.x.x.",
"x.x.x.x.x.x.x.x.x.x.x.x.x.x.x.x.x.x.x.x.x.x.x.x.x.x.x.x.x.x.x.x.x.x.x.x.x.x.x.x.x.x.x.x.x.x.x.x.x.x.x.x.x.x.x.x.x.x.x.x.x.x.x.x.",
"x.x.x.x.x.x.x.x.x.x.x.x.x.x.x.x.x.x.x.x.x.x.x.x.x.x.x.x.x.x.x.x.x.x.x.x.x.x.x.x.x.x.x.x.x.x.x.x.x.x.x.x.x.x.x.x.x.x.x.x.x.x.x.x.",
"x.x.x.x.x.x.x.x.x.x.x.x.x.x.x.x.x.x.x.x.x.x.x.x.x.x.x.x.x.x.x.x.x.x.x.x.x.x.x.x.x.x.x.x.x.x.x.x.x.x.x.x.x.x.x.x.x.x.x.x.x.x.x.x.",
"x.x.x.x.x.x.x.x.x.x.x.x.x.x.x.x.x.x.x.x.x.x.x.x.x.x.x.x.x.x.x.x.x.x.x.x.x.x.x.x.x.x.x.x.x.x.x.x.x.x.x.x.x.x.x.x.x.x.x.x.x.x.x.x.",
"x.x.x.x.x.x.x.x.x.x.x.x.x.x.x.x.x.x.x.x.x.x.x.x.x.x.x.x.x.x.x.x.x.x.x.x.x.x.x.x.x.x.x.x.x.x.x.x.x.x.x.x.x.x.x.x.x.x.x.x.x.x.x.x.",
"x.x.x.x.x.x.x.x.x.x.x.x.x.x.x.x.x.x.x.x.x.x.x.x.x.x.x.x.x.x.x.x.x.x.x.x.x.x.x.x.x.x.x.x.x.x.x.x.x.x.x.x.x.x.x.x.x.x.x.x.x.x.x.x.",
"x.x.x.x.x.x.x.x.x.x.x.x.x.x.x.x.x.x.x.x.x.x.x.x.x.x.x.x.x.x.x.x.x.x.x.x.x.x.x.x.x.x.x.x.x.x.x.x.x.x.x.x.x.x.x.x.x.x.x.x.x.x.x.x.",
"x.x.x.x.x.x.x.x.x.x.x.x.x.x.x.x.[ x.[ x.x.x.x.x.x.x.x.x.x.x.x.x.x.x.x.x.x.x.x.x.x.x.x.x.x.x.x.x.x.x.x.x.x.x.x.x.x.x.x.x.x.x.x.x.",
"x.x.x.x.x.x.x.x.x.x.x.x.x.x.x.x.x.5.x.x.x.x.x.x.x.x.x.x.x.x.x.x.x.x.x.x.x.x.x.x.x.x.x.x.x.x.x.x.x.x.x.x.x.x.x.x.x.x.x.x.x.x.x.x.",
"x.x.x.x.x.x.x.x.x.x.x.x.x.x.x.x.x.x.x.x.x.x.x.x.x.x.x.x.x.x.x.x.x.x.x.x.x.x.x.x.x.x.x.x.x.x.x.x.x.x.x.x.x.x.x.x.x.x.x.x.x.x.x.x.",
"x.x.x.x.x.x.x.x.x.x.x.x.x.x.x.x.x.x.x.x.x.x.x.x.x.x.x.x.x.x.x.x.x.x.x.x.x.x.x.x.x.x.x.x.x.x.x.x.x.x.x.x.x.x.x.x.x.x.x.x.x.x.x.x.",
"x.x.x.x.x.x.x.x.x.x.x.x.x.x.x.x.x.x.x.x.x.x.x.x.x.x.x.x.x.x.x.x.x.x.x.x.x.x.x.x.x.x.x.x.x.x.x.x.x.x.x.x.x.x.x.x.x.x.[ x.[ x.x.x.",
"x.x.x.x.x.x.x.x.x.x.x.x.x.x.x.x.x.x.x.x.x.x.x.x.x.x.x.x.x.x.x.x.x.x.x.x.x.x.x.x.x.x.x.x.x.x.x.x.x.x.x.x.x.x.x.x.x.x.x.3.x.x.x.x.",
"x.x.x.x.x.x.x.x.x.x.x.x.x.x.x.x.x.x.x.x.x.x.x.x.x.x.x.x.x.x.x.x.x.x.x.x.x.x.x.x.x.x.x.x.x.x.x.x.x.x.x.x.x.x.x.x.x.x.x.x.x.x.x.x.",
"x.x.x.x.x.x.x.x.x.x.x.x.x.x.x.x.x.x.x.x.x.x.x.x.x.x.x.x.x.x.x.x.x.x.x.x.x.x.x.x.x.x.x.x.x.x.x.x.x.x.x.x.x.x.x.x.x.x.x.x.x.x.x.x.",
"x.x.x.x.x.x.x.x.x.x.x.x.x.x.x.x.x.x.x.x.x.x.x.x.x.x.x.x.x.x.x.x.x.x.x.x.x.x.x.x.x.x.x.x.x.x.x.x.x.x.x.x.x.x.x.x.x.x.x.x.x.x.x.x."
};
