/* XPM */
static char *result[] = {
/* columns rows colors chars-per-pixel */
"64 64 152 2 ",
"   c #0B0A07",
".  c #141C13",
"X  c #171719",
"o  c #251C0B",
"O  c #31160B",
"+  c #1F210E",
"@  c #1E2518",
"#  c #202512",
"$  c #222C1B",
"%  c #392710",
"&  c #372F1C",
"*  c #2E351C",
"=  c #29282A",
"-  c #362F25",
";  c #263723",
":  c #283724",
">  c #343F25",
",  c #39362A",
"<  c #2C2F35",
"1  c #2E3234",
"2  c #343336",
"3  c #363B37",
"4  c #363639",
"5  c #38373A",
"6  c #3A3B3C",
"7  c #44371E",
"8  c #4B301F",
"9  c #44381E",
"0  c #493E27",
"q  c #553C2A",
"w  c #403F3E",
"e  c #6A3629",
"r  c #6C392C",
"t  c #34492E",
"y  c #394D2D",
"u  c #394638",
"i  c #3C5332",
"p  c #3D5936",
"a  c #46462C",
"s  c #4E422A",
"d  c #5D4736",
"f  c #554B32",
"g  c #5D4C32",
"h  c #445735",
"j  c #465A35",
"k  c #415D39",
"l  c #624F38",
"z  c #734736",
"x  c #754938",
"c  c #794838",
"v  c #64563B",
"b  c #68573F",
"n  c #78573C",
"m  c #46643D",
"M  c #434245",
"N  c #464E45",
"B  c #4F4C42",
"V  c #474749",
"C  c #4B4A4B",
"Z  c #475944",
"A  c #495F44",
"S  c #4E4D51",
"D  c #505354",
"F  c #5C5A57",
"G  c #55535A",
"H  c #59585D",
"J  c #6E5D4B",
"K  c #7D5441",
"L  c #7D5C44",
"P  c #496442",
"I  c #4B6B42",
"U  c #4E7046",
"Y  c #527549",
"T  c #587F4E",
"R  c #597D55",
"E  c #706346",
"W  c #6A6051",
"Q  c #5D5B62",
"!  c #605E64",
"~  c #626364",
"^  c #7C7B7D",
"/  c #804B3A",
"(  c #855C44",
")  c #81624B",
"_  c #857558",
"`  c #8E7559",
"'  c #8E7B5E",
"]  c #937C5F",
"[  c #8F7E60",
"{  c #5B8351",
"}  c #608A55",
"|  c #608059",
" . c #648F5A",
".. c #66925A",
"X. c #69965D",
"o. c #7D9779",
"O. c #7F987B",
"+. c #73A666",
"@. c #75A968",
"#. c #79AD6A",
"$. c #7CB36E",
"%. c #7EB670",
"&. c #7FB871",
"*. c #958465",
"=. c #998164",
"-. c #998867",
";. c #93856B",
":. c #968A69",
">. c #9B8C6B",
",. c #A18F6D",
"<. c #A39371",
"1. c #AC9776",
"2. c #A49B7D",
"3. c #82BB73",
"4. c #B4A17D",
"5. c #7E8186",
"6. c #87878A",
"7. c #919091",
"8. c #9A999A",
"9. c #AAA28B",
"0. c #A1A1A1",
"q. c #A5A4AA",
"w. c #ABAAAB",
"e. c #ACABB4",
"r. c #B2B1BA",
"t. c #BDBCB8",
"y. c #BEBDC9",
"u. c #C2C2C2",
"i. c #C4C3CC",
"p. c #D5CFC2",
"a. c #CCCBD5",
"s. c #CFCEDB",
"d. c #D3D3D4",
"f. c #D4D3DC",
"g. c #DBDBDE",
"h. c #D6D5E1",
"j. c #D8D7E2",
"k. c #DCDBE4",
"l. c #DFDEE8",
"z. c #E0DFE3",
"x. c #E6E6E6",
"c. c #E7E8E7",
"v. c #E9E9E7",
"b. c #E3E3EC",
"n. c #E8E7E9",
"m. c #EAEAEA",
"M. c #EDEDF3",
"N. c #E9E8F5",
"B. c #F2F2F3",
"V. c #F8F8F7",
"C. c #F1F1FA",
"Z. c #FEFEFD",
/* pixels */
"3.3.3.3.3.3.3.3.3.3.3.3.3.3.3.3.3.3.3.3.3.3.3.3.3.3.3.3.3.3.3.3.3.3.3.3.3.3.3.3.3.3.3.3.3.3.3.3.3.3.3.3.3.3.3.3.3.3.3.3.3.3.3.3.",
"3.3.3.3.3.3.3.3.3.3.3.3.3.3.3.3.3.3.3.3.3.3.3.3.3.3.3.3.3.3.3.3.3.3.3.3.3.3.3.3.3.3.3.3.3.3.3.3.3.3.3.3.3.3.3.3.3.3.3.3.3.3.3.3.",
"3.3.3.3.3.3.3.3.3.3.3.3.3.3.3.3.3.3.3.3.3.3.3.3.3.3.3.3.3.3.3.3.3.3.3.3.3.3.3.3.3.3.3.3.3.3.3.3.3.3.3.3.3.3.3.3.3.3.3.3.3.3.3.3.",
"3.3.3.3.3.3.3.3.3.3.3.3.3.3.3.3.3.3.3.3.3.3.3.3.3.3.3.3.3.3.3.3.3.3.3.3.3.3.3.3.3.3.3.3.3.3.3.3.3.3.3.3.3.3.3.3.3.3.3.3.3.3.3.3.",
"3.3.3.3.3.3.3.3.3.3.3.3.3.3.3.3.3.3.3.3.3.3.3.3.3.3.3.3.3.3.3.{ 3.{ 3.3.3.3.3.3.3.3.3.3.3.3.3.3.3.3.3.3.3.3.3.3.3.3.3.3.3.3.3.3.",
"3.3.3.3.3.3.3.3.3.3.3.3.3.3.3.3.3.3.3.3.3.3.3.3.3.3.3.3.3.3.3.3.R 3.3.3.3.3.3.3.3.3.3.3.3.3.3.3.3.3.3.3.3.3.3.3.3.3.3.3.3.3.3.3.",
"3.3.3.3.3.3.3.3.3.3.3.3.3.3.3.3.3.3.3.3.3.3.3.3.3.3.3.3.3.3.3.3.3.3.3.3.3.3.3.3.3.3.3.3.3.3.3.3.3.3.3.3.3.3.3.3.3.3.3.3.3.3.3.3.",
"3.3.3.3.3.3.3.3.3.3.3.3.3.3.3.3.3.3.3.3.3.3.3.3.3.3.3.3.3.3.3.3.3.3.3.3.3.3.3.3.3.3.3.3.3.3.3.3.3.3.3.3.3.3.3.3.3.3.3.3.3.3.3.3.",
"3.3.3.3.3.3.3.3.3.3.3.3.3.3.3.3.3.3.3.3.3.3.3.3.3.3.3.3.3.3.3.3.3.3.3.3.3.3.3.3.3.3.3.3.3.3.3.3.3.3.3.3.3.3.3.3.3.3.3.3.3.3.3.3.",
"3.3.3.3.3.3.3.3.3.3.3.3.3.3.3.3.3.3.3.3.3.3.3.3.3.3.3.3.3.3.3.3.3.3.3.3.3.3.3.3.3.3.3.3.3.3.3.3.3.3.3.3.3.3.3.3.3.3.3.3.3.3.3.3.",
"3.3.3.3.3.3.3.3.3.3.3.3.3.3.3.3.3.3.3.3.3.3.3.3.3.3.3.3.3.3.3.3.3.3.3.3.3.3.3.3.3.3.3.3.3.3.3.3.3.3.3.3.3.3.3.3.3.3.3.3.3.3.3.3.",
"3.3.3.3.3.3.3.3.3.3.3.3.3.3.3.3.3.3.3.3.3.3.3.3.3.3.3.3.3.&.3.3.3.3.3.3.3.3.3.3.3.3.3.3.3.3.3.3.3.3.3.3.3.3.3.3.3.3.3.3.3.3.3.3.",
"3.3.3.3.3.3.3.3.3.3.3.3.3.3.3.3.3.3.3.3.3.3.3.&.3.3.{ Y +.3.3.3.3.@.Y } 3.3.3.3.3.3.3.3.3.3.3.3.3.3.3.3.3.3.3.3.3.3.3.3.3.3.3.3.",
"3.3.3.3.3.3.3.3.3.3.3.3.3.3.3.3.3.3.3.3.3.3.3.3.3.X.6 M P 3.3.&.3.A M 6 X.3.3.3.3.3.3.3.3.3.3.3.3.3.3.3.3.3.3.3.3.3.3.3.3.3.3.3.",
"3.3.3.3.3.3.3.3.3.3.3.3.3.3.3.3.3.3.3.3.3.3.3.3.} 6 u.M.^ t &.3.t ^ M.u.6 { 3.3.3.3.3.3.3.3.3.3.3.3.3.3.3.3.3.3.3.3.R 3.} 3.3.3.",
"3.3.3.3.3.3.3.3.3.3.3.3.3.3.3.3.3.3.3.3.3.3.3.3.{ 6 z.Z.7.; 3.3.: 7.Z.z.6 { 3.3.3.3.3.3.3.3.3.3.3.3.3.3.3.3.3.3.3.3.3.{ 3.3.3.3.",
"3.3.3.3.3.3.3.3.3.3.3.3.3.3.3.3.3.3.3.3.3.3.3.3.X.5 d.Z.6.. m m . 6.Z.d.5 X.3.3.3.3.3.3.3.3.3.3.3.3.3.3.3.3.3.3.3.3.3.3.3.3.3.3.",
"3.3.3.3.3.3.3.3.3.3.3.3.3.3.3.3.3.3.3.3.3.3.3.%.i 5 d.Z.5.  s s   5.Z.d.5 i #.3.3.3.&.3.3.3.3.3.3.3.3.3.3.3.3.3.3.3.3.3.3.3.3.3.",
"3.3.3.3.3.3.3.3.3.3.3.3.3.3.3.3.3.3.3.3.3.@.%.j o 4 d.Z.^ - ,.,.- ^ Z.d.5 o h $.+.3.3.3.3.3.3.3.3.3.3.3.3.3.3.3.3.3.3.3.3.3.3.3.",
"3.3.3.3.3.3.3.3.3.3.3.3.3.3.3.3.3.3.3.3.#.* + d d 1 j.p.;._ *.*._ ;.p.j.< d g o * #.3.3.&.3.3.3.3.3.3.3.3.3.3.3.3.3.3.3.3.3.3.3.",
"3.3.3.3.3.3.3.3.3.3.3.3.3.3.3.3.3.3.{ $ > J & 8 K J 9.2.>.<.:.:.>.>.2.9.J K 0 & b > $ } 3.3.3.3.3.3.3.3.3.3.3.3.3.3.3.3.3.3.3.3.",
"3.3.3.3.3.3.3.3.3.3.3.3.3.3.3.3.3.} a v l ] & O / ( K L ) ) E ( ) ) L n ( c O & ] l v a { 3.3.3.3.3.3.3.3.3.3.3.3.3.3.3.3.3.3.3.",
"3.3.3.3.3.3.3.3.3.3.3.3.3.3.3.3.&.+ E 4.=.' s q c e e e e e e e e e e e r c q f ] =.4.E # 3.3.3.3.3.3.3.3.3.3.3.3.3.3.3.3.3.3.3.",
"3.3.3.3.3.3.3.| 3.{ 3.3.3.3.3.3.3.y f -.*.*.=.` L x x x x c x x x x x x z L [ >.=.*.-.f y 3.3.3.3.3.3.3.3.3.3.3.3.3.3.3.3.3.3.3.",
"3.3.3.3.3.3.3.3.{ 3.3.3.3.3.3.3.3.&.i f >.>.>.*.*.' ' ' ' ' ' ' ' ' ' ' ' ' -.>.>.,.f i 3.3.3.3.3.3.3.3.3.3.3.3.3.3.3.3.3.3.3.3.",
"3.3.3.3.3.3.3.3.3.3.3.3.3.3.3.3.3.3.$.h s 0 o g 1.<.<.<.<.<.<.<.<.<.<.<.<.1.g o 0 0 h $.3.3.3.3.3.3.3.3.3.3.3.3.3.3.3.3.3.3.3.3.",
"3.3.3.3.3.3.3.3.3.3.3.3.3.3.3.3.3.&.3.3.m   F W % 7 7 7 7 7 7 7 9 9 9 9 0 % W F   m 3.3.$.3.3.3.3.3.3.3.3.3.3.3.3.3.3.3.3.3.3.3.",
"3.3.3.3.3.3.3.3.3.3.3.3.3.3.3.3.3.3.3.&...D M.t., B B B B B B B B B B B f , t.m.D  .3.3.3.3.3.3.3.3.3.3.3.3.3.3.3.3.3.3.3.3.3.3.",
"3.3.3.3.3.3.3.3.3.3.3.3.3.3.3.3.3.3.3.T 6 g.B.m.B.B.B.B.B.B.B.B.B.B.B.M.C.B.m.B.k.6 T 3.3.3.3.3.3.3.3.3.3.3.3.3.3.3.3.3.3.3.3.3.",
"3.3.3.3.3.3.3.3.3.3.3.3.3.3.3.3.3.3.3.{ 5 f.B.v.m.c.m.n.m.n.m.n.m.m.m.m.n.m.n.C.f.5 { 3.3.3.3.3.3.3.3.3.3.3.3.3.3.3.3.3.3.3.3.3.",
"3.3.3.3.3.3.3.3.3.3.3.3.3.3.3.3.3.3.3.{ 5 i.M.v.c.c.c.x.c.c.x.c.c.c.c.c.c.c.v.B.i.5  .3.3.3.3.3.3.3.3.3.3.3.3.3.3.3.3.3.3.3.3.3.",
"3.3.3.3.3.3.3.3.3.3.3.3.3.3.3.3.3.3.3.{ 5 i.M.c.c.c.c.c.c.c.x.n.c.c.c.c.c.c.c.N.i.5 } 3.3.3.3.3.3.3.3.3.3.3.3.3.3.3.3.3.3.3.3.3.",
"3.3.3.3.3.3.3.3.3.3.3.3.3.3.3.3.3.3.3.{ 6 s.M.b.x.n.x.x.x.x.x.x.c.x.n.x.x.c.b.M.s.6 R 3.3.3.3.3.3.3.3.3.3.3.3.3.3.3.3.3.3.3.3.3.",
"3.3.3.3.3.3.3.3.3.3.3.3.3.3.3.3.3.3.3.{ 3 r.b.N.b.x.x.x.x.x.x.x.x.x.n.b.x.b.b.b.e.3 { 3.3.3.3.3.3.3.3.3.3.3.3.3.3.3.3.3.3.3.3.3.",
"3.3.3.3.3.3.3.3.3.3.3.3.3.3.3.3.3.3.3.&.X.1 r.N.j.b.b.b.b.b.b.b.z.b.z.b.b.j.C.e.@ X.3.3.3.3.3.3.3.3.3.3.3.3.3.3.3.3.3.3.3.3.3.3.",
"3.3.3.3.3.3.3.3.3.3.3.3.3.3.3.3.3.3.3.3.3.X.2 y.Z.C.C.l.h.k.k.k.k.j.b.C.C.Z.q.@ X.3.3.&.3.3.3.3.3.3.3.3.3.3.3.3.3.3.3.3.3.3.3.3.",
"3.3.3.3.3.3.3.3.3.3.3.3.3.3.3.3.3.3.3.3.3.3.{ { o.~ Q e.h.a.a.a.a.j.e.Q ! O.R R 3.3.3.3.3.3.3.3.3.3.3.3.3.3.3.3.3.3.3.3.3.3.3.3.",
"3.3.3.3.3.3.3.3.3.3.3.3.3.3.3.3.3.3.3.3.&.3.3.&.I C w q.l.d.a.a.s.z.q.w C I 3.3.&.&.3.3.3.3.3.3.3.3.3.3.3.3.3.3.3.3.3.3.3.3.3.3.",
"3.3.3.3.3.3.3.3.3.3.3.3.3.3.3.3.3.3.3.3.3.&.&.p ~ B.B.m.c.c.c.c.n.n.m.B.B.~ p 3.3.3.3.3.3.3.3.3.3.3.3.3.3.3.3.3.3.3.3.3.3.3.3.3.",
"3.3.3.3.3.3.3.3.3.3.3.3.3.3.3.3.3.3.3.3.3.3.3.m H B.l.b.m.c.c.v.v.x.b.z.M.H m 3.3.3.3.3.3.3.3.3.{ 3.{ 3.3.3.3.3.3.3.3.3.3.3.3.3.",
"3.3.3.3.3.3.3.3.3.3.3.3.3.3.3.3.3.3.3.3.3.3.m ~ d.b.h.z.M.b.f.h.b.M.z.f.b.a.~ m 3.3.3.3.3.3.3.3.3.{ 3.3.3.3.3.3.3.3.3.3.3.3.3.3.",
"3.3.3.3.3.3.3.3.3.3.3.3.3.3.3.3.3.3.3.3.3.3.. w.V.l.h.z.z.s.s.b.b.x.x.h.l.Z.8.@ &.3.3.3.3.3.3.3.3.3.3.3.3.3.3.3.3.3.3.3.3.3.3.3.",
"3.3.3.3.3.3.3.3.3.3.3.3.3.3.3.3.3.3.3.3.3.3.I ~ f.M.h.x.d.y.k.N.f.g.z.f.M.Z.7.$ 3.3.3.3.3.3.3.3.3.3.3.3.3.3.3.3.3.3.3.3.3.3.3.3.",
"3.3.3.3.3.3.3.3.3.3.3.3.3.3.3.3.3.3.3.3.&.3.3.I D j.j.c.g.a.h.h.a.j.m.h.s.x.^ t &.3.3.3.3.3.3.3.3.3.3.3.3.3.3.3.3.3.3.3.3.3.3.3.",
"3.3.3.3.3.3.3.3.3.3.3.3.3.3.3.3.3.3.3.3.3.3.3.3.Y V f.M.N.N.s.s.z.C.V.d.V 2 Z 3.3.3.3.3.3.3.3.3.3.3.3.3.3.3.3.3.3.3.3.3.3.3.3.3.",
"3.3.3.3.3.3.3.3.3.3.3.3.3.3.3.3.3.3.3.3.3.3.&.3. .< d.Z.e.S D G ! G 0.B.2 i $.3.3.3.3.3.3.3.3.3.3.3.3.3.3.3.3.3.3.3.3.3.3.3.3.3.",
"3.3.3.3.3.3.3.3.3.3.3.3.3.3.3.3.3.3.3.3.3.3.3.3.{ 6 M.i.u U k k k I Z 6.2  .3.&.3.3.3.3.3.3.3.3.3.3.3.3.3.3.3.3.3.3.3.3.3.3.3.3.",
"3.3.3.3.3.3.3.3.3.3.3.3.3.3.3.3.3.3.3.3.3.3.3.3.{ 3 0.N ..3.3.3.3.3.+.: t X.3.3.3.3.3.3.3.3.3.3.3.3.3.3.3.3.3.3.3.3.3.3.3.3.3.3.",
"3.3.3.3.3.3.3.3.3.3.3.3.3.3.3.3.3.3.3.3.3.3.3.3.} = X  .3.3.3.3.3.3.3.3.3.3.3.3.3.3.3.3.3.3.3.3.3.3.3.3.3.3.3.3.3.3.3.3.3.3.3.3.",
"3.3.3.3.3.3.3.3.3.3.3.3.3.3.3.3.3.3.3.3.3.3.3.3.3.3.3.&.3.3.3.3.3.3.3.3.3.3.3.3.3.3.3.3.3.3.3.3.3.3.3.3.3.3.3.3.3.3.3.3.3.3.3.3.",
"3.3.3.3.3.3.3.3.3.3.3.3.3.3.3.3.3.3.3.3.3.3.3.3.3.3.3.3.3.3.3.3.3.3.3.3.3.3.3.3.3.3.3.3.3.3.3.3.3.3.3.3.3.3.3.3.3.3.3.3.3.3.3.3.",
"3.3.3.3.3.3.3.3.3.3.3.3.3.3.3.3.3.3.3.3.3.3.3.3.3.3.3.3.3.3.3.3.3.3.3.3.3.3.3.3.3.3.3.3.3.3.3.3.3.3.3.3.3.3.3.3.3.3.3.3.3.3.3.3.",
"3.3.3.3.3.3.3.3.3.3.3.3.3.3.3.3.3.3.3.3.3.3.3.3.3.3.3.3.3.3.3.3.3.3.3.3.3.3.3.3.3.3.3.3.3.3.3.3.9.3.3.3.3.3.3.3.3.3.3.3.3.3.3.3.",
"3.3.3.3.3.3.3.3.3.3.3.3.3.3.3.3.3.3.3.3.3.3.3.3.3.3.3.3.3.3.3.3.3.3.3.3.3.3.3.3.3.3.3.3.3.3.3.3.3.3.3.3.3.3.3.3.3.3.3.3.3.3.3.3.",
"3.3.3.3.3.3.3.3.3.3.3.3.3.3.3.3.&.3.3.3.3.3.3.3.3.3.3.3.3.3.3.3.3.3.3.3.3.3.3.3.3.3.3.3.3.3.3.3.3.3.3.3.3.3.3.3.3.3.3.3.3.3.3.3.",
"3.3.3.3.3.3.3.3.3.3.3.3.3.3.3.3.| 3.{ 3.3.3.3.3.3.3.3.3.3.3.3.3.3.3.3.3.3.3.3.3.3.3.3.3.3.3.3.3.3.3.3.3.3.3.3.3.3.3.3.3.3.3.3.3.",
"3.3.3.3.3.3.3.3.3.3.3.3.3.3.3.3.3.} 3.3.3.3.3.3.3.3.3.3.3.3.3.3.3.3.3.3.3.3.3.3.3.3.3.3.3.3.3.3.3.3.3.3.3.3.3.3.3.3.3.3.3.3.3.3.",
"3.3.3.3.3.3.3.3.3.3.3.3.3.3.3.3.3.3.3.3.3.3.3.3.3.3.3.3.3.3.3.3.3.3.3.3.3.3.3.3.3.3.3.3.3.3.3.3.3.3.3.3.3.3.3.3.3.3.3.3.3.3.3.3.",
"3.3.3.3.3.3.3.3.3.3.3.3.3.3.3.3.3.3.3.3.3.3.3.3.3.3.3.3.3.3.3.3.3.3.3.3.3.3.3.3.3.3.3.3.3.3.3.3.3.3.3.3.3.3.3.3.3.3.3.3.3.3.3.3.",
"3.3.3.3.3.3.3.3.3.3.3.3.3.3.3.3.3.3.3.3.3.3.3.3.3.3.3.3.3.3.3.3.3.3.3.3.3.3.3.3.3.3.3.3.3.3.3.3.3.3.3.3.3.3.3.3.3.3.{ 3.{ 3.3.3.",
"3.3.3.3.3.3.3.3.3.3.3.3.3.3.3.3.3.3.3.3.3.3.3.3.3.3.3.3.3.3.3.3.3.3.3.3.3.3.3.3.3.3.3.3.3.3.3.3.3.3.3.3.3.3.3.3.3.3.3.{ 3.3.3.3.",
"3.3.3.3.3.3.3.3.3.3.3.3.3.3.3.3.3.3.3.3.3.3.3.3.3.3.3.3.3.3.3.3.3.3.3.3.3.3.3.3.3.3.3.3.3.3.3.3.3.3.3.3.3.3.3.3.3.3.3.3.3.3.3.3.",
"3.3.3.3.3.3.3.3.3.3.3.3.3.3.3.3.3.3.3.3.3.3.3.3.3.3.3.3.3.3.3.3.3.3.3.3.3.3.3.3.3.3.3.3.3.3.3.3.3.3.3.3.3.3.3.3.3.3.3.3.3.3.3.3.",
"3.3.3.3.3.3.3.3.3.3.3.3.3.3.3.3.3.3.3.3.3.3.3.3.3.3.3.3.3.3.3.3.3.3.3.3.3.3.3.3.3.3.3.3.3.3.3.3.3.3.3.3.3.3.3.3.3.3.3.3.3.3.3.3."
};
