/* XPM */
static char *result[] = {
/* columns rows colors chars-per-pixel */
"64 64 180 2 ",
"   c #150E06",
".  c #1B160C",
"X  c #1E1B0A",
"o  c #171415",
"O  c #141B13",
"+  c #161518",
"@  c #1C1E1D",
"#  c #271E0B",
"$  c #1E231D",
"%  c #1F291E",
"&  c #2D2511",
"*  c #242916",
"=  c #362514",
"-  c #3E2D16",
";  c #38291F",
":  c #25331F",
">  c #2D331C",
",  c #3E341F",
"<  c #1F1F22",
"1  c #222622",
"2  c #232922",
"3  c #2C2826",
"4  c #2B2A2C",
"5  c #283725",
"6  c #2C3D24",
"7  c #2B3629",
"8  c #3B3825",
"9  c #333335",
"0  c #3B3A3B",
"q  c #4B2619",
"w  c #44361D",
"e  c #443521",
"r  c #453A21",
"t  c #473E29",
"y  c #6B3729",
"u  c #6F3E2F",
"i  c #733F31",
"p  c #32442E",
"a  c #3C4228",
"s  c #394F2F",
"d  c #394737",
"f  c #3C4B3A",
"g  c #3B5334",
"h  c #3E5836",
"j  c #3E5339",
"k  c #3F5B38",
"l  c #4E452D",
"z  c #52462B",
"x  c #474837",
"c  c #4C493F",
"v  c #544734",
"b  c #554930",
"n  c #5A4E36",
"m  c #415734",
"M  c #415B3B",
"N  c #64402E",
"B  c #654937",
"V  c #734535",
"C  c #744837",
"Z  c #744C3A",
"A  c #61533A",
"S  c #6C573D",
"D  c #7A573E",
"F  c #45643D",
"G  c #4A683E",
"H  c #403F41",
"J  c #444246",
"K  c #4D4A40",
"L  c #464749",
"P  c #524E44",
"I  c #4A5149",
"U  c #565349",
"Y  c #504F52",
"T  c #4F5258",
"R  c #545456",
"E  c #565659",
"W  c #5D5D5F",
"Q  c #7C5D43",
"!  c #4B6544",
"~  c #4A6B41",
"^  c #527346",
"/  c #54754B",
"(  c #55794B",
")  c #597D4E",
"_  c #5C655A",
"`  c #597D55",
"'  c #6D6145",
"]  c #786348",
"[  c #5B5E66",
"{  c #636265",
"}  c #6E6D67",
"|  c #66656A",
" . c #68676A",
".. c #6B6B6D",
"X. c #777065",
"o. c #706D70",
"O. c #787979",
"+. c #7B7B7D",
"@. c #85513E",
"#. c #845C43",
"$. c #81634C",
"%. c #887256",
"&. c #86765B",
"*. c #8C7659",
"=. c #8E7A5D",
"-. c #92795B",
";. c #8D7F62",
":. c #5C8551",
">. c #648F58",
",. c #6B9A5E",
"<. c #6E9166",
"1. c #6E9E61",
"2. c #73A565",
"3. c #75A867",
"4. c #76AA69",
"5. c #79AD6B",
"6. c #7CB36E",
"7. c #7FB671",
"8. c #7FB871",
"9. c #948464",
"0. c #998365",
"q. c #968A69",
"w. c #9B8B6A",
"e. c #9D906C",
"r. c #9D8F77",
"t. c #9B9278",
"y. c #A08A6B",
"u. c #A39472",
"i. c #AC9976",
"p. c #AF9B78",
"a. c #81A07A",
"s. c #80B771",
"d. c #82BB73",
"f. c #807F80",
"g. c #828183",
"h. c #8A8685",
"j. c #8D8D8E",
"k. c #839480",
"l. c #908F97",
"z. c #939393",
"x. c #989397",
"c. c #95949B",
"v. c #9B9B9B",
"b. c #AEA88B",
"n. c #B3AD94",
"m. c #9D9CA3",
"M. c #AF88A2",
"N. c #B596AB",
"B. c #A4A4A5",
"V. c #A6A6AC",
"C. c #A9A7A9",
"Z. c #ABA9AD",
"A. c #BBB1A0",
"S. c #ACAEB5",
"D. c #B2AEB2",
"F. c #AFB1B4",
"G. c #B3B3B4",
"H. c gray",
"J. c #C9CACA",
"K. c #D7CAD3",
"L. c #D4D4D4",
"P. c #D6D5DD",
"I. c #DED3DA",
"U. c #D7DAD9",
"Y. c #DBDBDB",
"T. c #DCE3DF",
"R. c #DCDBE2",
"E. c #E6E6E6",
"W. c #E9E9E7",
"Q. c #E6E6EB",
"!. c #EBE5EA",
"~. c #EBEBEB",
"^. c #EEF1EF",
"/. c #ECEBF1",
"(. c #F5E6F1",
"). c #F6ECF4",
"_. c #F3F3F3",
"`. c #F6F6FB",
"'. c #FAF4F8",
"]. c #FDFDFD",
/* pixels */
"d.d.d.d.d.d.d.d.d.d.d.d.d.d.d.d.d.d.d.d.d.d.d.d.d.d.d.d.d.d.d.d.d.d.d.d.d.d.d.d.d.d.d.d.d.d.d.d.d.d.d.d.d.d.d.d.d.d.d.d.d.d.d.d.",
"d.d.d.d.d.d.d.d.d.d.d.d.d.d.d.d.d.d.d.d.d.d.d.d.d.d.d.d.d.d.d.d.d.d.d.d.d.d.d.d.d.d.d.d.d.d.d.d.d.d.d.d.d.d.d.d.d.d.d.d.d.d.d.d.",
"d.d.d.d.d.d.d.d.d.d.d.d.d.d.d.d.d.d.d.d.d.d.d.d.d.d.d.d.d.d.d.d.d.d.d.d.d.d.d.d.d.d.d.d.d.d.d.d.d.d.d.d.d.d.d.d.d.d.d.d.d.d.d.d.",
"d.d.d.d.d.d.d.d.d.d.d.d.d.d.d.d.d.d.d.d.d.d.d.d.d.d.d.d.d.d.d.d.d.d.d.d.d.d.d.d.d.d.d.d.d.d.d.d.d.d.d.d.d.d.d.d.d.d.d.d.d.d.d.d.",
"d.d.d.d.d.d.d.d.d.d.d.d.d.d.d.d.d.d.d.d.d.d.d.d.d.d.d.d.d.d.d.:.d.` d.d.d.d.d.d.d.d.d.d.d.d.d.d.d.d.d.d.d.d.d.d.d.d.d.d.d.d.d.d.",
"d.d.d.d.d.d.d.d.d.d.d.d.d.d.d.d.d.d.d.d.d.d.d.d.d.d.d.d.d.d.d.d.` d.d.d.d.d.d.d.d.d.d.d.d.d.d.d.d.d.d.d.d.d.d.d.d.d.d.d.d.d.d.d.",
"d.d.d.d.d.d.d.d.d.d.d.d.d.d.d.d.d.d.d.d.d.d.d.d.d.d.d.d.d.d.d.d.d.d.d.d.d.d.d.d.d.d.d.d.d.d.d.d.d.d.d.d.d.d.d.d.d.d.d.d.d.d.d.d.",
"d.d.d.d.d.d.d.d.d.d.d.d.d.d.d.d.d.d.d.d.d.d.d.d.d.d.d.d.d.d.d.d.d.d.d.d.d.d.d.d.d.d.d.d.d.d.d.d.d.d.d.d.d.d.d.d.d.d.d.d.d.d.d.d.",
"d.d.d.d.d.d.d.d.d.d.d.d.d.d.d.d.d.d.d.d.d.d.d.d.d.d.d.d.d.d.d.d.d.d.d.d.d.d.d.d.d.d.d.d.d.d.d.d.d.d.d.d.d.d.d.d.d.d.d.d.d.d.d.d.",
"d.d.d.d.d.d.d.d.d.d.d.d.d.d.d.d.d.d.d.d.d.d.d.d.d.d.d.d.d.d.d.d.d.d.d.d.d.d.d.d.d.d.d.d.d.d.d.d.d.d.d.d.d.d.d.d.d.d.d.d.d.d.d.d.",
"d.d.d.d.d.d.d.d.d.d.d.d.d.d.d.d.d.d.d.d.d.d.d.d.d.d.d.d.d.d.d.d.d.d.d.d.d.d.d.d.d.d.d.d.d.d.d.d.d.d.d.d.d.d.d.d.d.d.d.d.d.d.d.d.",
"d.d.d.d.d.d.d.d.d.d.d.d.d.d.d.d.d.d.d.d.d.d.d.d.d.d.d.d.d.s.d.d.d.d.d.d.d.d.d.d.d.d.d.d.d.d.d.d.d.d.d.d.d.d.d.d.d.d.d.d.d.d.d.d.",
"d.d.d.d.d.d.d.d.d.d.d.d.d.d.d.d.d.d.d.d.d.d.d.d.d.d.1./ ,.d.d.s.d.7.:.( 6.d.8.d.d.d.d.d.d.d.d.d.d.d.d.d.d.d.d.d.d.d.d.d.d.d.d.d.",
"d.d.d.d.d.d.d.d.d.d.d.d.d.d.d.d.d.d.d.d.d.d.d.d.d.5.M H d 3.s.d.d.` 0 0 ( s.8.d.d.d.d.d.d.d.d.d.d.d.d.d.d.d.d.d.d.d.d.d.d.d.d.d.",
"d.d.d.d.d.d.d.d.d.d.d.d.d.d.d.d.d.d.d.d.d.d.d.d.4.7 x.).B.7 2.d.~ R Y.E.W G d.d.d.d.d.d.d.d.d.d.d.d.d.d.d.d.d.d.d.d.` d.:.d.d.d.",
"d.d.d.d.d.d.d.d.d.d.d.d.d.d.d.d.d.d.d.d.d.d.d.d.4.@ G.].H.1 4.d.~ { `.`...g d.d.d.d.d.d.d.d.d.d.d.d.d.d.d.d.d.d.d.d.d.` d.d.d.d.",
"d.d.d.d.d.d.d.d.d.d.d.d.d.d.d.d.d.d.d.d.d.d.d.d.6.2 C.].G.$ m ^ : _ ^._. .F d.d.d.d.d.d.d.d.d.d.d.d.d.d.d.d.d.d.d.d.d.d.d.d.d.d.",
"d.d.d.d.d.d.d.d.d.d.d.d.d.d.d.d.d.d.d.d.d.d.d.d.( $ C.].F.+ 8 z . T _.`. .5 3.d.d.d.8.d.d.d.d.d.d.d.d.d.d.d.d.d.d.d.d.d.d.d.d.d.",
"d.d.d.d.d.d.d.d.d.d.d.d.d.d.d.d.d.d.d.d.d.5.5.` & o C.].C.3 &.i.v Y W.`.{   , 4.3.7.d.d.d.d.d.d.d.d.d.d.d.d.d.d.d.d.d.d.d.d.d.d.",
"d.d.d.d.d.d.d.d.d.d.d.d.d.d.d.d.d.d.d.d.d.m X t D O F.W.r.&.9.9.&.;.A.^.[ ; S * * >.d.d.8.d.d.d.d.d.d.d.d.d.d.d.d.d.d.d.d.d.d.d.",
"d.d.d.d.d.d.d.d.d.d.d.d.d.d.d.d.s.d.4.5 6 n l = D B z.b.w.w.q.q.w.e.t.n.X.Z N & S a : G d.d.8.d.d.d.d.d.d.d.d.d.d.d.d.d.d.d.d.d.",
"d.d.d.d.d.d.d.d.d.d.d.d.d.d.d.d.d.,.m A b -.n   i #.@.D $.$.$.$.$.$.] D #.@.q X %.Q n l ^ 6.d.d.d.d.d.d.d.d.d.d.d.d.d.d.d.d.d.d.",
"d.d.d.d.d.d.d.d.d.d.d.d.d.d.d.d.d.s z i.y.0.A e C u y y y y y y y y y y y V N l ] 0.p.&.# ,.d.d.d.d.d.d.d.d.d.d.d.d.d.d.d.d.d.d.",
"d.d.d.d.d.d.d.:.d.` d.d.d.d.d.d.d.~ t ;.0.0.-.-.$.Z C C C C C C C C C C V D *.w.q.q.w.' > 2.d.d.d.d.d.d.d.d.d.d.d.d.d.d.d.d.d.d.",
"d.d.d.d.d.d.d.d.:.d.d.d.d.d.d.d.d.d.^ w ;.y.w.0.9.=.=.=.=.=.=.=.=.=.=.=.=.=.9.w.w.u.' > 4.d.d.d.d.d.d.d.d.d.d.d.d.d.d.d.d.d.d.d.",
"d.d.d.d.d.d.d.d.d.d.d.d.d.d.d.d.s.d.d.^ t z & r w.u.u.u.u.u.u.u.u.u.u.u.u.i.] # 8 v a 3.d.d.d.d.d.d.d.d.d.d.d.d.d.d.d.d.d.d.d.d.",
"d.d.d.d.d.d.d.d.d.d.d.d.d.d.d.d.d.s.d.d.:.O 0 X.q w r r r r w r w r w r r - n }   7 4.d.d.d.d.d.d.d.d.d.d.d.d.d.d.d.d.d.d.d.d.d.",
"d.d.d.d.d.d.d.d.d.d.d.d.d.d.d.d.d.d.d.d.3.M J.E.x c K P U K K K c c P U P 8 h.].+./ 8.d.d.d.d.d.d.d.d.d.d.d.d.d.d.d.d.d.d.d.d.d.",
"d.d.d.d.d.d.d.d.d.d.d.d.d.d.d.d.d.d.d.3.$ S.].Q.~.^._.E.E.~._._./._.~.E.~._.~.~._...g d.d.d.d.d.d.d.d.d.d.d.d.d.d.d.d.d.d.d.d.d.",
"d.d.d.d.d.d.d.d.d.d.d.d.d.d.d.d.d.d.d.4.* Z.].E.~.~.].g.E _.~.~.~._.Y.J B.].~.~.`.| j d.d.d.d.d.d.d.d.d.d.d.d.d.d.d.d.d.d.d.d.d.",
"d.d.d.d.d.d.d.d.d.d.d.d.d.d.d.d.d.d.d.4.1 m.`.Q.Q.Q.]...9 _.~.E.~._.L.1 z.].Q.Q./.[ F d.d.d.d.d.d.d.d.d.d.d.d.d.d.d.d.d.d.d.d.d.",
"d.d.d.d.d.d.d.d.d.d.d.d.d.d.d.d.d.d.d.4.1 m.`.Q.W.E.]. .4 ~.~.^.~.^.L.+ j.].W.W.Q.{ M d.d.d.d.d.d.d.d.d.d.d.d.d.d.d.d.d.d.d.d.d.",
"d.d.d.d.d.d.d.d.d.d.d.d.d.d.d.d.d.d.d.3.$ V.`.W.W.E.].x.o.^.'.K.I.].U.{ D.'.W.~./.| g d.d.d.d.d.d.d.d.d.d.d.d.d.d.d.d.d.d.d.d.d.",
"d.d.d.d.d.d.d.d.d.d.d.d.d.d.d.d.d.d.d.4.7 l.~.~.E.W.!.)._.W.Y.M.N.T.~.'.(.!.~.W.P.E F 8.d.d.d.d.d.d.d.d.d.d.d.d.d.d.d.d.d.d.d.d.",
"d.d.d.d.d.d.d.d.d.d.d.d.d.d.d.d.d.d.d.d.4.7 l.`.W.E.!.(.'.L.9 Z.h.L ~.).(.W.).P.9 ~ 8.d.d.d.d.d.d.d.d.d.d.d.d.d.d.d.d.d.d.d.d.d.",
"d.d.d.d.d.d.d.d.d.d.d.d.d.d.d.d.d.d.d.d.d.5.d c.].].].'.!.T.m.U.J.B.~.].].].L.9 ~ d.d.d.d.d.d.d.d.d.d.d.d.d.d.d.d.d.d.d.d.d.d.d.",
"d.d.d.d.d.d.d.d.d.d.d.d.d.d.d.d.d.d.d.d.8.d.,.~ a.O.[ B._.~.].~._.].U.g...k.<.! 7.d.7.d.d.d.d.d.d.d.d.d.d.d.d.d.d.d.d.d.d.d.d.d.",
"d.d.d.d.d.d.d.d.d.d.d.d.d.d.d.d.d.d.d.d.d.8.d.d.>.x 9 l.`.E.W.E.~.~.U.T H j 8.8.d.d.d.d.d.d.d.d.d.d.d.d.d.d.d.d.d.d.d.d.d.d.d.d.",
"d.d.d.d.d.d.d.d.d.d.d.d.d.d.d.d.d.d.d.d.d.d.d.:.9 L._.~.E.E.W.E.E.E.E.^.].z.% 8.d.d.d.d.d.d.d.d.d.d.d.d.d.d.d.d.d.d.d.d.d.d.d.d.",
"d.d.d.d.d.d.d.d.d.d.d.d.d.d.d.d.d.d.d.d.d.d.d.>.4 L.).R.W.W.Q.E.E.E.E.R.].h.5 8.d.d.d.d.d.d.d.d.` d.` d.d.d.d.d.d.d.d.d.d.d.d.d.",
"d.d.d.d.d.d.d.d.d.d.d.d.d.d.d.d.d.d.d.d.d.d.:.I G.E.R.R.W.E.E.W.W.E.E.P.~.Y.+.j 4.d.d.d.d.d.d.d.d.:.d.d.d.d.d.d.d.d.d.d.d.d.d.d.",
"d.d.d.d.d.d.d.d.d.d.d.d.d.d.d.d.d.d.d.d.d.d.g  .`.^.Y.R.~.W.E.E.Q.W.E.P.P.].Y.< ,.d.d.d.d.d.d.d.d.d.d.d.d.d.d.d.d.d.d.d.d.d.d.d.",
"d.d.d.d.d.d.d.d.d.d.d.d.d.d.d.d.d.d.d.d.d.d.M { _.`.R.R.W.E.E.E.E.E.E.P._.W.f.g 4.d.d.d.d.d.d.d.d.d.d.d.d.d.d.d.d.d.d.d.d.d.d.d.",
"d.d.d.d.d.d.d.d.d.d.d.d.d.d.d.d.d.d.d.d.d.d.~ E R.L.P.E.~.~.~.~.~.~.E.R.~.+.p 7.d.d.d.d.d.d.d.d.d.d.d.d.d.d.d.d.d.d.d.d.d.d.d.d.",
"d.d.d.d.d.d.d.d.d.d.d.d.d.d.d.d.d.d.d.d.d.d.8.) 0 4 S.]._._._._._._.~._.O.j 7.d.d.d.d.d.d.d.d.d.d.d.d.d.d.d.d.d.d.d.d.d.d.d.d.d.",
"d.d.d.d.d.d.d.d.d.d.d.d.d.d.d.d.d.d.d.d.d.d.d.d.^ O J.L.Y { | | R j.`._.E F d.d.d.d.d.d.d.d.d.d.d.d.d.d.d.d.d.d.d.d.d.d.d.d.d.d.",
"d.d.d.d.d.d.d.d.d.d.d.d.d.d.d.d.d.d.d.d.d.d.8.d.5.1 g._ ~ k M M F f c.].O.h d.d.d.d.d.d.d.d.d.d.d.d.d.d.d.d.d.d.d.d.d.d.d.d.d.d.",
"d.d.d.d.d.d.d.d.d.d.d.d.d.d.d.d.d.d.d.d.d.d.d.d.7.M % :.d.8.d.d.d.4.p v.W M d.d.d.d.d.d.d.d.d.d.d.d.d.d.d.d.d.d.d.d.d.d.d.d.d.d.",
"d.d.d.d.d.d.d.d.d.d.d.d.d.d.d.d.d.d.d.d.d.d.d.8.d.d.8.d.8.d.d.d.8.d.5.5 2 ( d.d.d.d.d.d.d.d.d.d.d.d.d.d.d.d.d.d.d.d.d.d.d.d.d.d.",
"d.d.d.d.d.d.d.d.d.d.d.d.d.d.d.d.d.d.d.d.d.d.d.d.d.d.d.d.d.d.d.d.d.d.8.d.d.d.d.d.d.d.d.d.d.d.d.d.d.d.d.d.d.d.d.d.d.d.d.d.d.d.d.d.",
"d.d.d.d.d.d.d.d.d.d.d.d.d.d.d.d.d.d.d.d.d.d.d.d.d.d.d.d.d.d.d.d.d.d.d.d.d.d.d.d.d.d.d.d.d.d.d.d.d.d.d.d.d.d.d.d.d.d.d.d.d.d.d.d.",
"d.d.d.d.d.d.d.d.d.d.d.d.d.d.d.d.d.d.d.d.d.d.d.d.d.d.d.d.d.d.d.d.d.d.d.d.d.d.d.d.d.d.d.d.d.d.d.d.d.d.d.d.d.d.d.d.d.d.d.d.d.d.d.d.",
"d.d.d.d.d.d.d.d.d.d.d.d.d.d.d.d.d.d.d.d.d.d.d.d.d.d.d.d.d.d.d.d.d.d.d.d.d.d.d.d.d.d.d.d.d.d.d.d.d.d.d.d.d.d.d.d.d.d.d.d.d.d.d.d.",
"d.d.d.d.d.d.d.d.d.d.d.d.d.d.d.d.d.d.d.d.d.d.d.d.d.d.d.d.d.d.d.d.d.d.d.d.d.d.d.d.d.d.d.d.d.d.d.d.d.d.d.d.d.d.d.d.d.d.d.d.d.d.d.d.",
"d.d.d.d.d.d.d.d.d.d.d.d.d.d.d.d.d.d.d.d.d.d.d.d.d.d.d.d.d.d.d.d.d.d.d.d.d.d.d.d.d.d.d.d.d.d.d.d.d.d.d.d.d.d.d.d.d.d.d.d.d.d.d.d.",
"d.d.d.d.d.d.d.d.d.d.d.d.d.d.d.d.` d.:.d.d.d.d.d.d.d.d.d.d.d.d.d.d.d.d.d.d.d.d.d.d.d.d.d.d.d.d.d.d.d.d.d.d.d.d.d.d.d.d.d.d.d.d.d.",
"d.d.d.d.d.d.d.d.d.d.d.d.d.d.d.d.d.:.d.d.d.d.d.d.d.d.d.d.d.d.d.d.d.d.d.d.d.d.d.d.d.d.d.d.d.d.d.d.d.d.d.d.d.d.d.d.d.d.d.d.d.d.d.d.",
"d.d.d.d.d.d.d.d.d.d.d.d.d.d.d.d.d.d.d.d.d.d.d.d.d.d.d.d.d.d.d.d.d.d.d.d.d.d.d.d.d.d.d.d.d.d.d.d.d.d.d.d.d.d.d.d.d.d.d.d.d.d.d.d.",
"d.d.d.d.d.d.d.d.d.d.d.d.d.d.d.d.d.d.d.d.d.d.d.d.d.d.d.d.d.d.d.d.d.d.d.d.d.d.d.d.d.d.d.d.d.d.d.d.d.d.d.d.d.d.d.d.d.d.d.d.d.d.d.d.",
"d.d.d.d.d.d.d.d.d.d.d.d.d.d.d.d.d.d.d.d.d.d.d.d.d.d.d.d.d.d.d.d.d.d.d.d.d.d.d.d.d.d.d.d.d.d.d.d.d.d.d.d.d.d.d.d.d.d.:.d.` d.d.d.",
"d.d.d.d.d.d.d.d.d.d.d.d.d.d.d.d.d.d.d.d.d.d.d.d.d.d.d.d.d.d.d.d.d.d.d.d.d.d.d.d.d.d.d.d.d.d.d.d.d.d.d.d.d.d.d.d.d.d.d.` d.d.d.d.",
"d.d.d.d.d.d.d.d.d.d.d.d.d.d.d.d.d.d.d.d.d.d.d.d.d.d.d.d.d.d.d.d.d.d.d.d.d.d.d.d.d.d.d.d.d.d.d.d.d.d.d.d.d.d.d.d.d.d.d.d.d.d.d.d.",
"d.d.d.d.d.d.d.d.d.d.d.d.d.d.d.d.d.d.d.d.d.d.d.d.d.d.d.d.d.d.d.d.d.d.d.d.d.d.d.d.d.d.d.d.d.d.d.d.d.d.d.d.d.d.d.d.d.d.d.d.d.d.d.d.",
"d.d.d.d.d.d.d.d.d.d.d.d.d.d.d.d.d.d.d.d.d.d.d.d.d.d.d.d.d.d.d.d.d.d.d.d.d.d.d.d.d.d.d.d.d.d.d.d.d.k.d.d.d.d.d.d.d.d.d.d.d.d.d.d."
};
