/* XPM */
static char *_55a1ec2228d43e2a726eb1243c77678ZnIAr5M8czAzaz4V[] = {
/* columns rows colors chars-per-pixel */
"64 64 174 2 ",
"   c #020303",
".  c #050804",
"X  c #080907",
"o  c #0B0B0B",
"O  c #0E130D",
"+  c #14160F",
"@  c #191708",
"#  c #15180C",
"$  c #1C1B0B",
"%  c #121312",
"&  c #131D11",
"*  c #1C1B19",
"=  c #281307",
"-  c #241E0B",
";  c #321E10",
":  c #182315",
">  c #1B2019",
",  c #1F2C1B",
"<  c #24220F",
"1  c #2D220D",
"2  c #202512",
"3  c #262A19",
"4  c #202F1D",
"5  c #2D2819",
"6  c #3A2214",
"7  c #352E1A",
"8  c #22311E",
"9  c #36341E",
"0  c #39311D",
"q  c #232323",
"w  c #2B2B2B",
"e  c #332E20",
"r  c #2A3C25",
"t  c #2C3929",
"y  c #373520",
"u  c #3D3521",
"i  c #3E3A30",
"p  c gray22",
"a  c #47361D",
"s  c #49371F",
"d  c #453321",
"f  c #453B21",
"g  c #4B3B24",
"h  c #4A3F28",
"j  c #553F2B",
"k  c #433F35",
"l  c #693327",
"z  c #693428",
"x  c #6D3A2D",
"c  c #2F4329",
"v  c #344427",
"b  c #34442C",
"n  c #354B2E",
"m  c #3C512F",
"M  c #374E31",
"N  c #3E473B",
"B  c #3B5334",
"V  c #3F5836",
"C  c #3E523A",
"Z  c #3F5C38",
"A  c #4D432B",
"S  c #444D2F",
"D  c #53432C",
"F  c #454237",
"G  c #4E4830",
"H  c #474338",
"J  c #4C483E",
"K  c #5C4732",
"L  c #534A32",
"P  c #5B4E37",
"I  c #445332",
"U  c #445B36",
"Y  c #425C3A",
"T  c #754634",
"R  c #774E3B",
"E  c #794D3B",
"W  c #61553D",
"Q  c #7A553E",
"!  c #45603A",
"~  c #49663D",
"^  c #454545",
"/  c #4A4B43",
"(  c #49494A",
")  c #545454",
"_  c #5B5E5C",
"`  c #665942",
"'  c #6B5B41",
"]  c #7A5541",
"[  c #735D44",
"{  c #7D5943",
"}  c #605F5F",
"|  c #476840",
" . c #4C6B41",
".. c #517448",
"X. c #557B4B",
"o. c #597F4D",
"O. c #597D55",
"+. c #77664A",
"@. c #79654A",
"#. c #7B694D",
"$. c #7B6D52",
"%. c #704964",
"&. c #636363",
"*. c #686867",
"=. c #6D6D6D",
"-. c #727271",
";. c #7B7B7B",
":. c #80523F",
">. c #805B46",
",. c #85624B",
"<. c #85684F",
"1. c #916E54",
"2. c #847454",
"3. c #87795D",
"4. c #897A5D",
"5. c #97745A",
"6. c #947C5E",
"7. c #907F61",
"8. c #5B8351",
"9. c #5E8853",
"0. c #608753",
"q. c #628C55",
"w. c #648F58",
"e. c #66935B",
"r. c #69965C",
"t. c #6B9A5F",
"y. c #6D9D61",
"u. c #73A565",
"i. c #74A866",
"p. c #76AA69",
"a. c #78AD6A",
"s. c #7DB36E",
"d. c #7FB770",
"f. c #8F8162",
"g. c #948364",
"h. c #998466",
"j. c #94876A",
"k. c #9B8768",
"l. c #978A6A",
"z. c #9B8A6A",
"x. c #A28B6B",
"c. c #A4906F",
"v. c #A29371",
"b. c #A19478",
"n. c #80B771",
"m. c #82BB73",
"M. c #B6A37E",
"N. c #857A82",
"B. c #838383",
"V. c #8D8D8D",
"C. c #979497",
"Z. c #9C9D9D",
"A. c #B7A480",
"S. c #BDAA83",
"D. c #A9A9A7",
"F. c #B4B5B5",
"G. c #B2B4B8",
"H. c #BBBBBB",
"J. c #BDC1BE",
"K. c #DDBDD3",
"L. c #C3C3C3",
"P. c #CBCBCB",
"I. c #D0CDCD",
"U. c #D3D3D3",
"Y. c #DBDBDB",
"T. c #E6E6E5",
"R. c #E7E8E6",
"E. c #E7E7E8",
"W. c #EAEAEA",
"Q. c #EFF0EE",
"!. c #EFEFF0",
"~. c #F2F2F2",
"^. c #F7F8F7",
"/. c #FDFDFC",
/* pixels */
"m.m.m.m.m.m.m.m.m.m.m.m.m.m.m.m.m.m.m.m.m.m.m.m.m.m.m.m.m.m.m.m.m.m.m.m.m.m.m.m.m.m.m.m.m.m.m.m.m.m.m.m.m.m.m.m.m.m.m.m.m.m.m.m.",
"m.m.m.m.m.m.m.m.m.m.m.m.m.m.m.m.m.m.m.m.m.m.m.m.m.m.m.m.m.m.m.m.m.m.m.m.m.m.m.m.m.m.m.m.m.m.m.m.m.m.m.m.m.m.m.m.m.m.m.m.m.m.m.m.",
"m.m.m.m.m.m.m.m.m.m.m.m.m.m.m.m.m.m.m.m.m.m.m.m.m.m.m.m.m.m.m.m.m.m.m.m.m.m.m.m.m.m.m.m.m.m.m.m.m.m.m.m.m.m.m.m.m.m.m.m.m.m.m.m.",
"m.m.m.m.m.m.m.m.m.m.m.m.m.m.m.m.m.m.m.m.m.m.m.m.m.m.m.m.m.m.m.m.m.m.m.m.m.m.m.m.m.m.m.m.m.m.m.m.m.m.m.m.m.m.m.m.m.m.m.m.m.m.m.m.",
"m.m.m.m.m.m.m.m.m.m.m.m.m.m.m.m.m.m.m.m.m.m.m.m.m.m.m.m.m.m.m.O.m.O.m.m.m.m.m.m.m.m.m.m.m.m.m.m.m.m.m.m.m.m.m.m.m.m.m.m.m.m.m.m.",
"m.m.m.m.m.m.m.m.m.m.m.m.m.m.m.m.m.m.m.m.m.m.m.m.m.m.m.m.m.m.m.m.O.m.m.m.m.m.m.m.m.m.m.m.m.m.m.m.m.m.m.m.m.m.m.m.m.m.m.m.m.m.m.m.",
"m.m.m.m.m.m.m.m.m.m.m.m.m.m.m.m.m.m.m.m.m.m.m.m.m.m.m.m.m.m.m.m.m.m.m.m.m.m.m.m.m.m.m.m.m.m.m.m.m.m.m.m.m.m.m.m.m.m.m.m.m.m.m.m.",
"m.m.m.m.m.m.m.m.m.m.m.m.m.m.m.m.m.m.m.m.m.m.m.m.m.m.m.m.m.m.m.m.m.m.m.m.m.m.m.m.m.m.m.m.m.m.m.m.m.m.m.m.m.m.m.m.m.m.m.m.m.m.m.m.",
"m.m.m.m.m.m.m.m.m.m.m.m.m.m.m.m.m.m.m.m.m.m.m.m.m.m.m.m.m.m.m.m.m.m.m.m.m.m.m.m.m.m.m.m.m.m.m.m.m.m.m.m.m.m.m.m.m.m.m.m.m.m.m.m.",
"m.m.m.m.m.m.m.m.m.m.m.m.m.m.m.m.m.m.m.m.m.m.m.m.m.m.m.m.m.m.m.m.m.m.m.m.m.m.m.m.m.m.m.m.m.m.m.m.m.m.m.m.m.m.m.m.m.m.m.m.m.m.m.m.",
"m.m.m.m.m.m.m.m.m.m.m.m.m.m.m.m.m.m.m.m.m.m.m.m.m.m.m.m.m.m.m.m.s.p.s.m.m.m.m.m.m.m.m.m.m.m.m.m.m.m.m.m.m.m.m.m.m.m.m.m.m.m.m.m.",
"m.m.m.m.m.m.m.m.m.m.m.m.m.m.m.m.m.m.m.m.m.m.m.m.m.m.m.m.m.m.m.m.Z . n m.m.m.m.m.m.m.m.m.m.m.m.m.m.m.m.m.m.m.m.m.m.m.m.m.m.m.m.m.",
"m.m.m.m.m.m.m.m.m.m.m.m.m.m.m.m.m.m.m.m.m.m.m.m.m.m.m.m.m.m.p.Y _ D.*.B u.m.m.m.m.m.m.m.m.m.m.m.m.m.m.m.m.m.m.m.m.m.m.m.m.m.m.m.",
"m.m.m.m.m.m.m.m.m.m.m.m.m.m.m.m.m.m.m.m.m.m.m.m.m.m.m.m.m.m.y.X F./.P.% q.m.m.m.m.m.m.m.m.m.m.m.m.m.m.m.m.m.m.m.m.m.m.m.m.m.m.m.",
"m.m.m.m.m.m.m.m.m.m.m.m.m.m.m.m.m.m.m.m.m.m.m.m.m.m.m.m.a.a.q.O Z./.F.% X.s.a.m.m.m.m.m.m.m.m.m.m.m.m.m.m.m.m.m.m.m.O.m.O.m.m.m.",
"m.m.m.m.m.m.m.m.m.m.m.m.m.m.m.m.m.m.m.m.m.m.m.m.m.m.m.m.! < $ . Z./.F.o # < m m.m.m.m.m.m.m.m.m.m.m.m.m.m.m.m.m.m.m.m.O.m.m.m.m.",
"m.m.m.m.m.m.m.m.m.m.m.m.m.m.m.m.m.m.m.m.m.m.m.m.m.u.v n G 2.L   Z./.F.o f 2.L n r r.m.m.m.m.m.m.m.m.m.m.m.m.m.m.m.m.m.m.m.m.m.m.",
"m.m.m.m.m.m.m.m.m.m.m.m.m.m.m.m.m.m.m.m.m.m.m.8.o.I D A 3.S.$.  C./.G.  ` S.4.L D S 8.X.n.m.m.m.m.m.m.m.m.m.m.m.m.m.m.m.m.m.m.m.",
"m.m.m.m.m.m.m.m.m.m.m.m.m.m.m.m.m.m.m.m.a.u.r.y - d 1.h.j.z.$.+ C./.D.* ' c.j.h.5.g - 7 0.u.p.m.m.m.m.m.m.m.m.m.m.m.m.m.m.m.m.m.",
"m.m.m.m.m.m.m.m.m.m.m.m.m.m.m.m.m.m.m.m. .$ 5 @.A ; E ,.7.l.g.3.j.b.l.3.f.l.g.<.:.6 u #.9 @ U m.m.m.m.m.m.m.m.m.m.m.m.m.m.m.m.m.",
"m.m.m.m.m.m.m.m.m.m.m.m.m.m.m.m.m.m.s.~ G +.' 6.f = T E ] { { ,.Q T Q ,.>.{ ] E T = 7 6.[ +.L U a.m.m.m.m.m.m.m.m.m.m.m.m.m.m.m.",
"m.m.m.m.m.m.m.m.m.m.m.m.m.m.m.m.m.m.a.$ #.A.h.g.W j E x l z z z z z z z z z z x E K W 6.h.M.2.$ y.m.m.m.m.m.m.m.m.m.m.m.m.m.m.m.",
"m.m.m.m.m.m.m.m.m.m.m.m.m.m.m.m.m.m.s.m L g.l.l.k.6.<.Q R R R R R R R R R R R R ,.h.v.j.l.g.P v p.m.m.m.m.m.m.m.m.m.m.m.m.m.m.m.",
"m.m.m.m.m.m.m.O.m.O.m.m.m.m.m.m.m.m.m.m.B A l.l.j.g.g.g.7.7.7.7.7.7.7.7.7.7.7.7.g.j.j.j.z.P v s.m.m.m.m.m.m.m.m.m.m.m.m.m.m.m.m.",
"m.m.m.m.m.m.m.m.O.m.m.m.m.m.m.m.m.m.m.m.s.U A h 0 W x.v.v.v.v.v.v.v.v.v.v.v.v.v.c.' 0 h A I s.m.m.m.m.m.m.m.m.m.m.m.m.m.m.m.m.m.",
"m.m.m.m.m.m.m.m.m.m.m.m.m.m.m.m.m.m.m.m.m.a.V ! 3 1 s g g f f f f f f f f f f f a 1 2 Y B u.m.m.m.m.m.m.m.m.m.m.m.m.m.m.m.m.m.m.",
"m.m.m.m.m.m.m.m.m.m.m.m.m.m.m.m.m.m.m.m.m.m.m.m.U 5 k i k H F F F F F F F J / F J e v m.m.m.m.m.m.m.m.m.m.m.m.m.m.m.m.m.m.m.m.m.",
"m.m.m.m.m.m.m.m.m.m.m.m.m.m.m.m.m.m.m.m.m.m.m.m.n ( Y.P.Y.W.T.T.T.T.T.T.T.T.T.T.~.*.r m.m.m.m.m.m.m.m.m.m.m.m.m.m.m.m.m.m.m.m.m.",
"m.m.m.m.m.m.m.m.m.m.m.m.m.m.m.m.m.m.m.m.m.m.m.m.n ( E.W.!.~.~.~.~.~.~.~./.B.) ~./.=.r m.m.m.m.m.m.m.m.m.m.m.m.m.m.m.m.m.m.m.m.m.",
"m.m.m.m.m.m.m.m.m.m.m.m.m.m.m.m.m.m.m.m.m.m.m.m.n ^ T.W.W.T.T.T.T.T.T.W./.( % E./._ c m.m.m.m.m.m.m.m.m.m.m.m.m.m.m.m.m.m.m.m.m.",
"m.m.m.m.m.m.m.m.m.m.m.m.m.m.m.m.m.m.m.m.m.m.m.m.n ( Y.T.T.T.T.T.T.T.T.W./.( * E./.N.3 w.d.m.m.m.m.m.m.m.m.m.m.m.m.m.m.m.m.m.m.m.",
"m.m.m.m.m.m.m.m.m.m.m.m.m.m.m.m.m.m.m.m.m.m.m.m.n ( Y.U.Y.T.W.T.T.T.T.E./.&.w W.^.K.%.O t.m.m.m.m.m.m.m.m.m.m.m.m.m.m.m.m.m.m.m.",
"m.m.m.m.m.m.m.m.m.m.m.m.m.m.m.m.m.m.m.m.m.m.m.m.r ) Q.U.P.Y.T.T.T.T.T.T.W.P.L.W.W./.C.O y.m.m.m.m.m.m.m.m.m.m.m.m.m.m.m.m.m.m.m.",
"m.m.m.m.m.m.m.m.m.m.m.m.m.m.m.m.m.m.m.m.m.m.m.m.y.b =.Y.T.P.Y.T.T.T.T.W.T.^.^.T.T./.J.X r.m.m.m.m.m.m.m.m.m.m.m.m.m.m.m.m.m.m.m.",
"m.m.m.m.m.m.m.m.m.m.m.m.m.m.m.m.m.m.m.m.m.m.m.m.m.p.4 =.P.R.Y.Y.Y.Y.Y.T.W.W.~.^.^.Y._ M p.m.m.m.m.m.m.m.m.m.m.m.m.m.m.m.m.m.m.m.",
"m.m.m.m.m.m.m.m.m.m.m.m.m.m.m.m.m.m.m.m.m.m.m.m.m.m.a., -.U.H.P.P.P.P.P.H.F.H.U.T.) M m.m.m.m.m.m.m.m.m.m.m.m.m.m.m.m.m.m.m.m.m.",
"m.m.m.m.m.m.m.m.m.m.m.m.m.m.m.m.m.m.m.m.m.m.m.m.m.m.m.a.t * p D.L.H.L.H.^ % * q q V m.m.m.m.m.m.m.m.m.m.m.m.m.m.m.m.m.m.m.m.m.m.",
"m.m.m.m.m.m.m.m.m.m.m.m.m.m.m.m.m.m.m.m.m.m.m.m.n.m.m.m.s.n . H.Y.P.U.P.% n t... .u.m.m.m.m.m.m.m.m.m.m.m.m.m.m.m.m.m.m.m.m.m.m.",
"m.m.m.m.m.m.m.m.m.m.m.m.m.m.m.m.m.m.m.m.m.m.m.m.m.i...m.s.B ;.Y.~.T.T.Y.B.C p.m.m.m.d.m.m.m.m.m.m.m.m.m.m.m.m.m.m.m.m.m.m.m.m.m.",
"m.m.m.m.m.m.m.m.m.m.m.m.m.m.m.m.m.m.m.m.m.m.m.m.m.Y q e.r B./.W.T.T.T.T./.;.: s.m.m.m.m.m.m.m.m.O.m.O.m.m.m.m.m.m.m.m.m.m.m.m.m.",
"m.m.m.m.m.m.m.m.m.m.m.m.m.m.m.m.m.m.m.m.m.m.m.m.V } I.> -.^.W.W.T.T.T.T./.-.4 s.m.m.m.m.m.m.m.m.m.O.m.m.m.m.m.m.m.m.m.m.m.m.m.m.",
"m.m.m.m.m.m.m.m.m.m.m.m.m.m.m.m.m.m.m.m.m.m.m.m.8 -.W.% V./.Y.T.T.T.T.T./.=.8 s.m.m.m.m.m.m.m.m.m.m.m.m.m.m.m.m.m.m.m.m.m.m.m.m.",
"m.m.m.m.m.m.m.m.m.m.m.m.m.m.m.m.m.m.m.m.m.m.m.m.q.N &.  Z./.W.T.T.T.T.T./.=.8 s.m.m.m.m.m.m.m.m.m.m.m.m.m.m.m.m.m.m.m.m.m.m.m.m.",
"m.m.m.m.m.m.m.m.m.m.m.m.m.m.m.m.m.m.m.m.m.m.m.m.m.t.O   ;.L.F.W.^.~.W.W./.-.8 s.m.m.m.m.m.m.m.m.m.m.m.m.m.m.m.m.m.m.m.m.m.m.m.m.",
"m.m.m.m.m.m.m.m.m.m.m.m.m.m.m.m.m.m.m.m.m.m.m.m.m.m.y.+ o o w Y.^.W.W.W./.-.8 s.m.m.m.m.m.m.m.m.m.m.m.m.m.m.m.m.m.m.m.m.m.m.m.m.",
"m.m.m.m.m.m.m.m.m.m.m.m.m.m.m.m.m.m.m.m.m.m.m.m.m.m.m.y.&   . p ^ w *.^./.B.& s.m.m.m.m.m.m.m.m.m.m.m.m.m.m.m.m.m.m.m.m.m.m.m.m.",
"m.m.m.m.m.m.m.m.m.m.m.m.m.m.m.m.m.m.m.m.m.m.m.m.m.m.m.m.9.M Z Z Z | n -.V./ 8.m.m.m.m.m.m.m.m.m.m.m.m.m.m.m.m.m.m.m.m.m.m.m.m.m.",
"m.m.m.m.m.m.m.m.m.m.m.m.m.m.m.m.m.m.m.m.m.m.m.m.m.m.m.m.m.m.m.m.m.m.a.r & 9.m.m.m.m.m.m.m.m.m.m.m.m.m.m.m.m.m.m.m.m.m.m.m.m.m.m.",
"m.m.m.m.m.m.m.m.m.m.m.m.m.m.m.m.m.m.m.m.m.m.m.m.m.m.m.m.m.m.m.m.m.m.m.s.s.d.m.m.m.m.m.m.m.m.m.m.m.m.m.m.m.m.m.m.m.m.m.m.m.m.m.m.",
"m.m.m.m.m.m.m.m.m.m.m.m.m.m.m.m.m.m.m.m.m.m.m.m.m.m.m.m.m.m.m.m.m.m.m.m.m.m.m.m.m.m.m.m.m.m.m.m.m.m.m.m.m.m.m.m.m.m.m.m.m.m.m.m.",
"m.m.m.m.m.m.m.m.m.m.m.m.m.m.m.m.m.m.m.m.m.m.m.m.m.m.m.m.m.m.m.m.m.m.m.m.m.m.m.m.m.m.m.m.m.m.m.m.m.m.m.m.m.m.m.m.m.m.m.m.m.m.m.m.",
"m.m.m.m.m.m.m.m.m.m.m.m.m.m.m.m.m.m.m.m.m.m.m.m.m.m.m.m.m.m.m.m.m.m.m.m.m.m.m.m.m.m.m.m.m.m.m.m.m.m.m.m.m.m.m.m.m.m.m.m.m.m.m.m.",
"m.m.m.m.m.m.m.m.m.m.m.m.m.m.m.m.m.m.m.m.m.m.m.m.m.m.m.m.m.m.m.m.m.m.m.m.m.m.m.m.m.m.m.m.m.m.m.m.m.m.m.m.m.m.m.m.m.m.m.m.m.m.m.m.",
"m.m.m.m.m.m.m.m.m.m.m.m.m.m.m.m.m.m.m.m.m.m.m.m.m.m.m.m.m.m.m.m.m.m.m.m.m.m.m.m.m.m.m.m.m.m.m.m.m.m.m.m.m.m.m.m.m.m.m.m.m.m.m.m.",
"m.m.m.m.m.m.m.m.m.m.m.m.m.m.m.m.m.m.m.m.m.m.m.m.m.m.m.m.m.m.m.m.m.m.m.m.m.m.m.m.m.m.m.m.m.m.m.m.m.m.m.m.m.m.m.m.m.m.m.m.m.m.m.m.",
"m.m.m.m.m.m.m.m.m.m.m.m.m.m.m.m.O.m.O.m.m.m.m.m.m.m.m.m.m.m.m.m.m.m.m.m.m.m.m.m.m.m.m.m.m.m.m.m.m.m.m.m.m.m.m.m.m.m.m.m.m.m.m.m.",
"m.m.m.m.m.m.m.m.m.m.m.m.m.m.m.m.m.O.m.m.m.m.m.m.m.m.m.m.m.m.m.m.m.m.m.m.m.m.m.m.m.m.m.m.m.m.m.m.m.m.m.m.m.m.m.m.m.m.m.m.m.m.m.m.",
"m.m.m.m.m.m.m.m.m.m.m.m.m.m.m.m.m.m.m.m.m.m.m.m.m.m.m.m.m.m.m.m.m.m.m.m.m.m.m.m.m.m.m.m.m.m.m.m.m.m.m.m.m.m.m.m.m.m.m.m.m.m.m.m.",
"m.m.m.m.m.m.m.m.m.m.m.m.m.m.m.m.m.m.m.m.m.m.m.m.m.m.m.m.m.m.m.m.m.m.m.m.m.m.m.m.m.m.m.m.m.m.m.m.m.m.m.m.m.m.m.m.m.m.m.m.m.m.m.m.",
"m.m.m.m.m.m.m.m.m.m.m.m.m.m.m.m.m.m.m.m.m.m.m.m.m.m.m.m.m.m.m.m.m.m.m.m.m.m.m.m.m.m.m.m.m.m.m.m.m.m.m.m.m.m.m.m.m.m.O.m.O.m.m.m.",
"m.m.m.m.m.m.m.m.m.m.m.m.m.m.m.m.m.m.m.m.m.m.m.m.m.m.m.m.m.m.m.m.m.m.m.m.m.m.m.m.m.m.m.m.m.m.m.m.m.m.m.m.m.m.m.m.m.m.m.O.m.m.m.m.",
"m.m.m.m.m.m.m.m.m.m.m.m.m.m.m.m.m.m.m.m.m.m.m.m.m.m.m.m.m.m.m.m.m.m.m.m.m.m.m.m.m.m.m.m.m.m.m.m.m.m.m.m.m.m.m.m.m.m.m.m.m.m.m.m.",
"m.m.m.m.m.m.m.m.m.m.m.m.m.m.m.m.m.m.m.m.m.m.m.m.m.m.m.m.m.m.m.m.m.m.m.m.m.m.m.m.m.m.m.m.m.m.m.m.m.m.m.m.m.m.m.m.m.m.m.m.m.m.m.m.",
"m.m.m.m.m.m.m.m.m.m.m.m.m.m.m.m.m.m.m.m.m.m.m.m.m.m.m.m.m.m.m.m.m.m.m.m.m.m.m.m.m.m.m.m.m.m.m.m.m.m.m.m.m.m.m.m.m.m.m.m.m.m.m.m."
};
