/* XPM */
static char *result[] = {
/* columns rows colors chars-per-pixel */
"64 64 182 2 ",
"   c #150E06",
".  c #1B160C",
"X  c #1E1B0A",
"o  c #161714",
"O  c #161518",
"+  c #1D1F1D",
"@  c #271E0B",
"#  c #1D231D",
"$  c #2D2511",
"%  c #242916",
"&  c #20261F",
"*  c #362514",
"=  c #3E2D16",
"-  c #38291F",
";  c #25331F",
":  c #2D331C",
">  c #1F2121",
",  c #212621",
"<  c #232A23",
"1  c #2C2826",
"2  c #2A2A2C",
"3  c #253521",
"4  c #283427",
"5  c #2B3927",
"6  c #2C3D24",
"7  c #2B342A",
"8  c #383727",
"9  c #333334",
"0  c #3B3A3B",
"q  c #4B2619",
"w  c #44361D",
"e  c #443521",
"r  c #453A21",
"t  c #473E29",
"y  c #6B3729",
"u  c #6F3E2F",
"i  c #733F31",
"p  c #38492C",
"a  c #344233",
"s  c #3E453D",
"d  c #3E4B3C",
"f  c #3A5333",
"g  c #3E5339",
"h  c #3F5A38",
"j  c #4E452D",
"k  c #52462B",
"l  c #474837",
"z  c #4C493F",
"x  c #544734",
"c  c #554930",
"v  c #5A4E36",
"b  c #415734",
"n  c #415D3B",
"m  c #64402E",
"M  c #654937",
"N  c #734535",
"B  c #744837",
"V  c #744C3A",
"C  c #61533A",
"Z  c #6C573D",
"A  c #7A573E",
"S  c #45643D",
"D  c #4A683E",
"F  c #403F41",
"G  c #444246",
"H  c #4D4A40",
"J  c #484B49",
"K  c #524E44",
"L  c #465145",
"P  c #565349",
"I  c #4F5156",
"U  c #555556",
"Y  c #565659",
"T  c #5C5C5E",
"R  c #795642",
"E  c #7C5D43",
"W  c #4B6643",
"Q  c #4B6B42",
"!  c #527346",
"~  c #54754B",
"^  c #56794B",
"/  c #597F4D",
"(  c #597D55",
")  c #6D6145",
"_  c #786348",
"`  c #7D725F",
"'  c #5B5E66",
"]  c #626265",
"[  c #6E6D67",
"{  c #66656A",
"}  c #686769",
"|  c #6B6B6D",
" . c #6D706C",
".. c #777065",
"X. c #6F6E70",
"o. c #737174",
"O. c #777A77",
"+. c #7B7C7E",
"@. c #85513E",
"#. c #845C43",
"$. c #81634C",
"%. c #806E53",
"&. c #887256",
"*. c #86765B",
"=. c #8C7659",
"-. c #8E7A5D",
";. c #92795B",
":. c #8D7F62",
">. c #5C8551",
",. c #648F58",
"<. c #6B9A5E",
"1. c #6E9166",
"2. c #6E9E61",
"3. c #72A465",
"4. c #75A867",
"5. c #76AA69",
"6. c #79AD6B",
"7. c #7DB36E",
"8. c #7FB771",
"9. c #7FB871",
"0. c #948464",
"q. c #998365",
"w. c #968A69",
"e. c #9B8B6A",
"r. c #9D906C",
"t. c #9D8F77",
"y. c #A08A6B",
"u. c #A39472",
"i. c #AC9976",
"p. c #AF9B78",
"a. c #81A07A",
"s. c #80B771",
"d. c #82BB73",
"f. c #818283",
"g. c #8A8685",
"h. c #8D8D8D",
"j. c #839480",
"k. c #8E8C94",
"l. c #908F97",
"z. c #939394",
"x. c #98969A",
"c. c #AEA88B",
"v. c #B3AD94",
"b. c #9D9CA3",
"n. c #AF88A2",
"m. c #B596AB",
"M. c #A4A4A5",
"N. c #A6A6AC",
"B. c #A9A7A9",
"V. c #ABA9AD",
"C. c #BBB1A0",
"Z. c #ACAEB5",
"A. c #B2AEB2",
"S. c #AFB1B4",
"D. c #B3B2B4",
"F. c #BDBDBD",
"G. c #C7C7CE",
"H. c #C6C8C8",
"J. c #C9C9C9",
"K. c #CECDD4",
"L. c #D7CAD3",
"P. c #D4D4D5",
"I. c #D6D5DD",
"U. c #DED3DA",
"Y. c #D7DAD9",
"T. c #DBDBDA",
"R. c #DCE3DF",
"E. c #DCDBE2",
"W. c #E6E6E6",
"Q. c #E9E9E7",
"!. c #E4E4EA",
"~. c #EAE6EA",
"^. c #EBEBEB",
"/. c #EDF2EE",
"(. c #F0F0EF",
"). c #ECEBF2",
"_. c #F5E6F1",
"`. c #F6ECF4",
"'. c #F3F3F3",
"]. c #F6F5FB",
"[. c #FAF4F8",
"{. c #FDFDFD",
/* pixels */
"d.d.d.d.d.d.d.d.d.d.d.d.d.d.d.d.d.d.d.d.d.d.d.d.d.d.d.d.d.d.d.d.d.d.d.d.d.d.d.d.d.d.d.d.d.d.d.d.d.d.d.d.d.d.d.d.d.d.d.d.d.d.d.d.",
"d.d.d.d.d.d.d.d.d.d.d.d.d.d.d.d.d.d.d.d.d.d.d.d.d.d.d.d.d.d.d.d.d.d.d.d.d.d.d.d.d.d.d.d.d.d.d.d.d.d.d.d.d.d.d.d.d.d.d.d.d.d.d.d.",
"d.d.d.d.d.d.d.d.d.d.d.d.d.d.d.d.d.d.d.d.d.d.d.d.d.d.d.d.d.d.d.d.d.d.d.d.d.d.d.d.d.d.d.d.d.d.d.d.d.d.d.d.d.d.d.d.d.d.d.d.d.d.d.d.",
"d.d.d.d.d.d.d.d.d.d.d.d.d.d.d.d.d.d.d.d.d.d.d.d.d.d.d.d.d.d.d.d.d.d.d.d.d.d.d.d.d.d.d.d.d.d.d.d.d.d.d.d.d.d.d.d.d.d.d.d.d.d.d.d.",
"d.d.d.d.d.d.d.d.d.d.d.d.d.d.d.d.d.d.d.d.d.d.d.d.d.d.d.d.d.d.d.>.d.( d.d.d.d.d.d.d.d.d.d.d.d.d.d.d.d.d.d.d.d.d.d.d.d.d.d.d.d.d.d.",
"d.d.d.d.d.d.d.d.d.d.d.d.d.d.d.d.d.d.d.d.d.d.d.d.d.d.d.d.d.d.d.d.( d.d.d.d.d.d.d.d.d.d.d.d.d.d.d.d.d.d.d.d.d.d.d.d.d.d.d.d.d.d.d.",
"d.d.d.d.d.d.d.d.d.d.d.d.d.d.d.d.d.d.d.d.d.d.d.d.d.d.d.d.d.d.d.d.d.d.d.d.d.d.d.d.d.d.d.d.d.d.d.d.d.d.d.d.d.d.d.d.d.d.d.d.d.d.d.d.",
"d.d.d.d.d.d.d.d.d.d.d.d.d.d.d.d.d.d.d.d.d.d.d.d.d.d.d.d.d.d.d.d.d.d.d.d.d.d.d.d.d.d.d.d.d.d.d.d.d.d.d.d.d.d.d.d.d.d.d.d.d.d.d.d.",
"d.d.d.d.d.d.d.d.d.d.d.d.d.d.d.d.d.d.d.d.d.d.d.d.d.d.d.d.d.d.d.d.d.d.d.d.d.d.d.d.d.d.d.d.d.d.d.d.d.d.d.d.d.d.d.d.d.d.d.d.d.d.d.d.",
"d.d.d.d.d.d.d.d.d.d.d.d.d.d.d.d.d.d.d.d.d.d.d.d.d.d.d.d.d.d.d.d.d.d.d.d.d.d.d.d.d.d.d.d.d.d.d.d.d.d.d.d.d.d.d.d.d.d.d.d.d.d.d.d.",
"d.d.d.d.d.d.d.d.d.d.d.d.d.d.d.d.d.d.d.d.d.d.d.d.d.d.d.d.d.d.d.d.d.d.d.d.d.d.d.d.d.d.d.d.d.d.d.d.d.d.d.d.d.d.d.d.d.d.d.d.d.d.d.d.",
"d.d.d.d.d.d.d.d.d.d.d.d.d.d.d.d.d.d.d.d.d.d.d.d.d.9.d.d.d.d.d.d.d.d.d.d.d.9.d.d.d.d.d.d.d.d.d.d.d.d.d.d.d.d.d.d.d.d.d.d.d.d.d.d.",
"d.d.d.d.d.d.d.d.d.d.d.d.d.d.d.d.d.d.d.d.d.d.d.9.d.d.2.~ <.d.d.9.d.8.>.^ 7.9.9.d.d.d.d.d.d.d.d.d.d.d.d.d.d.d.d.d.d.d.d.d.d.d.d.d.",
"d.d.d.d.d.d.d.d.d.d.d.d.d.d.d.d.d.d.d.d.d.d.d.d.d.6.d F l 5.9.d.d.( 0 0 ^ 9.d.d.d.d.d.d.d.d.d.d.d.d.d.d.d.d.d.d.d.d.d.d.d.d.d.d.",
"d.d.d.d.d.d.d.d.d.d.d.d.d.d.d.d.d.d.d.d.d.d.d.d.5.5 x.'.M.7 3.d.Q Y T.W.T W 9.d.d.d.d.d.d.d.d.d.d.d.d.d.d.d.d.d.d.d.( d.>.d.d.d.",
"d.d.d.d.d.d.d.d.d.d.d.d.d.d.d.d.d.d.d.d.d.d.d.d.5.# D.{.F.& 6.s.Q ] ].[. .f 9.d.d.d.d.d.d.d.d.d.d.d.d.d.d.d.d.d.d.d.d.>.d.d.d.d.",
"d.d.d.d.d.d.d.d.d.d.d.d.d.d.d.d.d.d.d.d.d.d.d.d.7.< B.{.D.# b ! ; T '.].} D d.d.d.d.d.d.d.d.d.d.d.d.d.d.d.d.d.d.d.d.d.d.d.d.d.d.",
"d.d.d.d.d.d.d.d.d.d.d.d.d.d.d.d.d.d.d.d.d.d.d.d.^ # B.{.S.O 8 k . I '.'.} ; 4.d.d.d.s.d.d.d.d.d.d.d.d.d.d.d.d.d.d.d.d.d.d.d.d.d.",
"d.d.d.d.d.d.d.d.d.d.d.d.d.d.d.d.d.d.d.d.d.6.6.( $ o B.{.B.1 *.i.x I ^.'.]   8 5.4.s.d.d.d.d.d.d.d.d.d.d.d.d.d.d.d.d.d.d.d.d.d.d.",
"d.d.d.d.d.d.d.d.d.d.d.d.d.d.d.d.d.d.d.d.d.b X t A o S.Q.t.*.0.0.*.0.C./.' - Z % @ ,.d.d.s.d.d.d.d.d.d.d.d.d.d.d.d.d.d.d.d.d.d.d.",
"d.d.d.d.d.d.d.d.d.d.d.d.d.d.d.d.s.d.4.5 6 v j * @.M h.c.w.r.w.w.w.r.r.v.` V m $ Z p ; D d.d.d.d.d.d.d.d.d.d.d.d.d.d.d.d.d.d.d.d.",
"d.d.d.d.d.d.d.d.d.d.d.d.d.d.d.d.d.<.b C c ;.v   i #.@.E $.$.$.$.$.$._ R #.@.q . &._ v j ! 6.d.d.d.d.d.d.d.d.d.d.d.d.d.d.d.d.d.d.",
"d.d.d.d.d.d.d.d.d.d.d.d.d.d.d.d.d.p k i.y.q.C e B u y y y y y y y y y y y N m t %.q.p.=.@ 2.d.d.d.d.d.d.d.d.d.d.d.d.d.d.d.d.d.d.",
"d.d.d.d.d.d.d.>.d.( d.d.d.d.d.d.d.Q t :.q.q.;.;.$.V B B B B B N B B B B N A -.e.0.0.e.) : 3.d.d.d.d.d.d.d.d.d.d.d.d.d.d.d.d.d.d.",
"d.d.d.d.d.d.d.d.>.d.d.d.d.d.d.d.d.d.! w 0.r.w.q.0.-.-.-.-.-.-.-.-.-.-.-.-.-.0.e.e.u.) : 5.d.d.d.d.d.d.d.d.d.d.d.d.d.d.d.d.d.d.d.",
"d.d.d.d.d.d.d.d.d.d.d.d.d.d.d.d.d.d.d.! w j $ w e.u.u.u.u.u.u.u.u.u.u.u.u.i._ $ 8 x p 4.d.d.d.d.d.d.d.d.d.d.d.d.d.d.d.d.d.d.d.d.",
"d.d.d.d.d.d.d.d.d.d.d.d.d.d.d.d.d.s.d.d.>.# 0 ..= w w w r r r w w r r r r = x [   5 6.d.s.d.d.d.d.d.d.d.d.d.d.d.d.d.d.d.d.d.d.d.",
"d.d.d.d.d.d.d.d.d.d.d.d.d.d.d.d.d.d.d.d.4.L G.W.l z z P P H H H H z H P K 8 g.{.+.~ 9.d.d.d.d.d.d.d.d.d.d.d.d.d.d.d.d.d.d.d.d.d.",
"d.d.d.d.d.d.d.d.d.d.d.d.d.d.d.d.d.d.d.4.# Z.{.W.(.'.'.Q.!.^.'.'.'.(.'.E.^.'.(.^.].{ f d.d.d.d.d.d.d.d.d.d.d.d.d.d.d.d.d.d.d.d.d.",
"d.d.d.d.d.d.d.d.d.d.d.d.d.d.d.d.d.d.d.5.# Z.{.W.^.^.{.f.Y '.^.^.^.].T.G M.{.Q.^.].{ g d.d.d.d.d.d.d.d.d.d.d.d.d.d.d.d.d.d.d.d.d.",
"d.d.d.d.d.d.d.d.d.d.d.d.d.d.d.d.d.d.d.5.& b.].Q.W.W.{.| 9 ^.^.^.W.'.P., z.{.W.^.).] W d.d.d.d.d.d.d.d.d.d.d.d.d.d.d.d.d.d.d.d.d.",
"d.d.d.d.d.d.d.d.d.d.d.d.d.d.d.d.d.d.d.5.& b.].~.W.W.{.} 2 (.^./.^.(.P.O h.{.W.W.!.' h d.d.d.d.d.d.d.d.d.d.d.d.d.d.d.d.d.d.d.d.d.",
"d.d.d.d.d.d.d.d.d.d.d.d.d.d.d.d.d.d.d.4.+ N.{.^.Q.W.[.x.X./.].L.U.{.T.] A.[.^.^.).{ f d.d.d.d.d.d.d.d.d.d.d.d.d.d.d.d.d.d.d.d.d.",
"d.d.d.d.d.d.d.d.d.d.d.d.d.d.d.d.d.d.d.6.4 k.).^.W.~.~.`.'.W.T.n.m.R.^.`._.~.^.W.I.Y S d.d.d.d.d.d.d.d.d.d.d.d.d.d.d.d.d.d.d.d.d.",
"d.d.d.d.d.d.d.d.d.d.d.d.d.d.d.d.d.d.d.9.5.5 l.].Q.W.~._.[.P.9 V.g.J ^.`._.~.(.E.9 Q d.d.d.d.d.d.d.d.d.d.d.d.d.d.d.d.d.d.d.d.d.d.",
"d.d.d.d.d.d.d.d.d.d.d.d.d.d.d.d.d.d.d.d.d.6.a x.{.{.{.[.~.R.b.Y.H.M.(.{.{.{.K.9 W 9.d.9.d.d.d.d.d.d.d.d.d.d.d.d.d.d.d.d.d.d.d.d.",
"d.d.d.d.d.d.d.d.d.d.d.d.d.d.d.d.d.d.d.d.d.d.<.W a.O.] N.'.^.{.^.'.{.Y.f.| j.1.S 9.d.9.d.d.d.d.d.d.d.d.d.d.d.d.d.d.d.d.d.d.d.d.d.",
"d.d.d.d.d.d.d.d.d.d.d.d.d.d.d.d.d.d.d.d.d.s.d.d.,.l 9 h.].Q.W.Q.Q.^.Y.U F g 9.d.d.d.d.d.d.d.d.d.d.d.d.d.d.d.d.d.d.d.d.d.d.d.d.d.",
"d.d.d.d.d.d.d.d.d.d.d.d.d.d.d.d.d.d.d.d.d.d.d.>.9 Y.'.^.!.Q.W.Q.Q.W.W.^.{.z.# d.d.d.d.d.d.d.d.d.d.d.d.d.d.d.d.d.d.d.d.d.d.d.d.d.",
"d.d.d.d.d.d.d.d.d.d.d.d.d.d.d.d.d.d.d.d.d.d.d.,.2 P.).E.Q.Q.W.W.W.W.W.E.{.h.3 d.d.d.d.d.d.d.d.d.( d.( d.d.d.d.d.d.d.d.d.d.d.d.d.",
"d.d.d.d.d.d.d.d.d.d.d.d.d.d.d.d.d.d.d.d.d.d.>.J D.W.E.E.Q.Q.Q.W.Q.Q.!.E.^.T.+.g 5.d.d.d.d.d.d.d.d.>.d.d.d.d.d.d.d.d.d.d.d.d.d.d.",
"d.d.d.d.d.d.d.d.d.d.d.d.d.d.d.d.d.d.d.d.d.d.p o.{.(.I.E.Q.W.W.W.W.Q.!.I.E.{.J.> 2.d.d.d.d.d.d.d.d.d.d.d.d.d.d.d.d.d.d.d.d.d.d.d.",
"d.d.d.d.d.d.d.d.d.d.d.d.d.d.d.d.d.d.d.d.d.d.>.J F./.E.T.Q.W.W.W.W.W.W.I.~.{.F.> 3.d.d.d.d.d.d.d.d.d.d.d.d.d.d.d.d.d.d.d.d.d.d.d.",
"d.d.d.d.d.d.d.d.d.d.d.d.d.d.d.d.d.d.d.d.d.9.9.<.9 F.!.!.^.^.^.^.^.Q.!.E.P.W.M.7 3.d.d.d.d.d.d.d.d.d.d.d.d.d.d.d.d.d.d.d.d.d.d.d.",
"d.d.d.d.d.d.d.d.d.d.d.d.d.d.d.d.d.d.d.d.d.9.d.d.<.7 S.].^.]./.].'.'.[.'. .2 s 5.d.d.d.d.d.d.d.d.d.d.d.d.d.d.d.d.d.d.d.d.d.d.d.d.",
"d.d.d.d.d.d.d.d.d.d.d.d.d.d.d.d.d.d.d.d.d.d.9.d.7.# M.{.K.T ' ] ] T o.].o.3 3.d.d.9.d.d.d.d.d.d.d.d.d.d.d.d.d.d.d.d.d.d.d.d.d.d.",
"d.d.d.d.d.d.d.d.d.d.d.d.d.d.d.d.d.d.d.d.d.d.d.d.5.> J./.I S S h h S h f.Y n d.d.d.d.d.d.d.d.d.d.d.d.d.d.d.d.d.d.d.d.d.d.d.d.d.d.",
"d.d.d.d.d.d.d.d.d.d.d.d.d.d.d.d.d.d.d.d.d.d.d.d.5.< z. .Q 9.d.d.d.d.9.f 4 / d.d.d.d.d.d.d.d.d.d.d.d.d.d.d.d.d.d.d.d.d.d.d.d.d.d.",
"d.d.d.d.d.d.d.d.d.d.d.d.d.d.d.d.d.d.d.d.d.d.d.d.6.7 > W d.d.d.d.d.d.d.d.d.d.d.d.d.d.d.d.d.d.d.d.d.d.d.d.d.d.d.d.d.d.d.d.d.d.d.d.",
"d.d.d.d.d.d.d.d.d.d.d.d.d.d.d.d.d.d.d.d.d.d.d.d.d.d.9.9.d.d.d.d.d.d.d.d.d.d.d.d.d.d.d.d.d.d.d.d.d.d.d.d.d.d.d.d.d.d.d.d.d.d.d.d.",
"d.d.d.d.d.d.d.d.d.d.d.d.d.d.d.d.d.d.d.d.d.d.d.d.d.d.d.d.d.d.d.d.d.d.d.d.d.d.d.d.d.d.d.d.d.d.d.d.d.d.d.d.d.d.d.d.d.d.d.d.d.d.d.d.",
"d.d.d.d.d.d.d.d.d.d.d.d.d.d.d.d.d.d.d.d.d.d.d.d.d.d.d.d.d.d.d.d.d.d.d.d.d.d.d.d.d.d.d.d.d.d.d.d.d.d.d.d.d.d.d.d.d.d.d.d.d.d.d.d.",
"d.d.d.d.d.d.d.d.d.d.d.d.d.d.d.d.d.d.d.d.d.d.d.d.d.d.d.d.d.d.d.d.d.d.d.d.d.d.d.d.d.d.d.d.d.d.d.d.d.d.d.d.d.d.d.d.d.d.d.d.d.d.d.d.",
"d.d.d.d.d.d.d.d.d.d.d.d.d.d.d.d.d.d.d.d.d.d.d.d.d.d.d.d.d.d.d.d.d.d.d.d.d.d.d.d.d.d.d.d.d.d.d.d.d.d.d.d.d.d.d.d.d.d.d.d.d.d.d.d.",
"d.d.d.d.d.d.d.d.d.d.d.d.d.d.d.d.d.d.d.d.d.d.d.d.d.d.d.d.d.d.d.d.d.d.d.d.d.d.d.d.d.d.d.d.d.d.d.d.d.d.d.d.d.d.d.d.d.d.d.d.d.d.d.d.",
"d.d.d.d.d.d.d.d.d.d.d.d.d.d.d.d.>.d.,.d.d.d.d.d.d.d.d.d.d.d.d.d.d.d.d.d.d.d.d.d.d.d.d.d.d.d.d.d.d.d.d.d.d.d.d.d.d.d.d.d.d.d.d.d.",
"d.d.d.d.d.d.d.d.d.d.d.d.d.d.d.d.d.>.d.d.d.d.d.d.d.d.d.d.d.d.d.d.d.d.d.d.d.d.d.d.d.d.d.d.d.d.d.d.d.d.d.d.d.d.d.d.d.d.d.d.d.d.d.d.",
"d.d.d.d.d.d.d.d.d.d.d.d.d.d.d.d.d.d.j.d.d.d.d.d.d.d.d.d.d.d.d.d.d.d.d.d.d.d.d.d.d.d.d.d.d.d.d.d.d.d.d.d.d.d.d.d.d.d.d.d.d.d.d.d.",
"d.d.d.d.d.d.d.d.d.d.d.d.d.d.d.d.d.d.d.d.d.d.d.d.d.d.d.d.d.d.d.d.d.d.d.d.d.d.d.d.d.d.d.d.d.d.d.d.d.d.d.d.d.d.d.d.d.d.d.d.d.d.d.d.",
"d.d.d.d.d.d.d.d.d.d.d.d.d.d.d.d.d.d.d.d.d.d.d.d.d.d.d.d.d.d.d.d.d.d.d.d.d.d.d.d.d.d.d.d.d.d.d.d.d.d.d.d.d.d.d.d.d.d.>.d.( d.d.d.",
"d.d.d.d.d.d.d.d.d.d.d.d.d.d.d.d.d.d.d.d.d.d.d.d.d.d.d.d.d.d.d.d.d.d.d.d.d.d.d.d.d.d.d.d.d.d.d.d.d.d.d.d.d.d.d.d.d.d.d.( d.d.d.d.",
"d.d.d.d.d.d.d.d.d.d.d.d.d.d.d.d.d.d.d.d.d.d.d.d.d.d.d.d.d.d.d.d.d.d.d.d.d.d.d.d.d.d.d.d.d.d.d.d.d.d.d.d.d.d.d.d.d.d.d.d.d.d.d.d.",
"d.d.d.d.d.d.d.d.d.d.d.d.d.d.d.d.d.d.d.d.d.d.d.d.d.d.d.d.d.d.d.d.d.d.d.d.d.d.d.d.d.d.d.d.d.d.d.d.d.d.d.d.d.d.d.d.d.d.d.d.d.d.d.d.",
"d.d.d.d.d.d.d.d.d.d.d.d.d.d.d.d.d.d.d.d.d.d.d.d.d.d.d.d.d.d.d.d.d.d.d.d.d.d.d.d.d.d.d.d.d.d.d.d.d.d.d.d.d.d.d.d.d.d.d.d.d.d.d.d."
};
