/* XPM */
static char *result[] = {
/* columns rows colors chars-per-pixel */
"64 64 159 2 ",
"   c #060606",
".  c #0E0B09",
"X  c #190C01",
"o  c #0E120C",
"O  c #181303",
"+  c #1D1A0A",
"@  c #131A12",
"#  c #171719",
"$  c #201B09",
"%  c #32180C",
"&  c #1D200F",
"*  c #1C2718",
"=  c #1D291B",
"-  c #2B2009",
";  c #222F1F",
":  c #322916",
">  c #322C19",
",  c #25341F",
"<  c #34321C",
"1  c #29282A",
"2  c #273425",
"3  c #283525",
"4  c #293A25",
"5  c #3E3621",
"6  c #2F3238",
"7  c #343336",
"8  c #37373A",
"9  c #3A3A3C",
"0  c #412717",
"q  c #412718",
"w  c #693428",
"e  c #2F442A",
"r  c #314025",
"t  c #31462B",
"y  c #344A2E",
"u  c #3C473B",
"i  c #3A5333",
"p  c #3D5936",
"a  c #47412B",
"s  c #464D2F",
"d  c #58482F",
"f  c #4C4433",
"g  c #415D39",
"h  c #604831",
"j  c #634A36",
"k  c #774938",
"l  c #7C4939",
"z  c #64563C",
"x  c #6D513F",
"c  c #765039",
"v  c #7C513E",
"b  c #45623D",
"n  c #3E3D41",
"m  c #444E43",
"M  c #474749",
"N  c #4C4B4E",
"B  c #485C44",
"V  c #4C5949",
"C  c #4E4D51",
"Z  c #525155",
"A  c #55535A",
"S  c #5A595C",
"D  c #655C42",
"F  c #7B5541",
"G  c #725D44",
"H  c #486740",
"J  c #4A6A41",
"K  c #4E7046",
"L  c #527245",
"P  c #53734B",
"I  c #567A4D",
"U  c #587F4E",
"Y  c #597D55",
"T  c #746648",
"R  c #7D664D",
"E  c #7B6B4E",
"W  c #68655E",
"Q  c #605E64",
"!  c #636463",
"~  c #69686E",
"^  c #7A7265",
"/  c #6B6A70",
"(  c #737475",
")  c #787670",
"_  c #7F7B77",
"`  c #7E7D7D",
"'  c #82654D",
"]  c #837456",
"[  c #8B7B5D",
"{  c #93795D",
"}  c #8E7E60",
"|  c #927E60",
" . c #5B8350",
".. c #5F8954",
"X. c #618B55",
"o. c #648F58",
"O. c #66925A",
"+. c #6A975D",
"@. c #6A995E",
"#. c #72A465",
"$. c #76AA69",
"%. c #78AD6A",
"&. c #7CB36E",
"*. c #7FB771",
"=. c #7FB871",
"-. c #948565",
";. c #988264",
":. c #968867",
">. c #968868",
",. c #998A6A",
"<. c #9A8C70",
"1. c #A28B6C",
"2. c #A89673",
"3. c #82BB73",
"4. c #7C7D84",
"5. c #858584",
"6. c #86868A",
"7. c #888789",
"8. c #8B8A8C",
"9. c #8D8C93",
"0. c #908F93",
"q. c #969596",
"w. c #919098",
"e. c #B7A580",
"r. c #9C9BA5",
"t. c #A1A1A1",
"y. c #ABAAAB",
"u. c #AEADB5",
"i. c #C2B9A8",
"p. c #BDBCC2",
"a. c #BEBDC9",
"s. c #CACAC7",
"d. c #C3C2CC",
"f. c #CECECD",
"g. c #C8C7D3",
"h. c #CCCBD5",
"j. c #CFCEDB",
"k. c #D3D3D4",
"l. c #D4D3DB",
"z. c #DADADD",
"x. c #D7D5E0",
"c. c #D8D7E2",
"v. c #DCDBE5",
"b. c #DFDEE8",
"n. c #E0DFE3",
"m. c #E0DFE9",
"M. c #E6E6E6",
"N. c #E7E8E6",
"B. c #E8E8E7",
"V. c #E4E3EB",
"C. c #ECECED",
"Z. c #E5E4F1",
"A. c #ECECF3",
"S. c #F0EFF6",
"D. c #F3F4F4",
"F. c #F9F8F6",
"G. c #F2F2F8",
"H. c #F7F8FB",
"J. c #FEFEFE",
/* pixels */
"3.3.3.3.3.3.3.3.3.3.3.3.3.3.3.3.3.3.3.3.3.3.3.3.3.3.3.3.3.3.3.3.3.3.3.3.3.3.3.3.3.3.3.3.3.3.3.3.3.3.3.3.3.3.3.3.3.3.3.3.3.3.3.3.",
"3.3.3.3.3.3.3.3.3.3.3.3.3.3.3.3.3.3.3.3.3.3.3.3.3.3.3.3.3.3.3.3.3.3.3.3.3.3.3.3.3.3.3.3.3.3.3.3.3.3.3.3.3.3.3.3.3.3.3.3.3.3.3.3.",
"3.3.3.3.3.3.3.3.3.3.3.3.3.3.3.3.3.3.3.3.3.3.3.3.3.3.3.3.3.3.3.3.3.3.3.3.3.3.3.3.3.3.3.3.3.3.3.3.3.3.3.3.3.3.3.3.3.3.3.3.3.3.3.3.",
"3.3.3.3.3.3.3.3.3.3.3.3.3.3.3.3.3.3.3.3.3.3.3.3.3.3.3.3.3.3.3.3.3.3.3.3.3.3.3.3.3.3.3.3.3.3.3.3.3.3.3.3.3.3.3.3.3.3.3.3.3.3.3.3.",
"3.3.3.3.3.3.3.3.3.3.3.3.3.3.3.3.3.3.3.3.3.3.3.3.3.3.3.3.3.3.3.Y 3. .3.3.3.3.3.3.3.3.3.3.3.3.3.3.3.3.3.3.3.3.3.3.3.3.3.3.3.3.3.3.",
"3.3.3.3.3.3.3.3.3.3.3.3.3.3.3.3.3.3.3.3.3.3.3.3.3.3.3.3.3.3.3.3.Y 3.3.3.3.3.3.3.3.3.3.3.3.3.3.3.3.3.3.3.3.3.3.3.3.3.3.3.3.3.3.3.",
"3.3.3.3.3.3.3.3.3.3.3.3.3.3.3.3.3.3.3.3.3.3.3.3.3.3.3.3.3.3.3.3.3.3.3.3.3.3.3.3.3.3.3.3.3.3.3.3.3.3.3.3.3.3.3.3.3.3.3.3.3.3.3.3.",
"3.3.3.3.3.3.3.3.3.3.3.3.3.3.3.3.3.3.3.3.3.3.3.3.3.3.3.3.3.3.3.3.3.3.3.3.3.3.3.3.3.3.3.3.3.3.3.3.3.3.3.3.3.3.3.3.3.3.3.3.3.3.3.3.",
"3.3.3.3.3.3.3.3.3.3.3.3.3.3.3.3.3.3.3.3.3.3.3.3.3.3.3.3.3.3.3.3.3.3.3.3.3.3.3.3.3.3.3.3.3.3.3.3.3.3.3.3.3.3.3.3.3.3.3.3.3.3.3.3.",
"3.3.3.3.3.3.3.3.3.3.3.3.3.3.3.3.3.3.3.3.3.3.3.3.3.3.3.3.3.3.3.3.3.3.3.3.3.3.3.3.3.3.3.3.3.3.3.3.3.3.3.3.3.3.3.3.3.3.3.3.3.3.3.3.",
"3.3.3.3.3.3.3.3.3.3.3.3.3.3.3.3.3.3.3.3.3.3.3.3.3.3.3.3.3.3.3.3.3.3.3.3.3.3.3.3.3.3.3.3.3.3.3.3.3.3.3.3.3.3.3.3.3.3.3.3.3.3.3.3.",
"3.3.3.3.3.3.3.3.3.3.3.3.3.3.3.3.3.3.3.3.3.3.3.3.3.3.H t @.3.=.=.3.@.y H 3.3.3.3.3.3.3.3.3.3.3.3.3.3.3.3.3.3.3.3.3.3.3.3.3.3.3.3.",
"3.3.3.3.3.3.3.3.3.3.3.3.3.3.3.3.3.3.3.3.3.3.3.3.&.I S ( V #.3.3.#.V ( S I &.3.3.3.3.3.3.3.3.3.3.3.3.3.3.3.3.3.3.3.3.3.3.3.3.3.3.",
"3.3.3.3.3.3.3.3.3.3.3.3.3.3.3.3.3.3.3.3.3.3.3.3.U 9 n.J.0., =.3., 0.J.n.9 U 3.3.3.3.3.3.3.3.3.3.3.3.3.3.3.3.3.3.3.3.3.3.3.3.3.3.",
"3.3.3.3.3.3.3.3.3.3.3.3.3.3.3.3.3.3.3.3.3.3.3.3. .9 k.J.8.4 3.3.4 8.J.k.9  .3.3.3.3.3.3.3.3.3.3.3.3.3.3.3.3.3.3.3.3.Y 3.Y 3.3.3.",
"3.3.3.3.3.3.3.3.3.3.3.3.3.3.3.3.3.3.3.3.3.3.3.3.+.9 k.J.7.o r 4 o 6.J.k.9 +.3.3.3.3.3.3.3.3.3.3.3.3.3.3.3.3.3.3.3.3.3.Y 3.3.3.3.",
"3.3.3.3.3.3.3.3.3.3.3.3.3.3.3.3.3.3.3.*.3.3.3.#.2 8 k.J.4.. z z o 4.J.k.8 2 #.3.3.3.3.3.3.3.3.3.3.3.3.3.3.3.3.3.3.3.3.3.3.3.3.3.",
"3.3.3.3.3.3.3.3.3.3.3.3.3.3.3.3.3.3.3.3.3.X.o.s : 6 l.F._ f 2.2.n } F.z.7 : s O.X.3.3.3.3.3.3.3.3.3.3.3.3.3.3.3.3.3.3.3.3.3.3.3.",
"3.3.3.3.3.3.3.3.3.3.3.3.3.3.3.3.3.3.*.$.+.< + h F 8 f.i.>.-.-.-.-.,.i.f.8 x h $ > +.$.%.3.3.3.3.3.3.3.3.3.3.3.3.3.3.3.3.3.3.3.3.",
"3.3.3.3.3.3.3.3.3.3.3.3.3.3.3.3.3.3.P + > R 5 q F R <.,.-.>.-.-.-.-.,.<.R v 0 5 E > + L 3.*.3.3.3.3.3.3.3.3.3.3.3.3.3.3.3.3.3.3.",
"3.3.3.3.3.3.3.3.3.3.3.3.3.3.3.3.3.J f E G { > % l v c v F F F F F F F k v l % > { G E f H 3.3.3.3.3.3.3.3.3.3.3.3.3.3.3.3.3.3.3.",
"3.3.3.3.3.3.3.3.3.3.3.3.3.3.3.3.3.& T e.;.| z j k w w w w w w w w w w w w k j D | ;.e.T + 3.3.3.3.3.3.3.3.3.3.3.3.3.3.3.3.3.3.3.",
"3.3.3.3.3.3.3.3.3.3.3.3.3.3.3.3.3.b a [ ,.,.,.| ' F F F F F F F F F F F F ' ,.2.>.,.[ a H 3.3.3.3.3.3.3.3.3.3.3.3.3.3.3.3.3.3.3.",
"3.3.3.3.3.3.3...3.Y 3.3.3.3.3.3.3.3.L 5 | [ ] } -.>.>.>.>.>.>.:.>.>.-.>.:.-.[ ] [ -.5 L 3.3.3.3.3.3.3.3.3.3.3.3.3.3.3.3.3.3.3.3.",
"3.3.3.3.3.3.3.3. .3.3.3.3.3.3.3.3.3.3.L > : O d 1.,.,.,.,.,.,.:.,.,.>.,.,.,.d O : > L 3.3.3.3.3.3.3.3.3.3.3.3.3.3.3.3.3.3.3.3.3.",
"3.3.3.3.3.3.3.3.3.3.3.3.3.3.3.3.3.3.3.3...o 5.^ X - - - - - % - - % - - - X ^ 5.o X.3.3.3.3.3.3.3.3.3.3.3.3.3.3.3.3.3.3.3.3.3.3.",
"3.3.3.3.3.3.3.3.3.3.3.3.3.3.3.3.3.3.3.%.P ( D.s.W ) ) ) ) ) ) ) ) ) ) ) ) W s.G.( P %.3.3.3.3.3.3.3.3.3.3.3.3.3.3.3.3.3.3.3.3.3.",
"3.3.3.3.3.3.3.3.3.3.3.3.3.3.3.3.3.3.3.I n V.D.D.J.J.J.J.J.J.J.J.J.J.J.J.J.J.D.F.B.n I 3.3.3.3.3.3.3.3.3.3.3.3.3.3.3.3.3.3.3.3.3.",
"3.3.3.3.3.3.3.3.3.3.3.3.3.3.3.3.3.3.3. .9 h.D.M.M.B.M.B.M.M.M.B.B.M.M.M.M.M.B.D.h.8  .3.3.3.3.3.3.3.3.3.3.3.3.3.3.3.3.3.3.3.3.3.",
"3.3.3.3.3.3.3.3.3.3.3.3.3.3.3.3.3.3.3. .9 d.A.B.M.M.M.B.B.M.M.M.M.M.B.M.M.B.B.A.d.8  .3.3.3.3.3.3.3.3.3.3.3.3.3.3.3.3.3.3.3.3.3.",
"3.3.3.3.3.3.3.3.3.3.3.3.3.3.3.3.3.3.3. .8 d.A.M.B.M.B.M.V.M.B.B.M.M.M.B.M.M.M.A.d.8 X.3.3.3.3.3.3.3.3.3.3.3.3.3.3.3.3.3.3.3.3.3.",
"3.3.3.3.3.3.3.3.3.3.3.3.3.3.3.3.3.3.3.I 9 c.S.V.M.M.M.M.B.B.M.M.M.B.M.M.M.M.V.G.n.n  .3.3.3.3.3.3.3.3.3.3.3.3.3.3.3.3.3.3.3.3.3.",
"3.3.3.3.3.3.3.3.3.3.3.3.3.3.3.3.3.3.3.+.u w.b.A.b.V.M.V.V.V.V.B.V.B.V.V.B.b.A.v.6.u +.3.3.3.3.3.3.3.3.3.3.3.3.3.3.3.3.3.3.3.3.3.",
"3.3.3.3.3.3.3.3.3.3.3.3.3.3.3.3.3.3.*.3.$.2 9.V.b.V.Z.V.V.m.m.V.V.m.m.m.Z.b.V.4.* %.3.=.3.3.3.3.3.3.3.3.3.3.3.3.3.3.3.3.3.3.3.3.",
"3.3.3.3.3.3.3.3.3.3.3.3.3.3.3.3.3.3.3.3.3.$.3 w.G.V.V.c.x.x.x.x.c.x.v.Z.V.H.4.= %.3.3.3.3.3.3.3.3.3.3.3.3.3.3.3.3.3.3.3.3.3.3.3.",
"3.3.3.3.3.3.3.3.3.3.3.3.3.3.3.3.3.3.3.3.3.3.$.m ~ Z 8 r.v.g.g.g.g.c.r.8 Z / u $.3.3.=.3.3.3.3.3.3.3.3.3.3.3.3.3.3.3.3.3.3.3.3.3.",
"3.3.3.3.3.3.3.3.3.3.3.3.3.3.3.3.3.3.3.3.3.*.3.%.t   S a.b.k.k.j.k.n.p.S   e %.3.=.3.3.3.3.3.3.3.3.3.3.3.3.3.3.3.3.3.3.3.3.3.3.3.",
"3.3.3.3.3.3.3.3.3.3.3.3.3.3.3.3.3.3.3.3.3.3.3.*.P ( D.H.M.N.B.B.M.M.F.C.( P 3.3.3.3.3.3.3.3.3.3.3.3.3.3.3.3.3.3.3.3.3.3.3.3.3.3.",
"3.3.3.3.3.3.3.3.3.3.3.3.3.3.3.3.3.3.3.3.3.3.3.p ! D.B.M.B.V.B.B.B.M.M.B.G.! p 3.=.3.3.3.3.3.3.3.3.3.3.3.3.3.3.3.3.3.3.3.3.3.3.3.",
"3.3.3.3.3.3.3.3.3.3.3.3.3.3.3.3.3.3.3.3.3.3.3.H S A.x.M.B.B.B.B.M.B.V.v.S.S b 3.3.3.3.3.3.3.3.3.Y 3.Y 3.3.3.3.3.3.3.3.3.3.3.3.3.",
"3.3.3.3.3.3.3.3.3.3.3.3.3.3.3.3.3.3.3.3.3.3.H ! f.V.x.n.C.V.l.c.V.B.V.l.V.k.! H 3.3.3.3.3.3.3.3.3. .3.3.3.3.3.3.3.3.3.3.3.3.3.3.",
"3.3.3.3.3.3.3.3.3.3.3.3.3.3.3.3.3.3.3.3.3.3.@ y.J.b.l.M.b.j.j.m.Z.V.V.x.b.J.q.= =.3.3.3.3.3.3.3.3.3.3.3.3.3.3.3.3.3.3.3.3.3.3.3.",
"3.3.3.3.3.3.3.3.3.3.3.3.3.3.3.3.3.3.3.3.3.3.H Q l.S.x.N.k.a.v.A.x.z.M.k.A.J.0.; 3.3.3.3.3.3.3.3.3.3.3.3.3.3.3.3.3.3.3.3.3.3.3.3.",
"3.3.3.3.3.3.3.3.3.3.3.3.3.3.3.3.3.3.3.3.3.3.3.K C v.c.B.z.g.x.x.g.c.M.x.h.M.` t =.3.3.3.3.3.3.3.3.3.3.3.3.3.3.3.3.3.3.3.3.3.3.3.",
"3.3.3.3.3.3.3.3.3.3.3.3.3.3.3.3.3.3.3.3.3.=.3.3.P N k.C.A.Z.j.j.Z.D.F.k.M 7 B 3.3.3.3.3.3.3.3.3.3.3.3.3.3.3.3.3.3.3.3.3.3.3.3.3.",
"3.3.3.3.3.3.3.3.3.3.3.3.3.3.3.3.3.3.3.3.3.3.=.3.X.7 k.J.u.C Z A Q Z r.D.7 i &.3.3.3.3.3.3.3.3.3.3.3.3.3.3.3.3.3.3.3.3.3.3.3.3.3.",
"3.3.3.3.3.3.3.3.3.3.3.3.3.3.3.3.3.3.3.3.3.3.3.3. .9 D.d.u J B p g H B 7.7 o.3.3.3.3.3.3.3.3.3.3.3.3.3.3.3.3.3.3.3.3.3.3.3.3.3.3.",
"3.3.3.3.3.3.3.3.3.3.3.3.3.3.3.3.3.3.3.3.3.3.3.3. .7 t.M o.3.3.3.3.3.#.3 y +.3.3.3.3.3.3.3.3.3.3.3.3.3.3.3.3.3.3.3.3.3.3.3.3.3.3.",
"3.3.3.3.3.3.3.3.3.3.3.3.3.3.3.3.3.3.3.3.3.3.3.3.o.1 # o.3.3.3.3.3.3.3.3.3.3.3.3.3.3.3.3.3.3.3.3.3.3.3.3.3.3.3.3.3.3.3.3.3.3.3.3.",
"3.3.3.3.3.3.3.3.3.3.3.3.3.3.3.3.3.3.3.3.3.3.3.3.3.3.3.3.3.3.3.3.3.3.3.3.3.3.3.3.3.3.3.3.3.3.3.3.3.3.3.3.3.3.3.3.3.3.3.3.3.3.3.3.",
"3.3.3.3.3.3.3.3.3.3.3.3.3.3.3.3.3.3.3.3.3.3.3.3.3.3.3.3.3.3.3.3.3.3.3.3.3.3.3.3.3.3.3.3.3.3.3.3.3.3.3.3.3.3.3.3.3.3.3.3.3.3.3.3.",
"3.3.3.3.3.3.3.3.3.3.3.3.3.3.3.3.3.3.3.3.3.3.3.3.3.3.3.3.3.3.3.3.3.3.3.3.3.3.3.3.3.3.3.3.3.3.3.3.3.3.3.3.3.3.3.3.3.3.3.3.3.3.3.3.",
"3.3.3.3.3.3.3.3.3.3.3.3.3.3.3.3.3.3.3.3.3.3.3.3.3.3.3.3.3.3.3.3.3.3.3.3.3.3.3.3.3.3.3.3.3.3.3.3.3.3.3.3.3.3.3.3.3.3.3.3.3.3.3.3.",
"3.3.3.3.3.3.3.3.3.3.3.3.3.3.3.3.3.3.3.3.3.3.3.3.3.3.3.3.3.3.3.3.3.3.3.3.3.3.3.3.3.3.3.3.3.3.3.3.3.3.3.3.3.3.3.3.3.3.3.3.3.3.3.3.",
"3.3.3.3.3.3.3.3.3.3.3.3.3.3.3.3.3.3.3.3.3.3.3.3.3.3.3.3.3.3.3.3.3.3.3.3.3.3.3.3.3.3.3.3.3.3.3.3.3.3.3.3.3.3.3.3.3.3.3.3.3.3.3.3.",
"3.3.3.3.3.3.3.3.3.3.3.3.3.3.3.3.Y 3.Y 3.3.3.3.3.3.3.3.3.3.3.3.3.3.3.3.3.3.3.3.3.3.3.3.3.3.3.3.3.3.3.3.3.3.3.3.3.3.3.3.3.3.3.3.3.",
"3.3.3.3.3.3.3.3.3.3.3.3.3.3.3.3.3...3.3.3.3.3.3.3.3.3.3.3.3.3.3.3.3.3.3.3.3.3.3.3.3.3.3.3.3.3.3.3.3.3.3.3.3.3.3.3.3.3.3.3.3.3.3.",
"3.3.3.3.3.3.3.3.3.3.3.3.3.3.3.3.3.3.3.3.3.3.3.3.3.3.3.3.3.3.3.3.3.3.3.3.3.3.3.3.3.3.3.3.3.3.3.3.3.3.3.3.3.3.3.3.3.3.3.3.3.3.3.3.",
"3.3.3.3.3.3.3.3.3.3.3.3.3.3.3.3.3.3.3.3.3.3.3.3.3.3.3.3.3.3.3.3.3.3.3.3.3.3.3.3.3.3.3.3.3.3.3.3.3.3.3.3.3.3.3.3.3.3.3.3.3.3.3.3.",
"3.3.3.3.3.3.3.3.3.3.3.3.3.3.3.3.3.3.3.3.3.3.3.3.3.3.3.3.3.3.3.3.3.3.3.3.3.3.3.3.3.3.3.3.3.3.3.3.3.3.3.3.3.3.3.3.3.3...3.Y 3.3.3.",
"3.3.3.3.3.3.3.3.3.3.3.3.3.3.3.3.3.3.3.3.3.3.3.3.3.3.3.3.3.3.3.3.3.3.3.3.3.3.3.3.3.3.3.3.3.3.3.3.3.3.3.3.3.3.3.3.3.3.3.Y 3.3.3.3.",
"3.3.3.3.3.3.3.3.3.3.3.3.3.3.3.3.3.3.3.3.3.3.3.3.3.3.3.3.3.3.3.3.3.3.3.3.3.3.3.3.3.3.3.3.3.3.3.3.3.3.3.3.3.3.3.3.3.3.3.3.3.3.3.3.",
"3.3.3.3.3.3.3.3.3.3.3.3.3.3.3.3.3.3.3.3.3.3.3.3.3.3.3.3.3.3.3.3.3.3.3.3.3.3.3.3.3.3.3.3.3.3.3.3.3.3.3.3.3.3.3.3.3.3.3.3.3.3.3.3.",
"3.3.3.3.3.3.3.3.3.3.3.3.3.3.3.3.3.3.3.3.3.3.3.3.3.3.3.3.3.3.3.3.3.3.3.3.3.3.3.3.3.3.3.3.3.3.3.3.3.3.3.3.3.3.3.3.3.3.3.3.3.3.3.3."
};
