/* XPM */
static char *result[] = {
/* columns rows colors chars-per-pixel */
"64 64 153 2 ",
"   c #0B0A07",
".  c #141C13",
"X  c #171719",
"o  c #251C0B",
"O  c #31160B",
"+  c #1F210E",
"@  c #1E2518",
"#  c #202512",
"$  c #222B19",
"%  c #392710",
"&  c #372F1C",
"*  c #22301E",
"=  c #2E351C",
"-  c #242426",
";  c #2E2E2F",
":  c #362F25",
">  c #273723",
",  c #343F25",
"<  c #39362A",
"1  c #2C2F35",
"2  c #2E3234",
"3  c #363B37",
"4  c #363639",
"5  c #38373A",
"6  c #3A3B3C",
"7  c #44371E",
"8  c #4B301F",
"9  c #44381E",
"0  c #493E27",
"q  c #553C2A",
"w  c #6A3629",
"e  c #6C392C",
"r  c #344024",
"t  c #34492E",
"y  c #394D2D",
"u  c #3D463E",
"i  c #3C5332",
"p  c #3D5936",
"a  c #46462C",
"s  c #4E422A",
"d  c #51462F",
"f  c #5D4736",
"g  c #554B32",
"h  c #5D4C32",
"j  c #445735",
"k  c #465A35",
"l  c #415D39",
"z  c #624F38",
"x  c #734736",
"c  c #744937",
"v  c #754938",
"b  c #794838",
"n  c #625037",
"m  c #64563B",
"M  c #68573F",
"N  c #78573C",
"B  c #46643D",
"V  c #3F3E40",
"C  c #434245",
"Z  c #474E45",
"A  c #4F4C42",
"S  c #47464A",
"D  c #4A4A4B",
"F  c #495F44",
"G  c #4D4C51",
"H  c #505554",
"J  c #5C5A57",
"K  c #59585D",
"L  c #6E5D4B",
"P  c #7D5441",
"I  c #7D5C44",
"U  c #496442",
"Y  c #4B6B42",
"T  c #4E7045",
"R  c #527549",
"E  c #587F4E",
"W  c #597D55",
"Q  c #706346",
"!  c #6A6051",
"~  c #5D5B62",
"^  c #626364",
"/  c #7C7B7D",
"(  c #804B3A",
")  c #855C44",
"_  c #81624B",
"`  c #857558",
"'  c #8E7559",
"]  c #8E7B5E",
"[  c #937C5F",
"{  c #8F7E60",
"}  c #5C8451",
"|  c #608A55",
" . c #608059",
".. c #648F5B",
"X. c #66925A",
"o. c #69965D",
"O. c #6A985F",
"+. c #7E987A",
"@. c #74A766",
"#. c #75A968",
"$. c #79AD6A",
"%. c #7CB36E",
"&. c #7EB670",
"*. c #7FB871",
"=. c #958465",
"-. c #998164",
";. c #998867",
":. c #93856B",
">. c #968A69",
",. c #9B8C6B",
"<. c #A18F6D",
"1. c #A39371",
"2. c #AC9776",
"3. c #A49B7D",
"4. c #82BB73",
"5. c #B4A17D",
"6. c #7E8186",
"7. c #87878A",
"8. c #909091",
"9. c #9A9A9A",
"0. c #AAA28B",
"q. c #A2A1A2",
"w. c #A5A4AA",
"e. c #ABAAAB",
"r. c #ACABB4",
"t. c #B2B1BA",
"y. c #BDBCB8",
"u. c #BEBDC9",
"i. c #C2C2C2",
"p. c #C4C3CB",
"a. c #D5CFC2",
"s. c #CCCBD5",
"d. c #CFCEDB",
"f. c #D3D3D4",
"g. c #D4D3DC",
"h. c #DADBDE",
"j. c #D6D5E1",
"k. c #D8D7E2",
"l. c #DCDBE4",
"z. c #DFDEE9",
"x. c #E0DFE3",
"c. c #E6E6E6",
"v. c #E7E8E7",
"b. c #E9E9E7",
"n. c #E4E3EB",
"m. c #E8E7E9",
"M. c #EBEBEB",
"N. c #E5E4F1",
"B. c #EDEDF3",
"V. c #EDECF8",
"C. c #F2F2F3",
"Z. c #F1F1FA",
"A. c #FEFEFD",
/* pixels */
"4.4.4.4.4.4.4.4.4.4.4.4.4.4.4.4.4.4.4.4.4.4.4.4.4.4.4.4.4.4.4.4.4.4.4.4.4.4.4.4.4.4.4.4.4.4.4.4.4.4.4.4.4.4.4.4.4.4.4.4.4.4.4.4.",
"4.4.4.4.4.4.4.4.4.4.4.4.4.4.4.4.4.4.4.4.4.4.4.4.4.4.4.4.4.4.4.4.4.4.4.4.4.4.4.4.4.4.4.4.4.4.4.4.4.4.4.4.4.4.4.4.4.4.4.4.4.4.4.4.",
"4.4.4.4.4.4.4.4.4.4.4.4.4.4.4.4.4.4.4.4.4.4.4.4.4.4.4.4.4.4.4.4.4.4.4.4.4.4.4.4.4.4.4.4.4.4.4.4.4.4.4.4.4.4.4.4.4.4.4.4.4.4.4.4.",
"4.4.4.4.4.4.4.4.4.4.4.4.4.4.4.4.4.4.4.4.4.4.4.4.4.4.4.4.4.4.4.4.4.4.4.4.4.4.4.4.4.4.4.4.4.4.4.4.4.4.4.4.4.4.4.4.4.4.4.4.4.4.4.4.",
"4.4.4.4.4.4.4.4.4.4.4.4.4.4.4.4.4.4.4.4.4.4.4.4.4.4.4.4.4.4.4.W 4.} 4.4.4.4.4.4.4.4.4.4.4.4.4.4.4.4.4.4.4.4.4.4.4.4.4.4.4.4.4.4.",
"4.4.4.4.4.4.4.4.4.4.4.4.4.4.4.4.4.4.4.4.4.4.4.4.4.4.4.4.4.4.4.4.W 4.4.4.4.4.4.4.4.4.4.4.4.4.4.4.4.4.4.4.4.4.4.4.4.4.4.4.4.4.4.4.",
"4.4.4.4.4.4.4.4.4.4.4.4.4.4.4.4.4.4.4.4.4.4.4.4.4.4.4.4.4.4.4.4.4.4.4.4.4.4.4.4.4.4.4.4.4.4.4.4.4.4.4.4.4.4.4.4.4.4.4.4.4.4.4.4.",
"4.4.4.4.4.4.4.4.4.4.4.4.4.4.4.4.4.4.4.4.4.4.4.4.4.4.4.4.4.4.4.4.4.4.4.4.4.4.4.4.4.4.4.4.4.4.4.4.4.4.4.4.4.4.4.4.4.4.4.4.4.4.4.4.",
"4.4.4.4.4.4.4.4.4.4.4.4.4.4.4.4.4.4.4.4.4.4.4.4.4.4.4.4.4.4.4.4.4.4.4.4.4.4.4.4.4.4.4.4.4.4.4.4.4.4.4.4.4.4.4.4.4.4.4.4.4.4.4.4.",
"4.4.4.4.4.4.4.4.4.4.4.4.4.4.4.4.4.4.4.4.4.4.4.4.4.4.4.4.4.4.4.4.4.4.4.4.4.4.4.4.4.4.4.4.4.4.4.4.4.4.4.4.4.4.4.4.4.4.4.4.4.4.4.4.",
"4.4.4.4.4.4.4.4.4.4.4.4.4.4.4.4.4.4.4.4.4.4.4.4.4.4.4.4.4.4.4.4.4.4.4.4.4.4.4.4.4.4.4.4.4.4.4.4.4.4.4.4.4.4.4.4.4.4.4.4.4.4.4.4.",
"4.4.4.4.4.4.4.4.4.4.4.4.4.4.4.4.4.4.4.4.4.4.4.4.4.4.4.4.4.&.4.4.4.4.4.4.4.4.4.4.4.4.4.4.4.4.4.4.4.4.4.4.4.4.4.4.4.4.4.4.4.4.4.4.",
"4.4.4.4.4.4.4.4.4.4.4.4.4.4.4.4.4.4.4.4.4.4.4.4.4.4.} R @.4.4.4.4.#.R | 4.4.4.4.4.4.4.4.4.4.4.4.4.4.4.4.4.4.4.4.4.4.4.4.4.4.4.4.",
"4.4.4.4.4.4.4.4.4.4.4.4.4.4.4.4.4.4.4.4.4.4.4.4.4.o.u C F 4.4.*.4.F C 6 o.4.4.4.4.4.4.4.4.4.4.4.4.4.4.4.4.4.4.4.4.4.4.4.4.4.4.4.",
"4.4.4.4.4.4.4.4.4.4.4.4.4.4.4.4.4.4.4.4.4.4.4.4.| 6 i.M./ t *.4.t / B.i.6 | 4.4.4.4.4.4.4.4.4.4.4.4.4.4.4.4.4.4.4.4.W 4.} 4.4.4.",
"4.4.4.4.4.4.4.4.4.4.4.4.4.4.4.4.4.4.4.4.4.4.4.4.} 6 l.A.8.> 4.4.> 8.A.x.6 } 4.4.4.4.4.4.4.4.4.4.4.4.4.4.4.4.4.4.4.4.4.W 4.4.4.4.",
"4.4.4.4.4.4.4.4.4.4.4.4.4.4.4.4.4.4.4.4.4.4.4.4.o.5 f.A.7.. B B . 7.A.f.5 o.4.4.4.4.4.4.4.4.4.4.4.4.4.4.4.4.4.4.4.4.4.4.4.4.4.4.",
"4.4.4.4.4.4.4.4.4.4.4.4.4.4.4.4.4.4.4.4.4.4.4.%.i 4 f.A.7.  s s   7.A.f.5 j $.4.4.4.4.4.4.4.4.4.4.4.4.4.4.4.4.4.4.4.4.4.4.4.4.4.",
"4.4.4.4.4.4.4.4.4.4.4.4.4.4.4.4.4.4.4.4.4.#.%.k o 4 f.A./ : ,.<.: / A.f.4 o k $.@.4.4.4.4.4.4.4.4.4.4.4.4.4.4.4.4.4.4.4.4.4.4.4.",
"4.4.4.4.4.4.4.4.4.4.4.4.4.4.4.4.4.4.4.4.#.> + f f 2 l.a.:.` =.=.` :.a.k.1 f g o = $.%.4.4.4.4.4.4.4.4.4.4.4.4.4.4.4.4.4.4.4.4.4.",
"4.4.4.4.4.4.4.4.4.4.4.4.4.4.4.4.4.4.| $ r L & 8 P L 0.3.,.,.>.>.,.<.3.0.L P 0 & M , $ | 4.4.4.4.4.4.4.4.4.4.4.4.4.4.4.4.4.4.4.4.",
"4.4.4.4.4.4.4.4.4.4.4.4.4.4.4.4.4.| a m n [ & O ( ) N I _ _ _ _ Q _ I N ) ( O & [ z m a } 4.4.4.4.4.4.4.4.4.4.4.4.4.4.4.4.4.4.4.",
"4.4.4.4.4.4.4.4.4.4.4.4.4.4.4.4.4.+ Q 5.-.[ d q b e w w w w w w w w w w e b q g [ -.5.Q # 4.4.4.4.4.4.4.4.4.4.4.4.4.4.4.4.4.4.4.",
"4.4.4.4.4.4.4.} 4. .4.4.4.4.4.4.*.y g ;.=.=.[ ' I x c v v v c c x v v v x I { ,.=.=.;.g y 4.4.4.4.4.4.4.4.4.4.4.4.4.4.4.4.4.4.4.",
"4.4.4.4.4.4.4.4.} 4.4.4.4.4.4.4.4.%.i g ,.,.,.=.[ ] ] ] ] ] ] ] [ ] ] ] ] { =.,.,.<.g i 4.4.4.4.4.4.4.4.4.4.4.4.4.4.4.4.4.4.4.4.",
"4.4.4.4.4.4.4.4.4.4.4.4.4.4.4.4.4.4.%.k s 0 o h 2.1.1.1.1.1.1.1.1.1.1.1.1.2.h o 0 s j %.4.4.4.4.4.4.4.4.4.4.4.4.4.4.4.4.4.4.4.4.",
"4.4.4.4.4.4.4.4.4.4.4.4.4.4.4.4.4.%.4.4.B   J ! % 9 9 9 7 7 7 7 7 7 7 7 7 % L J   l 4.4.%.4.4.4.4.4.4.4.4.4.4.4.4.4.4.4.4.4.4.4.",
"4.4.4.4.4.4.4.4.4.4.4.4.4.4.4.4.4.4.4.4...H B.y.< A A A A A A A A A A A A < y.B.H ..4.4.4.4.4.4.4.4.4.4.4.4.4.4.4.4.4.4.4.4.4.4.",
"4.4.4.4.4.4.4.4.4.4.4.4.4.4.4.4.4.4.4.E 6 h.C.M.C.C.C.C.C.C.C.C.C.C.C.C.C.C.M.C.l.6 E 4.4.4.4.4.4.4.4.4.4.4.4.4.4.4.4.4.4.4.4.4.",
"4.4.4.4.4.4.4.4.4.4.4.4.4.4.4.4.4.4.4.} 6 f.C.b.M.M.M.M.m.M.M.M.M.M.M.M.M.M.M.C.f.5 } 4.4.4.4.4.4.4.4.4.4.4.4.4.4.4.4.4.4.4.4.4.",
"4.4.4.4.4.4.4.4.4.4.4.4.4.4.4.4.4.4.4.} 5 s.B.c.v.v.c.v.c.m.c.c.c.c.c.c.c.c.m.B.p.6 | 4.4.4.4.4.4.4.4.4.4.4.4.4.4.4.4.4.4.4.4.4.",
"4.4.4.4.4.4.4.4.4.4.4.4.4.4.4.4.4.4.4.} 5 u.B.c.v.c.v.v.c.c.c.b.c.c.v.m.c.c.v.B.p.6 | 4.4.4.4.4.4.4.4.4.4.4.4.4.4.4.4.4.4.4.4.4.",
"4.4.4.4.4.4.4.4.4.4.4.4.4.4.4.4.4.4.4.} 6 d.V.v.m.v.v.v.c.c.m.c.c.v.c.c.c.m.n.V.d.6 } 4.4.4.4.4.4.4.4.4.4.4.4.4.4.4.4.4.4.4.4.4.",
"4.4.4.4.4.4.4.4.4.4.4.4.4.4.4.4.4.4.4.} 4 t.N.N.z.c.c.n.c.c.c.c.c.c.v.c.c.x.N.n.r.4 } 4.4.4.4.4.4.4.4.4.4.4.4.4.4.4.4.4.4.4.4.4.",
"4.4.4.4.4.4.4.4.4.4.4.4.4.4.4.4.4.4.4.*.O.2 t.V.k.n.n.n.n.n.n.n.n.n.n.n.n.k.Z.r.@ o.4.4.4.4.4.4.4.4.4.4.4.4.4.4.4.4.4.4.4.4.4.4.",
"4.4.4.4.4.4.4.4.4.4.4.4.4.4.4.4.4.4.4.4.4.o.6 t.A.Z.Z.n.k.k.l.k.k.k.n.Z.Z.A.w.@ o.4.4.4.4.4.4.4.4.4.4.4.4.4.4.4.4.4.4.4.4.4.4.4.",
"4.4.4.4.4.4.4.4.4.4.4.4.4.4.4.4.4.4.4.4.4.4.E W +.^ ~ r.j.s.s.s.s.k.r.~ ^ +.W W 4.4.*.4.4.4.4.4.4.4.4.4.4.4.4.4.4.4.4.4.4.4.4.4.",
"4.4.4.4.4.4.4.4.4.4.4.4.4.4.4.4.4.4.4.4.4.*.4.4.Y D u w.l.f.s.s.d.x.w.V S Y 4.4.*.4.4.4.4.4.4.4.4.4.4.4.4.4.4.4.4.4.4.4.4.4.4.4.",
"4.4.4.4.4.4.4.4.4.4.4.4.4.4.4.4.4.4.4.4.4.4.4.j ^ C.C.M.v.M.M.M.m.c.M.C.C.^ p 4.*.4.4.4.4.4.4.4.4.4.4.4.4.4.4.4.4.4.4.4.4.4.4.4.",
"4.4.4.4.4.4.4.4.4.4.4.4.4.4.4.4.4.4.4.4.4.4.4.B K B.z.n.v.c.v.m.c.M.n.x.B.K B 4.4.4.4.4.4.4.4.4.} 4.W 4.4.4.4.4.4.4.4.4.4.4.4.4.",
"4.4.4.4.4.4.4.4.4.4.4.4.4.4.4.4.4.4.4.4.4.4.B ! s.n.j.x.M.n.g.k.n.M.n.g.n.f.^ U *.4.4.4.4.4.4.4.4.} 4.4.4.4.4.4.4.4.4.4.4.4.4.4.",
"4.4.4.4.4.4.4.4.4.4.4.4.4.4.4.4.4.4.4.4.4.4.@ 9.A.l.g.c.z.d.d.z.n.n.c.g.l.A.e.. *.4.4.4.4.4.4.4.4.4.4.4.4.4.4.4.4.4.4.4.4.4.4.4.",
"4.4.4.4.4.4.4.4.4.4.4.4.4.4.4.4.4.4.4.4.4.*.* 8.A.V.j.c.f.u.l.B.k.g.c.g.V.g.^ Y *.4.4.4.4.4.4.4.4.4.4.4.4.4.4.4.4.4.4.4.4.4.4.4.",
"4.4.4.4.4.4.4.4.4.4.4.4.4.4.4.4.4.4.4.4.4.*.t 6.c.d.g.c.h.s.j.j.s.g.v.k.l.G T 4.4.4.4.4.4.4.4.4.4.4.4.4.4.4.4.4.4.4.4.4.4.4.4.4.",
"4.4.4.4.4.4.4.4.4.4.4.4.4.4.4.4.4.4.4.4.4.4.*.U 2 S f.B.V.N.d.d.N.B.C.f.D R 4.*.4.4.4.4.4.4.4.4.4.4.4.4.4.4.4.4.4.4.4.4.4.4.4.4.",
"4.4.4.4.4.4.4.4.4.4.4.4.4.4.4.4.4.4.4.4.4.*.*.%.i 1 f.A.r.G H H G r.A.f.; | 4.*.4.4.4.4.4.4.4.4.4.4.4.4.4.4.4.4.4.4.4.4.4.4.4.4.",
"4.4.4.4.4.4.4.4.4.4.4.4.4.4.4.4.4.4.4.4.4.4.*.4.X.u V.p.u Y B B Y u p.B.a } *.4.4.4.4.4.4.4.4.4.4.4.4.4.4.4.4.4.4.4.4.4.4.4.4.4.",
"4.4.4.4.4.4.4.4.4.4.4.4.4.4.4.4.4.4.4.4.4.4.4.4.} 3 q.Z ..*.4.4.4.X.Z q.4 } 4.4.4.4.4.4.4.4.4.4.4.4.4.4.4.4.4.4.4.4.4.4.4.4.4.4.",
"4.4.4.4.4.4.4.4.4.4.4.4.4.4.4.4.4.4.4.4.4.4.4.4...- X X.4.*.4.4.*.4.X.. * X.4.4.4.4.4.4.4.4.4.4.4.4.4.4.4.4.4.4.4.4.4.4.4.4.4.4.",
"4.4.4.4.4.4.4.4.4.4.4.4.4.4.4.4.4.4.4.4.4.4.4.4.*.*.4.4.4.4.4.4.4.4.4.4.*.4.4.4.4.4.4.4.4.4.4.4.4.4.4.4.4.4.4.4.4.4.4.4.4.4.4.4.",
"4.4.4.4.4.4.4.4.4.4.4.4.4.4.4.4.4.4.4.4.4.4.4.4.4.4.4.4.4.4.4.4.4.4.4.4.4.4.4.4.4.4.4.4.4.4.4.4.4.4.4.4.4.4.4.4.4.4.4.4.4.4.4.4.",
"4.4.4.4.4.4.4.4.4.4.4.4.4.4.4.4.4.4.4.4.4.4.4.4.4.4.4.4.4.4.4.4.4.4.4.4.4.4.4.4.4.4.4.4.4.4.4.4.4.4.4.4.4.4.4.4.4.4.4.4.4.4.4.4.",
"4.4.4.4.4.4.4.4.4.4.4.4.4.4.4.4.4.4.4.4.4.4.4.4.4.4.4.4.4.4.4.4.4.4.4.4.4.4.4.4.4.4.4.4.4.4.4.4.4.4.4.4.4.4.4.4.4.4.4.4.4.4.4.4.",
"4.4.4.4.4.4.4.4.4.4.4.4.4.4.4.4.4.4.4.4.4.4.4.4.4.4.4.4.4.4.4.4.4.4.4.4.4.4.4.4.4.4.4.4.4.4.4.4.4.4.4.4.4.4.4.4.4.4.4.4.4.4.4.4.",
"4.4.4.4.4.4.4.4.4.4.4.4.4.4.4.4.*.*.4.4.4.4.4.4.4.4.4.4.4.4.4.4.4.4.4.4.4.4.4.4.4.4.4.4.4.4.4.4.4.4.4.4.4.4.4.4.4.4.4.4.4.4.4.4.",
"4.4.4.4.4.4.4.4.4.4.4.4.4.4.4.4. .*. .4.4.4.4.4.4.4.4.4.4.4.4.4.4.4.4.4.4.4.4.4.4.4.4.4.4.4.4.4.4.4.4.4.4.4.4.4.4.4.4.4.4.4.4.4.",
"4.4.4.4.4.4.4.4.4.4.4.4.4.4.4.4.4.| 4.4.4.4.4.4.4.4.4.4.4.4.4.4.4.4.4.4.4.4.4.4.4.4.4.4.4.4.4.4.4.4.4.4.4.4.4.4.4.4.4.4.4.4.4.4.",
"4.4.4.4.4.4.4.4.4.4.4.4.4.4.4.4.4.4.4.4.4.4.4.4.4.4.4.4.4.4.4.4.4.4.4.4.4.4.4.4.4.4.4.4.4.4.4.4.4.4.4.4.4.4.4.4.4.4.4.4.4.4.4.4.",
"4.4.4.4.4.4.4.4.4.4.4.4.4.4.4.4.4.4.4.4.4.4.4.4.4.4.4.4.4.4.4.4.4.4.4.4.4.4.4.4.4.4.4.4.4.4.4.4.4.4.4.4.0.*.4.4.4.4.4.4.4.4.4.4.",
"4.4.4.4.4.4.4.4.4.4.4.4.4.4.4.4.4.4.4.4.4.4.4.4.4.4.4.4.4.4.4.4.4.4.4.4.4.4.4.4.4.4.4.4.4.4.4.4.4.4.4.4.4.4.4.4.4.4. .4. .4.4.4.",
"4.4.4.4.4.4.4.4.4.4.4.4.4.4.4.4.4.4.4.4.4.4.4.4.4.4.4.4.4.4.4.4.4.4.4.4.4.4.4.4.4.4.4.4.4.4.4.4.4.4.4.4.4.4.4.4.4.4.*.} 4.4.4.4.",
"4.4.4.4.4.4.4.4.4.4.4.4.4.4.4.4.4.4.4.4.4.4.4.4.4.4.4.4.4.4.4.4.4.4.4.4.4.4.4.4.4.4.4.4.4.4.4.4.4.4.4.4.4.4.4.4.4.4.4.4.4.4.4.4.",
"4.4.4.4.4.4.4.4.4.4.4.4.4.4.4.4.4.4.4.4.4.4.4.4.4.4.4.4.4.4.4.4.4.4.4.4.4.4.4.4.4.4.4.4.4.4.4.4.4.4.4.4.4.4.4.4.4.4.4.4.4.4.4.4.",
"4.4.4.4.4.4.4.4.4.4.4.4.4.4.4.4.4.4.4.4.4.4.4.4.4.4.4.4.4.4.4.4.4.4.4.4.4.4.4.4.4.4.4.4.4.4.4.4.4.4.4.4.4.4.4.4.4.4.4.4.4.4.4.4."
};
