/* XPM */
static char *result[] = {
/* columns rows colors chars-per-pixel */
"64 64 184 2 ",
"   c #090D07",
".  c #1E0E03",
"X  c #1C1305",
"o  c #1F1807",
"O  c #1A170B",
"+  c #100F12",
"@  c #121115",
"#  c #161C15",
"$  c #1B1D1B",
"%  c #241607",
"&  c #251E0C",
"*  c #2C1E0C",
"=  c #231C13",
"-  c #1B2515",
";  c #1E241D",
":  c #26200D",
">  c #2C210A",
",  c #2D2512",
"<  c #2A2916",
"1  c #20271F",
"2  c #212F1D",
"3  c #362D1A",
"4  c #34321D",
"5  c #3D311C",
"6  c #1E1D21",
"7  c #1F2121",
"8  c #212521",
"9  c #262724",
"0  c #29292B",
"q  c #253521",
"w  c #293524",
"e  c #2B322B",
"r  c #37382A",
"t  c #323334",
"y  c #3A3A3C",
"u  c #4C271B",
"i  c #433521",
"p  c #463927",
"a  c #583525",
"s  c #433C33",
"d  c #693327",
"f  c #693428",
"g  c #6D3B2D",
"h  c #723F31",
"j  c #354A2C",
"k  c #38492B",
"l  c #3D502F",
"z  c #3B4B37",
"x  c #3B5334",
"c  c #3E5836",
"v  c #3D5138",
"b  c #3F5A39",
"n  c #444129",
"m  c #57422E",
"M  c #514730",
"N  c #554934",
"B  c #584C35",
"V  c #435432",
"C  c #415D3A",
"Z  c #774938",
"A  c #6D5E3E",
"S  c #76513A",
"D  c #7A523E",
"F  c #76593F",
"G  c #44613D",
"H  c #4B673F",
"J  c #454647",
"K  c #4B4E4B",
"L  c #465D41",
"P  c #4D524C",
"I  c #4E5054",
"U  c #595A57",
"Y  c #5C5B5D",
"T  c #625742",
"R  c #6C5B42",
"E  c #7A5641",
"W  c #745B44",
"Q  c #7D5B46",
"!  c #4B6544",
"~  c #4A6B42",
"^  c #4E654A",
"/  c #577B4B",
"(  c #597D55",
")  c #75654A",
"_  c #7D674C",
"`  c #63615A",
"'  c #7B6E51",
"]  c #5F5E65",
"[  c #5D6166",
"{  c #636265",
"}  c #666568",
"|  c #68676B",
" . c #6D6C6E",
".. c #716F69",
"X. c #6D706C",
"o. c #75726C",
"O. c #6E6D73",
"+. c #727175",
"@. c #7D7D79",
"#. c #804D3C",
"$. c #806049",
"%. c #846D52",
"&. c #867459",
"*. c #867759",
"=. c #94795C",
"-. c #8F7F60",
";. c #5C8552",
":. c #628C56",
">. c #65925A",
",. c #68955C",
"<. c #6B9A5E",
"1. c #6E9E62",
"2. c #73A565",
"3. c #75A867",
"4. c #76AA69",
"5. c #79AE6B",
"6. c #7CB26E",
"7. c #7EB670",
"8. c #7FB871",
"9. c #948566",
"0. c #998264",
"q. c #968867",
"w. c #95866A",
"e. c #9B8B6A",
"r. c #82807A",
"t. c #9F9375",
"y. c #A28C6C",
"u. c #A49576",
"i. c #AF9E7A",
"p. c #B19F7A",
"a. c #80B771",
"s. c #82BB73",
"d. c #B4A179",
"f. c #807F80",
"g. c #888683",
"h. c #8B8C8C",
"j. c #969188",
"k. c #938E92",
"l. c #949395",
"z. c #9B9A9A",
"x. c #A6889D",
"c. c #ACA089",
"v. c #A5A29D",
"b. c #9B9BA3",
"n. c #A5A5A7",
"m. c #A6A6A9",
"M. c #AAABAB",
"N. c #B1A9AF",
"B. c #ACACB3",
"V. c #B0AFB8",
"C. c #AFB2B7",
"Z. c #B2B3B4",
"A. c #B6B6BA",
"S. c #BBBBBC",
"D. c #BBBBC1",
"F. c #C9BAC4",
"G. c #CCCBCC",
"H. c #DBD6C8",
"J. c #CECDD4",
"K. c #D8C5D2",
"L. c #D4D4D4",
"P. c #D6D5DE",
"I. c #D8D7DF",
"U. c #DBDBDC",
"Y. c #E6E4DF",
"T. c #DCDBE1",
"R. c #DFE0E2",
"E. c #E6E6E6",
"W. c #E8E1E6",
"Q. c #E8E8E7",
"!. c #E4E4EB",
"~. c #EAE4EA",
"^. c #EBEBEB",
"/. c #F3E6EF",
"(. c #ECF0ED",
"). c #F0F0EF",
"_. c #EBEAF1",
"`. c #F4EBF2",
"'. c #FCEDF8",
"]. c #EEF3F0",
"[. c #F4F4F4",
"{. c #F5F5F9",
"}. c #FBF5FC",
"|. c #FDFDFD",
/* pixels */
"s.s.s.s.s.s.s.s.s.s.s.s.s.s.s.s.s.s.s.s.s.s.s.s.s.s.s.s.s.s.s.s.s.s.s.s.s.s.s.s.s.s.s.s.s.s.s.s.s.s.s.s.s.s.s.s.s.s.s.s.s.s.s.s.",
"s.s.s.s.s.s.s.s.s.s.s.s.s.s.s.s.s.s.s.s.s.s.s.s.s.s.s.s.s.s.s.s.s.s.s.s.s.s.s.s.s.s.s.s.s.s.s.s.s.s.s.s.s.s.s.s.s.s.s.s.s.s.s.s.",
"s.s.s.s.s.s.s.s.s.s.s.s.s.s.s.s.s.s.s.s.s.s.s.s.s.s.s.s.s.s.s.s.s.s.s.s.s.s.s.s.s.s.s.s.s.s.s.s.s.s.s.s.s.s.s.s.s.s.s.s.s.s.s.s.",
"s.s.s.s.s.s.s.s.s.s.s.s.s.s.s.s.s.s.s.s.s.s.s.s.s.s.s.s.s.s.s.s.s.s.s.s.s.s.s.s.s.s.s.s.s.s.s.s.s.s.s.s.s.s.s.s.s.s.s.s.s.s.s.s.",
"s.s.s.s.s.s.s.s.s.s.s.s.s.s.s.s.s.s.s.s.s.s.s.s.s.s.s.s.s.s.s.( s.;.s.s.s.s.s.s.s.s.s.s.s.s.s.s.s.s.s.s.s.s.s.s.s.s.s.s.s.s.s.s.",
"s.s.s.s.s.s.s.s.s.s.s.s.s.s.s.s.s.s.s.s.s.s.s.s.s.s.s.s.s.s.s.s.( s.s.s.s.s.s.s.s.s.s.s.s.s.s.s.s.s.s.s.s.s.s.s.s.s.s.s.s.s.s.s.",
"s.s.s.s.s.s.s.s.s.s.s.s.s.s.s.s.s.s.s.s.s.s.s.s.s.s.s.s.s.s.s.s.s.s.s.s.s.s.s.s.s.s.s.s.s.s.s.s.s.s.s.s.s.s.s.s.s.s.s.s.s.s.s.s.",
"s.s.s.s.s.s.s.s.s.s.s.s.s.s.s.s.s.s.s.s.s.s.s.s.s.s.s.s.s.s.s.s.s.s.s.s.s.s.s.s.s.s.s.s.s.s.s.s.s.s.s.s.s.s.s.s.s.s.s.s.s.s.s.s.",
"s.s.s.s.s.s.s.s.s.s.s.s.s.s.s.s.s.s.s.s.s.s.s.s.s.s.s.s.s.s.s.s.s.s.s.s.s.s.s.s.s.s.s.s.s.s.s.s.s.s.s.s.s.s.s.s.s.s.s.s.s.s.s.s.",
"s.s.s.s.s.s.s.s.s.s.s.s.s.s.s.s.s.s.s.s.s.s.s.s.s.s.s.s.s.s.s.s.s.s.s.s.s.s.s.s.s.s.s.s.s.s.s.s.s.s.s.s.s.s.s.s.s.s.s.s.s.s.s.s.",
"s.s.s.s.s.s.s.s.s.s.s.s.s.s.s.s.s.s.s.s.s.s.s.s.s.8.s.s.s.s.a.s.8.s.s.s.s.s.s.s.s.s.s.s.s.s.s.s.s.s.s.s.s.s.s.s.s.s.s.s.s.s.s.s.",
"s.s.s.s.s.s.s.s.s.s.s.s.s.s.s.s.s.s.s.s.s.s.s.s.s.s.;.j / s.s.a.s.6.b v 4.s.s.s.s.s.s.s.s.s.s.s.s.s.s.s.s.s.s.s.s.s.s.s.s.s.s.s.",
"s.s.s.s.s.s.s.s.s.s.s.s.s.s.s.s.s.s.s.s.s.s.s.s.s.<.P +.P ,.s.s.6.^ } } ^ 6.s.s.s.s.s.s.s.s.s.s.s.s.s.s.s.s.s.s.s.s.s.s.s.s.s.s.",
"s.s.s.s.s.s.s.s.s.s.s.s.s.s.s.s.s.s.s.s.s.s.s.s.2.; Z.|.S.1 2.s.b { ).{.X.l s.s.s.s.s.s.s.s.s.s.s.s.s.s.s.s.s.s.s.s.s.s.s.s.s.s.",
"s.s.s.s.s.s.s.s.s.s.s.s.s.s.s.s.s.s.s.s.s.s.s.s.4.; M.|.Z.8 3.6.H ] ].{.} c s.s.s.s.s.s.s.s.s.s.s.s.s.s.s.s.s.s.s.s.( s.;.s.s.s.",
"s.s.s.s.s.s.s.s.s.s.s.s.s.s.s.s.s.s.s.s.s.s.s.s.8.9 M.|.Z.$ w j - U ^.{.} H s.8.s.s.s.s.s.s.s.s.s.s.s.s.s.s.s.s.s.s.s.( s.s.s.s.",
"s.s.s.s.s.s.s.s.s.s.s.s.s.s.s.s.s.s.s.s.8.s.s.7.V @ m.|.C.@ M A = K [.{.{ - :.s.s.s.s.s.s.s.s.s.s.s.s.s.s.s.s.s.s.s.s.s.s.s.s.s.",
"s.s.s.s.s.s.s.s.s.s.s.s.s.s.s.s.s.s.s.s.s.1.:.! i @ B.|.v.s 9.p.T U Y.}.[ O p :.;.5.s.s.s.s.s.s.s.s.s.s.s.s.s.s.s.s.s.s.s.s.s.s.",
"s.s.s.s.s.s.s.s.s.s.s.s.s.s.s.s.s.s.s.4.5.k & i $.9 m.H.e.9.9.9.9.9.c.E.[ p F : , / 6.5.s.s.s.s.s.s.s.s.s.s.s.s.s.s.s.s.s.s.s.s.",
"s.s.s.s.s.s.s.s.s.s.s.s.s.s.s.s.s.s.1.= : R B * Z W w.u.w.e.9.9.9.9.w.t.&.D a > _ p O l a.s.s.s.s.s.s.s.s.s.s.s.s.s.s.s.s.s.s.s.",
"s.s.s.s.s.s.s.s.s.s.s.s.s.s.s.s.s.;.n ) R =.M . h D S S E E E E E E D S S #.u o %._ ) B x 5.s.s.s.s.s.s.s.s.s.s.s.s.s.s.s.s.s.s.",
"s.s.s.s.s.s.s.s.s.s.s.s.s.s.s.s.s.j N d.y.0.R m S g d d f f f f f f f f d Z S B *.0.i.9.& <.s.s.s.s.s.s.s.s.s.s.s.s.s.s.s.s.s.s.",
"s.s.s.s.s.s.s.s.s.s.s.s.s.s.s.s.s.;.r ' 9.e.y.0.%.Q D E E E D E E E E E S Q 0.u.e.e.9.M x 4.s.s.s.s.s.s.s.s.s.s.s.s.s.s.s.s.s.s.",
"s.s.s.s.s.s.s.;.s.( s.s.s.s.s.s.s.s.,.< ' 9.&.-.9.9.q.9.9.e.9.9.w.9.9.q.q.9.9.*.*.q.B k 8.s.s.s.s.s.s.s.s.s.s.s.s.s.s.s.s.s.s.s.",
"s.s.s.s.s.s.s.s.;.s.s.s.s.s.s.s.s.s.s.,.4 3 o 5 0.e.e.q.e.e.e.e.e.e.e.e.e.y.) o , 5 V 8.8.s.8.s.s.s.s.s.s.s.s.s.s.s.s.s.s.s.s.s.",
"s.s.s.s.s.s.s.s.s.s.s.s.s.s.s.s.s.8.s.s.3.q U j.% > > > > > > > > > > > > X N z.@ ! 8.s.s.s.s.s.s.s.s.s.s.s.s.s.s.s.s.s.s.s.s.s.",
"s.s.s.s.s.s.s.s.s.s.s.s.s.s.s.s.s.s.s.6.;.Y I.^...o.o.r.g.o.o.o.o.o.o.g.@.` v.|.b.^ 2.s.s.s.s.s.s.s.s.s.s.s.s.s.s.s.s.s.s.s.s.s.",
"s.s.s.s.s.s.s.s.s.s.s.s.s.s.s.s.s.s.s.3.# D.|.^.|.|.|.R.L.|.|.|.|.|.|.G.^.|.}.Q.|.+.j s.s.s.s.s.s.s.s.s.s.s.s.s.s.s.s.s.s.s.s.s.",
"s.s.s.s.s.s.s.s.s.s.s.s.s.s.s.s.s.s.s.4.; m.|.Q.Q.E.|. .t [.^.E.Q.[.L.8 l.|.^.^.[.} c s.s.s.s.s.s.s.s.s.s.s.s.s.s.s.s.s.s.s.s.s.",
"s.s.s.s.s.s.s.s.s.s.s.s.s.s.s.s.s.s.s.4.8 b.{.Q.E.Q.|.+.y ^.^.E.Q.[.L.0 l.|.E.E.!.{ c 8.s.s.s.s.s.s.s.s.s.s.s.s.s.s.s.s.s.s.s.s.",
"s.s.s.s.s.s.s.s.s.s.s.s.s.s.s.s.s.s.s.4.8 b.{.Q.Q.E.|.{ 0 ).^.[.^.[.L.@ h.|.Q.^.!.[ G s.s.s.s.s.s.s.s.s.s.s.s.s.s.s.s.s.s.s.s.s.",
"s.s.s.s.s.s.s.s.s.s.s.s.s.s.s.s.s.s.s.3.; B.|.Q.E.Q.{.N.k.).|.F.K.|.U.g.F.[.E.^.{.O.z s.s.s.s.s.s.s.s.s.s.s.s.s.s.s.s.s.s.s.s.s.",
"s.s.s.s.s.s.s.s.s.s.s.s.s.s.s.s.s.s.s.6.v O.U.{.Q.Q.~.}.|.E.M.x.x.Z.^.|.'.W.(.^.B.J / s.s.s.s.s.s.s.s.s.s.s.s.s.s.s.s.s.s.s.s.s.",
"s.s.s.s.s.s.s.s.s.s.s.s.s.s.s.s.s.s.8.s.s.z | !.^.^././.`.L.t A.l.J ).[.`.`.^.V.; :.s.8.s.s.s.s.s.s.s.s.s.s.s.s.s.s.s.s.s.s.s.s.",
"s.s.s.s.s.s.s.s.s.s.s.s.s.s.s.s.s.s.s.s.8.s.v +.[.{.[.^.Q.E.G.R.U.J.^.{.{.|.A.$ :.s.s.s.s.s.s.s.s.s.s.s.s.s.s.s.s.s.s.s.s.s.s.s.",
"s.s.s.s.s.s.s.s.s.s.s.s.s.s.s.s.s.s.s.s.8.s.6.L | } y h.{.^.[.^.(.{.L.U P +.K :.s.s.8.s.s.s.s.s.s.s.s.s.s.s.s.s.s.s.s.s.s.s.s.s.",
"s.s.s.s.s.s.s.s.s.s.s.s.s.s.s.s.s.s.s.s.s.7.s.s.G   t Z.[.E.E.E.E.^.U.@.+ ; 1.s.s.8.s.s.s.s.s.s.s.s.s.s.s.s.s.s.s.s.s.s.s.s.s.s.",
"s.s.s.s.s.s.s.s.s.s.s.s.s.s.s.s.s.s.s.s.s.s.s.a.,.P L.|.R.R.E.R.R.E.Q.|.z.L 6.s.s.s.s.s.s.s.s.s.s.s.s.s.s.s.s.s.s.s.s.s.s.s.s.s.",
"s.s.s.s.s.s.s.s.s.s.s.s.s.s.s.s.s.s.s.s.s.s.s.:.t L.{.E.Q.Q.Q.E.Q.Q.Q.E.|.l.2 s.s.s.s.s.s.s.s.s.s.s.s.s.s.s.s.s.s.s.s.s.s.s.s.s.",
"s.s.s.s.s.s.s.s.s.s.s.s.s.s.s.s.s.s.s.s.s.a.s.>.0 L._.U.Q.Q.Q.Q.E.Q.E.P.|.h.q s.s.s.s.s.s.s.s.s.;.s.( s.s.s.s.s.s.s.s.s.s.s.s.s.",
"s.s.s.s.s.s.s.s.s.s.s.s.s.s.s.s.s.s.s.s.s.s.;.P Z.E.T.T.Q.Q.Q.E.Q.Q.E.T.^.U.@.v 4.s.s.s.s.s.s.s.s.;.s.s.s.s.s.s.s.s.s.s.s.s.s.s.",
"s.s.s.s.s.s.s.s.s.s.s.s.s.s.s.s.s.s.s.s.s.s.j +.|.[.P.T.Q.Q.E.Q.E.Q.T.T.T.|.G.6 1.s.s.s.s.s.s.s.s.s.s.s.s.s.s.s.s.s.s.s.s.s.s.s.",
"s.s.s.s.s.s.s.s.s.s.s.s.s.s.s.s.s.s.s.s.s.s.;.K S.(.R.U.^.Q.E.E.E.Q.E.T.~.|.D.7 2.s.s.s.s.s.s.s.s.s.s.s.s.s.s.s.s.s.s.s.s.s.s.s.",
"s.s.s.s.s.s.s.s.s.s.s.s.s.s.s.s.s.s.s.s.s.8.8.,.t S.!.R.Q.^.^.^.^.^.R.T.L.E.m.e 2.s.s.s.s.s.s.s.s.s.s.s.s.s.s.s.s.s.s.s.s.s.s.s.",
"s.s.s.s.s.s.s.s.s.s.s.s.s.s.s.s.s.s.s.s.s.8.s.s.<.e C.{.(.].{.].[.[.[.[.O.0 z 4.8.s.s.s.s.s.s.s.s.s.s.s.s.s.s.s.s.s.s.s.s.s.s.s.",
"s.s.s.s.s.s.s.s.s.s.s.s.s.s.s.s.s.s.s.s.s.s.8.s.6.; n.|.J.[ [ [ { U +.|.+.q 2.s.s.8.s.s.s.s.s.s.s.s.s.s.s.s.s.s.s.s.s.s.s.s.s.s.",
"s.s.s.s.s.s.s.s.s.s.s.s.s.s.s.s.s.s.s.s.s.s.s.s.4.; G.(.I G C C b ! b f.U b s.8.s.s.s.s.s.s.s.s.s.s.s.s.s.s.s.s.s.s.s.s.s.s.s.s.",
"s.s.s.s.s.s.s.s.s.s.s.s.s.s.s.s.s.s.s.s.s.s.s.s.4.9 l.X.~ s.s.s.8.s.8.z q ( s.s.s.s.s.s.s.s.s.s.s.s.s.s.s.s.s.s.s.s.s.s.s.s.s.s.",
"s.s.s.s.s.s.s.s.s.s.s.s.s.s.s.s.s.s.s.s.s.s.s.s.4.e 7 ~ s.8.s.s.s.s.s.s.s.s.s.s.s.s.s.s.s.s.s.s.s.s.s.s.s.s.s.s.s.s.s.s.s.s.s.s.",
"s.s.s.s.s.s.s.s.s.s.s.s.s.s.s.s.s.s.s.s.s.s.s.s.s.s.s.8.s.s.s.s.s.s.s.s.s.s.s.s.s.s.s.s.s.s.s.s.s.s.s.s.s.s.s.s.s.s.s.s.s.s.s.s.",
"s.s.s.s.s.s.s.s.s.s.s.s.s.s.s.s.s.s.s.s.s.s.s.s.s.s.s.s.s.s.s.s.s.s.s.s.s.s.s.s.s.s.s.s.s.s.s.s.s.s.s.s.s.s.s.s.s.s.s.s.s.s.s.s.",
"s.s.s.s.s.s.s.s.s.s.s.s.s.s.s.s.s.s.s.s.s.s.s.s.s.s.s.s.s.s.s.s.s.s.s.s.s.s.s.s.s.s.s.s.s.s.s.s.s.s.s.s.s.s.s.s.s.s.s.s.s.s.s.s.",
"s.s.s.s.s.s.s.s.s.s.s.s.s.s.s.s.s.s.s.s.s.s.s.s.s.s.s.s.s.s.s.s.s.s.s.s.s.s.s.s.s.s.s.s.s.s.s.s.s.s.s.s.s.s.s.s.s.s.s.s.s.s.s.s.",
"s.s.s.s.s.s.s.s.s.s.s.s.s.s.s.s.s.s.s.s.s.s.s.s.s.s.s.s.s.s.s.s.s.s.s.s.s.s.s.s.s.s.s.s.s.s.s.s.s.s.s.s.s.s.s.s.s.s.s.s.s.s.s.s.",
"s.s.s.s.s.s.s.s.s.s.s.s.s.s.s.s.s.s.s.s.s.s.s.s.s.s.s.s.s.s.s.s.s.s.s.s.s.s.s.s.s.s.s.s.s.s.s.s.s.s.s.s.s.s.s.s.s.s.s.s.s.s.s.s.",
"s.s.s.s.s.s.s.s.s.s.s.s.s.s.s.s.;.s.:.s.s.s.s.s.s.s.s.s.s.s.s.s.s.s.s.s.s.s.s.s.s.s.s.s.s.s.s.s.s.s.s.s.s.s.s.s.s.s.s.s.s.s.s.s.",
"s.s.s.s.s.s.s.s.s.s.s.s.s.s.s.s.s.;.j.s.s.s.s.s.s.s.s.s.s.s.s.s.s.s.s.s.s.s.s.s.s.s.s.s.s.s.s.s.s.s.s.s.s.s.s.s.s.s.s.s.s.s.s.s.",
"s.s.s.s.s.s.s.s.s.s.s.s.s.s.s.s.s.s.s.s.s.s.s.s.s.s.s.s.s.s.s.s.s.s.s.s.s.s.s.s.s.s.s.s.s.s.s.s.s.s.s.s.s.s.s.s.s.s.s.s.s.s.s.s.",
"s.s.s.s.s.s.s.s.s.s.s.s.s.s.s.s.s.s.s.s.s.s.s.s.s.s.s.s.s.s.s.s.s.s.s.s.s.s.s.s.s.s.s.s.s.s.s.s.s.s.s.s.s.s.s.s.s.s.s.s.s.s.s.s.",
"s.s.s.s.s.s.s.s.s.s.s.s.s.s.s.s.s.s.s.s.s.s.s.s.s.s.s.s.s.s.s.s.s.s.s.s.s.s.s.s.s.s.s.s.s.s.s.s.s.s.s.s.s.s.s.s.s.s.( s.( s.s.s.",
"s.s.s.s.s.s.s.s.s.s.s.s.s.s.s.s.s.s.s.s.s.s.s.s.s.s.s.s.s.s.s.s.s.s.s.s.s.s.s.s.s.s.s.s.s.s.s.s.s.s.s.s.s.s.s.s.s.s.s.( s.s.s.s.",
"s.s.s.s.s.s.s.s.s.s.s.s.s.s.s.s.s.s.s.s.s.s.s.s.s.s.s.s.s.s.s.s.s.s.s.s.s.s.s.s.s.s.s.s.s.s.s.s.s.s.s.s.s.s.s.s.s.s.s.s.s.s.s.s.",
"s.s.s.s.s.s.s.s.s.s.s.s.s.s.s.s.s.s.s.s.s.s.s.s.s.s.s.s.s.s.s.s.s.s.s.s.s.s.s.s.s.s.s.s.s.s.s.s.s.s.s.s.s.s.s.s.s.s.s.s.s.s.s.s.",
"s.s.s.s.s.s.s.s.s.s.s.s.s.s.s.s.s.s.s.s.s.s.s.s.s.s.s.s.s.s.s.s.s.s.s.s.s.s.s.s.s.s.s.s.s.s.s.s.s.s.s.s.s.s.s.s.s.s.s.s.s.s.s.s."
};
