/* XPM */
static char *result[] = {
/* columns rows colors chars-per-pixel */
"64 64 151 2 ",
"   c #020202",
".  c #080907",
"X  c #0A0E0A",
"o  c #120D05",
"O  c #0F110F",
"+  c #151107",
"@  c #1A1304",
"#  c #13110C",
"$  c #1E1C0E",
"%  c #121312",
"&  c #141B12",
"*  c gray11",
"=  c #231C0B",
"-  c #1B2718",
";  c #1E2918",
":  c #32230D",
">  c #2A2412",
",  c #2C2A16",
"<  c #362A12",
"1  c #3A2E15",
"2  c #342C18",
"3  c #3C331E",
"4  c #242524",
"5  c #262D24",
"6  c #2B2C2B",
"7  c #31222C",
"8  c #293B24",
"9  c #3D3523",
"0  c #3B3B24",
"q  c gray21",
"w  c #3B3B3B",
"e  c #562F21",
"r  c #413620",
"t  c #4C3F29",
"y  c #5B3325",
"u  c #442E3D",
"i  c #693327",
"p  c #693428",
"a  c #2E4229",
"s  c #30452A",
"d  c #334030",
"f  c #364C30",
"g  c #394F30",
"h  c #3D5533",
"j  c #3F5A38",
"k  c #4D4229",
"l  c #42453E",
"z  c #5C4D35",
"x  c #445131",
"c  c #415A35",
"v  c #425A3B",
"b  c #744434",
"n  c #744C37",
"m  c #7A4837",
"M  c #7A4738",
"N  c #764C3A",
"B  c #64553D",
"V  c #73503C",
"C  c #7A523E",
"Z  c #49643D",
"A  c #333740",
"S  c #474847",
"D  c #4A4944",
"F  c #434548",
"G  c #4E4E4E",
"H  c #534E46",
"J  c #56544E",
"K  c #4E4F51",
"L  c #535353",
"P  c #5B5750",
"I  c #565B54",
"U  c #5B5C54",
"Y  c #5D5D5D",
"T  c #6D5B43",
"R  c #7C5642",
"E  c #7E5E48",
"W  c #615E56",
"Q  c #486640",
"!  c #4C6C43",
"~  c #4F7246",
"^  c #507246",
"/  c #53774A",
"(  c #567B4C",
")  c #587D4D",
"_  c #597D55",
"`  c #6F6247",
"'  c #7A644A",
"]  c #796B4F",
"[  c #7E6E52",
"{  c #636363",
"}  c #6D6961",
"|  c #6B6B6B",
" . c #717171",
".. c #7C7C7C",
"X. c #815441",
"o. c #816C51",
"O. c #896F55",
"+. c #867657",
"@. c #8D7558",
"#. c #8A7B5C",
"$. c #917A5D",
"%. c #927E60",
"&. c #59814E",
"*. c #5C8452",
"=. c #5F8854",
"-. c #608753",
";. c #618A55",
":. c #669259",
">. c #69975D",
",. c #6C9C5F",
"<. c #6D9D60",
"1. c #72A364",
"2. c #76AA69",
"3. c #79AE6B",
"4. c #7DB46E",
"5. c #7FB671",
"6. c #7FB871",
"7. c #938464",
"8. c #9C8365",
"9. c #9E8D6D",
"0. c #9F906F",
"q. c #A38D6C",
"w. c #A4906F",
"e. c #A59271",
"r. c #A89674",
"t. c #B29F7B",
"y. c #80B771",
"u. c #82BB73",
"i. c #838383",
"p. c #888888",
"a. c #929292",
"s. c #9D9D9E",
"d. c #A4A4A4",
"f. c #ABABAC",
"g. c #AFB1B0",
"h. c #B5B5B5",
"j. c #BBBBBB",
"k. c #C397B5",
"l. c #C4BFC3",
"z. c #C4C4C4",
"x. c #CCCCCC",
"c. c LightGray",
"v. c #DBDBDB",
"b. c #E2E0D6",
"n. c #E6DBE2",
"m. c #E6E6E6",
"M. c #E8E8E7",
"N. c gray92",
"B. c #EFF0F0",
"V. c #F4F4F4",
"C. c #FCFCFC",
/* pixels */
"u.u.u.u.u.u.u.u.u.u.u.u.u.u.u.u.u.u.u.u.u.u.u.u.u.u.u.u.u.u.u.u.u.u.u.u.u.u.u.u.u.u.u.u.u.u.u.u.u.u.u.u.u.u.u.u.u.u.u.u.u.u.u.u.",
"u.u.u.u.u.u.u.u.u.u.u.u.u.u.u.u.u.u.u.u.u.u.u.u.u.u.u.u.u.u.u.u.u.u.u.u.u.u.u.u.u.u.u.u.u.u.u.u.u.u.u.u.u.u.u.u.u.u.u.u.u.u.u.u.",
"u.u.u.u.u.u.u.u.u.u.u.u.u.u.u.u.u.u.u.u.u.u.u.u.u.u.u.u.u.u.u.u.u.u.u.u.u.u.u.u.u.u.u.u.u.u.u.u.u.u.u.u.u.u.u.u.u.u.u.u.u.u.u.u.",
"u.u.u.u.u.u.u.u.u.u.u.u.u.u.u.u.u.u.u.u.u.u.u.u.u.u.u.u.u.u.u.u.u.u.u.u.u.u.u.u.u.u.u.u.u.u.u.u.u.u.u.u.u.u.u.u.u.u.u.u.u.u.u.u.",
"u.u.u.u.u.u.u.u.u.u.u.u.u.u.u.u.u.u.u.u.u.u.u.u.u.u.u.u.u.u.u.*.u._ u.u.u.u.u.u.u.u.u.u.u.u.u.u.u.u.u.u.u.u.u.u.u.u.u.u.u.u.u.u.",
"u.u.u.u.u.u.u.u.u.u.u.u.u.u.u.u.u.u.u.u.u.u.u.u.u.u.u.u.u.u.u.u._ u.u.u.u.u.u.u.u.u.u.u.u.u.u.u.u.u.u.u.u.u.u.u.u.u.u.u.u.u.u.u.",
"u.u.u.u.u.u.u.u.u.u.u.u.u.u.u.u.u.u.u.u.u.u.u.u.u.u.u.u.u.u.u.u.u.u.u.u.u.u.u.u.u.u.u.u.u.u.u.u.u.u.u.u.u.u.u.u.u.u.u.u.u.u.u.u.",
"u.u.u.u.u.u.u.u.u.u.u.u.u.u.u.u.u.u.u.u.u.u.u.u.u.u.u.u.u.u.u.u.u.u.u.u.u.u.u.u.u.u.u.u.u.u.u.u.u.u.u.u.u.u.u.u.u.u.u.u.u.u.u.u.",
"u.u.u.u.u.u.u.u.u.u.u.u.u.u.u.u.u.u.u.u.u.u.u.u.u.u.u.u.u.u.u.u.u.u.u.u.u.u.u.u.u.u.u.u.u.u.u.u.u.u.u.u.u.u.u.u.u.u.u.u.u.u.u.u.",
"u.u.u.u.u.u.u.u.u.u.u.u.u.u.u.u.u.u.u.u.u.u.u.u.u.u.u.u.u.u.u.u.u.u.u.u.u.u.u.u.u.u.u.u.u.u.u.u.u.u.u.u.u.u.u.u.u.u.u.u.u.u.u.u.",
"u.u.u.u.u.u.u.u.u.u.u.u.u.u.u.u.u.u.u.u.u.u.u.u.u.u.u.u.u.u.u.=.X O *.u.u.u.u.u.u.u.u.u.u.u.u.u.u.u.u.u.u.u.u.u.u.u.u.u.u.u.u.u.",
"u.u.u.u.u.u.u.u.u.u.u.u.u.u.u.u.u.u.u.u.u.u.u.u.u.u.u.u.u.u./ l f.f.F / u.u.u.u.u.u.u.u.u.u.u.u.u.u.u.u.u.u.u.u.u.u.u.u.u.u.u.u.",
"u.u.u.u.u.u.u.u.u.u.u.u.u.u.u.u.u.u.u.u.u.u.u.u.u.u.6.u.u.u.a Y C.C.Y a u.u.u.6.u.u.u.u.u.u.u.u.u.u.u.u.u.u.u.u.u.u.u.u.u.u.u.u.",
"u.u.u.u.u.u.u.u.u.u.u.u.u.u.u.u.u.u.u.u.u.u.u.u.u.u.u.4.:.,.8 L V.V.L 8 1.>.5.u.u.u.6.u.u.u.u.u.u.u.u.u.u.u.u.u.u.u.u.u.u.u.u.u.",
"u.u.u.u.u.u.u.u.u.u.u.u.u.u.u.u.u.u.u.u.u.u.u.u.u.4.u.=.> ,   K V.V.L   > > =.u.5.u.u.u.u.u.u.u.u.u.u.u.u.u.u.u.u.u._ u.*.u.u.u.",
"u.u.u.u.u.u.u.u.u.u.u.u.u.u.u.u.u.u.u.u.u.6.u.u.u.c ; 0 [ +.o F V.V.S o +.[ 0 ; j u.u.u.6.u.u.u.u.u.u.u.u.u.u.u.u.u.u._ u.u.u.u.",
"u.u.u.u.u.u.u.u.u.u.u.u.u.u.u.u.u.u.y.u.u.u.>.c Z t z ] e.t.+ A C.C.A + t.e.] z k Z h >.u.u.u.u.u.u.u.u.u.u.u.u.u.u.u.u.u.u.u.u.",
"u.u.u.u.u.u.u.u.u.u.u.u.u.u.u.u.u.u.u.y.;.<.x 3 > V %.q.7.q.9 J b.b.J 9 0.8.q.%.V > 3 x <.;.y.u.u.u.u.u.u.u.u.u.u.u.u.u.u.u.u.u.",
"u.u.u.u.u.u.u.u.u.u.u.u.u.u.u.u.u.u.u.:., = B ' = y R O.7.7.%.7.7.#.7.$.7.7.O.X.y = ' B = , ;.u.u.u.u.u.u.u.u.u.u.u.u.u.u.u.u.u.",
"u.u.u.u.u.u.u.u.u.u.u.u.u.u.u.u.u.u._ 0 [ ' @.T o e M N C V R C n n C R V n N m e @ T @.' [ 0 ( u.u.u.u.u.u.u.u.u.u.u.u.u.u.u.u.",
"u.u.u.u.u.u.u.u.u.u.u.u.u.u.u.u.u.u.g k r.r.7.o.B N b i p p p p p p p p p p p b V z ] 8.e.r.k h u.u.u.u.u.u.u.u.u.u.u.u.u.u.u.u.",
"u.u.u.u.u.u.u.u.u.u.u.u.u.u.u.u.u.u.=.0 T 7.0.0.r.#.E R R R R R R R R R R R R ' $.q.9.9.7.` 0 =.u.u.u.u.u.u.u.u.u.u.u.u.u.u.u.u.",
"u.u.u.u.u.u.u.u.u.u.u.u.u.u.u.u.u.u.u.<., ` 7.#.#.7.7.7.7.7.7.7.7.7.7.7.7.7.7.7.7.#.@.7.` , ,.u.u.u.u.u.u.u.u.u.u.u.u.u.u.u.u.u.",
"u.u.u.u.u.u.u.*.u.*.u.u.u.u.u.u.u.u.u.u.<.0 r 2 9 o.e.0.0.0.9.9.0.9.9.0.9.9.e.w.o.3 2 r 0 ,.u.u.u.u.u.u.u.u.u.u.u.u.u.u.u.u.u.u.",
"u.u.u.u.u.u.u.u._ u.u.u.u.u.u.u.u.u.6.u.u.=.^ h = : < < < < < < < < < < < < 1 1 : = c ^ -.u.u.u.u.u.u.u.u.u.u.u.u.u.u.u.u.u.u.u.",
"u.u.u.u.u.u.u.u.u.u.u.u.u.u.u.u.u.u.u.u.u.u.u.<.$ D W W } U P P P P P P P P H J l $ ,.u.u.y.u.u.u.u.u.u.u.u.u.u.u.u.u.u.u.u.u.u.",
"u.u.u.u.u.u.u.u.u.u.u.u.u.u.u.u.u.u.u.u.u.u.u.=.% z.C.N.v.B.V.V.V.V.V.V.V.V.m.B.f.O ;.u.u.u.u.u.u.u.u.u.u.u.u.u.u.u.u.u.u.u.u.u.",
"u.u.u.u.u.u.u.u.u.u.u.u.u.u.u.u.u.u.u.u.u.u.u.=.% j.C.s.4 z.C.N.N.N.N.N.N.N.N.V.d.% =.u.u.u.u.u.u.u.u.u.u.u.u.u.u.u.u.u.u.u.u.u.",
"u.u.u.u.u.u.u.u.u.u.u.u.u.u.u.u.u.u.u.u.u.5.u.<.X g.C.p.  h.C.m.m.M.M.M.M.M.B.V.d.O =.u.u.u.u.u.u.u.u.u.u.u.u.u.u.u.u.u.u.u.u.u.",
"u.u.u.u.u.u.u.u.u.u.u.u.u.u.u.u.u.u.u.u.u.u.1.f u l.C.p.  h.C.m.M.m.M.M.M.M.v.N.s.% ;.u.u.u.u.u.u.u.u.u.u.u.u.u.u.u.u.u.u.u.u.u.",
"u.u.u.u.u.u.u.u.u.u.u.u.u.u.u.u.u.u.u.u.u.u.h 7 k.n.C.s.6 l.V.M.M.m.M.M.M.v.c.m.d.% ;.u.u.u.u.u.u.u.u.u.u.u.u.u.u.u.u.u.u.u.u.u.",
"u.u.u.u.u.u.u.u.u.u.u.u.u.u.u.u.u.u.u.u.u.u.j w m.B.N.n.v.m.M.M.m.m.M.N.v.x.x.m.f.% =.u.u.u.u.u.u.u.u.u.u.u.u.u.u.u.u.u.u.u.u.u.",
"u.u.u.u.u.u.u.u.u.u.u.u.u.u.u.u.u.u.u.u.u.u.f S C.V.m.N.C.N.M.M.m.m.m.v.c.x.V.f.4 ) 4.u.u.u.u.u.u.u.u.u.u.u.u.u.u.u.u.u.u.u.u.u.",
"u.u.u.u.u.u.u.u.u.u.u.u.u.u.u.u.u.u.u.u.u.u.:.d i.M.C.C.B.V.m.v.v.v.v.v.M.m.f.4 ( u.u.5.u.u.u.u.u.u.u.u.u.u.u.u.u.u.u.u.u.u.u.u.",
"u.u.u.u.u.u.u.u.u.u.u.u.u.u.u.u.u.u.u.u.u.6.u.2.- p.x.g.s.s.h.x.z.z.x.h.d.f.4 ( u.u.u.u.u.u.u.u.u.u.u.u.u.u.u.u.u.u.u.u.u.u.u.u.",
"u.u.u.u.u.u.u.u.u.u.u.u.u.u.u.u.u.u.u.u.u.6.u.u.2.5 O % O    .c.j.j.c. .  O ) 6.u.u.u.u.u.u.u.u.u.u.u.u.u.u.u.u.u.u.u.u.u.u.u.u.",
"u.u.u.u.u.u.u.u.u.u.u.u.u.u.u.u.u.u.u.u.u.u.u.u.6.>.*.<.<.% { N.x.c.V.| & >.6.u.u.u.u.u.u.u.u.u.u.u.u.u.u.u.u.u.u.u.u.u.u.u.u.u.",
"u.u.u.u.u.u.u.u.u.u.u.u.u.u.u.u.u.u.u.u.u.u.u.6.u.u.u.4.! I l.N.v.m.V.z.I Q u.<.! u.u.5.u.u.u.u.u.u.u.u.u.u.u.u.u.u.u.u.u.u.u.u.",
"u.u.u.u.u.u.u.u.u.u.u.u.u.u.u.u.u.u.u.u.u.u.u.u.u.u.u./ & v.C.v.M.M.m.C.M.K ! v w *.6.u.u.u.u.u.u.u.u.u.u.u.u.u.u.u.u.u.u.u.u.u.",
"u.u.u.u.u.u.u.u.u.u.u.u.u.u.u.u.u.u.u.u.u.u.u.u.u.u.6.*.% l.V.m.M.M.M.M.N.N.6 | v.& =.u.u.u.u.u._ u._ u.u.u.u.u.u.u.u.u.u.u.u.u.",
"u.u.u.u.u.u.u.u.u.u.u.u.u.u.u.u.u.u.u.u.u.u.u.u.u.u.u.) & j.C.m.M.m.M.v.m.V.6 | v.O &.6.u.u.u.u.u.*.u.u.u.u.u.u.u.u.u.u.u.u.u.u.",
"u.u.u.u.u.u.u.u.u.u.u.u.u.u.u.u.u.u.u.u.u.u.u.u.u.y.u.>.. h.C.M.M.M.M.N.C.C.F # I Z 2.u.u.u.u.u.u.u.u.u.u.u.u.u.u.u.u.u.u.u.u.u.",
"u.u.u.u.u.u.u.u.u.u.u.u.u.u.u.u.u.u.u.u.u.u.u.u.u.u.2.v U x.B.B.C.V.C.x.a.d.q   ; 6.u.6.u.u.u.u.u.u.u.u.u.u.u.u.u.u.u.u.u.u.u.u.",
"u.u.u.u.u.u.u.u.u.u.u.u.u.u.u.u.u.u.u.u.u.u.u.u.u.u.f G B.B.N.n.c.c.B...        - 4.u.u.u.u.u.u.u.u.u.u.u.u.u.u.u.u.u.u.u.u.u.u.",
"u.u.u.u.u.u.u.u.u.u.u.u.u.u.u.u.u.u.u.u.u.u.u.u.u.u.s K V.C.C.h.* 4 6 %         & 3.u.u.u.u.u.u.u.u.u.u.u.u.u.u.u.u.u.u.u.u.u.u.",
"u.u.u.u.u.u.u.u.u.u.u.u.u.u.u.u.u.u.u.u.u.u.u.u.u.u.1.h { { | F / ~ ~ ) j     & :.6.u.u.u.u.u.u.u.u.u.u.u.u.u.u.u.u.u.u.u.u.u.u.",
"u.u.u.u.u.u.u.u.u.u.u.u.u.u.u.u.u.u.u.u.u.u.u.u.u.6.u.2.s f 8 _ 6.u.u.u.5.h 5 =.6.u.6.u.u.u.u.u.u.u.u.u.u.u.u.u.u.u.u.u.u.u.u.u.",
"u.u.u.u.u.u.u.u.u.u.u.u.u.u.u.u.u.u.u.u.u.u.u.u.u.u.6.u.u.y.u.u.6.u.u.6.6.u.6.6.6.u.u.u.u.u.u.u.u.u.u.u.u.u.u.u.u.u.u.u.u.u.u.u.",
"u.u.u.u.u.u.u.u.u.u.u.u.u.u.u.u.u.u.u.u.u.u.u.u.u.u.u.u.u.u.u.u.u.u.u.u.u.u.u.u.u.u.u.u.u.u.u.u.u.u.u.u.u.u.u.u.u.u.u.u.u.u.u.u.",
"u.u.u.u.u.u.u.u.u.u.u.u.u.u.u.u.u.u.u.u.u.u.u.u.u.u.u.u.u.u.u.u.u.u.u.u.u.u.u.u.u.u.u.u.u.u.u.u.u.u.u.u.u.u.u.u.u.u.u.u.u.u.u.u.",
"u.u.u.u.u.u.u.u.u.u.u.u.u.u.u.u.u.u.u.u.u.u.u.u.u.u.u.u.u.u.u.u.u.u.u.u.u.u.u.u.u.u.u.u.u.u.u.u.u.u.u.u.u.u.u.u.u.u.u.u.u.u.u.u.",
"u.u.u.u.u.u.u.u.u.u.u.u.u.u.u.u.u.u.u.u.u.u.u.u.u.u.u.u.u.u.u.u.u.u.u.u.u.u.u.u.u.u.u.u.u.u.u.u.u.u.u.u.u.u.u.u.u.u.u.u.u.u.u.u.",
"u.u.u.u.u.u.u.u.u.u.u.u.u.u.u.u.u.u.u.u.u.u.u.u.u.u.u.u.u.u.u.u.u.u.u.u.u.u.u.u.u.u.u.u.u.u.u.u.u.u.u.u.u.u.u.u.u.u.u.u.u.u.u.u.",
"u.u.u.u.u.u.u.u.u.u.u.u.u.u.u.u.u.u.u.u.u.u.u.u.u.u.u.u.u.u.u.u.u.u.u.u.u.u.u.u.u.u.u.u.u.u.u.u.u.u.u.u.u.u.u.u.u.u.u.u.u.u.u.u.",
"u.u.u.u.u.u.u.u.u.u.u.u.u.u.u.u.u.u.u.u.u.u.u.u.u.u.u.u.u.u.u.u.u.u.u.u.u.u.u.u.u.u.u.u.u.u.u.u.u.u.u.u.u.u.u.u.u.u.u.u.u.u.u.u.",
"u.u.u.u.u.u.u.u.u.u.u.u.u.u.u.u._ u._ u.u.u.u.u.u.u.u.u.u.u.u.u.u.u.u.u.u.u.u.u.u.u.u.u.u.u.u.u.u.u.u.u.u.u.u.u.u.u.u.u.u.u.u.u.",
"u.u.u.u.u.u.u.u.u.u.u.u.u.u.u.u.u.;.u.u.u.u.u.u.u.u.u.u.u.u.u.u.u.u.u.u.u.u.u.u.u.u.u.u.u.u.u.u.u.u.u.u.u.u.u.u.u.u.u.u.u.u.u.u.",
"u.u.u.u.u.u.u.u.u.u.u.u.u.u.u.u.u.u.u.u.u.u.u.u.u.u.u.u.u.u.u.u.u.u.u.u.u.u.u.u.u.u.u.u.u.u.u.u.u.u.u.u.u.u.u.u.u.u.u.u.u.u.u.u.",
"u.u.u.u.u.u.u.u.u.u.u.u.u.u.u.u.u.u.u.u.u.u.u.u.u.u.u.u.u.u.u.u.u.u.u.u.u.u.u.u.u.u.u.u.u.u.u.u.u.u.u.u.u.u.u.u.u.u.u.u.u.u.u.u.",
"u.u.u.u.u.u.u.u.u.u.u.u.u.u.u.u.u.u.u.u.u.u.u.u.u.u.u.u.u.u.u.u.u.u.u.u.u.u.u.u.u.u.u.u.u.u.u.u.u.u.u.u.u.u.u.u.u.u._ u._ u.u.u.",
"u.u.u.u.u.u.u.u.u.u.u.u.u.u.u.u.u.u.u.u.u.u.u.u.u.u.u.u.u.u.u.u.u.u.u.u.u.u.u.u.u.u.u.u.u.u.u.u.u.u.u.u.u.u.u.u.u.u.u._ u.u.u.u.",
"u.u.u.u.u.u.u.u.u.u.u.u.u.u.u.u.u.u.u.u.u.u.u.u.u.u.u.u.u.u.u.u.u.u.u.u.u.u.u.u.u.u.u.u.u.u.u.u.u.u.u.u.u.u.u.u.u.u.u.u.u.u.u.u.",
"u.u.u.u.u.u.u.u.u.u.u.u.u.u.u.u.u.u.u.u.u.u.u.u.u.u.u.u.u.u.u.u.u.u.u.u.u.u.u.u.u.u.u.u.u.u.u.u.u.u.u.u.u.u.u.u.u.u.u.u.u.u.u.u.",
"u.u.u.u.u.u.u.u.u.u.u.u.u.u.u.u.u.u.u.u.u.u.u.u.u.u.u.u.u.u.u.u.u.u.u.u.u.u.u.u.u.u.u.u.u.u.u.u.u.u.u.u.u.u.u.u.u.u.u.u.u.u.u.u."
};
