/* XPM */
static char *e33445abe0674eeae022980bfaef51e7oGhxcqfTvovrt6aU[] = {
/* columns rows colors chars-per-pixel */
"64 64 173 2 ",
"   c #020303",
".  c #050804",
"X  c #080A07",
"o  c #0C0D0D",
"O  c #0E120C",
"+  c #15160D",
"@  c #191608",
"#  c #1C1A0A",
"$  c #131313",
"%  c #141D12",
"&  c #1C1B17",
"*  c #1A1B1A",
"=  c #281307",
"-  c #211B0A",
";  c #311E10",
":  c #1C2313",
">  c #1A2117",
",  c #1D2B1A",
"<  c #24210E",
"1  c #2D210D",
"2  c #282719",
"3  c #212E1C",
"4  c #3C2315",
"5  c #332D1A",
"6  c #22311E",
"7  c #37341F",
"8  c #39331E",
"9  c #242424",
"0  c #332E21",
"q  c #253621",
"w  c #2D3D27",
"e  c #3C3420",
"r  c #3E3A30",
"t  c #393939",
"y  c #47361D",
"u  c #48371E",
"i  c #423422",
"p  c #463B21",
"a  c #493D24",
"s  c #4A3F28",
"d  c #533C29",
"f  c #433F34",
"g  c #693327",
"h  c #693428",
"j  c #6D3A2D",
"k  c #2D4027",
"l  c #2E4229",
"z  c #344326",
"x  c #32452A",
"c  c #354B2E",
"v  c #3A4E2D",
"b  c #374F31",
"n  c #3C4939",
"m  c #3A5132",
"M  c #3E5039",
"N  c #4D432C",
"B  c #434E2F",
"V  c #4B482F",
"C  c #52442D",
"Z  c #454237",
"A  c #474338",
"S  c #4B483D",
"D  c #5D4732",
"F  c #554C34",
"G  c #445635",
"H  c #435A35",
"J  c #425D39",
"K  c #5C5037",
"L  c #5D533B",
"P  c #734031",
"I  c #764936",
"U  c #774E3B",
"Y  c #794C3B",
"T  c #62553D",
"R  c #7A553E",
"E  c #44613B",
"W  c #48623B",
"Q  c #4A683F",
"!  c #454445",
"~  c #4E4A41",
"^  c #4B4B4B",
"/  c #555555",
"(  c #5B5C5B",
")  c #655841",
"_  c #6C5B42",
"`  c #7B5541",
"'  c #745E45",
"]  c #7C5943",
"[  c #4C6C42",
"{  c #527649",
"}  c #557A4B",
"|  c #597E4D",
" . c #5F605F",
".. c #597D55",
"X. c #76684A",
"o. c #7D694E",
"O. c #7B6E53",
"+. c #744C66",
"@. c #5E6260",
"#. c #646464",
"$. c #6A6A6A",
"%. c #6E706E",
"&. c #6F6F70",
"*. c #747574",
"=. c gray48",
"-. c #815340",
";. c #805B46",
":. c #84624B",
">. c #85694F",
",. c #8F6D53",
"<. c #837455",
"1. c #847659",
"2. c #87795D",
"3. c #97755B",
"4. c #947B5E",
"5. c #8E7F60",
"6. c #907F61",
"7. c #5C8451",
"8. c #5E8853",
"9. c #628C57",
"0. c #66925A",
"q. c #69975D",
"w. c #6B995E",
"e. c #6F9F62",
"r. c #72A565",
"t. c #74A867",
"y. c #76A969",
"u. c #79AE6B",
"i. c #7CB36E",
"p. c #7FB871",
"a. c #8E8162",
"s. c #948464",
"d. c #998566",
"f. c #93876A",
"g. c #9B8768",
"h. c #978A6B",
"j. c #9B8A6A",
"k. c #A08A6B",
"l. c #A1906E",
"z. c #A39371",
"x. c #A19478",
"c. c #80B771",
"v. c #82BB73",
"b. c #B5A27E",
"n. c #897E85",
"m. c #848484",
"M. c #888888",
"N. c #91918E",
"B. c #8F9297",
"V. c #989598",
"C. c #9A9B9B",
"Z. c #B7A580",
"A. c #BCA983",
"S. c #A7A7A7",
"D. c #B0AFAC",
"F. c #B3B4B4",
"G. c #B7B9BD",
"H. c #BCBCBC",
"J. c #DEBFD4",
"K. c #C3C4C3",
"L. c #CCCCCC",
"P. c #D2CFCF",
"I. c #D3D3D3",
"U. c #DBDBDB",
"Y. c #E6E6E5",
"T. c #E8E8E7",
"R. c #EBEBEB",
"E. c #F0F0EF",
"W. c #EFEFF0",
"Q. c #F1F1F2",
"!. c #F7F9F7",
"~. c #FCF7FB",
"^. c #FDFDFC",
/* pixels */
"v.v.v.v.v.v.v.v.v.v.v.v.v.v.v.v.v.v.v.v.v.v.v.v.v.v.v.v.v.v.v.v.v.v.v.v.v.v.v.v.v.v.v.v.v.v.v.v.v.v.v.v.v.v.v.v.v.v.v.v.v.v.v.v.",
"v.v.v.v.v.v.v.v.v.v.v.v.v.v.v.v.v.v.v.v.v.v.v.v.v.v.v.v.v.v.v.v.v.v.v.v.v.v.v.v.v.v.v.v.v.v.v.v.v.v.v.v.v.v.v.v.v.v.v.v.v.v.v.v.",
"v.v.v.v.v.v.v.v.v.v.v.v.v.v.v.v.v.v.v.v.v.v.v.v.v.v.v.v.v.v.v.v.v.v.v.v.v.v.v.v.v.v.v.v.v.v.v.v.v.v.v.v.v.v.v.v.v.v.v.v.v.v.v.v.",
"v.v.v.v.v.v.v.v.v.v.v.v.v.v.v.v.v.v.v.v.v.v.v.v.v.v.v.v.v.v.v.v.v.v.v.v.v.v.v.v.v.v.v.v.v.v.v.v.v.v.v.v.v.v.v.v.v.v.v.v.v.v.v.v.",
"v.v.v.v.v.v.v.v.v.v.v.v.v.v.v.v.v.v.v.v.v.v.v.v.v.v.v.v.v.v.v...v...v.v.v.v.v.v.v.v.v.v.v.v.v.v.v.v.v.v.v.v.v.v.v.v.v.v.v.v.v.v.",
"v.v.v.v.v.v.v.v.v.v.v.v.v.v.v.v.v.v.v.v.v.v.v.v.v.v.v.v.v.v.v.v...v.v.v.v.v.v.v.v.v.v.v.v.v.v.v.v.v.v.v.v.v.v.v.v.v.v.v.v.v.v.v.",
"v.v.v.v.v.v.v.v.v.v.v.v.v.v.v.v.v.v.v.v.v.v.v.v.v.v.v.v.v.v.v.v.v.v.v.v.v.v.v.v.v.v.v.v.v.v.v.v.v.v.v.v.v.v.v.v.v.v.v.v.v.v.v.v.",
"v.v.v.v.v.v.v.v.v.v.v.v.v.v.v.v.v.v.v.v.v.v.v.v.v.v.v.v.v.v.v.v.v.v.v.v.v.v.v.v.v.v.v.v.v.v.v.v.v.v.v.v.v.v.v.v.v.v.v.v.v.v.v.v.",
"v.v.v.v.v.v.v.v.v.v.v.v.v.v.v.v.v.v.v.v.v.v.v.v.v.v.v.v.v.v.v.v.v.v.v.v.v.v.v.v.v.v.v.v.v.v.v.v.v.v.v.v.v.v.v.v.v.v.v.v.v.v.v.v.",
"v.v.v.v.v.v.v.v.v.v.v.v.v.v.v.v.v.v.v.v.v.v.v.v.v.v.v.v.v.v.v.v.v.v.v.v.v.v.v.v.v.v.v.v.v.v.v.v.v.v.v.v.v.v.v.v.v.v.v.v.v.v.v.v.",
"v.v.v.v.v.v.v.v.v.v.v.v.v.v.v.v.v.v.v.v.v.v.v.v.v.v.v.v.v.v.v.v.i.y.i.v.v.v.v.v.v.v.v.v.v.v.v.v.v.v.v.v.v.v.v.v.v.v.v.v.v.v.v.v.",
"v.v.v.v.v.v.v.v.v.v.v.v.v.v.v.v.v.v.v.v.v.v.v.v.v.v.v.v.v.v.v.v.J . x v.v.v.v.v.v.v.v.v.v.v.v.v.v.v.v.v.v.v.v.v.v.v.v.v.v.v.v.v.",
"v.v.v.v.v.v.v.v.v.v.v.v.v.v.v.v.v.v.v.v.v.v.v.v.v.v.v.v.v.v.u.E ( S.$.m r.v.v.v.v.v.v.v.v.v.v.v.v.v.v.v.v.v.v.v.v.v.v.v.v.v.v.v.",
"v.v.v.v.v.v.v.v.v.v.v.v.v.v.v.v.v.v.v.v.v.v.v.v.v.v.v.v.v.v.r.X F.^.I.$ 8.v.v.v.v.v.v.v.v.v.v.v.v.v.v.v.v.v.v.v.v.v.v.v.v.v.v.v.",
"v.v.v.v.v.v.v.v.v.v.v.v.v.v.v.v.v.v.v.v.v.v.v.v.v.v.v.v.u.u.0.O C.^.H.$ } i.u.v.v.v.v.v.v.v.v.v.v.v.v.v.v.v.v.v.v.v...v...v.v.v.",
"v.v.v.v.v.v.v.v.v.v.v.v.v.v.v.v.v.v.v.v.v.v.v.v.v.v.v.v.W < :   C.^.H.$ + < v v.v.v.v.v.v.v.v.v.v.v.v.v.v.v.v.v.v.v.v...v.v.v.v.",
"v.v.v.v.v.v.v.v.v.v.v.v.v.v.v.v.v.v.v.v.v.v.v.v.v.r.x c V <.F   B.^.F.o i <.F c w 0.v.v.v.v.v.v.v.v.v.v.v.v.v.v.v.v.v.v.v.v.v.v.",
"v.v.v.v.v.v.v.v.v.v.v.v.v.v.v.v.v.v.v.v.v.v.v.7.| G C N 1.A.<.  B.^.G.  T A.5.F C B 7.} p.v.v.v.v.v.v.v.v.v.v.v.v.v.v.v.v.v.v.v.",
"v.v.v.v.v.v.v.v.v.v.v.v.v.v.v.v.v.v.v.v.u.r.w.7 < i ,.d.d.j.O.+ N.^.D.& ) l.d.g.3.d - 5 7.y.y.v.v.v.v.v.v.v.v.v.v.v.v.v.v.v.v.v.",
"v.v.v.v.v.v.v.v.v.v.v.v.v.v.v.v.v.v.v.v.[ # 2 X.N ; Y :.6.h.s.2.f.x.h.2.a.h.s.>.-.4 e o.7 @ H v.v.v.v.v.v.v.v.v.v.v.v.v.v.v.v.v.",
"v.v.v.v.v.v.v.v.v.v.v.v.v.v.v.v.v.v.i.Q V X._ 4.p = P I ` ] ] :.R I R :.;.] ` I I = 5 4.' X.F H u.v.v.v.v.v.v.v.v.v.v.v.v.v.v.v.",
"v.v.v.v.v.v.v.v.v.v.v.v.v.v.v.v.v.v.i.# X.Z.d.s.T d Y j g h h h h h h h h h h j I D L 4.s.b.1.- w.v.v.v.v.v.v.v.v.v.v.v.v.v.v.v.",
"v.v.v.v.v.v.v.v.v.v.v.v.v.v.v.v.v.v.i.m C s.g.h.g.4.>.R U U U U U U U U U U U U :.d.z.d.g.d.K z y.v.v.v.v.v.v.v.v.v.v.v.v.v.v.v.",
"v.v.v.v.v.v.v...v...v.v.v.v.v.v.v.v.v.v.G V d.g.d.s.s.6.6.6.6.6.6.6.6.6.6.6.6.6.s.d.d.d.j.K z i.v.v.v.v.v.v.v.v.v.v.v.v.v.v.v.v.",
"v.v.v.v.v.v.v.v...v.v.v.v.v.v.v.v.v.v.v.i.H s N 8 T k.z.z.z.z.z.z.z.z.z.z.z.z.z.z._ 8 s N B u.v.v.v.v.v.v.v.v.v.v.v.v.v.v.v.v.v.",
"v.v.v.v.v.v.v.v.v.v.v.v.v.v.v.v.v.v.v.p.v.i.H E 3 1 u a a p p p p p p p p p p p y 1 : J m r.v.v.v.v.v.v.v.v.v.v.v.v.v.v.v.v.v.v.",
"v.v.v.v.v.v.v.v.v.v.v.v.v.v.v.v.v.v.v.v.v.v.v.v.J 2 f r f A Z Z Z Z Z Z Z S ~ Z S 0 z v.v.v.v.v.v.v.v.v.v.v.v.v.v.v.v.v.v.v.v.v.",
"v.v.v.v.v.v.v.v.v.v.v.v.v.v.v.v.v.v.v.v.v.v.v.v.m ! U.L.U.T.Y.Y.Y.Y.Y.Y.Y.Y.Y.Y.Q.$.q p.v.v.v.v.v.v.v.v.v.v.v.v.v.v.v.v.v.v.v.v.",
"v.v.v.v.v.v.v.v.v.v.v.v.v.v.v.v.v.v.v.v.v.v.v.v.m ! Y.R.W.Q.Q.Q.Q.Q.Q.Q.^.M./ R.^.&.q p.v.v.v.v.v.v.v.v.v.v.v.v.v.v.v.v.v.v.v.v.",
"v.v.v.v.v.v.v.v.v.v.v.v.v.v.v.v.v.v.v.v.v.v.v.v.m ! U.R.R.Y.Y.Y.Y.T.Y.T.^.^ o Y.^.@.k v.v.v.v.v.v.v.v.v.v.v.v.v.v.v.v.v.v.v.v.v.",
"v.v.v.v.v.v.v.v.v.v.v.v.v.v.v.v.v.v.v.v.v.v.v.v.m ! U.Y.Y.Y.Y.Y.Y.T.Y.Y.^./ $ Y.^.n.2 9.p.v.v.v.v.v.v.v.v.v.v.v.v.v.v.v.v.v.v.v.",
"v.v.v.v.v.v.v.v.v.v.v.v.v.v.v.v.v.v.v.v.v.v.v.v.b ! U.I.U.Y.T.Y.T.Y.Y.Y.^.#.9 Y.!.J.+.O q.v.v.v.v.v.v.v.v.v.v.v.v.v.v.v.v.v.v.v.",
"v.v.v.v.v.v.v.v.v.v.v.v.v.v.v.v.v.v.v.v.v.v.v.v.l ^ R.U.L.U.Y.Y.Y.Y.Y.Y.R.L.K.Y.T.~.V.O q.v.v.v.v.v.v.v.v.v.v.v.v.v.v.v.v.v.v.v.",
"v.v.v.v.v.v.v.v.v.v.v.v.v.v.v.v.v.v.v.v.v.v.v.v.e.x $.U.Y.L.U.Y.Y.Y.Y.T.Y.!.!.Y.Y.^.K.X 0.v.v.v.v.v.v.v.v.v.v.v.v.v.v.v.v.v.v.v.",
"v.v.v.v.v.v.v.v.v.v.v.v.v.v.v.v.v.v.v.v.v.v.v.v.v.y.6 $.L.T.U.U.U.U.U.U.T.R.Q.!.!.U. .c t.v.v.v.v.v.v.v.v.v.v.v.v.v.v.v.v.v.v.v.",
"v.v.v.v.v.v.v.v.v.v.v.v.v.v.v.v.v.v.v.v.v.v.v.v.v.v.u.3 $.I.H.L.L.L.L.L.H.F.H.I.Y./ c v.v.v.v.v.v.v.v.v.v.v.v.v.v.v.v.v.v.v.v.v.",
"v.v.v.v.v.v.v.v.v.v.v.v.v.v.v.v.v.v.v.v.v.v.v.v.v.v.v.u.w * t S.K.H.H.H.^ o * 9 9 m c.v.v.v.v.v.v.v.v.v.v.v.v.v.v.v.v.v.v.v.v.v.",
"v.v.v.v.v.v.v.v.v.v.v.v.v.v.v.v.v.v.v.v.v.v.v.v.c.v.v.v.i.b   F.U.L.I.L.$ x w.{ [ r.v.v.v.v.v.v.v.v.v.v.v.v.v.v.v.v.v.v.v.v.v.v.",
"v.v.v.v.v.v.v.v.v.v.v.v.v.v.v.v.v.v.v.v.v.v.v.v.v.y.{ v.p.m =.U.Q.Y.Y.Y.M.M y.v.v.v.p.v.v.v.v.v.v.v.v.v.v.v.v.v.v.v.v.v.v.v.v.v.",
"v.v.v.v.v.v.v.v.v.v.v.v.v.v.v.v.v.v.v.v.v.v.v.v.p.J 9 0.l =.^.R.Y.Y.Y.Y.^.m.> i.v.v.v.v.v.v.v.v...v...v.v.v.v.v.v.v.v.v.v.v.v.v.",
"v.v.v.v.v.v.v.v.v.v.v.v.v.v.v.v.v.v.v.v.v.v.v.v.J ( P.> %.Q.R.T.Y.Y.Y.Y.^.*., i.v.v.v.v.v.v.v.v.v...v.v.v.v.v.v.v.v.v.v.v.v.v.v.",
"v.v.v.v.v.v.v.v.v.v.v.v.v.v.v.v.v.v.v.v.v.v.v.v.q $.E.$ M.^.U.Y.Y.Y.Y.Y.^.*.3 i.v.v.v.v.v.v.v.v.v.v.v.v.v.v.v.v.v.v.v.v.v.v.v.v.",
"v.v.v.v.v.v.v.v.v.v.v.v.v.v.v.v.v.v.v.v.v.v.v.v.9.n #.  C.^.U.Y.T.Y.Y.Y.^.m.% i.v.v.v.v.v.v.v.v.v.v.v.v.v.v.v.v.v.v.v.v.v.v.v.v.",
"v.v.v.v.v.v.v.v.v.v.v.v.v.v.v.v.v.v.v.v.v.v.v.v.v.w.% > *.Y.Y.Y.Y.Y.T.T.U.( b i.v.v.v.v.v.v.v.v.v.v.v.v.v.v.v.v.v.v.v.v.v.v.v.v.",
"v.v.v.v.v.v.v.v.v.v.v.v.v.v.v.v.v.v.v.v.v.v.v.v.v.v.u.i.l ( R.T.T.T.R.T.^ m v.v.v.v.v.v.v.v.v.v.v.v.v.v.v.v.v.v.v.v.v.v.v.v.v.v.",
"v.v.v.v.v.v.v.v.v.v.v.v.v.v.v.v.v.v.v.v.v.v.v.v.v.v.v.v.i.k ( R.^.^.^.!.t m v.v.v.v.v.v.v.v.v.v.v.v.v.v.v.v.v.v.v.v.v.v.v.v.v.v.",
"v.v.v.v.v.v.v.v.v.v.v.v.v.v.v.v.v.v.v.v.v.v.v.v.v.v.v.v.v.i.l $.m.*.=.=.n w.v.v.v.v.v.v.v.v.v.v.v.v.v.v.v.v.v.v.v.v.v.v.v.v.v.v.",
"v.v.v.v.v.v.v.v.v.v.v.v.v.v.v.v.v.v.v.v.v.v.v.v.v.v.v.v.v.v.i.l , q 3 6 t.v.v.v.v.v.v.v.v.v.v.v.v.v.v.v.v.v.v.v.v.v.v.v.v.v.v.v.",
"v.v.v.v.v.v.v.v.v.v.v.v.v.v.v.v.v.v.v.v.v.v.v.v.v.v.v.v.v.v.v.i.i.i.i.i.v.v.v.v.v.v.v.v.v.v.v.v.v.v.v.v.v.v.v.v.v.v.v.v.v.v.v.v.",
"v.v.v.v.v.v.v.v.v.v.v.v.v.v.v.v.v.v.v.v.v.v.v.v.v.v.v.v.v.v.v.v.v.v.v.v.v.v.v.v.v.v.v.v.v.v.v.v.v.v.v.v.v.v.v.v.v.v.v.v.v.v.v.v.",
"v.v.v.v.v.v.v.v.v.v.v.v.v.v.v.v.v.v.v.v.v.v.v.v.v.v.v.v.v.v.v.v.v.v.v.v.v.v.v.v.v.v.v.v.v.v.v.v.v.v.v.v.v.v.v.v.v.v.v.v.v.v.v.v.",
"v.v.v.v.v.v.v.v.v.v.v.v.v.v.v.v.v.v.v.v.v.v.v.v.v.v.v.v.v.v.v.v.v.v.v.v.v.v.v.v.v.v.v.v.v.v.v.v.v.v.v.v.v.v.v.v.v.v.v.v.v.v.v.v.",
"v.v.v.v.v.v.v.v.v.v.v.v.v.v.v.v.v.v.v.v.v.v.v.v.v.v.v.v.v.v.v.v.v.v.v.v.v.v.v.v.v.v.v.v.v.v.v.v.v.v.v.v.v.v.v.v.v.v.v.v.v.v.v.v.",
"v.v.v.v.v.v.v.v.v.v.v.v.v.v.v.v.v.v.v.v.v.v.v.v.v.v.v.v.v.v.v.v.v.v.v.v.v.v.v.v.v.v.v.v.v.v.v.v.v.v.v.v.v.v.v.v.v.v.v.v.v.v.v.v.",
"v.v.v.v.v.v.v.v.v.v.v.v.v.v.v.v.v.v.v.v.v.v.v.v.v.v.v.v.v.v.v.v.v.v.v.v.v.v.v.v.v.v.v.v.v.v.v.v.v.v.v.v.v.v.v.v.v.v.v.v.v.v.v.v.",
"v.v.v.v.v.v.v.v.v.v.v.v.v.v.v.v...v...v.v.v.v.v.v.v.v.v.v.v.v.v.v.v.v.v.v.v.v.v.v.v.v.v.v.v.v.v.v.v.v.v.v.v.v.v.v.v.v.v.v.v.v.v.",
"v.v.v.v.v.v.v.v.v.v.v.v.v.v.v.v.v...v.v.v.v.v.v.v.v.v.v.v.v.v.v.v.v.v.v.v.v.v.v.v.v.v.v.v.v.v.v.v.v.v.v.v.v.v.v.v.v.v.v.v.v.v.v.",
"v.v.v.v.v.v.v.v.v.v.v.v.v.v.v.v.v.v.v.v.v.v.v.v.v.v.v.v.v.v.v.v.v.v.v.v.v.v.v.v.v.v.v.v.v.v.v.v.v.v.v.v.v.v.v.v.v.v.v.v.v.v.v.v.",
"v.v.v.v.v.v.v.v.v.v.v.v.v.v.v.v.v.v.v.v.v.v.v.v.v.v.v.v.v.v.v.v.v.v.v.v.v.v.v.v.v.v.v.v.v.v.v.v.v.v.v.v.v.v.v.v.v.v.v.v.v.v.v.v.",
"v.v.v.v.v.v.v.v.v.v.v.v.v.v.v.v.v.v.v.v.v.v.v.v.v.v.v.v.v.v.v.v.v.v.v.v.v.v.v.v.v.v.v.v.v.v.v.v.v.v.v.v.v.v.v.v.v.v...v...v.v.v.",
"v.v.v.v.v.v.v.v.v.v.v.v.v.v.v.v.v.v.v.v.v.v.v.v.v.v.v.v.v.v.v.v.v.v.v.v.v.v.v.v.v.v.v.v.v.v.v.v.v.v.v.v.v.v.v.v.v.v.v...v.v.v.v.",
"v.v.v.v.v.v.v.v.v.v.v.v.v.v.v.v.v.v.v.v.v.v.v.v.v.v.v.v.v.v.v.v.v.v.v.v.v.v.v.v.v.v.v.v.v.v.v.v.v.v.v.v.v.v.v.v.v.v.v.v.v.v.v.v.",
"v.v.v.v.v.v.v.v.v.v.v.v.v.v.v.v.v.v.v.v.v.v.v.v.v.v.v.v.v.v.v.v.v.v.v.v.v.v.v.v.v.v.v.v.v.v.v.v.v.v.v.v.v.v.v.v.v.v.v.v.v.v.v.v.",
"v.v.v.v.v.v.v.v.v.v.v.v.v.v.v.v.v.v.v.v.v.v.v.v.v.v.v.v.v.v.v.v.v.v.v.v.v.v.v.v.v.v.v.v.v.v.v.v.v.v.v.v.v.v.v.v.v.v.v.v.v.v.v.v."
};
