/* XPM */
static char *result[] = {
/* columns rows colors chars-per-pixel */
"64 64 148 2 ",
"   c #010101",
".  c #0A0602",
"X  c #070A06",
"o  c #0D0F0D",
"O  c #0E130C",
"+  c #171104",
"@  c #1A1405",
"#  c #13140F",
"$  c #1B160C",
"%  c #131412",
"&  c #161816",
"*  c #181A18",
"=  c #241D0F",
"-  c #1F2917",
";  c #1C201B",
":  c #1F2B1B",
">  c #27200E",
",  c #252110",
"<  c #2B2512",
"1  c #2E291B",
"2  c #312B1E",
"3  c #2A351D",
"4  c #2D391F",
"5  c #3C321D",
"6  c #241D21",
"7  c #242524",
"8  c #2C2C2C",
"9  c #332E21",
"0  c #253022",
"q  c #2C3D25",
"w  c #2E372C",
"e  c #2D3E29",
"r  c #363125",
"t  c #3D3621",
"y  c #31382E",
"u  c #353634",
"i  c #393438",
"p  c gray23",
"a  c #542C1F",
"s  c #463722",
"d  c #483821",
"f  c #463D28",
"g  c #6A3629",
"h  c #613C2B",
"j  c #30462A",
"k  c #354C2F",
"l  c #3F4C2E",
"z  c #364E30",
"x  c #3E4C3A",
"c  c #3A5333",
"v  c #4B4128",
"b  c #414C2E",
"n  c #50462F",
"m  c #534A32",
"M  c #5C4D33",
"N  c #435F3B",
"B  c #5D5035",
"V  c #694635",
"C  c #744635",
"Z  c #7B4838",
"A  c #615035",
"S  c #62553B",
"D  c #6D513B",
"F  c #69593F",
"G  c #745238",
"H  c #79523E",
"J  c #45623C",
"K  c #49643D",
"L  c #383B42",
"P  c #444445",
"I  c #46494A",
"U  c #4C4C4C",
"Y  c #4B514A",
"T  c #525253",
"R  c #5D5D5D",
"E  c #6B5D41",
"W  c #7A5541",
"Q  c #496740",
"!  c #4C6C43",
"~  c #547748",
"^  c #557A4B",
"/  c #587E4E",
"(  c #5B6359",
")  c #597D55",
"_  c #75644A",
"`  c #7C7255",
"'  c #666768",
"]  c #747474",
"[  c #797A7A",
"{  c #806049",
"}  c #8A654C",
"|  c #8A6D53",
" . c #8A7256",
".. c #857759",
"X. c #8C775B",
"o. c #87785B",
"O. c #8C795B",
"+. c #937B5E",
"@. c #847C62",
"#. c #917E60",
"$. c #5A824F",
"%. c #5C8451",
"&. c #618A55",
"*. c #66945B",
"=. c #68965C",
"-. c #6A995E",
";. c #6D9D60",
":. c #6FA063",
">. c #75A867",
",. c #76AA69",
"<. c #7CB36D",
"1. c #7FB771",
"2. c #958566",
"3. c #9A8365",
"4. c #978B6A",
"5. c #9C8D6C",
"6. c #A28F6E",
"7. c #A5906F",
"8. c #A49573",
"9. c #A89875",
"0. c #80B771",
"q. c #82BB73",
"w. c #B3A07C",
"e. c #9A6C8C",
"r. c #848584",
"t. c #8C8C8C",
"y. c #919191",
"u. c #9E9E9E",
"i. c #ACA38A",
"p. c #A2A2A2",
"a. c #ACABAC",
"s. c #B3B4B3",
"d. c #BBBABA",
"f. c #BFBFC0",
"g. c #C4C4C4",
"h. c #CDCDCC",
"j. c #D1D0CE",
"k. c #D5D4D4",
"l. c #DCD0D8",
"z. c #DCDCDC",
"x. c #E0CEDA",
"c. c #E0DFDE",
"v. c #E6E6E6",
"b. c #EBEBEB",
"n. c #F4F4F4",
"m. c #F7F7F8",
"M. c #F7F8F8",
"N. c #FCFCFC",
/* pixels */
"q.q.q.q.q.q.q.q.q.q.q.q.q.q.q.q.q.q.q.q.q.q.q.q.q.q.q.q.q.q.q.q.q.q.q.q.q.q.q.q.q.q.q.q.q.q.q.q.q.q.q.q.q.q.q.q.q.q.q.q.q.q.q.q.",
"q.q.q.q.q.q.q.q.q.q.q.q.q.q.q.q.q.q.q.q.q.q.q.q.q.q.q.q.q.q.q.q.q.q.q.q.q.q.q.q.q.q.q.q.q.q.q.q.q.q.q.q.q.q.q.q.q.q.q.q.q.q.q.q.",
"q.q.q.q.q.q.q.q.q.q.q.q.q.q.q.q.q.q.q.q.q.q.q.q.q.q.q.q.q.q.q.q.q.q.q.q.q.q.q.q.q.q.q.q.q.q.q.q.q.q.q.q.q.q.q.q.q.q.q.q.q.q.q.q.",
"q.q.q.q.q.q.q.q.q.q.q.q.q.q.q.q.q.q.q.q.q.q.q.q.q.q.q.q.q.q.q.q.q.q.q.q.q.q.q.q.q.q.q.q.q.q.q.q.q.q.q.q.q.q.q.q.q.q.q.q.q.q.q.q.",
"q.q.q.q.q.q.q.q.q.q.q.q.q.q.q.q.q.q.q.q.q.q.q.q.q.q.q.q.q.q.q.) q.%.q.q.q.q.q.q.q.q.q.q.q.q.q.q.q.q.q.q.q.q.q.q.q.q.q.q.q.q.q.q.",
"q.q.q.q.q.q.q.q.q.q.q.q.q.q.q.q.q.q.q.q.q.q.q.q.q.q.q.q.q.q.q.q.) q.q.q.q.q.q.q.q.q.q.q.q.q.q.q.q.q.q.q.q.q.q.q.q.q.q.q.q.q.q.q.",
"q.q.q.q.q.q.q.q.q.q.q.q.q.q.q.q.q.q.q.q.q.q.q.q.q.q.q.q.q.q.q.q.q.q.q.q.q.q.q.q.q.q.q.q.q.q.q.q.q.q.q.q.q.q.q.q.q.q.q.q.q.q.q.q.",
"q.q.q.q.q.q.q.q.q.q.q.q.q.q.q.q.q.q.q.q.q.q.q.q.q.q.q.q.q.q.q.q.q.q.q.q.q.q.q.q.q.q.q.q.q.q.q.q.q.q.q.q.q.q.q.q.q.q.q.q.q.q.q.q.",
"q.q.q.q.q.q.q.q.q.q.q.q.q.q.q.q.q.q.q.q.q.q.q.q.q.q.q.q.q.q.q.q.q.q.q.q.q.q.q.q.q.q.q.q.q.q.q.q.q.q.q.q.q.q.q.q.q.q.q.q.q.q.q.q.",
"q.q.q.q.q.q.q.q.q.q.q.q.q.q.q.q.q.q.q.q.q.q.q.q.q.q.q.q.q.q.q.q.q.q.q.q.q.q.q.q.q.q.q.q.q.q.q.q.q.q.q.q.q.q.q.q.q.q.q.q.q.q.q.q.",
"q.q.q.q.q.q.q.q.q.q.q.q.q.q.q.q.q.q.q.q.q.q.q.q.q.q.q.q.q.q.q.q.1.0.q.q.q.q.q.q.q.q.q.q.q.q.q.q.q.q.q.q.q.q.q.q.q.q.q.q.q.q.q.q.",
"q.q.q.q.q.q.q.q.q.q.q.q.q.q.q.q.q.q.q.q.q.q.q.q.q.q.q.q.q.1.q.:.: : :.q.0.q.q.q.q.q.q.q.q.q.q.q.q.q.q.q.q.q.q.q.q.q.q.q.q.q.q.q.",
"q.q.q.q.q.q.q.q.q.q.q.q.q.q.q.q.q.q.q.q.q.q.q.q.q.q.q.q.q.q.=.x ] ] x -.q.q.q.q.q.q.q.q.q.q.q.q.q.q.q.q.q.q.q.q.q.q.q.q.q.q.q.q.",
"q.q.q.q.q.q.q.q.q.q.q.q.q.q.q.q.q.q.q.q.q.q.q.q.q.q.q.q.q.q.q R N.N.R q q.q.q.0.q.q.q.q.q.q.q.q.q.q.q.q.q.q.q.q.q.q.q.q.q.q.q.q.",
"q.q.q.q.q.q.q.q.q.q.q.q.q.q.q.q.q.q.q.q.q.q.q.q.q.q.q.1.<.1.z T m.m.T k q.<.0.q.q.q.q.q.q.q.q.q.q.q.q.q.q.q.q.q.q.q.) q.%.q.q.q.",
"q.q.q.q.q.q.q.q.q.q.q.q.q.q.q.q.q.q.q.q.q.q.q.q.q.q.q.:.3 q o T n.n.T O q 3 :.q.q.q.q.q.q.q.q.q.q.q.q.q.q.q.q.q.q.q.q.) q.q.q.q.",
"q.q.q.q.q.q.q.q.q.q.q.q.q.q.q.q.q.q.q.q.q.1.q.q.q.~ N l S E . I n.n.I . E S l N ~ q.q.q.<.q.q.q.q.q.q.q.q.q.q.q.q.q.q.q.q.q.q.q.",
"q.q.q.q.q.q.q.q.q.q.q.q.q.q.q.q.q.q.q.q.q.q.,.&.&.t s S 8.w.$ L M.N.L $ w.8.S s 5 &.&.>.q.q.q.q.q.q.q.q.q.q.q.q.q.q.q.q.q.q.q.q.",
"q.q.q.q.q.q.q.q.q.q.q.q.q.q.q.q.q.q.q.q.<.1.Y > < G #.2.2.6.= P n.n.P $ 7.2.3.+.D < > K q.<.q.q.q.q.q.q.q.q.q.q.q.q.q.q.q.q.q.q.",
"q.q.q.q.q.q.q.q.q.q.q.q.q.q.q.q.q.q.q.<.4 - m F = h } +.4.4.` @.i.i.@.` 4.4.#.} h > F m - 3 ,.q.q.q.q.q.q.q.q.q.q.q.q.q.q.q.q.q.",
"q.q.q.q.q.q.q.q.q.q.q.q.q.q.q.q.q.q.-.b B B  ._ + a Z W { { | } G G } } { { H Z a + _  .M S b -.q.q.q.q.q.q.q.q.q.q.q.q.q.q.q.q.",
"q.q.q.q.q.q.q.q.q.q.q.q.q.q.q.q.q.q.c v 8.7.3._ f V C g g g g g g g g h g g g C V s _ 3.7.8.v c q.q.q.q.q.q.q.q.q.q.q.q.q.q.q.q.",
"q.q.q.q.q.q.q.q.q.q.q.q.q.q.q.q.q.q.! t o.2.2.2.3. .H C C C C C C C C C C C V W | +.2.2.2.O.5 ! q.q.q.q.q.q.q.q.q.q.q.q.q.q.q.q.",
"q.q.q.q.q.q.q.%.q.) q.q.q.q.q.q.q.q.1.~ 5 ..9.6.5.2.X.X.X.X.X.X.O.X.X.X.X.X.X.X.2.5.5.8...5 ^ 1.q.q.q.q.q.q.q.q.q.q.q.q.q.q.q.q.",
"q.q.q.q.q.q.q.q.%.q.q.q.q.q.q.q.q.q.q.q.~ v B v m O.9.8.8.8.8.8.8.8.8.8.8.8.8.9.O.m n S f ~ q.q.q.q.q.q.q.q.q.q.q.q.q.q.q.q.q.q.",
"q.q.q.q.q.q.q.q.q.q.q.q.q.q.q.q.q.q.0.q.q.K j 3 @ s M B M M M M M M M M M M B A d @ 3 q K q.q.q.q.q.q.q.q.q.q.q.q.q.q.q.q.q.q.q.",
"q.q.q.q.q.q.q.q.q.q.q.q.q.q.q.q.q.q.q.q.q.q.q.-.> 2 r 9 r 9 9 9 9 2 9 2 2 r 2 2 1 , =.q.q.q.q.q.q.q.q.q.q.q.q.q.q.q.q.q.q.q.q.q.",
"q.q.q.q.q.q.q.q.q.q.q.q.q.q.q.q.q.q.q.q.q.q.q.&.# p.c.k.z.j.h.h.h.h.h.h.j.j.d.g.y.# &.q.q.q.q.q.q.q.q.q.q.q.q.q.q.q.q.q.q.q.q.q.",
"q.q.q.q.q.q.q.q.q.q.q.q.q.q.q.q.q.q.q.q.q.q.q.&.% g.N.g.' z.N.m.n.N.n.N.n.N.n.N.a.% %.q.q.q.q.q.q.q.q.q.q.q.q.q.q.q.q.q.q.q.q.q.",
"q.q.q.q.q.q.q.q.q.q.q.q.q.q.q.q.q.q.q.q.q.0.q.-.O s.N.r.  s.N.v.v.v.v.v.v.v.b.n.u.% &.q.q.q.q.q.q.q.q.q.q.q.q.q.q.q.q.q.q.q.q.q.",
"q.q.q.q.q.q.q.q.q.q.q.q.q.q.q.q.q.q.q.q.q.q.1.! 6 d.N.t.  d.m.v.v.v.v.v.v.v.v.n.u.% *.q.q.q.q.q.q.q.q.q.q.q.q.q.q.q.q.q.q.q.q.q.",
"q.q.q.q.q.q.q.q.q.q.q.q.q.q.q.q.q.q.q.q.q.q.K 6 e.l.N.t.X d.N.v.v.v.v.v.v.v.k.v.p.% &.q.q.q.q.q.q.q.q.q.q.q.q.q.q.q.q.q.q.q.q.q.",
"q.q.q.q.q.q.q.q.q.q.q.q.q.q.q.q.q.q.q.q.q.q.c i x.b.n.h.p.z.n.v.b.v.v.v.v.k.h.b.d.% %.q.q.q.q.q.q.q.q.q.q.q.q.q.q.q.q.q.q.q.q.q.",
"q.q.q.q.q.q.q.q.q.q.q.q.q.q.q.q.q.q.q.q.q.1.c I N.n.z.m.N.b.v.v.v.v.v.c.k.h.b.f.U c >.1.q.q.q.q.q.q.q.q.q.q.q.q.q.q.q.q.q.q.q.q.",
"q.q.q.q.q.q.q.q.q.q.q.q.q.q.q.q.q.q.q.q.q.q./ y d.v.m.b.v.b.v.z.c.z.c.z.k.z.h.P c 1.q.1.q.q.q.q.q.q.q.q.q.q.q.q.q.q.q.q.q.q.q.q.",
"q.q.q.q.q.q.q.q.q.q.q.q.q.q.q.q.q.q.q.q.q.q.q.%.; d.N.c.j.j.j.j.j.j.j.h.k.k.I z q.1.q.q.q.q.q.q.q.q.q.q.q.q.q.q.q.q.q.q.q.q.q.q.",
"q.q.q.q.q.q.q.q.q.q.q.q.q.q.q.q.q.q.q.q.q.1.q.q.%.u P p u 7 r.j.d.f.h.r.8 u c 1.q.q.q.q.q.q.q.q.q.q.q.q.q.q.q.q.q.q.q.q.q.q.q.q.",
"q.q.q.q.q.q.q.q.q.q.q.q.q.q.q.q.q.q.q.q.q.q.1.q.1.^ z ! ! O R v.g.g.v.R O Q 1.1.q.1.q.q.q.q.q.q.q.q.q.q.q.q.q.q.q.q.q.q.q.q.q.q.",
"q.q.q.q.q.q.q.q.q.q.q.q.q.q.q.q.q.q.q.q.q.q.q.q.q.q.1.1.=.y u.n.z.c.N.a.w *.q.,.*.q.q.q.q.q.q.q.q.q.q.q.q.q.q.q.q.q.q.q.q.q.q.q.",
"q.q.q.q.q.q.q.q.q.q.q.q.q.q.q.q.q.q.q.q.q.q.q.q.q.q.1.%.* d.n.z.v.v.v.M.g.6 ;.! * >.q.q.q.q.q.q.) q.) q.q.q.q.q.q.q.q.q.q.q.q.q.",
"q.q.q.q.q.q.q.q.q.q.q.q.q.q.q.q.q.q.q.q.q.q.q.q.q.q.q./ & g.M.v.b.b.v.b.b.g.w ( a.0 -.q.q.q.q.q.q.%.q.q.q.q.q.q.q.q.q.q.q.q.q.q.",
"q.q.q.q.q.q.q.q.q.q.q.q.q.q.q.q.q.q.q.q.q.q.q.q.q.q.q.=.& d.N.v.v.v.v.v.b.M.8 [ b.% / q.q.q.q.q.q.q.q.q.q.q.q.q.q.q.q.q.q.q.q.q.",
"q.q.q.q.q.q.q.q.q.q.q.q.q.q.q.q.q.q.q.q.q.q.q.q.q.q.,.z & g.N.v.v.v.v.c.v.n.p 8 [ e ;.q.q.q.q.q.q.q.q.q.q.q.q.q.q.q.q.q.q.q.q.q.",
"q.q.q.q.q.q.q.q.q.q.q.q.q.q.q.q.q.q.q.q.q.q.q.q.q.q.z   % a.n.v.b.v.b.v.c.z.I X q <.q.q.q.q.q.q.q.q.q.q.q.q.q.q.q.q.q.q.q.q.q.q.",
"q.q.q.q.q.q.q.q.q.q.q.q.q.q.q.q.q.q.q.q.q.q.q.q.q.q.k     & u.N.v.v.v.M.h.u Q ,.:.q.q.q.q.q.q.q.q.q.q.q.q.q.q.q.q.q.q.q.q.q.q.q.",
"q.q.q.q.q.q.q.q.q.q.q.q.q.q.q.q.q.q.q.q.q.q.q.q.q.q.:.e     y.M.N.N.N.h.u J 1.q.q.1.q.q.q.q.q.q.q.q.q.q.q.q.q.q.q.q.q.q.q.q.q.q.",
"q.q.q.q.q.q.q.q.q.q.q.q.q.q.q.q.q.q.q.q.q.q.q.q.q.1.q.,.j z ( u.t.t.p.Y ! q.q.1.q.q.q.q.q.q.q.q.q.q.q.q.q.q.q.q.q.q.q.q.q.q.q.q.",
"q.q.q.q.q.q.q.q.q.q.q.q.q.q.q.q.q.q.q.q.q.q.q.q.q.q.1.q.1.q.c X       c q.q.1.q.q.q.q.q.q.q.q.q.q.q.q.q.q.q.q.q.q.q.q.q.q.q.q.q.",
"q.q.q.q.q.q.q.q.q.q.q.q.q.q.q.q.q.q.q.q.q.q.q.q.q.q.q.q.q.q.q.q.q.q.q.q.q.q.q.q.q.q.q.q.q.q.q.q.q.q.q.q.q.q.q.q.q.q.q.q.q.q.q.q.",
"q.q.q.q.q.q.q.q.q.q.q.q.q.q.q.q.q.q.q.q.q.q.q.q.q.q.q.q.q.q.q.q.q.q.q.q.q.q.q.q.q.q.q.q.q.q.q.q.q.q.q.q.q.q.q.q.q.q.q.q.q.q.q.q.",
"q.q.q.q.q.q.q.q.q.q.q.q.q.q.q.q.q.q.q.q.q.q.q.q.q.q.q.q.q.q.q.q.q.q.q.q.q.q.q.q.q.q.q.q.q.q.q.q.q.q.q.q.q.q.q.q.q.q.q.q.q.q.q.q.",
"q.q.q.q.q.q.q.q.q.q.q.q.q.q.q.q.q.q.q.q.q.q.q.q.q.q.q.q.q.q.q.q.q.q.q.q.q.q.q.q.q.q.q.q.q.q.q.q.q.q.q.q.q.q.q.q.q.q.q.q.q.q.q.q.",
"q.q.q.q.q.q.q.q.q.q.q.q.q.q.q.q.q.q.q.q.q.q.q.q.q.q.q.q.q.q.q.q.q.q.q.q.q.q.q.q.q.q.q.q.q.q.q.q.q.q.q.q.q.q.q.q.q.q.q.q.q.q.q.q.",
"q.q.q.q.q.q.q.q.q.q.q.q.q.q.q.q.q.q.q.q.q.q.q.q.q.q.q.q.q.q.q.q.q.q.q.q.q.q.q.q.q.q.q.q.q.q.q.q.q.q.q.q.q.q.q.q.q.q.q.q.q.q.q.q.",
"q.q.q.q.q.q.q.q.q.q.q.q.q.q.q.q.q.q.q.q.q.q.q.q.q.q.q.q.q.q.q.q.q.q.q.q.q.q.q.q.q.q.q.q.q.q.q.q.q.q.q.q.q.q.q.q.q.q.q.q.q.q.q.q.",
"q.q.q.q.q.q.q.q.q.q.q.q.q.q.q.q.$.q.%.q.q.q.q.q.q.q.q.q.q.q.q.q.q.q.q.q.q.q.q.q.q.q.q.q.q.q.q.q.q.q.q.q.q.q.q.q.q.q.q.q.q.q.q.q.",
"q.q.q.q.q.q.q.q.q.q.q.q.q.q.q.q.q.&.q.q.q.q.q.q.q.q.q.q.q.q.q.q.q.q.q.q.q.q.q.q.q.q.q.q.q.q.q.q.q.q.q.q.q.q.q.q.q.q.q.q.q.q.q.q.",
"q.q.q.q.q.q.q.q.q.q.q.q.q.q.q.q.q.q.q.q.q.q.q.q.q.q.q.q.q.q.q.q.q.q.q.q.q.q.q.q.q.q.q.q.q.q.q.q.q.q.q.q.q.q.q.q.q.q.q.q.q.q.q.q.",
"q.q.q.q.q.q.q.q.q.q.q.q.q.q.q.q.q.q.q.q.q.q.q.q.q.q.q.q.q.q.q.q.q.q.q.q.q.q.q.q.q.q.q.q.q.q.q.q.q.q.q.q.q.q.q.q.q.q.q.q.q.q.q.q.",
"q.q.q.q.q.q.q.q.q.q.q.q.q.q.q.q.q.q.q.q.q.q.q.q.q.q.q.q.q.q.q.q.q.q.q.q.q.q.q.q.q.q.q.q.q.q.q.q.q.q.q.q.q.q.q.q.q.q.%.q.) q.q.q.",
"q.q.q.q.q.q.q.q.q.q.q.q.q.q.q.q.q.q.q.q.q.q.q.q.q.q.q.q.q.q.q.q.q.q.q.q.q.q.q.q.q.q.q.q.q.q.q.q.q.q.q.q.q.q.q.q.q.q.q.) q.q.q.q.",
"q.q.q.q.q.q.q.q.q.q.q.q.q.q.q.q.q.q.q.q.q.q.q.q.q.q.q.q.q.q.q.q.q.q.q.q.q.q.q.q.q.q.q.q.q.q.q.q.q.q.q.q.q.q.q.q.q.q.q.q.q.q.q.q.",
"q.q.q.q.q.q.q.q.q.q.q.q.q.q.q.q.q.q.q.q.q.q.q.q.q.q.q.q.q.q.q.q.q.q.q.q.q.q.q.q.q.q.q.q.q.q.q.q.q.q.q.q.q.q.q.q.q.q.q.q.q.q.q.q.",
"q.q.q.q.q.q.q.q.q.q.q.q.q.q.q.q.q.q.q.q.q.q.q.q.q.q.q.q.q.q.q.q.q.q.q.q.q.q.q.q.q.i.q.q.q.q.q.q.q.q.q.q.q.q.q.q.q.q.q.q.q.q.q.q."
};
