/* XPM */
static char *_1861df3a7924e358fdf2c76f1cecc33pPNH9zpHVF4agUg9[] = {
/* columns rows colors chars-per-pixel */
"64 64 7 1 ",
"  c #333C3A",
". c #597D55",
"X c #C47169",
"o c #82BB73",
"O c #D49979",
"+ c #518782",
"@ c #64A693",
/* pixels */
"oooooooooooooooooooooooooooooooooooooooooooooooooooooooooooooooo",
"oooooooooooooooooooooooooooooooooooooooooooooooooooooooooooooooo",
"oooooooooooooooooooooooooooooooooooooooooooooooooooooooooooooooo",
"oooooooooooooooooooooooooooooooooooooooooooooooooooooooooooooooo",
"ooooooooooooooooooooooooooooooo.o.oooooooooooooooooooooooooooooo",
"oooooooooooooooooooooooooooooooo.ooooooooooooooooooooooooooooooo",
"oooooooooooooooooooooooooooooooooooooooooooooooooooooooooooooooo",
"oooooooooooooooooooooooooooooooooooooooooooooooooooooooooooooooo",
"oooooooooooooooooooooooooooooooooooooooooooooooooooooooooooooooo",
"oooooooooooooooooooooooooooooooooooooooooooooooooooooooooooooooo",
"oooooooooooooooooooooooooooooooooooooooooooooooooooooooooooooooo",
"oooooooooooooooooooooooooooooooooooooooooooooooooooooooooooooooo",
"oooooooooooooooooooooooooooooooooooooooooooooooooooooooooooooooo",
"oooooooooooooooooooooooooooooooooooooooooooooooooooooooooooooooo",
"oooooooooooooooooooooooooooooooooooooooooooooooooooooooooo.o.ooo",
"ooooooooooooooooooooooooooooooooooooooooooooooooooooooooooo.oooo",
"oooooooooooooooooooooooooooooooooooooooooooooooooooooooooooooooo",
"oooooooooooooooooooooooooooooooooooooooooooooooooooooooooooooooo",
"oooooooooooooooooooooooooooooooooooooooooooooooooooooooooooooooo",
"oooooooooooooooooooooooooooooooooooooooooooooooooooooooooooooooo",
"oooooooooooooooooooooooooooooooooooooooooooooooooooooooooooooooo",
"oooooooooooooooooooooooooooooooooooooooooooooooooooooooooooooooo",
"oooooooooooooooooooooooooooooooooooooooooooooooooooooooooooooooo",
"ooooooo.o.oooooooooooooooooooooooooooooooooooooooooooooooooooooo",
"oooooooo.ooooooooooooooooooooooooooooooooooooooooooooooooooooooo",
"oooooooooooooooooooooooooooooooooooooooooooooooooooooooooooooooo",
"ooooooooooooooooooooooooooooooo    o    oooooooooooooooooooooooo",
"ooooooooooooooooooooooooooooooo +++ @@@ oooooooooooooooooooooooo",
"ooooooooooooooooooooooooooooooo +++@@@@ oooooooooooooooooooooooo",
"ooooooooooooooooooooooooooooooo ++@@@+++ ooooooooooooooooooooooo",
"ooooooooooooooooooooooooooooooo +@@@@+++ ooooooooooooooooooooooo",
"ooooooooooooooooooooooooooooo     @+++++ ooooooooooooooooooooooo",
"oooooooooooooooooooooooooooo OOOOO +    oooooooooooooooooooooooo",
"ooooooooooooooooooooooooooo OOOOOOX oooooooooooooooooooooooooooo",
"ooooooooooooooooooooooooooo OOOOOOX oooooooooooooooooooooooooooo",
"oooooooooooooooooooooooooo OOOOOOOX oooooooooooooooooooooooooooo",
"oooooooooooooooooooooooooo OOOOOOXX oooooooooooooooooooooooooooo",
"ooooooooooooooooooooooooo OOOOOXXX ooooooooooooooooooooooooooooo",
"ooooooooooooooooooooooooo OOXXXX  oooooooooooooooooooooooooooooo",
"oooooooooooooooooooooooo OOXXX  oooooooooooooooo.o.ooooooooooooo",
"ooooooooooooooooooooooo OOXX  ooooooooooooooooooo.oooooooooooooo",
"ooooooooooooooooooooooo OXX oooooooooooooooooooooooooooooooooooo",
"ooooooooooooooooooooooo X  ooooooooooooooooooooooooooooooooooooo",
"ooooooooooooooooooooooo  ooooooooooooooooooooooooooooooooooooooo",
"oooooooooooooooooooooooooooooooooooooooooooooooooooooooooooooooo",
"oooooooooooooooooooooooooooooooooooooooooooooooooooooooooooooooo",
"oooooooooooooooooooooooooooooooooooooooooooooooooooooooooooooooo",
"oooooooooooooooooooooooooooooooooooooooooooooooooooooooooooooooo",
"oooooooooooooooooooooooooooooooooooooooooooooooooooooooooooooooo",
"oooooooooooooooooooooooooooooooooooooooooooooooooooooooooooooooo",
"oooooooooooooooooooooooooooooooooooooooooooooooooooooooooooooooo",
"oooooooooooooooooooooooooooooooooooooooooooooooooooooooooooooooo",
"oooooooooooooooooooooooooooooooooooooooooooooooooooooooooooooooo",
"oooooooooooooooooooooooooooooooooooooooooooooooooooooooooooooooo",
"oooooooooooooooooooooooooooooooooooooooooooooooooooooooooooooooo",
"oooooooooooooooo.o.ooooooooooooooooooooooooooooooooooooooooooooo",
"ooooooooooooooooo.oooooooooooooooooooooooooooooooooooooooooooooo",
"oooooooooooooooooooooooooooooooooooooooooooooooooooooooooooooooo",
"oooooooooooooooooooooooooooooooooooooooooooooooooooooooooooooooo",
"oooooooooooooooooooooooooooooooooooooooooooooooooooooooooo.o.ooo",
"ooooooooooooooooooooooooooooooooooooooooooooooooooooooooooo.oooo",
"oooooooooooooooooooooooooooooooooooooooooooooooooooooooooooooooo",
"oooooooooooooooooooooooooooooooooooooooooooooooooooooooooooooooo",
"oooooooooooooooooooooooooooooooooooooooooooooooooooooooooooooooo"
};
