/* XPM */
static char *_94bdef2e6fe4152807055134350c5c1PY6rDv69fZfwwnV8[] = {
/* columns rows colors chars-per-pixel */
"64 64 6 1 ",
"  c #597D55",
". c #F8960E",
"X c #FAB416",
"o c #82BB73",
"O c #FBD266",
"+ c #FBEA78",
/* pixels */
"oooo    oooo    oooo    oooo    oooo    oooo    oooo    oooo    ",
"oooo    oooo    oooo    oooo    oooo    oooo    oooo    oooo    ",
"oooo    oooo    oooo    oooo    oooo    oooo    oooo    oooo    ",
"oooo    oooo    oooo    oooo    oooo    oooo    oooo    oooo    ",
"    oooo    oooo    oooo    oooo    oooo    oooo    oooo    oooo",
"    oooo    oooo    oooo    oooo    oooo    oooo    oooo    oooo",
"    oooo    oooo    oooo    oooo    oooo    oooo    oooo    oooo",
"    oooo    oooo    oooo    oooo    oooo    oooo    oooo    oooo",
"oooo    oooo    oooo    oooo    oooo    oooo    oooo    oooo    ",
"oooo    oooo    oooo    oooo    oooo    oooo    oooo    oooo    ",
"oooo    oooo    oooo    oooo    oooo    oooo    oooo    oooo    ",
"oooo    oooo    oooo    oooo    oooo    oooo    oooo    oooo    ",
"    oooo    oooo    oooo    oooo    oooo    oooo    oooo    oooo",
"    oooo    oooo    oooo    oooo    oooo    oooo    oooo    oooo",
"    oooo    oooo    oooo ..............o    oooo    oooo    oooo",
"    oooo    oooo    oooo..++++++++++++..    oooo    oooo    oooo",
"oooo    oooo    oooo    .++..........++.oooo    oooo    oooo    ",
"oooo    oooo    oooo   ..+............+..ooo    oooo    oooo    ",
"oooo    oooo    oooo   .++...XXXXXX...++.ooo    oooo    oooo    ",
"oooo    oooo    oooo  ..+..XXXXXXXXXX..+..oo    oooo    oooo    ",
"    oooo    oooo    oo.++.XXXXXXXXXXXX.++.  oooo    oooo    oooo",
"    oooo    oooo    o..+..XXXXXXXXXXXX..+.. oooo    oooo    oooo",
"    oooo    oooo    o.++..XXXXXXXXXXXX..++. oooo    oooo    oooo",
"    ooo...............++...XXXXXXXXXX...++...............   oooo",
"oooo  ..++++++++++++...+.....XXXXXXX....+...++++++++++++..oo    ",
"oooo  .++..........++..++.OO...XXXX....++..++..........++.oo    ",
"oooo ..+............+...+..OO..........+...+............+..o    ",
"oooo .++...XXXXXX...++..++.OOOOO......++..++...XXXXXX...++.o    ",
"    ..+..XXXXXXXXXX..+...+..OOOOOO.O..+...+..XXXXXXXXXX..+..oooo",
"    .++.XXXXXXXXXXXX.++..++..........++..++.XXXXXXXXXXXX.++.oooo",
"   ..+..XXXXXXXXXXXX..+...++++++++++++...+..XXXXXXXXXXXX..+..ooo",
"   .++..XXXXXXXXXXXX..++................++..XXXXXXXXXXXX..++.ooo",
"ooo.++...XXXXXXXXXX...++................++...XXXXXXXXXX...++.   ",
"ooo..+.....XXXXXXX....+...++++++++++++...+.....XXXXXXX....+..   ",
"oooo.++.OO...XXXX....++..++..........++..++.OO...XXXX....++.    ",
"oooo..+..OO..........+...+............+...+..OO..........+..    ",
"    o.++.OOOOO......++..++...XXXXXX...++..++.OOOOO......++. oooo",
"    o..+..OOOOOO.O..+...+..XXXXXXXXXX..+...+..OOOOOO.O..+.. oooo",
"    oo.++..........++..++.XXXXXXXXXXXX.++..++..........++.  oooo",
"    oo..++++++++++++...+..XXXXXXXXXXXX..+...++++++++++++..  oooo",
"oooo   ...............++..XXXXXXXXXXXX..++...............ooo    ",
"oooo    oooo    oooo .++...XXXXXXXXXX...++.o    oooo    oooo    ",
"oooo    oooo    oooo ..+.....XXXXXXX....+..o    oooo    oooo    ",
"oooo    oooo    oooo  .++.OO...XXXX....++.oo    oooo    oooo    ",
"    oooo    oooo    oo..+..OO..........+..  oooo    oooo    oooo",
"    oooo    oooo    ooo.++.OOOOO......++.   oooo    oooo    oooo",
"    oooo    oooo    ooo..+..OOOOOO.O..+..   oooo    oooo    oooo",
"    oooo    oooo    oooo.++..........++.    oooo    oooo    oooo",
"oooo    oooo    oooo    ..++++++++++++..oooo    oooo    oooo    ",
"oooo    oooo    oooo    o.............. oooo    oooo    oooo    ",
"oooo    oooo    oooo    oooo    oooo    oooo    oooo    oooo    ",
"oooo    oooo    oooo    oooo    oooo    oooo    oooo    oooo    ",
"    oooo    oooo    oooo    oooo    oooo    oooo    oooo    oooo",
"    oooo    oooo    oooo    oooo    oooo    oooo    oooo    oooo",
"    oooo    oooo    oooo    oooo    oooo    oooo    oooo    oooo",
"    oooo    oooo    oooo    oooo    oooo    oooo    oooo    oooo",
"oooo    oooo    oooo    oooo    oooo    oooo    oooo    oooo    ",
"oooo    oooo    oooo    oooo    oooo    oooo    oooo    oooo    ",
"oooo    oooo    oooo    oooo    oooo    oooo    oooo    oooo    ",
"oooo    oooo    oooo    oooo    oooo    oooo    oooo    oooo    ",
"    oooo    oooo    oooo    oooo    oooo    oooo    oooo    oooo",
"    oooo    oooo    oooo    oooo    oooo    oooo    oooo    oooo",
"    oooo    oooo    oooo    oooo    oooo    oooo    oooo    oooo",
"    oooo    oooo    oooo    oooo    oooo    oooo    oooo    oooo"
};
