/* XPM */
static char *_c8a260b88294c19dc29b1ea4712be93sCGXivX8ebuGTrMj[] = {
/* columns rows colors chars-per-pixel */
"64 64 161 2 ",
"   c #1D0C06",
".  c #0F110E",
"X  c #10120F",
"o  c #1C130C",
"O  c #121611",
"+  c #151B13",
"@  c #191C15",
"#  c #200F07",
"$  c #210F08",
"%  c #24130A",
"&  c #29160C",
"*  c #2C1A0E",
"=  c #261C12",
"-  c #2C1C12",
";  c #331E12",
":  c #172115",
">  c #192217",
",  c #1A2418",
"<  c #1E2B1C",
"1  c #1F301D",
"2  c #2C2215",
"3  c #212F1E",
"4  c #2B2919",
"5  c #342315",
"6  c #3B2416",
"7  c #3F2618",
"8  c #332D1B",
"9  c #3C2A1C",
"0  c #21331F",
"q  c #212C20",
"w  c #223420",
"e  c #253C22",
"r  c #2A3D25",
"t  c #2C3C28",
"y  c #333422",
"u  c #3A3521",
"i  c #373B26",
"p  c #3A3A24",
"a  c #442D1C",
"s  c #492E1D",
"d  c #46331F",
"f  c #4C311E",
"g  c #4F3420",
"h  c #463924",
"j  c #513521",
"k  c #543A25",
"l  c #5A3B25",
"z  c #274223",
"x  c #294625",
"c  c #2A4A26",
"v  c #2E432A",
"b  c #2C4E28",
"n  c #3F4529",
"m  c #354F2E",
"M  c #2C5127",
"N  c #2E5529",
"B  c #35522E",
"V  c #325B2C",
"C  c #364A32",
"Z  c #3A4D35",
"A  c #375033",
"S  c #3A5535",
"D  c #3D5B35",
"F  c #3D543A",
"G  c #3D593A",
"H  c #36612F",
"J  c #3A6432",
"K  c #3D6A34",
"L  c #43432A",
"P  c #4D4029",
"I  c #424D2E",
"U  c #4A482F",
"Y  c #5D422A",
"T  c #554B2F",
"R  c #464D33",
"E  c #435135",
"W  c #485735",
"Q  c #465639",
"!  c #425B3D",
"~  c #495A3D",
"^  c #585433",
"/  c #515A37",
"(  c #64452C",
")  c #67482E",
"_  c #604D30",
"`  c #6D4D32",
"'  c #645D3E",
"]  c #735336",
"[  c #775638",
"{  c #795839",
"}  c #416137",
"|  c #406F37",
" . c #43643C",
".. c #456C3C",
"X. c #486F3E",
"o. c #5A603B",
"O. c #46733C",
"+. c #4A733F",
"@. c #48793E",
"#. c #466243",
"$. c #4B6744",
"%. c #4C6E45",
"&. c #4B6B48",
"*. c #5A6543",
"=. c #536E44",
"-. c #516F4B",
";. c #4B7342",
":. c #4C7C41",
">. c #4F704C",
",. c #517147",
"<. c #5D7447",
"1. c #52744C",
"2. c #567B4D",
"3. c #5E7B4B",
"4. c #557650",
"5. c #567852",
"6. c #597D55",
"7. c #637F4D",
"8. c #737549",
"9. c #4D8042",
"0. c #528446",
"q. c #558847",
"w. c #568449",
"e. c #59814F",
"r. c #558A48",
"t. c #5A8A4B",
"y. c #588C49",
"u. c #588E4A",
"i. c #5B8D4D",
"p. c #5A904B",
"a. c #5B924D",
"s. c #5E964E",
"d. c #5E8653",
"f. c #5E8954",
"g. c #5E9750",
"h. c #648551",
"j. c #6F8954",
"k. c #758D58",
"l. c #629B52",
"z. c #649D53",
"x. c #649E53",
"c. c #659D54",
"v. c #689F56",
"b. c #66935A",
"n. c #68955C",
"m. c #6D995E",
"M. c #7D945C",
"N. c #66A054",
"B. c #69A156",
"V. c #69A457",
"C. c #6BA658",
"Z. c #6CA75A",
"A. c #6DA85A",
"S. c #71AF5E",
"D. c #73B15F",
"F. c #6D9B60",
"G. c #75A666",
"H. c #76A969",
"J. c #7BB06C",
"K. c #7CB36E",
"L. c #82BB73",
/* pixels */
"L.L.L.L.6.6.6.6.L.L.L.L.6.6.6.6.L.L.L.L.6.6.6.6.L.L.L.L.6.6.6.6.L.L.L.L.6.6.6.6.L.L.L.L.6.6.6.6.L.L.L.L.6.6.6.6.L.L.L.L.6.6.6.6.",
"L.L.L.L.6.6.6.6.L.L.L.L.6.6.6.6.L.L.L.L.6.6.6.6.L.L.L.L.6.6.6.6.L.L.L.L.6.6.6.6.L.L.L.L.6.6.6.6.L.L.L.L.6.6.6.6.L.L.L.L.6.6.6.6.",
"L.L.L.L.6.6.6.6.L.L.L.L.6.6.6.6.L.L.L.L.6.6.6.6.L.L.L.L.6.6.6.6.L.L.L.L.6.6.6.6.L.L.L.L.6.6.6.6.L.L.L.L.6.6.6.6.L.L.L.L.6.6.6.6.",
"L.L.L.L.6.6.6.6.L.L.L.L.6.6.6.6.L.L.L.L.6.6.6.6.L.L.L.L.6.6.6.6.L.L.L.L.6.6.6.6.L.L.L.L.6.6.6.6.L.L.L.L.6.6.6.6.L.L.L.L.6.6.6.6.",
"6.6.6.6.L.L.L.L.6.6.6.6.L.L.L.L.6.6.6.6.L.L.L.L.6.6.5.G 1.1.1.1.G G G ! L.L.L.L.6.6.6.6.L.L.L.L.6.6.6.6.L.L.L.L.6.6.6.6.L.L.L.L.",
"6.6.6.6.L.L.L.L.6.6.6.6.L.L.L.L.6.6.6.6.L.L.L.L.5.G G J +.+.+.+.+.+.+.X.1.1.e.L.6.6.6.6.L.L.L.L.6.6.6.6.L.L.L.L.6.6.6.6.L.L.L.L.",
"6.6.6.6.L.L.L.L.6.6.6.6.L.L.L.L.6.6.6.6.L.L.K.1.G +.:.N.D.D.D.D.D.D.D.A.+.+.;.1.! 6.6.6.L.L.L.L.6.6.6.6.L.L.L.L.6.6.6.6.L.L.L.L.",
"6.6.6.6.L.L.L.L.6.6.6.6.L.L.L.L.6.6.6.6.L.K. ...t.D.D.D.D.D.D.D.D.D.D.D.D.D.A.0...S 6.6.L.L.L.L.6.6.6.6.L.L.L.L.6.6.6.6.L.L.L.L.",
"L.L.L.L.6.6.6.6.L.L.L.L.6.6.6.6.L.L.L.L.6.1.r a.D.D.D.D.D.D.D.D.D.D.D.D.D.D.D.S.c.w.%.L.6.6.6.6.L.L.L.L.6.6.6.6.L.L.L.L.6.6.6.6.",
"L.L.L.L.6.6.6.6.L.L.L.L.6.6.6.6.L.L.L.L.5.A +.C.D.D.D.D.D.D.D.D.D.D.D.D.D.D.D.D.D.Z...%.6.6.6.6.L.L.L.L.6.6.6.6.L.L.L.L.6.6.6.6.",
"L.L.L.L.6.6.6.6.L.L.L.L.6.6.6.6.L.L.L.K.A +.C.D.D.D.D.D.D.D.D.D.D.D.D.D.D.D.D.D.D.S.0.v 6.6.6.6.L.L.L.L.6.6.6.6.L.L.L.L.6.6.6.6.",
"L.L.L.L.6.6.6.6.L.L.L.L.6.6.6.6.L.L.K.! r p.x.D.D.D.D.D.D.D.D.D.D.D.D.D.D.D.D.D.D.S.x...S 6.6.6.L.L.L.L.6.6.6.6.L.L.L.L.6.6.6.6.",
"6.6.6.6.L.L.L.L.6.6.6.6.L.L.L.L.6.5.A ..O.u.a.D.D.D.D.D.D.D.D.D.D.D.D.D.D.D.D.D.D.D.S.q...%.L.L.6.6.6.6.L.L.L.L.6.6.6.6.L.L.L.L.",
"6.6.6.6.L.L.L.L.6.6.6.6.L.L.L.L.5.A O.u.u.p.C.D.D.D.D.D.D.D.D.D.D.D.D.D.D.D.D.D.D.D.S.u.0.b #.L.6.6.6.6.L.L.L.L.6.6.6.6.L.L.L.L.",
"6.6.6.6.L.L.L.L.6.6.6.6.L.L.L.L.1.r u.u.p.V.l.x.D.D.D.D.D.D.D.D.D.D.D.D.D.D.D.D.D.S.l.c.K M e L.6.6.6.6.L.L.L.L.6.6.6.6.L.L.L.L.",
"6.6.6.6.L.L.L.L.6.6.6.6.L.L.L.L.1.e | u.p.l.u.p.x.D.D.D.D.D.D.D.D.D.D.D.D.D.D.S.l.l.p.s.O.M e L.6.6.6.6.L.L.L.L.6.6.6.6.L.L.L.L.",
"L.L.L.L.6.6.6.5.n. . . .S G 1.5.K.e.c u.u.u.u.u.p.x.D.D.D.D.D.D.D.D.D.D.D.D.S.l.p.V.N.u.0.M x C K.H.2. .S S S $.K.L.L.L.6.6.6.6.",
"L.L.L.L.6.6.#...i.S.D.D.D.A.w...f.H.0 | u.u.u.p.V.V.x.D.D.D.D.D.D.D.D.D.D.D.S.N.p.x.S.u.r.O.M < ;.w.B.D.D.D.S.i.;.f.L.L.6.6.6.6.",
"L.L.L.L.6.&.O.D.D.D.D.D.D.D.D.D.w.v 0 x K | u.a.S.l.a.D.D.D.D.D.D.S.x.D.D.D.D.S.u.p.l.u.u.0.e 0 } D.D.D.D.D.D.D.D.O.m.L.6.6.6.6.",
"L.L.L.L.1.;.N.D.D.D.D.D.D.D.D.D.v., w c N V u.p.l.u.p.x.D.D.D.D.S.l.p.x.D.D.S.l.u.u.u.u.u.0.w 0 e D.D.D.D.D.D.D.D.B.;.H.6.6.6.6.",
"6.6.6.5.} :.C.D.D.D.D.D.D.D.D.A.B 0 c N V :.u.u.u.u.u.p.l.l.l.l.l.u.u.p.l.l.l.u.r.| u.u.r.J x w e } D.D.D.D.D.D.D.A.:.A K.L.L.L.",
"6.6.5.D q.s.S.D.D.D.D.D.D.D.D.v., < N N V u.u.r.K | u.p.V.N.u.u.u.p.V.N.u.u.u.r.K V K K K N M w 0 e D.D.D.D.D.D.D.S.a.q...K.L.L.",
"6.6.1.B r.s.p.A.D.D.D.D.D.D.A.m , < N N V K K K V :.u.a.S.l.u.u.u.p.x.S.u.u.u.r.@.O.N N N N e w , e D.D.D.D.D.D.A.a.s.r.B H.L.L.",
"6.6.6.S +.u.p.x.A.D.D.D.D.A.B < < 0 z N N N N V :.u.u.p.l.u.u.u.u.u.p.l.r.| u.u.u.r.O.z z e w w < e D } D.D.D.A.x.a.u.+.%.L.L.L.",
"L.L.K.r M | a.N.l.S.D.D.x.m < w w c c z z N N V u.u.u.u.r.| u.u.u.u.u.r.K V u.u.u.u.0.c c x w w c x < e ;.D.S.l.N.a.| b e 1.6.6.",
"L.L.2.e N O.u.u.u.g.l.l.0., w w w z e w c N N V | u.u.r.K V K | u.u.u.0.N V | u.u.r.K N N M w w z e w 0 z l.l.u.u.u.O.N e G 6.6.",
"L.H.t e N K | J r.V.s.u.u...< w w w < w N N N N V K K J z N V :.u.u.u.0.N z V K K K N N N M w w w w w 0 r s.V.r.J | K N e e 1.6.",
"H.A w z c N V r.u.q.0.u.u.0.x : w < , w z N z z N N N e w N V u.u.u.r.K N c z N N z N N N e w < w w w 3 ..0.u.u.r.V M c z 0 r 1.",
"#.w w e e N V O.9.J H 9.u.9.c O < < 0 c c e w w z N N c c N V | u.r.K N N N c N N c z 0 e w w < < < @ , 9.H J 9.O.N N z e w e n.",
"6.F < , w c z N b z V u.u.| x O < w w N M w < w c N N N N N N V K K N N N z N N N N x < < < w w < > @ < S V e b N z c w , < 2.L.",
"6.#.> w M e 0 b N N N J K M , O w w w z e < , w N N N N N z N N N N N z e w N N N N M w < , w w 0 , , , : N N N b 0 e M w > b.L.",
">.w < < 0 0 0 b N x z b M > @ < w < < < w < < w z N N N e w z z N N N x w w z N N N e w w < w w < , , > + z c N b 0 < 0 < < w G.",
"2.> < , 0 w z x e 1 w M b X , w < , , < w w w c c z z e < w w c N N N M w < w z z z c x w < < < < < , > : e 3 e x x w 0 , < > G ",
"G.3 , < < 0 0 0 0 < 0 c x X , < , , , w w w w N M w w 0 , w w N N N N e 0 , w w w w N M 0 , , , w 0 > + 0 0 3 0 0 0 0 < < , 3 -.",
"L.v , < , @ > w w w w w 0 , + , , < < < w w w 0 0 w w < < w < z N N e w w < < w w w z e < > + , < < > O w w w w w > @ , < , w 6.",
"L.F.< + > @ > < < < w w w , X , , w 0 , < < < , < w w < w w < w z z w w w w < w w < < w < > @ , , > + < w w < < < > @ @ + , #.6.",
"6.6.#.O > > > , @ , < 3 < > X , , < < , > O + , w w w w w w w w w w w w w w w w 0 , , w 0 , > O O O @ < 3 < , + , > > , O b.L.L.",
"6.6.1.. @ @ > , O , , , , > O O O + , > O @ @ , < w w w < w w w w w w < < w w w < > + < < , > + . X > , , , , O , > + @ . G.L.L.",
"6.6.4.q O X @ , @ , , , < , > + . . , > @ , , , , < < < , w w w w w 0 , , < < < < < @ , , , , > X @ , < , , , @ , > X O t J.L.L.",
"6.6.6.4.,.. O > O > , , @ @ , @ O X , , , , , , , , > + , < < w w w < > + , , , w 0 > + , , > O X , + @ , , > O > O . Z J.L.L.L.",
"L.L.L.L.1.t , X . O + @ X X O X X X + , , > + , , > O O < < , < < < , > X + , , < < > @ O O O . X O X O @ + X . X > S J.6.6.6.6.",
"L.L.L.L.6.6.! @ @ @ @ . . . O @ t . X , > O @ , , > X @ < < , , , , , > + X , , , , , > + . X + . + . . . @ o @ , d.L.L.6.6.6.6.",
"L.L.L.L.6.6.6.6.3.k ( = . @ &.6.G.. X > O X , , , > @ , , , , , , , < , > @ , , , , , , > . X O , F., . = ( k Q L.L.L.L.6.6.6.6.",
"L.L.L.L.6.6.6.6.3.) ) f s u 6.6.J.,.X O . X + , , > + , , , , , , , 0 , , , , > + , , > O . . + d.L.L s f ) ) Q L.L.L.L.6.6.6.6.",
"6.6.6.6.L.L.L.G.h ) ) j & u G.L.6.4.G Z . . X + , > X , , , , , , , @ , , , , > X > O O . . @ d.6.4.8 & j ) ) ^ 1.6.6.6.L.L.L.L.",
"6.6.6.6.L.L.G.T ) f a Y % & n G.4.6.6.1.. . X @ > O X + , , , , , > X + , , > O X > + . . . , J.-.y & % _ d s ) P 1.6.6.L.L.L.L.",
"6.6.6.6.L.L./ ) * y $.6.m.I % # 2 -.6.4.,.. X > O . . X O + , , > O . X O O O . X + > . . @ =.8 # % y $.L.m.I * ) L 6.6.L.L.L.L.",
"6.6.6.6.L.L.K.o.' R 6.6.L.L.L.h.i $.6.6.J.2.,.O . . . . . . O O O . . . . . . . . X @ G 2.d.G.E ~ 6.6.6.L.L.<.8.U 4.6.6.L.L.L.L.",
"L.L.L.L.6.6.6.6.L.L.L.L.6.6.6.6.L.L.L.L.6.6.4.Z . . X o . . . . . . . . . . . . @ 2.d.L.6.6.6.6.L.L.L.L.6.6.6.6.L.L.L.L.6.6.6.6.",
"L.L.L.L.6.6.6.6.L.L.L.L.6.6.6.6.L.L.L.L.6.6.6.4.2.2.,.& a k 9 . . . . . + G G G d.L.L.L.6.6.6.6.L.L.L.L.6.6.6.6.L.L.L.L.6.6.6.6.",
"L.L.L.L.6.6.6.6.L.L.L.L.6.6.6.6.L.L.L.L.6.6.6.6.L.L.G.* ( [ k - = . . @ ! 6.6.6.L.L.L.L.6.6.6.6.L.L.L.L.6.6.6.6.L.L.L.L.6.6.6.6.",
"L.L.L.L.6.6.6.6.L.L.L.L.6.6.6.6.L.L.L.L.6.6.6.6.L.L.G.- ] [ l f 6 9 = 4 6.6.6.6.L.L.L.L.6.6.6.6.L.L.L.L.6.6.6.6.L.L.L.L.6.6.6.6.",
"6.6.6.6.L.L.L.L.6.6.6.6.L.L.L.L.6.6.6.6.L.L.L.L.6.6.-.; { [ l l 7 s 6 2 L.L.L.L.6.6.6.6.L.L.L.L.6.6.6.6.L.L.L.L.6.6.6.6.L.L.L.L.",
"6.6.6.6.L.L.L.L.6.6.6.6.L.L.L.L.6.6.6.6.L.L.L.L.6.4.p g [ ) ` l 6 * * 2 L.L.L.L.6.6.6.6.L.L.L.L.6.6.6.6.L.L.L.L.6.6.6.6.L.L.L.L.",
"6.6.6.6.L.L.L.L.6.6.6.6.L.L.L.L.6.6.6.6.L.L.L.L.4.p f ` ) ( [ l f   & 5 W L.L.L.6.6.6.6.L.L.L.L.6.6.6.6.L.L.L.L.6.6.6.6.L.L.L.L.",
"6.6.6.6.L.L.L.L.6.6.6.6.L.L.L.L.6.6.6.6.L.L.L.K.p Y ] ] a ; s l j   $ * * W L.L.6.6.6.6.L.L.L.L.6.6.6.6.L.L.L.L.6.6.6.6.L.L.L.L.",
"L.L.L.L.6.6.6.6.L.L.L.L.6.6.6.6.L.L.L.L.6.6.4.p Y ) j 6 % o ~ *.j.=.    & 5 i y W L.L.L.6.6.6.6.L.L.L.L.6.6.6.6.L.L.L.L.6.6.6.6.",
"L.L.L.L.6.6.6.6.L.L.L.L.6.6.6.6.L.L.L.L.6.6.1.- ) ) % % E Q 6.6.L.K.<.=.# %   % * W L.L.6.6.6.6.L.L.L.L.6.6.6.6.L.L.L.L.6.6.6.6.",
"L.L.L.L.6.6.6.6.L.L.L.L.6.6.6.6.L.L.L.L.6.6.4.E a ( k d i 6.6.6.L.L.L.K.E E Z & % = L.L.6.6.6.6.L.L.L.L.6.6.6.6.L.L.L.L.6.6.6.6.",
"L.L.L.L.6.6.6.6.L.L.L.L.6.6.6.6.L.L.L.L.6.6.6.4.7.k.M.j.Q 6.6.6.L.L.L.L.6.6.4.Q 3.h.L.L.6.6.6.6.L.L.L.L.6.6.6.6.L.L.L.L.6.6.6.6.",
"6.6.6.6.L.L.L.L.6.6.6.6.L.L.L.L.6.6.6.6.L.L.L.L.6.6.6.6.L.L.L.L.6.6.6.6.L.L.L.L.6.6.6.6.L.L.L.L.6.6.6.6.L.L.L.L.6.6.6.6.L.L.L.L.",
"6.6.6.6.L.L.L.L.6.6.6.6.L.L.L.L.6.6.6.6.L.L.L.L.6.6.6.6.L.L.L.L.6.6.6.6.L.L.L.L.6.6.6.6.L.L.L.L.6.6.6.6.L.L.L.L.6.6.6.6.L.L.L.L.",
"6.6.6.6.L.L.L.L.6.6.6.6.L.L.L.L.6.6.6.6.L.L.L.L.6.6.6.6.L.L.L.L.6.6.6.6.L.L.L.L.6.6.6.6.L.L.L.L.6.6.6.6.L.L.L.L.6.6.6.6.L.L.L.L.",
"6.6.6.6.L.L.L.L.6.6.6.6.L.L.L.L.6.6.6.6.L.L.L.L.6.6.6.6.L.L.L.L.6.6.6.6.L.L.L.L.6.6.6.6.L.L.L.L.6.6.6.6.L.L.L.L.6.6.6.6.L.L.L.L."
};
