/* XPM */
static char *f14d353d64554690c5f02f8163344d62YBoD2xqAJIMmJMWl[] = {
/* columns rows colors chars-per-pixel */
"64 64 232 2 ",
"   c #191E1B",
".  c #0E3C0E",
"X  c #192E1A",
"o  c #0C3314",
"O  c #133C13",
"+  c #1B341A",
"@  c #193919",
"#  c #22281E",
"$  c #21341E",
"%  c #23391E",
"&  c #1F1423",
"*  c #27052D",
"=  c #231624",
"-  c #261826",
";  c #2A1B27",
":  c #2E1428",
">  c #2D1C29",
",  c #321E2B",
"<  c #3A192E",
"1  c #3C1D30",
"2  c #2A2525",
"3  c #2A2B24",
"4  c #2A2827",
"5  c #35212C",
"6  c #3A232E",
"7  c #352D2C",
"8  c #382C2D",
"9  c #293824",
"0  c #33392A",
"q  c #3D2430",
"w  c #3E2C31",
"e  c #3A3833",
"r  c #451B34",
"t  c #521B38",
"y  c #40272F",
"u  c #46382F",
"i  c #422632",
"p  c #4B2536",
"a  c #452933",
"s  c #4B2C36",
"d  c #4D2D39",
"f  c #512D39",
"g  c #572D3A",
"h  c #4C3236",
"j  c #453A36",
"k  c #523136",
"l  c #55313A",
"z  c #5C353C",
"x  c #573C3A",
"c  c #61363E",
"v  c #63393E",
"b  c #693E3E",
"n  c #0A470E",
"m  c #0A4712",
"M  c #144313",
"N  c #124B13",
"B  c #1B4818",
"V  c #0D5519",
"C  c #175919",
"Z  c #20431C",
"A  c #225C15",
"S  c #225D1C",
"D  c #1B641C",
"F  c #16691D",
"G  c #16751F",
"H  c #26691D",
"J  c #2A741E",
"K  c #3A7A1D",
"L  c #194E21",
"P  c #284724",
"I  c #2C4A2B",
"U  c #364A2E",
"Y  c #295827",
"T  c #36572C",
"R  c #3C4736",
"E  c #1D6D21",
"W  c #296727",
"Q  c #256D22",
"!  c #35682E",
"~  c #247322",
"^  c #237C23",
"/  c #2B7C27",
"(  c #367824",
")  c #387633",
"_  c #474838",
"`  c #4B5036",
"'  c #6B433F",
"]  c #476B39",
"[  c #557C3A",
"{  c #5D3441",
"}  c #633541",
"|  c #653A41",
" . c #6C3D43",
".. c #6D3B46",
"X. c #713E45",
"o. c #763C48",
"O. c #445C41",
"+. c #505F44",
"@. c #6E4142",
"#. c #734245",
"$. c #7A4646",
"%. c #764943",
"&. c #7D4946",
"*. c #764248",
"=. c #7B4549",
"-. c #7F4949",
";. c #486744",
":. c #576246",
">. c #52714A",
",. c #557852",
"<. c #597D55",
"1. c #606B4D",
"2. c #883D4D",
"3. c #814C47",
"4. c #82454A",
"5. c #8A444D",
"6. c #834B4B",
"7. c #8A4E4D",
"8. c #885549",
"9. c #8D524D",
"0. c #92544E",
"q. c #955B4E",
"w. c #9B5D4F",
"e. c #8D4B51",
"r. c #954B52",
"t. c #8E5350",
"y. c #955451",
"u. c #9A5652",
"i. c #9C5952",
"p. c #A45D55",
"a. c #A85F56",
"s. c #A85A58",
"d. c #9B614D",
"f. c #9B6054",
"g. c #A56254",
"h. c #AB6256",
"j. c #AD6955",
"k. c #AE6358",
"l. c #B36D56",
"z. c #B2655A",
"x. c #B56A59",
"c. c #B96B5B",
"v. c #B67256",
"b. c #BA7656",
"n. c #BB7259",
"m. c #C2755C",
"M. c #C47B5B",
"N. c #C97B5D",
"B. c #CB7B60",
"V. c #198321",
"C. c #298729",
"Z. c #368829",
"A. c #2A932B",
"S. c #38982D",
"D. c #328C30",
"F. c #339431",
"G. c #369D30",
"H. c #2EA32D",
"J. c #30AC31",
"K. c #498B1F",
"L. c #498C26",
"P. c #5D8B2E",
"I. c #48972A",
"U. c #439C2E",
"Y. c #539A26",
"T. c #47883A",
"R. c #578A32",
"E. c #429E30",
"W. c #5C9737",
"Q. c #63942F",
"!. c #6A9C2D",
"~. c #678233",
"^. c #669836",
"/. c #45A12C",
"(. c #57A428",
"). c #52AA2D",
"_. c #5AAC2C",
"`. c #5EB02D",
"'. c #44A131",
"]. c #4CA531",
"[. c #4EAD33",
"{. c #55AA31",
"}. c #5DB231",
"|. c #62AA29",
" X c #78A72E",
".X c #64B227",
"XX c #63B42E",
"oX c #6AB52A",
"OX c #6BBC2E",
"+X c #75B82D",
"@X c #73BD2C",
"#X c #6CA339",
"$X c #75A638",
"%X c #66B831",
"&X c #72B532",
"*X c #5DC32F",
"=X c #69C42C",
"-X c #75C22E",
";X c #7BC52D",
":X c #7EC92D",
">X c #7AD42B",
",X c #69C835",
"<X c #76CB33",
"1X c #7BD334",
"2X c #73D739",
"3X c #5C8D48",
"4X c #62934C",
"5X c #6A945D",
"6X c #6EA062",
"7X c #75A866",
"8X c #7EB56F",
"9X c #7FB670",
"0X c #8CAE35",
"qX c #A5BC3E",
"wX c #83CD2D",
"eX c #8ACF2C",
"rX c #8CD42C",
"tX c #87DA2D",
"yX c #93DA2D",
"uX c #94DA2C",
"iX c #81CE31",
"pX c #85D831",
"aX c #8BDC32",
"sX c #8FE72F",
"dX c #95E72A",
"fX c #92E432",
"gX c #96E731",
"hX c #9CEB31",
"jX c #82BB73",
"kX c #CD815C",
"lX c #D5885E",
"zX c #DB8D60",
/* pixels */
"jXjXjXjX<.<.<.<.jXjXjXjX<.<.<.<.jXjXjXjX<.<.<.<.jXjXjXjX<.<.<.<.jXjXjXjX<.<.<.<.jXjXjXjX<.<.<.<.jXjXjXjX<.<.<.<.jXjXjXjX<.<.<.<.",
"jXjXjXjX<.<.<.<.jXjXjXjX<.<.<.<.jXjXjXjX<.<.<.<.jXjXjXjX<.<.<.<.jXjXjXjX<.<.<.<.jXjXjXjX<.<.<.<.jXjXjXjX<.<.<.<.jXjXjXjX<.<.<.<.",
"jXjXjXjX<.<.<.<.jXjXjXjX<.<.<.<.jXjXjXjX<.<.<.<.jXjXjXjX<.<.<.<.jXjXjXjX<.<.<.<.jXjXjXjX<.<.<.<.jXjXjXjX<.<.<.<.jXjXjXjX<.<.<.<.",
"jXjXjXjX<.<.<.<.jXjXjXjX<.<.<.<.jXjXjXjX<.<.<.<.jXjXjXjX<.<.<.<.jXjXjXjX<.<.<.<.jXjXjXjX<.<.<.<.jXjXjXjX<.<.<.<.jXjXjXjX<.<.<.<.",
"<.<.<.<.jXjXjXjX<.<.<.<.jXjXjXjX<.<.<.<.jXjXjXjX<.<.<.<.jXjXjXjX<.<.<.<.jXjXjXjX<.<.<.<.jXjXjXjX<.<.<.<.jXjXjXjX<.<.<.<.jXjXjXjX",
"<.<.<.<.jXjXjXjX<.<.<.<.jXjXjXjX<.<.<.<.jXjXjXjX<.<.<.<.jXjXjXjX<.<.<.<.jXjXjXjX<.<.<.<.jXjXjXjX<.<.<.<.jXjXjXjX<.<.<.<.jXjXjXjX",
"<.<.<.<.jXjXjXjX<.<.<.<.jXjXjXjX<.<.<.<.jXjXjXjX<.<.<.<.jXjXjXjX<.<.<.<.jXjXjXjX<.<.<.<.jXjXjXjX<.<.<.<.jXjXjXjX<.<.<.<.jXjXjXjX",
"<.<.<.<.jXjXjXjX<.<.<.<.jXjXjXjX<.<.<.<.jXjXjXjX<.<.<.<.jXjXjXjX<.<.<.<.jXjXjXjX<.<.<.<.jXjXjXjX<.<.<.<.jXjXjXjX<.<.<.<.jXjXjXjX",
"jXjXjXjX<.<.<.<.jXjXjXjX<.<.<.<.jXjXjXjX<.<.<.<.jXjXjXjX<.<.<.<.jXjXjXjX<.<.<.<.jXjXjXjX<.<.<.<.jXjXjXjX<.<.<.<.jXjXjXjX<.<.<.<.",
"jXjXjXjX<.<.<.<.jXjXjXjX<.<.<.<.jXjXjXjX<.<.<.<.jXjXjXjX<.<.<.<.jXjXjXjX<.<.<.<.jXjXjXjX<.<.<.<.jXjXjXjX<.<.<.<.jXjXjXjX<.<.<.<.",
"jXjXjXjX<.<.<.<.jXjXjXjX<.<.<.<.jXjXjXjX<.<.<.<.jXjXjXjX<.<.<.<.jXjXjXjX<.<.<.<.jXjXjXjX<.<.<.<.jXjXjXjX<.<.<.<.jXjXjXjX<.<.<.<.",
"jXjXjXjX<.<.<.<.jXjXjXjX<.<.<.<.jXjXjXjX<.<.<.<.jXjXjXjX<.<.<.<.jXjXjXjX<.<.<.<.jXjXjXjX<.<.<.<.jXjXjXjX<.<.<.<.jXjXjXjX<.<.<.<.",
"<.<.<.<.jXjXjXjX<.<.<.<.jXjXjXjX<.<.<.<.jXjXjXjX<.<.<.<.jXjXjXjX<.<.<.<.jXjXjXjX<.<.<.<.jXjXjXjX<.<.<.<.jXjXjXjX<.<.<.<.jXjXjXjX",
"<.<.<.<.jXjXjXjX<.<.<.<.jXjXjXjX<.<.<.<.jXjXjXjX<.<.<.<.jXjXjXjX<.<.<.<.jXjXjXjX<.<.<.<.jXjXjXjX<.<.<.<.jXjXjXjX<.<.<.<.jXjXjXjX",
"<.<.<.<.jXjXjXjX<.<.<.<.jXjXjXjX<.<.<.<.jXjXjXjX<.<.<.<.jXjXjXjX<.<.<.<.jXjXjXjX<.<.<.<.jXjXjXjX<.<.<.<.jXjXjXjX<.<.<.<.jXjXjXjX",
"<.<.<.<.jXjXjXjX<.<.<.<.jXjXjXjX<.<.<.<.jXjXjXjX<.<.<.<.jXjXjXjX<.<.<.<.jXjXjXjX<.<.<.<.jXjXjXjX<.<.<.<.jXjXjXjX<.<.<.<.jXjXjXjX",
"jXjXjXjX<.<.<.<.jXjXjXjX<.<.<.<.jXjXjXjX<.<.<.<.jXjXjXjX<.<.<.<.jXjXjXjX<.<.<.<.jXjXjXjX<.<.<.<.jXjXjXjX<.<.<.<.jXjXjXjX<.<.<.<.",
"jXjXjXjX<.<.<.<.jXjXjXjX<.<.] :XrXrXOXF.S.XXrXrX:X;X;XwXrXrXwX].F.).:XyXwX;X;X:XwX_./.-XrX;XwXyXiX3XjXjX<.<.<.<.jXjXjXjX<.<.<.<.",
"jXjXjXjX<.<.<.<.jXjXjXjX<.<.] @XyXrXwX@X:XyXwX:X;XXX%XwXrXrXrX-X-XrXrX;XwXOX}.-XrXrXwXwXOX}.rXwXpX&X7XjX<.<.<.<.jXjXjXjX<.<.<.<.",
"jXjXjXjX<.<.<.<.jXjXjXjX<.<.Q.fX;XiXwXuX:X;XrX-XwX`._.rX;X:XiXyXrX@XrX:X;X-X].wX:X;XrX/.E.XXrXrX1XwX7XjX<.<.<.<.jXjXjXjX<.<.<.<.",
"<.<.<.<.jXjXjXjX<.<.<.<.jXjX^.1X_.I.iXaXJ C @XuXyX'.U.Y.Y.Y.XXhX(.N L.yXdX=XF.(.I.].XXU.OXwX@X:XhX!.,.<.jXjXjXjX<.<.<.<.jXjXjXjX",
"<.<.<.<.jXjXjXjX<.<.<.<.jXjXT L.Z.m K K.N C Z.OX!.Z.C.~ Z.C A Y.A V E ).+XR.C.~ ~ U.'.OXuXrX:XY.(.;.<.<.jXjXjXjX<.<.<.<.jXjXjXjX",
"<.<.<.<.jXjXjXjX<.<.<.<.jXjXT C C./ D n B W ^ A.I W H.C.C.^ D m O Y ~ A.W I H.C.m Z.%X%XoXZ.-X;XD Y ,.<.jXjXjXjX<.<.<.<.jXjXjXjX",
"<.<.<.<.jXjXjXjX<.<.<.<.jXjX6XD.G.G.Q N O S W T I ! / ^ D.S ~ C O B ~ Y I U D.D . B I.S.^ F Z.,X).I.>.<.jXjXjXjX<.<.<.<.jXjXjXjX",
"jXjXjXjX<.<.<.<.jXjXjXjX<.<.<.Y W S M 3 M % 0 6 s z 2 C Y # N 9 % M 9 7 1 z a   P 9 P C W F M L.2XW.8XjX<.<.<.<.jXjXjXjX<.<.<.<.",
"jXjXjXjX<.<.<.<.jXjXjXjX<.<.,.3 B M + < 2 2 r a $.r.} i + N @ 2 , 3 1 i z y.o.t U D.B # 5 B F ) [ 8XjXjX<.<.<.<.jXjXjXjX<.<.<.<.",
"jXjXjXjX<.<.<.<.jXjXjXjX<.<._ 8 n + 1 a f }  .z z =.i.v o n 5 i s z | | l  .u.5.3 G I < r T J.) :.jXjXjX<.<.<.<.jXjXjXjX<.<.<.<.",
"jXjXjXjX<.<.<.<.jXjXjXjX<.<.j -.k i g | 7.=...*.l a s v @.6 g c =.7.X.*.| a s l #.s a z | t.] X f 5XjXjX<.<.<.<.jXjXjXjX<.<.<.<.",
"<.<.,.<.jXjXjXjX<.<.<.<.jXjX_ o.r.e.g p 4.9.9.#.a s 5 k 0.u.*.s #.9.7.6.l a q 6 =.r.5.f g 5.5.o.} O.<.<.jXjXjXjX<.<.<.<.jXjXjXjX",
"<.<.[ Q.$X#XT.) ) R.Q.Q.^.#X!.R.^.$X X~.f o.9.*.c } a 5 l b a > , f X.v z | l 5 : f ~.W.!. X0XqX0XP.P.P.#XW.T.R.Q.Q.P.Q.$X3XjXjX",
"<.<.R.hXhXhX1X,XpXgXfXfX1XaXyXtXtX>XsXdXP.{ y.p.6.=.z 6 i - = ; ;  .w.0.u.-.z i : ! *X>XsXdXtX>XtXpX<X1XfXgXpXaXfX<XaXhXgXaXjXjX",
"<.<.@XpXwXwXrXrXrXyX;X-X;X}.wXrXwXrX).=X=X_ 2.h.i.i.*.5 ; a f 6 a v.lXj.p.y.z i P /._.;XyXiXrXwX@XwX{.XXyXwXuXOX'.].;XrX-XsXjXjX",
"jXjXiX,X_.oXgX-XH L.yXyX:XF.`.(.].-XU.'.>X X8.s.a.6.d > v i.t.} v b.m.k.k.9.f 3 N C.S.wXaX( K eXyXpXG.).|.U.-X).E.@X-XwXrXfX<.<.",
"jXjX( {.H A oXK m D _.eX|.C./ ~ S.].OX;X:XdX0XX.f 5 - b c.g.a.-.{ $.g.v.q.s 6 9 O Y [.1XK.m V I.wX+XD.C.~ Z.'.).wXuXrX|.oXR.<.<.",
"jXjXM H ~ C N M Y ~ A.Z.U D.C.V ( :XuXuX:XpX@X6 1 > = ' m.n.g.6.6.4.=.| s ; 5 9 M 2 P.L.o P Q C.G.U / A.C H }.}.:X|.XXwXL.L <.<.",
"jXjX) A.G.F.C . Z ~ W Y I F.^ n M |.:X.XyX_.T p s 5 5 a $.9.3.p.g.a.i.z 5 , , $ M 7 _ B X < Q Q W I ) A.N . L.[.S.~ ~ OX_.Z.<.<.",
"<.<.;./ W D @ @ N P 0 , j _ X @ $ Y J D (.` * s a l ..z i , z p.a.z.a.z > a | z a p i @ N 3 0 P 5 u x $ + $ P ~ C ^ V ( ,X,XjXjX",
"<.<.O.% B M 3 , X > q f 5...< U ) B o 3 U g z q v y.*...d a d z -.7.k & a 7.6.*.} f l % N 3 r q i =.2.r 8 ) Y O 3 P V Q R.4XjXjX",
"<.<.e + n 3 1 i d z c l *.u.e.7 V.W : p } o.*.v v 7.9.9.*.#. .s i f f s d -.0.7.|  .@.N @ p c } l  .9.u.f F ^ ; r 7 C.G.R jXjXjX",
"<.<.} x 2 a z  .6.#.X.| a l v c 0 8 f | 6.X.| *.z s z #.6.| #.z  .=.X.*.| a z z  .*.o._ + c =.....d f c v u 3 f z *.[ F 5 1.jXjX",
"jXjXx y.e.=.l *.u.7.7.v a q 5 $.r.4.} z 9.7.7.*.s a > k u.y.*.d -.u.7.6.z a 6 5 &.u.7.c 5 #.y.7.#.a i > v y.5.@.l 5.y.v | j <.<.",
"jXjXq z -.c 5 q z *. .f z l 5 a #.$.y , s  .*.z l z i 6 z $.l , i v $.b l z d 5 d *. .6 6 f #.#.l l z 6 q | 6.d , a } 4. .0 <.<.",
"jXjXw s > = ; ; f 6.&.7.=...a i q - ; ; 6 #.6.7.6.*.l 6 a , ; , > s c z ..=.| i a 6 = ; ; i $.3.7.6.#.d q a ; - ; ; v 7.7.` <.<.",
"jXjX>., 5 i 5 5 q.lXn.a.9.*.z > > q q ; b N.N.h.i.-.| q , , , > 6 6.h.6. .X.*.l > > q 6 ; $.kXM.g.u.=.| 5 ; 6 i > d l.kXx.s.<.<.",
"<.<.O.s 7.6.z l b.kXg.a.i...i >  .9.#.a 8.lXl.p.g.6.l 5 5 i 6 - a g.a.*...*. .q 5 *.9...a d.lXj.a.a.=.d ; z 9.=.d ' kXn.p.z.jXjX",
"<.<.j g.k.p.6.z 3.j.n.j.v 5 , 3.z.a.u.| @.i.l.n.8.a , 6 d d s 5 , v 6.0.6.f , 6 8.z.a.0.} *.g.l.n.&.q ; b k.g.i.#.} 0.j.n.g.jXjX",
"<.<.' N.c.k.7.*.*.=.&.v > = 6 j.m.x.i.=.*.*.-.*.i - > 6 z } l 6 > ; 6 d a , = a l.n.z.0.=.*.=.-.@.6 - - 8.N.l.g.-.*.*.-.&.h jXjX",
"<.<.d 7.g.8.0.p.p.u.z q , ; , | p.d.9.u.p.p.*.a 5 > > > i z s , , 5 5 > ; > ; 5 #.g.q.9.p.p.i...q 5 ; > l u.g.9.u.a.p.7.d R jXjX",
"jXjX+.f a z z.n.k.k.#.> 6 l z d a q 9.m.k.x.0.a > s z a ; ; > 5 , 6 d 6 > 6 z z s a s 0.k.g.z.7.6 , d v f s q #.z.g.k.g.k ;.<.<.",
"jXjX9XR q d  .q.i.@.> , *.6.X.z a a z w.l.d.s = z 6.*.| a 5 q a 5 > , - 6 =.=...l 6 a z 6.i.3.6 - v 6.*.| i 6 l #.0.u. .7 <.<.<.",
"jXjX5Xa |  .a a l s 6 a 7.y.6.7.u.i. .a l l i 5 b u.9.7.*. .| s 6 a s q d 7.y.9.=. . .f a l d q 6 #.u.9.6.....z a d z z h ;.<.<.",
"jXjX_ #.#.*.z l ....#.} s v #.i.g.g.i.l z ......f z  .&.6...*.l z *.#.#.z d  .$.6.#.#.| f  ...#. .d z #.3.=...#.l z ....=._ <.<.",
"<.<.z i.6.=.l $.u.6.6. .a q , 9.m.c.9.v y.6.6.=.f i > l u.6.*.z 6.u.-.6.} a 5 6 7.t.-.z  .u.6.6.*.d i > v u.6...z 7.9.-.e.:.jXjX",
"<.<.w  .7.b 6 d  .-.*.d f d , l i.d.k 6 z $.-.z s l q i  .9.v 5 f #.-.@.d l s 6 z 6.&.i i v $.$.z d l 6 a *.9.z 5 l *.6...` jXjX",
"<.<.w d 6 > > ; a #.#.$.*.| q i a > ; ; , | #.*.=.X.d 6 s 6 > > ; d *.#.$.*.c 6 a i , > ; 6  .#.*.=...s 6 s 6 > > ; l $.*.:.jXjX",
"<.<.R 6 > , > , 7.N.c.a.7.*.l 5 > > 5 ; z n.m.h.u.=.| q > > 5 > 6 q.N.x.a.6.#.f , > , 5 ; b m.n.g.0.=.} 6 > > 5 ; i g.N.x.f.jXjX",
"jXjX6Xq #.*.f d b.lXg.p.p.*.s ; l =.| q 8.zXl.i.a.6.z > 6 *.#.s z M.kXp.p.i...a ; v =.z q d.lXj.i.a.6.l ; a *...i b lXm.i.z.<.<.",
"jXjX:.9.k.p.=.z q.n.n.l.$.a , b a.g.y.} *.l.l.n.q.l , a 0.k.i.#.v d.v.n.j. .q , #.g.a.7.{ 3.v.l.n.9.f , k i.k.u. . .g.l.n.k.<.<.",
"jXjX' B.z.h.7. ...6.q.%.5 = 6 j.m.k.i.*. .*.9.8.h - = &.N.k.g.6. ...7.q.' > & a n.n.k.u.#. .=.0.8.a - - 8.N.k.a.=. .X.9.q.v <.<.",
"jXjXk i.l.q.7.i.i.7.l q > - , $.z.j.9.0.i.u...a 5 ; - l g.l.q.7.i.i.6.f q > - 6 7.l.g.7.u.i.y.| i , ; ; v j.l.0.7.i.i.=.d 3 <.<.",
"<.<.e } } #.g.g.a.z.*., 5 s f s z z 9.z.g.z.u.s , q l s l z #.h.g.g.k.| , 5 d d d z z u.z.g.z.7.q , i l s z z $.z.g.h.k.z <.jXjX",
"<.<.,._ j X.7.i.g.7.6 > v =.#.l , q v 9.a.i.z ; s *.*.| q , l -.i.a.&.5 5  .=...f , i  .y.a.0.l ; l =.*.} 6 , z 6.p.z.6.j 8XjXjX",
"<.<.<.<.5Xj h  .=.a ; y 9.y.6.=.z } d d v l 5 ;  .i.6.6.| v z a z v q - s y.9.6.*.z c s d v k , , $.u.6.6.v v l d v x R 7XjXjXjX",
"<.<.<.<.jXjXjXjX<.<.<.<.jXjXjXjX<.<.<.<.jXjXjXjX<.<.<.<.jXjXjXjX<.<.<.<.jXjXjXjX<.<.<.<.jXjXjXjX<.<.<.<.jXjXjXjX<.<.<.<.jXjXjXjX"
};
