/* XPM */
static char *_453ff8d9a924bb9dda8b8c0be3c915ePq4v9Y4FdCNwdxf2[] = {
/* columns rows colors chars-per-pixel */
"64 64 238 2 ",
"   c #231A1F",
".  c #09370D",
"X  c #132C14",
"o  c #1C241C",
"O  c #1D2C1D",
"+  c #093D10",
"@  c #143C14",
"#  c #1A3919",
"$  c #21341D",
"%  c #233A1F",
"&  c #1F1423",
"*  c #2D072E",
"=  c #261826",
"-  c #2A1B27",
";  c #2D1C29",
":  c #321E2A",
">  c #38182D",
",  c #3C1931",
"<  c #292824",
"1  c #2B2C25",
"2  c #34202B",
"3  c #3B232E",
"4  c #352A2B",
"5  c #3B2C2E",
"6  c #2B3325",
"7  c #283824",
"8  c #2B3B25",
"9  c #333B2A",
"0  c #3D2431",
"q  c #3E2932",
"w  c #3E3330",
"e  c #481D35",
"r  c #501F3C",
"t  c #422632",
"y  c #4A2536",
"u  c #452933",
"i  c #4B2C36",
"p  c #4C2338",
"a  c #4E2D38",
"s  c #57293B",
"d  c #522E39",
"f  c #483137",
"g  c #55323A",
"h  c #593638",
"j  c #5B343C",
"k  c #622D3F",
"l  c #61363F",
"z  c #63393E",
"x  c #683C3E",
"c  c #07480D",
"v  c #10450F",
"b  c #0C540E",
"n  c #0D4310",
"m  c #0A4B12",
"M  c #134312",
"N  c #134B13",
"B  c #1A4719",
"V  c #0C5114",
"C  c #145316",
"Z  c #18591A",
"A  c #23471D",
"S  c #21561C",
"D  c #1C641D",
"F  c #1A691E",
"G  c #1C771D",
"H  c #27651A",
"J  c #2E731D",
"K  c #37761D",
"L  c #1B5C20",
"P  c #2A4627",
"I  c #31452B",
"U  c #295B27",
"Y  c #295C25",
"T  c #36542C",
"R  c #394F36",
"E  c #1C6B21",
"W  c #256E22",
"Q  c #2B6628",
"!  c #386C27",
"~  c #257222",
"^  c #247A24",
"/  c #2D7A29",
"(  c #387A26",
")  c #3A6438",
"_  c #397C34",
"`  c #51562B",
"'  c #434B37",
"]  c #445637",
"[  c #43612A",
"{  c #55682C",
"}  c #546633",
"|  c #4A753A",
" . c #51743A",
".. c #59783B",
"X. c #69713F",
"o. c #737E37",
"O. c #5B2942",
"+. c #5F3540",
"@. c #632842",
"#. c #633641",
"$. c #6C3644",
"%. c #653A41",
"&. c #6C3D43",
"*. c #713E45",
"=. c #783748",
"-. c #515E46",
";. c #6E4142",
":. c #664E43",
">. c #734245",
",. c #7A4646",
"<. c #764943",
"1. c #7C4A46",
"2. c #764248",
"3. c #7B4549",
"4. c #7E484A",
"5. c #4C6847",
"6. c #54694D",
"7. c #537649",
"8. c #53734C",
"9. c #5E6F50",
"0. c #567A52",
"q. c #597D55",
"w. c #626F53",
"e. c #647253",
"r. c #617E52",
"t. c #8A374F",
"y. c #943C54",
"u. c #83434C",
"i. c #834B4B",
"p. c #8B4E4D",
"a. c #8D524D",
"s. c #875849",
"d. c #92544F",
"f. c #93594D",
"g. c #8F4850",
"h. c #974F52",
"j. c #8E5051",
"k. c #955451",
"l. c #9A5653",
"z. c #9C5953",
"x. c #9E5A58",
"c. c #A45D55",
"v. c #A65B58",
"b. c #9F6250",
"n. c #A76654",
"m. c #AB6256",
"M. c #AE6359",
"N. c #B36C56",
"B. c #B2655A",
"V. c #B56B58",
"C. c #B67156",
"Z. c #BC7259",
"A. c #C3765E",
"S. c #CA7D5D",
"D. c #278528",
"F. c #2D8D2C",
"G. c #378829",
"H. c #299529",
"J. c #34942D",
"K. c #3A982E",
"L. c #2D9430",
"P. c #3B9531",
"I. c #369930",
"U. c #2DA32E",
"Y. c #33A82E",
"T. c #428825",
"R. c #489729",
"E. c #52932F",
"W. c #5D973C",
"Q. c #63952E",
"!. c #6C8B35",
"~. c #4CA22E",
"^. c #57A729",
"/. c #5AAD2D",
"(. c #5CB22F",
"). c #5AB92E",
"_. c #45A531",
"`. c #4AA330",
"'. c #57AB30",
"]. c #5DB733",
"[. c #65AC2A",
"{. c #73AE2D",
"}. c #63B52E",
"|. c #6CB52A",
" X c #67BA2E",
".X c #6CBB2E",
"XX c #72BE2D",
"oX c #78BB2B",
"OX c #63B431",
"+X c #68B833",
"@X c #76B631",
"#X c #75C32E",
"$X c #7AC42D",
"%X c #75CC2E",
"&X c #7DC92C",
"*X c #78D52B",
"=X c #6AC434",
"-X c #77C831",
";X c #6BD131",
":X c #78D536",
">X c #4F8748",
",X c #5B8D4C",
"<X c #5F924B",
"1X c #5E8C53",
"2X c #65944A",
"3X c #68964A",
"4X c #689256",
"5X c #6E9561",
"6X c #749964",
"7X c #7B9D67",
"8X c #75A866",
"9X c #7BB16D",
"0X c #86C92B",
"qX c #83CD2D",
"wX c #86D12D",
"eX c #8CD42C",
"rX c #88DB2B",
"tX c #90D72C",
"yX c #94DB2D",
"uX c #9BDF2D",
"iX c #89C833",
"pX c #83D432",
"aX c #87DB32",
"sX c #8AE12A",
"dX c #95E32C",
"fX c #8DE133",
"gX c #94E532",
"hX c #96EB33",
"jX c #9CEA31",
"kX c #9CF330",
"lX c #A1F130",
"zX c #918647",
"xX c #A7934A",
"cX c #83A16A",
"vX c #82BB73",
"bX c #CB815C",
"nX c #D5895F",
"mX c #DC8D60",
/* pixels */
"vXvXvXvXq.q.q.q.vXvXvXvXq.q.q.q.vXvXvXvXq.q.q.q.vXvXvXvXq.q.q.q.vXvXvXvXq.q.q.q.vXvXvXvXq.q.q.q.vXvXvXvXq.q.q.q.vXvXvXvXq.q.q.q.",
"vXvXvXvXq.q.q.q.vXvXvXvXq.q.q.q.vXvXvXvXq.q.q.q.vXvXvXvXq.q.q.q.vXvXvXvXq.q.q.q.vXvXvXvXq.q.q.q.vXvXvXvXq.q.q.q.vXvXvXvXq.q.q.q.",
"vXvXvXvXq.q.q.q.vXvXvXvXq.q.q.q.vXvXvXvXq.q.q.q.vXvXvXvXq.q.q.q.vXvXvXvXq.q.q.q.vXvXvXvXq.q.q.q.vXvXvXvXq.q.q.q.vXvXvXvXq.q.q.q.",
"vXvXvXvXq.q.q.q.vXvXvXvXq.q.q.q.vXvXvXvXq.q.q.q.vXvXvXvXq.q.q.q.vXvXvXvXq.q.q.q.vXvXvXvXq.q.q.q.vXvXvXvXq.q.q.q.vXvXvXvXq.q.q.q.",
"q.q.q.q.vXvXvXvXq.q.q.q.vXvXvXvXq.q.q.q.vXvXvXvXq.q.q.q.vXvXvXvXq.q.q.q.vXvXvXvXq.q.q.q.vXvXvXvXq.q.q.q.vXvXvXvXq.q.q.q.vXvXvXvX",
"q.q.q.q.vXvXvXvXq.q.q.q.vXvXvXvXq.q.q.q.vXvXvXvXq.q.q.q.vXvXvXvXq.q.q.q.vXvXvXvXq.q.q.q.vXvXvXvXq.q.q.q.vXvXvXvXq.q.q.q.vXvXvXvX",
"q.q.q.q.vXvXvXvXq.q.q.q.vXvXvXvXq.q.q.q.vXvXvXvXq.q.q.q.vXvXvXvXq.q.q.q.vXvXvXvXq.q.q.q.vXvXvXvXq.q.q.q.vXvXvXvXq.q.q.q.vXvXvXvX",
"q.q.q.q.vXvXvXvXq.q.q.q.vXvXvXvXq.q.q.q.vXvXvXvXq.q.q.q.vXvXvXvXq.q.q.q.vXvXvXvXq.q.q.q.vXvXvXvXq.q.q.q.vXvXvXvXq.q.q.q.vXvXvXvX",
"vXvXvXvXq.q.q.q.vXvXvXvXq.q.q.q.vXvXvXvXq.q.q.q.vXvXvXvXq.q.q.q.vXvXvXvXq.q.q.q.vXvXvXvXq.q.q.q.vXvXvXvXq.q.q.q.vXvXvXvXq.q.q.q.",
"vXvXvXvXq.q.q.q.vXvXvXvXq.q.q.q.vXvXvXvXq.q.q.q.vXvXvXvXq.q.q.q.vXvXvXvXq.q.q.q.vXvXvXvXq.q.q.q.vXvXvXvXq.q.q.q.vXvXvXvXq.q.q.q.",
"vXvXvXvXq.q.q.q.vXvXvXvXq.q.q.q.vXvXvXvXq.q.q.q.vXvXvXvXq.q.q.q.vXvXvXvXq.q.q.q.vXvXvXvXq.q.q.q.vXvXvXvXq.q.q.q.vXvXvXvXq.q.q.q.",
"vXvXvXvXq.q.q.q.vXvXvXvXq.q.q.8.@XeXeX$XP.F.'.qXtXqXqX&XqXeXeX#XI.F./.eXtXqXqXqXqX XJ.(.eXqXqXtXpX,XvXvXq.q.q.q.vXvXvXvXq.q.q.q.",
"q.q.q.q.vXvXvXvXq.q.q.q.vXvXvX9XE.yXeXeX.XXXeXqXqX&X+X+XqXeXeXqX X#XeXqXqX&XOX XqXeXqXqX$X(.wXqXpX[.8.q.vXvXvXvXq.q.q.q.vXvXvXvX",
"q.q.q.q.vXvXvXvXq.q.q.q.vXvXvX4XgX&X&XqXyXwXoXeX#XqX/.(.eX$XpXqXyXqX$XeX#XqX'.}.eXXXyX/.P./.wXeX-XqX8.q.vXvXvXvXq.q.q.q.vXvXvXvX",
"q.q.q.q.vXvXvXvXq.q.q.q.vXvXvX4X#X+XT.|.jXT.m [.uXdX_.K.R.R.R.XXgX( N |.dXyXK.R.R.K.OX`.}.qX#X$XjXQ.0.q.vXvXvXvXq.q.q.q.vXvXvXvX",
"q.q.q.q.vXvXvXvXq.q.q.q.vXvXvX1XH G.C S ( N Z ^ ).Q._ D.^ G.C H K N Z D.).Q.G.D.D G._.(.yXeXqX^.R.5.q.q.vXvXvXvXq.q.q.q.vXvXvXvX",
"vXvXvXvXq.q.q.q.vXvXvXvXq.q.q.5.B ^ J.^ c # Q ^ F.P Q U.D.D.^ D c # Q ^ F.P / U.C C }.]././ /.wXW Q 9XvXq.q.q.q.vXvXvXvXq.q.q.q.",
"vXvXvXvXq.q.q.q.vXvXvXvXq.q.q.q.>XI.F.~ B M Z Y I 9 ] Y G / A F B v S Y I 9 ] Q @ X ! J.G F D OX].'.8XvXq.q.q.q.vXvXvXvXq.q.q.q.",
"vXvXvXvXq.q.q.q.vXvXvXvXq.q.0.q.0.P B v < $ O 4 3 k =.> 8 % $ N 2 # O 4 3 l $.- 6 T P N P Z n ( +X<XvXvXq.q.q.q.vXvXvXvXq.q.q.q.",
"vXvXvXvXq.q.q.q.vXvXvXvXq.q.q.0.' # m 1 > 3 u s a &.k.h.s + b < > 0 u s a >.k.g.i D.^   , P H._ 5.vXvXvXq.q.q.q.vXvXvXvXq.q.q.q.",
"q.q.q.q.vXvXvXvXq.q.q.q.vXvXvX1X+.9 O y g &.2.&.&.d g ,.z 6 o y g &.2.&.&.a h ,.j 8 8 y s :.P.L q 8.q.q.vXvXvXvXq.q.q.q.vXvXvXvX",
"q.q.q.q.vXvXvXvXq.q.q.q.vXvXr.u @.y.=.@.r i.p.i.3.d t ; z k.3.&.j a.p.i.3.i t ; &.h.=.@.s y.=.t O.R q.q.vXvXvXvXq.q.q.q.vXvXvXvX",
"q.q.q.q.2X3X3X2X) ) ) | 3X3X..` } X.zX!.{ s u.k.>.a j 0 3 &.i.i : i &.,.h d j 0 3 s s...{ o.zXxX!.[  . .3X,X>X,X . .|  .2X9XvXvX",
"q.q.q.q.W.kXlXhX=X].pXgXjXfXpXgX*X*X*XsXkX!.O.p.l.i.2.g 3 u = = - : ;.i.i.p.&.i > 1 ~.;XrXdXsXrXsXaX:XpXgXaX%XfXgX:XhXjXhXW.vXvX",
"vXvXvXvX{.eXqXqXeXeXdXeXXX$X X.XtXeXyX.X.X*X] t.M.k.k.>.2 - 0 u ; j S.S.M.c.&.p 4 G.).XXtXeXyXqXXX&X'. XyXeXyX.X`.'.eXqXpXoXq.q.",
"vXvXvXvXaX=XOX#XjX[.J oXyXeX'._.|.R.$X'.J.%X{.s.v.m.p.a ; z l.i.a 1.nXV.m.m.*.t @ G J.|.jXR.K wXyXwXK./.[.`.&XR.~.XX$XeXgX{.q.q.",
"vXvXvXvX( '.Z J |.H c / $X0XR.F.~ G._. X$X$XdXiX>.d : = >.Z.v.c.>.#.a.n.C.;., 4 M B P.:X^.m V T.wX@XF.D.~ P._.(.yXyX&X^.oX7.q.q.",
"vXvXvXvXn W ^ D m @ Q ^ U.T Q U.F Z  XyXyXqX*X&X5 , ; & <.A.Z.z.i.i.i.*.j : - 4 N o } E.# 8 W D.L.I / L.C J OXOX&XR.$XoXD T q.q.",
"q.q.q.q.| I.I.F.C @ S ~ Q P ) L.C . ( -X^.rX}.I i i 3 3 u >.1.i.M.m.M.d.i : > 4 @ 1 g A @ > Y W U P _ D.n @ R._.D.F G.-XR.G.vXvX",
"q.q.q.q.1XQ Y C 6 # B 9 4 t j 1 O 8 8 D C G.` * t u l ,.j 3 ; z z.M.B.1.2 3 %.*.d y e 1 b $ 5 I > i j o % 8 P D L F M R.:XW.vXvX",
"q.q.q.q.8.$ M # : 2 < e t *.k.$.y / ^ X 2 f s &.u z z.4.3.g g a d &.z : = >.l.4.2.g #.8 n 1 y y y i.p.k w F.D o > B G _ ..vXvXvX",
"q.q.q.q.f # + 2 y d #.&.%.g >.k.l B E > p $.,.,.*.j >.i.i.3.,.&.i u j %.j g >.a.&.#.3.T n y &.&.j g 4.k.u Z U , r ' Y.Q -.vXvXvX",
"vXvXvXvX&.i.d #.z i.p.>.3.j t 3 z 3.a #.%.p.i.&.3.g t 3 x k.,.&.l a.i.2.3.g t 3 z a.2.;.1 h p.>.2.i t 3 >.*.d #.&.l.} O j 5.q.q.",
"vXvXvXvXd 0 : : ; i M.Z.M.k.3.g 2 1.N.b.p.k.i.&.d : : : 3 &.a.z j &.l 0 & - : ; >.N.n.a.4.%.%.a 0 ; i 0 : : ; t n.A.M.k.w.q.q.q.",
"vXvXvXvX0 2 &.%.0 <.mXC.z.c.4.g +.i d g m.p.*.&.t : 2 2 2 u 2 z k.2.3.&.u 3 : 3 i j g c.z.*.i.z : t 3 ; z &.0 x nXZ.z.c.e.q.q.q.",
"vXvXvXvXu a.M.l.#.>.C.C.Z.a.a 2 4.g 2 u z p.i.u ; 2 2 : : 3 : i i.k.,.i i d 0 t d 3 0 z k.k.>.2 0 i.2 i.M.z.&.&.N.C.Z.d.9.q.q.q.",
"q.q.q.q.<.S.B.c.4.&.,.d.s.u = : x.i.&.&.t : t i 3 : : 2 u i u : : i 3 3 a i 0 : 0 2 ; 2 u u 3 ; i k.z S.N.m.i.&.*.a.f.3 5XvXvXvX",
"q.q.q.q.a z.N.a.d.k.3.+.0 : 2 2 ,.i.>.>.%.; : 0 2 2 : 3 i a d 0 ; ; ; 2 3 3 : 2 : 2 2 2 t i i i 0 u t d.N.f.a.>.&.+.y ; 5XvXvXvX",
"q.q.q.q.j a u ,.M.2.>.g : : 2 2 0 4.k.i.l 3 : : 2 2 2 : 0 i t 2 2 2 2 2 : : 2 2 2 2 2 ; i %.j j u 0 0 d a ;.B.p.2.i.i 0 6XvXvXvX",
"q.q.q.q.2.u 3 g >.a.z : : 2 2 2 2 2 2 2 2 2 2 2 2 2 2 2 2 2 2 2 2 2 2 2 2 2 2 2 2 2 2 2 2 2 2 2 : 2 i u 2 i >.k.i.g - &.cXvXvXvX",
"vXvXvXvXl.>.&.l : 2 u i 2 2 2 2 2 2 2 2 2 2 2 2 2 2 2 2 2 2 2 2 2 2 2 2 2 2 2 2 2 2 2 2 2 2 2 2 2 : 3 3 : ; 0 u t 3 ; ,.e.q.q.q.",
"vXvXvXvX4.i.&.2.i - 3 3 2 2 2 2 2 2 2 2 2 2 2 2 2 2 2 2 2 2 2 2 2 2 2 2 2 2 2 2 2 2 2 2 2 2 2 2 2 2 : : 2 : 3 i i i i t 6.q.q.q.",
"vXvXvXvXd k.k.,.i 2 : : 2 2 2 2 2 2 2 2 2 2 2 2 2 2 2 2 2 2 2 2 2 2 2 2 2 2 2 2 2 2 2 2 2 2 2 2 2 2 2 2 2 : 2 j l j d 0 6.q.q.q.",
"vXvXvXvX0 j ,.i : 2 : : 2 : 2 2 2 2 2 2 2 2 2 2 2 2 2 2 2 2 2 2 2 2 2 2 2 2 2 2 2 2 2 2 2 2 2 2 2 2 2 2 2 2 : : d j i #.9.q.q.q.",
"q.q.q.q.i t - - 2 3 u i 0 2 2 2 2 2 2 2 2 2 2 2 2 2 2 2 2 2 2 2 2 2 2 2 2 2 2 2 2 2 2 2 2 2 2 2 2 2 2 2 : ; 0 i >.d.d.k.7XvXvXvX",
"q.q.q.q.i - 3 : 2 z g i a 3 : 2 2 2 2 2 2 2 2 2 2 2 2 2 2 2 2 2 2 2 2 2 2 2 2 2 2 2 2 2 2 2 2 2 2 2 : ; 3 3 : j S.S.m.M.cXvXvXvX",
"q.q.q.q.0 i &.g 2 i %.j t 2 2 2 2 2 2 2 2 2 2 2 2 2 2 2 2 2 2 2 2 2 2 2 2 2 2 2 2 2 2 2 2 2 2 2 2 2 ; i &.l : h bXC.B.M.7XvXvXvX",
"q.q.q.q.j k.,.2.i : i 3 : 2 2 2 2 2 2 2 2 2 2 2 2 2 2 2 2 2 2 2 2 2 2 2 2 2 2 2 2 2 2 2 2 2 2 2 2 - i k.2.>.i t i.n.N.;.5XvXvXvX",
"vXvXvXvXg p.k.,.0 : : : 2 2 2 2 2 2 2 2 2 2 2 2 2 2 2 2 2 2 2 2 2 2 2 2 2 2 2 2 2 2 2 2 2 2 2 2 2 ; u i.k.>.&.i.p.&.a 0 5.q.q.q.",
"vXvXvXvXi i %.u - ; : 2 2 2 2 2 2 2 2 2 2 2 2 2 2 2 2 2 2 2 2 2 2 2 2 2 2 2 2 2 2 2 2 2 2 2 2 2 2 2 2 u g >.B.M.M.l.i 3 5.q.q.q.",
"vXvXvXvX2.0 2 3 3 g 3 : 2 2 2 2 2 2 2 2 2 2 2 2 2 2 2 2 2 2 2 2 2 2 2 2 2 2 2 2 2 2 2 2 2 2 2 2 2 2 : 3 : u d.c.M.<.; a 9.q.q.q.",
"vXvXvXvXj.%.j g i 2.g : : 2 2 2 2 2 2 2 2 2 2 2 2 2 2 2 2 2 2 2 2 2 2 2 2 2 2 2 2 2 2 2 2 2 2 2 2 2 : ; : - t %.z 2 = 4.e.q.q.q.",
"q.q.q.q.a.4.>.,.d 3 u 2 2 2 2 2 2 2 2 2 2 2 2 2 2 2 2 2 2 2 2 2 2 2 2 2 2 2 2 2 2 2 2 2 2 2 2 2 2 : 2 d u : ; i #.&.%.j 7XvXvXvX",
"q.q.q.q.j k.4.2.u - : 2 2 2 2 2 2 2 2 2 2 2 2 2 2 2 2 2 2 2 2 2 2 2 2 2 2 2 2 2 2 2 2 2 2 2 2 2 2 : 2 g u ; u a.p.3.3.j 6XvXvXvX",
"q.q.q.q.i ,.d.j - 2 2 2 2 2 2 2 2 2 2 2 2 2 2 2 2 2 2 2 2 2 2 2 2 2 2 2 2 2 2 2 2 2 2 2 2 2 2 2 2 2 2 : : : t l 3.i.z a 6XvXvXvX",
"q.q.q.q.t i 3 : : 2 2 2 2 2 2 2 2 2 2 2 2 2 2 2 2 2 2 2 2 2 2 2 2 2 2 2 2 2 2 2 2 2 2 2 2 2 2 2 2 2 2 2 : : : ; j >.,.i.7XvXvXvX",
"vXvXvXvXa : - ; 2 2 2 2 2 2 2 2 2 2 2 2 2 2 2 2 2 2 2 2 2 2 2 2 2 2 2 2 2 2 2 2 2 2 2 2 2 2 2 2 2 2 2 : : 2 - u N.S.M.v.9.q.q.q.",
"vXvXvXvX0 3 i t : : 2 2 2 2 2 2 2 2 2 2 2 2 2 2 2 2 2 2 2 2 2 2 2 2 2 2 2 2 2 2 2 2 2 2 2 2 2 2 2 2 ; 3 j g ; h nXC.z.B.e.q.q.q.",
"vXvXvXvXi 3.2.&.3 - ; 2 2 2 2 2 2 2 2 2 2 2 2 2 2 2 2 2 2 2 2 2 2 2 2 2 2 2 2 2 2 2 2 2 2 2 2 2 2 ; t ,.2.&.i g z.N.Z.a.6.q.q.q.",
"vXvXvXvXj l.a.,.g i 3 : : 2 : : 2 2 2 2 2 2 2 2 2 2 2 2 2 2 2 2 2 2 2 2 2 2 2 2 2 2 2 2 2 2 2 2 : - a l.p.3.z &.2.4.>.u 5.q.q.q.",
"q.q.q.q.0 j 4.&.&.2.>.a : : : : : 2 2 2 2 2 2 2 2 2 2 2 2 2 2 2 2 2 2 2 2 2 2 2 2 2 2 2 2 2 2 : : ; ; i >.i.c.c.c.i.u 0 5XvXvXvX",
"q.q.q.q.j 2 = z l.a.i.z ; 3 j %.0 ; : 2 2 2 2 2 2 2 2 2 2 2 2 2 2 2 2 2 2 2 2 2 2 2 2 2 2 : : ; u &.g ; & z m.m.B.d.t 2 6XvXvXvX",
"q.q.q.q.3.d u i d >.<.: = ,.j.2.%.3 3 2 2 2 2 2 2 2 2 2 2 2 2 2 2 2 2 2 2 2 2 2 2 2 2 : ; : : u a.4.>.g i a j i.,.3 & &.cXvXvXvX",
"q.q.q.q.vXvXvXvXq.q.q.q.vXvXvXvXq.q.q.q.vXvXvXvXq.q.q.q.vXvXvXvXq.q.q.q.vXvXvXvXq.q.q.q.vXvXvXvXq.q.q.q.vXvXvXvXq.q.q.q.vXvXvXvX"
};
