/* XPM */
static char *_374658865eb4050e72f3b4116e2795beTwVYGPm9BTbJ8Pa[] = {
/* columns rows colors chars-per-pixel */
"64 64 210 2 ",
"   c #010101",
".  c #090604",
"X  c #070A06",
"o  c #0C0906",
"O  c #090C08",
"+  c #130C07",
"@  c #130E09",
"#  c #0D120C",
"$  c #14110C",
"%  c #1C130C",
"&  c #11190F",
"*  c #171311",
"=  c #151D14",
"-  c #1D1913",
";  c #22160D",
":  c #25180F",
">  c #251513",
",  c #251C14",
"<  c #2A1E14",
"1  c #1A2517",
"2  c #1B2719",
"3  c #2D2015",
"4  c #2B231C",
"5  c #212D1F",
"6  c #332216",
"7  c #3B2616",
"8  c #362418",
"9  c #392719",
"0  c #3D2A1C",
"q  c #212F20",
"w  c #342B22",
"e  c #253622",
"r  c #293C25",
"t  c #2A3B28",
"y  c #432D1C",
"u  c #482E1C",
"i  c #4B3626",
"p  c #4C3728",
"a  c #533622",
"s  c #553A26",
"d  c #583D29",
"f  c #2E4129",
"g  c #30442E",
"h  c #33492C",
"j  c #354B33",
"k  c #3B5435",
"l  c #594638",
"z  c #415C3C",
"x  c #62432C",
"c  c #6D4429",
"v  c #764C2D",
"b  c #614532",
"n  c #6D4B32",
"m  c #724E33",
"M  c #755236",
"N  c #795336",
"B  c #7C5638",
"V  c #46643D",
"C  c #3F454A",
"Z  c #695443",
"A  c #775A43",
"S  c #466243",
"D  c #496645",
"F  c #4A6945",
"G  c #4C6C49",
"H  c #527749",
"J  c #52744C",
"K  c #537550",
"L  c #577A53",
"P  c #597D55",
"I  c #796757",
"U  c #855C3D",
"Y  c #885A39",
"T  c #8F613F",
"R  c #97623B",
"E  c #9B643D",
"W  c #A1683E",
"Q  c #874D47",
"!  c #8A6445",
"~  c #996945",
"^  c #9B6B47",
"/  c #876A52",
"(  c #926E53",
")  c #97785F",
"_  c #A46C42",
"`  c #AB6F43",
"'  c #AD7246",
"]  c #A5724B",
"[  c #AC744B",
"{  c #B47547",
"}  c #B37649",
"|  c #B5794C",
" . c #BA7B4C",
".. c #AB6752",
"X. c #AD7A54",
"o. c #B47C51",
"O. c #B97E51",
"+. c #A17D62",
"@. c #C57A50",
"#. c #CB7A6E",
"$. c #EA7E71",
"%. c #5F8954",
"&. c #638E57",
"*. c #68955C",
"=. c #6A995E",
"-. c #6D9D61",
";. c #6FA063",
":. c #72A465",
">. c #76A968",
",. c #79AD6B",
"<. c #7CB36E",
"1. c #7FB871",
"2. c #B68354",
"3. c #BD8357",
"4. c #B4815A",
"5. c #BE8458",
"6. c #A78164",
"7. c #BB8E6A",
"8. c #A98E72",
"9. c #B99878",
"0. c #82BB73",
"q. c #C48454",
"w. c #C2865A",
"e. c #CB8659",
"r. c #C4895C",
"t. c #CB8C5D",
"y. c #D18F5E",
"u. c #CF905F",
"i. c #C38C63",
"p. c #C48E68",
"a. c #DB876E",
"s. c #CE9263",
"d. c #C5926C",
"f. c #CC946A",
"g. c #CA9968",
"h. c #D49362",
"j. c #DA9664",
"k. c #DD9966",
"l. c #D69A6A",
"z. c #C39A75",
"x. c #CC9B76",
"c. c #CD9D7A",
"v. c #D19E77",
"b. c #E4816E",
"n. c #E09966",
"m. c #E39E69",
"M. c #E68271",
"N. c #EB8272",
"B. c #F18176",
"V. c #F7917C",
"C. c #C9A07F",
"Z. c #DCA67B",
"A. c #E1A26E",
"S. c #ECA36D",
"D. c #E9A874",
"F. c #F7AC73",
"G. c #FCB677",
"H. c #F5B579",
"J. c #FCB779",
"K. c #FCBA7D",
"L. c #BBA997",
"P. c #F48D81",
"I. c #FD9684",
"U. c #DBA983",
"Y. c #D8B38E",
"T. c #DDB994",
"R. c #E0AB83",
"E. c #E5B388",
"W. c #EBB38A",
"Q. c #FDBE81",
"!. c #F3B98B",
"~. c #FFA795",
"^. c #EFBD91",
"/. c #F4BD93",
"(. c #F9BA93",
"). c #D2BCA6",
"_. c #FFC483",
"`. c #FFC987",
"'. c #FDC38C",
"]. c #F2C49A",
"[. c #F4C999",
"{. c #FBC89A",
"}. c #FFE198",
"|. c #D0C1AA",
" X c #ECCDA4",
".X c #F5C7A1",
"XX c #F6CCA2",
"oX c #FCCEA3",
"OX c #EAD3AE",
"+X c #FDD0A6",
"@X c #FDD4AB",
"#X c #FFDBAF",
"$X c #F9DBB3",
"%X c #FFDDB3",
"&X c #FEDCBC",
"*X c #FFE6AD",
"=X c #F5E2B4",
"-X c #FEE3B6",
";X c #FFE3B9",
":X c #FFECBC",
">X c #FFF1BF",
",X c #E5DAC3",
"<X c #FDE9C9",
"1X c #FFF2C2",
"2X c #FFF9CB",
"3X c #F7E9D1",
"4X c #FFF1D1",
"5X c #FFF2DA",
"6X c #FFFDE3",
"7X c #FFFBE7",
/* pixels */
"0.0.0.0.P P P P 0.0.0.0.P P P P 0.0.0.0.P P P P 0.0.0.0.P P P P 0.0.0.0.P P P P 0.0.0.0.P P P P 0.0.0.0.P P P P 0.0.0.0.P P P P ",
"0.0.0.0.P P P P 0.0.0.0.P P P P 0.0.0.0.P P P P 0.0.0.0.P P P P 0.0.0.0.P P P P 0.0.0.0.P P P P 0.0.0.0.P P P P 0.0.0.0.P P P P ",
"0.0.0.0.P P P P 0.0.0.0.P P P P 0.0.0.0.P P P P 0.0.0.0.P P P P 0.0.0.0.P P P P 0.0.0.0.P P P P 0.0.0.0.P P P P 0.0.0.0.P P P P ",
"0.0.0.0.P P P P 0.0.0.0.P P P P 0.0.0.0.P P P P 0.0.0.0.P P P P 0.0.0.0.P P P P ,.:.<.0.P P P P 0.0.0.0.P P P P 0.0.0.0.P P P P ",
"P P P P 0.0.0.0.P P P P 0.0.0.0.P P P P *.H H :.P P P P 0.0.0.0.P P P P 1.0.V X       O j ,.0.0.P P P P 0.0.0.0.P P P P 0.0.0.0.",
"P P P P 0.0.0.0.P P P P 0.0.0.0.P P t           = P P P 0.0.0.0.P P P L 0.1     . +         V 0.L P P P 0.0.0.0.P P P P 0.0.0.0.",
"P P P P 0.0.0.0.P P P P 0.0.0.0.G       @ y 8     O P P 0.0.0.0.P P P P k     ] j.h.t.] 9     r P L P P 0.0.0.0.P P P P 0.0.0.0.",
"P P P P 0.0.0.0.P P P P 0.0.0.=.    $ ] k.h.m.' .   5 P 0.0.0.0.P P P P     X.t.o.w.r.| m.T     j P P P 0.0.0.0.P P P P 0.0.0.0.",
"0.0.0.0.P P P P 0.0.0.0.P P L     y S. .f.v.3.[ E     <.P P P P 0.0.0.-.  % n.o.D.oX%X@X3.e.v   X 0.0.0.P P P P 0.0.0.0.P P P P ",
"0.0.0.0.P P P P 0.0.0.0.P P 5   , S.o.@X%X%X#X}  .%   &.S g q 2 f h F k   8 h.s._.@XoX@X+X' { o   -.0.0.P P P P 0.0.0.0.P P P P ",
"0.0.0.0.P P P P 0.0.0.0.P P X   o.| ^.#XoXoX#XK.Y +                       % j.l._.@X+XoX%X[ { ;   *.0.0.P P P P 0.0.0.0.P P P P ",
"0.0.0.0.P P P P 0.0.0.0.P L     u.} [.+X+X2Xz.%         , a n B N x d 9     ] t.`.@X@X;XZ.` {     :.0.0.P P P P 0.0.0.0.P P P P ",
"P P P P 0.0.0.0.P P P P 0.0.X   3.2.f.1X=Xw     X l X.h.k.h.t.t.t.t.h.S.B < t.O.t.!.].f.3.e.y   O P P P 0.0.0.0.P P P P 0.0.0.0.",
"P P P P 0.0.0.0.P P P P 0.0.e   , S.y.]       A W.l.3.3.3.3.3.3.3.3.3.3.t.j.3.3.3.| { h.~ %     D P P P 0.0.0.0.P P P P 0.0.0.0.",
"P P P P 0.0.0.0.P P P P 0.0.<.    % N     , E.Z.O.3.3.3.3.3.3.3.3.3.3.3.3.3.3.3.3.3.h.%     X &.P P P P 0.0.0.0.P P P P 0.0.0.0.",
"P P P P 0.0.0.0.P P P P 0.0.0.:.        d {.p.O.3.3.3.3.3.3.3.3.3.3.3.3.3.3.3.3.3.3.h.8     = 0.L P P P 0.0.0.0.P P P P 0.0.0.0.",
"0.0.0.0.P P P P 0.0.0.0.P P P L 0.    d /.i.O.3.3.3.3.3.3.3.3.3.3.3.3.3.3.3.3.3.3.3.3.h.j..   2 0.0.0.0.P P P P 0.0.0.0.P P P P ",
"0.0.0.0.P P P P 0.0.0.0.P P P P 2   < (.d. .3.3.3.3.3.3.3.3.3.3.3.3.3.3.3.3.3.3.3.3.3.3.w.w.    &.0.0.0.P P P P 0.0.0.0.P P P P ",
"0.0.0.0.P P P P 0.0.0.0.P P P S     R.x.O.3.3.3.3.3.3.3.3.3.3.3.3.5.5.5.5.5.3.3.3.3.3.3.3.h.m   X 0.0.0.P P P P 0.0.0.0.P P P P ",
"0.0.0.0.P P P P 0.0.0.0.P P P #   A !.l.t.h.h.w.3.3.3.3.3.3.3.3.t.3.3.3.3.t.w.3.3.3.3.3.3.3.m.o   H 0.0.P P P P 0.0.0.0.P P P P ",
"P P P P 0.0.0.0.P P P P 0.0.=.  X ^./ @ < < , o.5.3.3.3.3.3.3.t.B   + + + o 3.5.3.3.3.3.3.3.t.U   X P P 0.0.0.0.P P P P 0.0.0.0.",
"P P P P 0.0.0.0.P P P P 0.0.r   l /.A   % :   ~ w.3.3.3.3.3.3.t.U   ; % . 6 r.3.3.3.3.3.3.3.3.j..   F P 0.0.0.0.P P P P 0.0.0.0.",
"P P P P 0.0.0.0.P P P P 0.0.X   z.c.t.o.s 3 M h.3.3.3.3.3.3.3.3.h.U y x ] j.3.3.3.3.3.3.3.3.3.j.a   e P 0.0.0.0.P P P P 0.0.0.0.",
"P P P P 0.0.0.0.P P P P 0.-.  $ W.d.O.5.k.j.t.3.3.3.3.3.3.3.3.3.3.r.k.m.y.3.3.3.3.3.3.3.3.3.3.r.~   X P 0.0.0.0.P P P P 0.0.0.0.",
"0.0.0.0.P P P P 0.0.0.0.P f   p W.i.t.t.U o.h.3.3.3.3.3.3.3.3.3.3.k.~ s n h.w.3.3.3.3.3.3.3.3.w. .    ,.P P P P 0.0.0.0.P P P P ",
"0.0.0.0.P P P P 0.0.0.0.P =   / U.t.]       x h.3.3.3.3.3.3.3.3.k.u         r.5.3.3.3.3.3.3.3.w.q.;   %.P P P P 0.0.0.0.P P P P ",
"0.0.0.0.P P P P 0.0.0.0.P X   7.c.h.          ] w.3.3.3.3.3.3.r.!           % k.3.3.3.3.3.3.3.w.} y   V P P P P 0.0.0.0.P P P P ",
"0.0.0.0.P P P P 0.0.0.0.P     v.x._           d e. .t.t.2.} | j.0             t.3.3.3.3.3.3.3.w.` a   k P P P P 0.0.0.0.P P P P ",
"P P P P 0.0.0.0.P P P P 0.X   v.x.]           a [.Y.8.8. XXXR.h.7             t.3.3.3.3.3.3.3.3._ a   e 0.0.0.0.P P P P 0.0.0.0.",
"P P P P 0.0.0.0.P P P P 0.X   x.x.n.o         ,X$X  C   X 1X#X;X7.          3 j.2.3.3.3.3.3.w.[ ` a   t 0.0.0.0.P P P P 0.0.0.0.",
"P P P P 0.0.0.0.P P P P 0.&   6.P.B.M.@     L.1X:XZ     I -X%XXX1X/       % V.N.M.5.3.3.3.3.r.E { 7   j 0.0.0.0.P P P P 0.0.0.0.",
"P P P P 0.0.0.0.P P P P 0.r   Q I.M.N.I.} ].6X9.T.6X@ l 6X%X) #XoX*Xq.M ..I.b.b.M.b.2.3.3.5.o.R  .@   S 0.0.0.0.P P P P 0.0.0.0.",
"0.0.0.0.P P P P 0.0.0.0.P k   > ~.M.b.N.@.3X2X. + 8.  . 9.w    X@X{.F.2.N.b.b.b.b.M.2.3.3.w.E E _     1.P P P P 0.0.0.0.P P P P ",
"0.0.0.0.P P P P 0.0.0.0.P L     #.P.$.$.i.5X%X9.    4 ,     / :X@X'.K.o.b.N.M.M.B.e.3.3.r._ E } u   2 0.P P P P 0.0.0.0.P P P P ",
"0.0.0.0.P P P P 0.0.0.0.P P t   o (.a. .f.5XXX-XOXY.:X:XT. X:XXX@XJ.Q.3.3.a.b.b.w.2.5.r.' R ` E     -.0.P P P P 0.0.0.0.P P P P ",
"0.0.0.0.P P P P 0.0.0.0.P P P X   - ^.f.} 5XoXoX+X@X+X+X@X+XoX@X{.J.K.o.3.2.2.2.3.w.5._ R { _     f 0.0.P P P P 0.0.0.0.P P P P ",
"P P P P 0.0.0.0.P P P P 0.0.0.<.      +.D..X;XoX+X+X+X+X+X+X+X+XG._.h.O.3.5.w.r.3.] E {  .d     & P L P 0.0.0.0.P P P P 0.0.0.0.",
"P P P P 0.0.0.0.P P P P 0.0.0.0.L #     * b C.-X>X:X1X@X@X@X+XJ.Q.l.3.k.j.y.q.} { _ Y u       e P P P P 0.0.0.0.P P P P 0.0.0.0.",
"P P P P 0.0.0.0.P P P P 0.0.0.0.L P j X         $ 4 4 E.'.'.J.H.A.D.! ; : : : % o         # &.0.P P P P 0.0.0.0.P P P P 0.0.0.0.",
"P P P P 0.0.0.0.P P P P 0.0.0.0.P P P P :.X X         ! `.K.K.K.Q.}.$                 g =.0.0.0.P P P P 0.0.0.0.P P P P 0.0.0.0.",
"0.0.0.0.P P P P 0.0.0.0.P P P P 0.0.0.0.#     |.OXl.g._.J.J.G.G.G.G.H.2.c m N ~ ~     h P P P P 0.0.0.0.P P P P 0.0.0.0.P P P P ",
"0.0.0.0.P P P P 0.0.0.0.P P P P 0.0.0.X     - 7X&X@X%X@X+XoX{.oX{.oXoX-XZ.S.s.w.t.o..   # P L P 0.0.0.0.P P P P 0.0.0.0.P P P P ",
"0.0.0.0.P P P P 0.0.0.0.P P P P 0.0.1       I 6X@XoX+X+X+X+X+X+X+X+X+X%Xx.o ] w.3.r.n.$   = P L 0.0.0.0.P P P P 0.0.0.0.P P P P ",
"0.0.0.0.P P P P 0.0.0.0.P P P P 0.z   ; u   ).<XoX+X+X+X+X+X+X+X+X+X+X%X6.  y j.3.3.3.n..   g P 0.0.0.0.P P P P 0.0.0.0.P P P P ",
"P P P P 0.0.0.0.P P P P 0.0.0.0.J     q.+   3X&XoX+X+X+X+X+X+X+X+X+X+X#XZ.  . k.3.3.3.w.w.    <.P P P P 0.0.0.0.P P P P 0.0.0.0.",
"P P P P 0.0.0.0.P P P P 0.0.0.0.2   n A.  * 7X%XoX+X+X+X+X+X+X+X+X+X+X%X!.:   U t.3.3.3.h.Z   r P P P P 0.0.0.0.P P P P 0.0.0.0.",
"P P P P 0.0.0.0.P P P P 0.0.0.0.    h.X.  , 6X%XoX+X+X+X+X+X+X+X+X+X+X%Xf.]     k.3.3.3.O.R.  X P P P P 0.0.0.0.P P P P 0.0.0.0.",
"P P P P 0.0.0.0.P P P P 0.0.0.,.  % m.~   9 4X&XoX+X+X+X+X+X+X+X+X+XoX@X| k.9   6 S.3.5.O.!.,   J P P P 0.0.0.0.P P P P 0.0.0.0.",
"0.0.0.0.P P P P 0.0.0.0.P P P L     m.]   p W.5XoXoX+X+X+X+X+X+X+XoX-XZ. .3.k.X   i S.q.f./.X   <.0.0.0.P P P P 0.0.0.0.P P P P ",
"0.0.0.0.P P P P 0.0.0.0.P P P P r   @ m   4 W.d.XX%X#X@X+X+X+X@X@X;XE.} 5.3.w.r.    % ( ) %   = 0.0.0.0.P P P P 0.0.0.0.P P P P ",
"0.0.0.0.P P P P 0.0.0.0.P P P L 0.2         U.d.` r.Z.^.].XXXX].E.i.} 5.3.3.3.r.t.@         # P 0.0.0.0.P P P P 0.0.0.0.P P P P ",
"0.0.0.0.P P P P 0.0.0.0.P P P P 0.0.*.V &   , {.w.O.o.| | | } } | w.r.3.3.3.3.3.t.~   1 r z P P 0.0.0.0.P P P P 0.0.0.0.P P P P ",
"P P P P 0.0.0.0.P P P P 0.0.0.0.P P P P H     - c.D.t.3.3.3.3.3.w.] ~ r.3.3.3.3.s.x   j 0.0.0.0.P P P P 0.0.0.0.P P P P 0.0.0.0.",
"P P P P 0.0.0.0.P P P P 0.0.0.0.P P P P ,.        4 ! 4.h.h.j.j.F.+   h.3.3.3.3.h.y   z 0.0.0.0.P P P P 0.0.0.0.P P P P 0.0.0.0.",
"P P P P 0.0.0.0.P P P P 0.0.0.0.P P P P 0.#   x           + @ % %     ~ w.3.3.5.t.;   G 0.0.0.0.P P P P 0.0.0.0.P P P P 0.0.0.0.",
"P P P P 0.0.0.0.P P P P 0.0.0.0.P P P P 0.z   M h.v u % o             0 k.3.3.r. .o   L 0.0.0.0.P P P P 0.0.0.0.P P P P 0.0.0.0.",
"0.0.0.0.P P P P 0.0.0.0.P P P P 0.0.0.0.P K   . m.3.'  ._   = P <.<.    h.3.w.O.W   # 0.P P P P 0.0.0.0.P P P P 0.0.0.0.P P P P ",
"0.0.0.0.P P P P 0.0.0.0.P P P P 0.0.0.0.P P =   B S.k.q.8   g P 0.0.g   s F.t.@.a   f 0.P P P P 0.0.0.0.P P P P 0.0.0.0.P P P P ",
"0.0.0.0.P P P P 0.0.0.0.P P P P 0.0.0.0.P P G     3 i +     P P 0.0.<.    ; 7 %     >.0.P P P P 0.0.0.0.P P P P 0.0.0.0.P P P P ",
"0.0.0.0.P P P P 0.0.0.0.P P P P 0.0.0.0.P P P z         O J P P 0.0.0.-.X       X -.0.0.P P P P 0.0.0.0.P P P P 0.0.0.0.P P P P ",
"P P P P 0.0.0.0.P P P P 0.0.0.0.P P P P 0.0.0.0.P F D J 0.0.0.0.P P P P 0.;.*.>.P P P P 0.0.0.0.P P P P 0.0.0.0.P P P P 0.0.0.0.",
"P P P P 0.0.0.0.P P P P 0.0.0.0.P P P P 0.0.0.0.P P P P 0.0.0.0.P P P P 0.0.0.0.P P P P 0.0.0.0.P P P P 0.0.0.0.P P P P 0.0.0.0.",
"P P P P 0.0.0.0.P P P P 0.0.0.0.P P P P 0.0.0.0.P P P P 0.0.0.0.P P P P 0.0.0.0.P P P P 0.0.0.0.P P P P 0.0.0.0.P P P P 0.0.0.0.",
"P P P P 0.0.0.0.P P P P 0.0.0.0.P P P P 0.0.0.0.P P P P 0.0.0.0.P P P P 0.0.0.0.P P P P 0.0.0.0.P P P P 0.0.0.0.P P P P 0.0.0.0."
};
