/* XPM */
static char *_3767fd5726e4ef5ea6c730d511e4f034e01XYEuJBBbvoSl[] = {
/* columns rows colors chars-per-pixel */
"64 64 14 1 ",
"  c #2B1A1C",
". c #3F2A1C",
"X c #102131",
"o c #755338",
"O c #163543",
"+ c #1A3F56",
"@ c #235D75",
"# c #597D55",
"$ c #91745D",
"% c #82BB73",
"& c #2C808C",
"* c #2DA2A4",
"= c #00CDF9",
"- c #AAD5DB",
/* pixels */
"%%%%%%%%%%%%%%%%%%%%%%%%%%%%%%%%%%%%%%%%%%%%%%%%%%%%%%%%%%%%%%%%",
"%%%%%%%%%%%%%%%%%%%%%%%%%%%%%%%...%%%%%%%%%%%%%%%%%%%%%%%%%%%%%%",
"%%%%%%%%%%%%%%#%#%%%%%%%%%%%%%.ooo.%%%%%%%%%%%%%%%%%%%%%%%%%%%%%",
"%%%%%%%%%%%%%%%#%%%%%%%%%%%%OO.$oo.XX%%%%%%%%%%%%%%%%%%%%%%%%%%%",
"%%%%%%%%%%%%%%%%%%%%%%%%%%%O&O.$oo.X+X%%%%%%%%%%%%%%%%%%%%%%%%%%",
"%%%%%%%%%%%%%%%%%%%%%%%%%%O&&O.$oo.X++X%%%%%%%%%%%%%%%%%%%%%%%%%",
"%%%%%%%%%%%%%%%%%%%%%%%%%O&&OO.$oo.XX++X%%%%%%%%%%%%%%%%%%%%%%%%",
"%%%%%%%%%%%%%%%%%%%%%%%%O*&O&O.$oo.X+X+@X%%%%%%%%%%%%%%%%%%%%%%%",
"%%%%%%%%%%%%%%%%%%%%%%%OO*O&&O.$oo.X++X@XX%%%%%%%%%%%%%%%%%%%%%%",
"%%%%%%%%%%%%%%%%%%%%%%O&OO&&OO.$oo.XX++XX+X%%%%%%%%%%%%%%%%%%%%%",
"%%%%%%%%%%%%%%%%%%%%%O&&O*&O&O.$oo.X+X+@X++X%%%%%%%%%%%%%%%%%%%%",
"%%%%%%%%%%%%%%%%%%%%O&&OO*O&&O.$oo.X++X@XX++X%%%%%%%%%%%%%%%%%%%",
"%%%%%%%%%%%%%%%%%%%O*&O&OO&&OO.$oo.XX++XX+X+@X%%%%%%%%%%%%%%%%%%",
"%%%%%%%%%%%%%%%%%%OO*O&&O*&O&O.$oo.X+X+@X++X@XX%%%%%%%%%%%%%%%%%",
"%%%%%%%%%%%%%%%%%O&OO&&OO*O&&O.$oo.X++X@XX++XX+X%%%%%%%%%%#%#%%%",
"%%%%%%%%%%%%%%%%O&&O*&O&OO&&OO.$oo.XX++XX+X+@X++X%%%%%%%%%%#%%%%",
"%%%%%%%%%%%%%%%O&&OO*O&&O*&O&O.$oo.X+X+@X++X@XX++X%%%%%%%%%%%%%%",
"%%%%%%%%%%%%%%O*&O&OO&&OO*O&&O.$oo.X++X@XX++XX+X+@X%%%%%%%%%%%%%",
"%%%#%#%%%%%%%OO*O&&O*&O&OO&&OO.$oo.XX++XX+X+@X++X@XX%%%%%%%%%%%%",
"%%%%#%%%%%%%O&OO&&OO*O&&O*&O&O.$oo.X+X+@X++X@XX++XX+X%%%%%%%%%%%",
"%%%%%%%%%%%O&&O*&O&OO&&OO*O&&O.$oo.X++X@XX++XX+X+@X++X%%%%%%%%%%",
"%%%%%%%%%%O&&OO*O&&O*&O&OO&&OO.$oo.XX++XX+X+@X++X@XX++X%%%%%%%%%",
"%%%%%%%%%O*&O&OO&&OO*O&&O*&O&O.$oo.X+X+@X++X@XX++XX+X+@X%%%%%%%%",
"%%%%%%%%OO*O&&O*&O&OO&&OO*O&&O.ooo.X++X@XX++XX+X+@X++X@XX%%%%%%%",
"%%%%%%%O&OO&&OO*O&&O*&O&OO&&O.o...o.X++XX+X+@X++X@XX++XX+X%%%%%%",
"%%%%%%O&&O*&O&OO&&OO*O&&O*&O.o.ooo.o.X+@X++X@XX++XX+X+@X++X%%%%%",
"%%%%%O*&OO*O&&O*&O&OO&&OO*O.oo.ooo.oo.X@XX++XX+X+@X++X@XX+@X%%%%",
"%%%%%O*O&OO&&OO*O&&O*&O&OO.oo..$oo..oo.XX+X+@X++X@XX++XX+X@X%%%%",
"%%%%%OO&&O*&O&OO&&OO*O&&O.oo.o.$oo.o.oo.X++X@XX++XX+X+@X++XX%%%%",
"%%%%%O*&OO*O&&O*&O&OO&&O.oo....$oo....oo.X++XX+X+@X++X@XX+@X%%%%",
"%%%%%O*O&OO&&OO*O&&O*&O.oo.ooo.$oo.ooo.oo.X+@X++X@XX++XX+X@X%%%%",
"%%%%%OO&&O*&O&OO&&OO*O.oo.oooo.$oo.oooo.oo.X@XX++XX+X+@X++XX%%%%",
"%%%%%O*&OO*O&&O*&O&OO.oo..oooo.$oo..oooo.oo.XX+X+@X++X@XX+@X%%%%",
"%%%%%O*O&OO&&OO*O&&O.oo........$oo....o...oo.X++X@XX++XX+X@X%%%%",
"%%%%%OO&&O*&O&OO&&O.oo.ooooooo.$oo.oooo.oo.oo.X++XX+X+@X++XX%%%%",
"%%%%%O*&OO*O&&O*&O.oo.oooooooo.$oo.oooooooo.oo.X+@X++X@XX+@X%%%%",
"%%%%%O*O&OO&&OO*O.oo.ooooooooo.$oo.ooooooooo.oo.X@XX++XX+X@X%%%%",
"%%%%%OO&&O*&O&OO.oo......o.....$oo........o...oo.XX+X+@X++XX%%%%",
"%%%%%O*&OO*O&&O.oo.ooo.ooooooo.$oo.ooooooooooo.oo.X++X@XX+@X%%%%",
"%%%%%O*O&OO&&O.oo.oooooooooooo.$oo.oooooooooooo.oo.X++XX+X@X%%%%",
"%%%%%OO&&O*&O.oo.ooooooooooooo.$oo.oo.oooooooooo.oo.X+@X++XX%%%%",
"%%%%%O*&OO*O.oo...o............$oo......o.........oo.X@XX+@X%%%%",
"%%%%%O*O&OO.oo.ooooooooooooooo.$oo.oooooooooo.oooo.oo.XX+X@X%%%%",
"%%%%%OO&&O.oo.oooooooooooooooo.$oo.oooooooooooooooo.oo.X++XX%%%%",
"%%%%%O*&O.oo..ooo..........ooo.$oo.oooooooooooooooo..oo.X+@X%%%%",
"%%%%%O*O.oo.o..o.$$$$$$$$$$....$oo....o.........oo..$.oo.X@X%%%%",
"%%%%%OO%...$o.oo.$.       $.oo.$oo.o.o.$$$$$$$$$.oo.$o...%XX%%%%",
"%%%%%%%%%%.$o.oo.$.       $.oo.$oo.ooo.$--=.--=$.oo.$o.%%%%%%%%%",
"%%%%%%%%%%.$o.oo.$.       $.oo.$oo.ooo.$-==.-==$.oo.$o.%%%%%%%%%",
"%%%%%%%%%%.$o....$.       $.o..$oo...o.$===.===$....$o.%%%%%%%%%",
"%%%%%%%%%%.$o.oo.$.       $.oo.$oo.ooo.$.......$..o.$o.%%%%%%%%%",
"%%%%%%%%%%.$o.oo.$.       $.oo.$oo.ooo.$--=.--=$.oo.$o.%%%%%%%%%",
"%%%%%%%%%%.$o.oo.$.       $.oo.$oo.ooo.$-==.-==$.oo.$o.%%%%%%%%%",
"%%%%%%%%%%.$o..o.$.       $....$oo.....$===.===$....$o.%%%%%%%%%",
"%%%%%%%%%%.$o.oo.$.       $.oo.$oo.ooo.$$$$$$$$$.oo.$o.%%%%%%%%%",
"%%%%%%%%%%.$o.oo.$.       $.oo.$oo.oooo.........ooo.$o.%%%%%%%%%",
"%%%%%%%%%%.$o.oo.$.       $.oo.$oo.oooooooooooooooo.$o.%%%%%%%%%",
"%%%%%%%%%%.$o....$.       $....$oo........oo........$o.%%%%%%%%%",
"%%%%%%%%%%.$o.oo.$.       $.oo.$oo.oo.oooooooooo.oo.$o.%%%%%%%%%",
"%%%%%%%%%%.$o.oo.$.       $.oo.$oo.oooooooooooooooo.$o.%%%#%#%%%",
"%%%%%%%%%%.$o.oo.$.       $.oo.$oo.oooooooooo.ooooo.$o.%%%%#%%%%",
"%%%%%%#%#%.$$..................$$o..................$$.%%%%%%%%%",
"%%%%%%%#%%%..%%%%%%%%%%%%%%%%%%...%%%%%%%%%%%%%%%%%%..%%%%%%%%%%",
"%%%%%%%%%%%%%%%%%%%%%%%%%%%%%%%%%%%%%%%%%%%%%%%%%%%%%%%%%%%%%%%%"
};