/* XPM */
static char *a9b3c95611044346bb3908ab99781767QBFK1P5mh3NThbgK[] = {
/* columns rows colors chars-per-pixel */
"64 64 146 2 ",
"   c #020F02",
".  c #031604",
"X  c #081707",
"o  c #021D06",
"O  c #0C1508",
"+  c #051C08",
"@  c #0B1C0B",
"#  c #10170E",
"$  c #1A1A0C",
"%  c #121B14",
"&  c #002307",
"*  c #04240A",
"=  c #0B230B",
"-  c #042B0B",
";  c #0A2C0D",
":  c #15240E",
">  c #102C0F",
",  c #04330D",
"<  c #0A330E",
"1  c #04390F",
"2  c #0A3C0F",
"3  c #0B2413",
"4  c #0F2D10",
"5  c #132510",
"6  c #182613",
"7  c #142B13",
"8  c #1B2B13",
"9  c #12261A",
"0  c #1B2F18",
"q  c #073511",
"w  c #0C3611",
"e  c #053B12",
"r  c #0C3D13",
"t  c #143413",
"y  c #123B13",
"u  c #193A16",
"i  c #1C341A",
"p  c #163E18",
"a  c #1C3D1B",
"s  c #242211",
"d  c #252B15",
"f  c #2A2E17",
"g  c #352C1A",
"h  c #21361E",
"j  c #213C1E",
"k  c #263D22",
"l  c #283A23",
"z  c #0D4215",
"x  c #034519",
"c  c #0B4618",
"v  c #124416",
"b  c #1A4416",
"n  c #144A17",
"m  c #114618",
"M  c #144B19",
"N  c #1B4D1A",
"B  c #17501B",
"V  c #1B541C",
"C  c #1E591F",
"Z  c #22541D",
"A  c #225A1E",
"S  c #1E5C20",
"D  c #264024",
"F  c #2B4326",
"G  c #294826",
"H  c #2E4729",
"J  c #2D492A",
"K  c #314B2C",
"L  c #215E20",
"P  c #33512E",
"I  c #375732",
"U  c #365831",
"Y  c #3C5A35",
"T  c #3F5F3A",
"R  c #1F6120",
"E  c #256323",
"W  c #2A6422",
"Q  c #276925",
"!  c #2B6C26",
"~  c #2C6F28",
"^  c #316B26",
"/  c #39662D",
"(  c #2C7127",
")  c #2E7329",
"_  c #317127",
"`  c #31762A",
"'  c #38762A",
"]  c #347B2C",
"[  c #3A7D2D",
"{  c #415F3A",
"}  c #43633B",
"|  c #476A3E",
" . c #4A6C41",
".. c #4E7145",
"X. c #507647",
"o. c #547B4A",
"O. c #597D55",
"+. c #37812E",
"@. c #3A812E",
"#. c #3C8630",
"$. c #3E8A32",
"%. c #41842F",
"&. c #418630",
"*. c #488234",
"=. c #428C33",
"-. c #488E34",
";. c #459235",
":. c #4A9536",
">. c #479837",
",. c #4C9837",
"<. c #4C9738",
"1. c #479938",
"2. c #4D9A39",
"3. c #519E3A",
"4. c #4FA43C",
"5. c #54A13B",
"6. c #58A63E",
"7. c #56AA3E",
"8. c #5AA93F",
"9. c #5C8652",
"0. c #5E8953",
"q. c #608A54",
"w. c #638F58",
"e. c #66935A",
"r. c #69965C",
"t. c #6A995E",
"y. c #5DAD40",
"u. c #5EB142",
"i. c #60B342",
"p. c #60B443",
"a. c #61B543",
"s. c #65B945",
"d. c #65BC46",
"f. c #6C9C60",
"g. c #72A465",
"h. c #73A666",
"j. c #76AB6A",
"k. c #78AD6B",
"l. c #7BB16D",
"z. c #7DB46F",
"x. c #7DB470",
"c. c #7FB872",
"v. c #66C148",
"b. c #69C149",
"n. c #6CC64A",
"m. c #82BB73",
/* pixels */
"m.m.m.m.m.m.m.m.m.m.m.m.m.m.m.m.m.m.m.m.m.m.m.m.m.m.m.m.m.m.m.m.m.m.m.m.m.m.m.m.m.m.m.m.m.m.m.m.m.m.m.m.m.m.m.m.m.m.m.m.m.m.m.m.",
"m.m.m.m.m.m.m.m.m.m.m.m.m.m.m.m.m.m.m.m.m.m.m.m.m.m.m.m.m.m.m.m.m.m.m.m.m.m.m.m.m.m.m.m.m.m.m.m.m.m.m.m.m.m.m.m.m.m.m.m.m.m.m.m.",
"m.m.m.m.m.m.m.m.m.m.m.m.m.m.m.m.m.m.m.m.m.m.m.m.m.m.m.m.m.m.m.m.m.m.m.m.m.m.m.m.m.m.m.m.m.m.m.m.m.m.m.m.m.m.m.m.m.m.m.m.m.m.m.m.",
"m.m.m.m.m.m.m.m.m.m.m.m.m.m.m.m.m.f.9.e.r.r.9.r.m.m.m.m.m.m.m.m.m.m.m.m.m.Y q x e c C p T m.m.m.m.m.m.m.m.m.m.m.m.m.O.m.O.m.m.m.",
"m.m.m.m.m.m.m.m.m.m.m.m.m.m.m.m.9.5 X @ = = X @ ..m.m.m.m.m.m.m.m.m.m.r.l - E =.#.$.;.W ; K x.m.m.m.m.m.m.m.m.m.m.m.m.O.m.m.m.m.",
"m.m.m.m.m.m.m.m.m.m.m.m.m.m.l.9.a N A V V V A N t ..x.m.m.m.0.} Y o.m.e.t ! 2.d.a.a.d.:.! ; P q. .} } w.m.m.m.c.m.m.m.m.m.m.m.m.",
"m.m.m.m.m.m.m.m.m.m.m.m.m.m.} 7 N @.:.=.=.=.:.&.N @  .m.m.x.H + + 7 k.z./ 2.6.8.6.6.8.5.2.W t @ = + + K m.m.m.x.m.m.m.m.m.m.m.m.",
"m.m.m.m.m.m.m.m.m.c.m.m.m.m.K & ! 6.b.u.u.u.d.y.=.N 7  .t.I t M B y k | *.v.y.3.3.3.3.u.b.=.y & v N n t I l.m.m.m.c.m.m.m.m.m.m.",
"m.m.m.m.m.O.m.O.c.x.m.m.m.m.Y * W 2.a.6.6.6.6.6.6.&.b X X 4 N ( ) A ; t [ i.8.3.3.3.3.y.d.[ < - L ` ! N * I m.m.m.x.m.m.m.m.m.m.",
"m.m.m.m.m.m.O.c.m.m.j. .T  .6 . A 2.u.5.3.5.3.5.a.y.&.N & < W 2.7.[ r < ' y.6.5.5.5.6.<.@.Z y A #.4.>.` N ; Y g.m.m.m.m.m.m.m.m.",
"m.m.m.m.m.m.c.x.m.m.9.7 o +   . Z 2.a.5.3.5.3.5.6.5.6.%.y & W 7.a.&.y ; _ y.6.5.5.6.y.[ v < C +.:.6.3.=.( b ; J l.m.m.m.m.m.m.m.",
"m.m.m.m.m.m.m.m.m.0.u y C A Z N ! =.3.3.5.5.5.5.3.5.a.8._ Z [ y.s.:.Z N [ y.6.5.5.6.y.[ N N +.5.6.8.6.7.2.! w 7 k.m.m.m.m.m.m.m.",
"m.m.m.m.m.m.m.m.9.7 y L +.=.<.;.@.] =.3.6.5.5.5.3.5.6.5.<.-.<.5.y.<.` ! =.6.5.5.5.5.5.2.=.-.2.5.5.5.5.y.6._ < i k.m.m.m.m.m.m.m.",
"m.m.m.m.x. .K } 7 o V +.7.y.s.a.2.#.=.3.5.5.5.5.5.5.3.5.y.u.8.3.5.3.:.;.2.5.5.5.5.3.3.6.y.u.8.5.5.5.5.y.5.! < i k.m.m.m.m.m.m.m.",
"m.m.m.m.r.7 o + o o Z =.y.5.5.5.3.2.2.3.5.5.5.5.5.5.3.5.5.5.5.5.5.3.3.3.3.5.5.5.5.5.3.5.5.5.5.5.3.5.6.5.=.L ; i k.m.m.m.m.m.m.m.",
"m.m.m.r.j N ! ! b o b -.a.5.3.3.5.6.5.5.3.5.5.5.5.5.5.5.5.5.5.5.3.5.6.6.5.3.5.5.5.5.5.5.5.5.5.5.5.3.:.` V 1 & k m.m.m.c.m.m.m.m.",
"m.m.j.0 b ' 8.6.^ - y &.u.5.5.5.5.5.5.5.5.5.5.5.5.5.5.5.5.5.5.5.5.5.5.5.5.5.5.5.5.5.5.5.5.5.5.5.5.2.#.C ; o & D m.m.m.m.m.m.m.m.",
"m.m.r.X V ;.n.n.<.W W ;.8.5.5.5.5.5.5.5.5.5.5.5.5.5.5.5.5.5.5.5.5.5.5.5.5.5.5.5.5.5.5.5.5.5.5.5.5.2.=.! Z Z A u J g.m.m.m.x.m.m.",
"m.m.f.: N &.i.8.3.<.<.3.5.5.5.5.5.5.5.5.5.5.5.5.5.5.5.5.5.5.5.5.5.5.5.5.5.5.5.5.5.5.5.5.5.5.5.5.5.3.3.2.<.5.2.W * K m.m.m.m.m.m.",
"m.m.t.@ V ;.u.:.;.8.u.5.3.3.5.5.5.5.5.5.5.5.5.5.5.5.5.5.5.5.5.5.5.5.5.5.5.5.5.5.5.5.5.5.5.5.5.3.3.5.6.8.y.s.u.:.W ; K j.m.m.m.m.",
"m.m.f.= N -.7.#.+.2.6.5.5.5.5.5.5.5.5.5.5.5.5.5.5.5.5.5.5.5.5.5.5.5.5.5.5.5.5.5.5.5.5.5.5.5.5.5.5.5.5.5.5.5.5.y.2.W * K m.m.m.m.",
"m.m.m.| u Z [ +.;.3.5.5.5.5.5.5.5.5.5.5.5.5.5.5.5.5.5.5.5.5.5.5.5.5.5.5.5.5.5.5.5.5.5.5.5.5.5.3.5.5.6.5.5.3.3.u.y.:.W t P e.m.m.",
"m.m.m.m. .= V &.y.5.5.5.5.5.5.5.5.5.5.5.5.5.5.5.5.5.5.5.5.5.5.5.5.5.5.5.5.5.5.5.5.5.5.5.5.5.5.5.3.5.5.5.5.3.5.5.5.y.2.W * H m.m.",
"m.m.m.m.k.# y %.a.6.5.6.5.5.3.5.5.5.5.5.5.5.5.5.5.5.5.5.5.5.5.5.5.5.5.5.5.5.5.5.5.5.5.5.5.5.5.5.5.:.=.;.5.6.5.3.5.a.8._ - h m.m.",
"m.m.m.m.o.@ N &.u.6.5.5.5.5.3.5.5.5.5.5.5.5.5.5.5.5.5.5.5.5.5.5.5.5.5.5.5.5.5.5.5.5.5.5.5.5.5.5.5.=.] #.3.6.5.5.5.y.3.W * D m.m.",
"m.m.m.X.t w ! -.y.6.2.=.;.5.6.5.3.5.5.5.5.5.5.5.5.5.5.5.5.5.5.5.5.5.5.5.5.5.3.5.6.5.5.3.5.5.5.5.5.:.=.$.;.5.8.8.6.i.5.! * D m.m.",
"m.m.g.7 v E =.2.6.6.;.] +.2.6.5.3.5.5.5.5.5.5.5.5.5.5.5.5.5.5.5.5.5.5.5.5.5.3.5.3.3.5.5.5.5.5.5.5.5.5.=.] #.3.6.5.y.3.W * D m.m.",
"m.m.z.@ v ] 7.5.6.8.:.` ( +.:.3.5.5.5.5.5.5.5.5.5.5.5.5.5.5.5.5.5.5.5.5.5.5.5.2.=.-.6.y.6.5.5.3.3.y.y.@.V n E +.:.7.;.E - h m.m.",
"m.m.r.5 N &.u.6.5.5.:.+.) ` =.3.6.5.5.5.5.5.5.5.5.5.5.5.5.5.5.5.5.5.5.5.5.5.6.:.[ [ :.5.3.5.5.5.5.8.6.] M q v L ` #.` V * J m.m.",
"m.m.a y _ <.a.i.6.2.=.-.=.=.;.3.5.5.5.5.5.5.5.5.5.5.5.5.5.5.5.5.5.5.5.5.5.5.5.2.:.] W ! #.5.8.y.6.3.;.[ _ _ ! V r v N y K q.m.m.",
"m.m.r E ;.2.6.5.-.` [ 2.8.5.5.5.5.5.5.5.5.5.5.5.5.5.5.5.5.5.5.5.5.5.5.5.5.5.3.6.y.&.C m Q $.:.6.5.=.` #.5.a.6.^ ; & * J m.m.m.m.",
"m.m.v ) 2.2.=.] C m E :.i.6.5.5.5.6.5.5.3.5.5.5.5.5.5.5.5.5.5.5.5.5.5.5.5.5.3.5.8.<.[ S M M L ] =.+.( #.6.s.8.:.^ v o { m.m.m.m.",
"m.m.2 E +.+.Q M q r W ;.y.5.5.5.3.3.3.5.5.5.5.5.5.5.5.5.5.5.5.5.5.5.5.5.5.5.5.5.3.6.y.=.A q r V ) ] ] =.3.6.5.u.5.! - h g.m.m.m.",
"m.m., v C L B r v E =.2.6.5.5.5.:.=.;.3.5.5.5.5.3.5.5.6.5.3.3.5.5.5.5.5.5.5.3.5.5.8.y.3.@.E V C ) #.;.5.6.8.6.7.:.E , * j o.m.m.",
"m.m.& & - w r q E ;.i.6.3.5.5.6.=.` #.3.6.5.5.5.5.3.3.3.3.5.5.5.5.5.5.5.5.5.5.3.3.3.3.6.8.2.$.` ` $.2.5.3.5.3.;.` E M r ; D m.m.",
"m.m.G = & & & - L :.a.6.3.3.6.8.=.) [ 3.6.5.5.5.5.3.=.#.:.6.6.3.3.5.5.5.5.5.5.<.#.=.3.y.8.6.2.$.] ] =.;.;.;.;.#.` ) Q M - k m.m.",
"m.m.l.t < ; w r Q ;.y.5.5.5.5.3.=.[ =.3.6.5.5.5.6.3.$.] =.3.5.5.5.5.5.5.5.5.6.:.+.[ ;.5.5.6.6.:.+.) ` ) ) ~ ) ` ] $.] C * F m.m.",
"m.m.m.0 < n L C ` 2.y.6.6.8.2.=.#.;.2.3.6.6.5.5.5.3.<.=.#.=.:.5.5.5.5.5.5.5.5.2.:.=.#.;.3.y.y.:.] ( ) E B n V ! +.;.#.A * F m.m.",
"m.m.o.4 B ` ;.#.=.:.3.2.3.3.=.` #.5.8.5.3.2.3.5.5.5.8.5.#.` =.5.5.5.5.5.5.5.3.5.8.:.] ] ;.5.3.;.+.+.+.! n q r C ) +.) B * F m.m.",
"m.m.y N ] ;.3.2.;.#.[ +.#.$.] ` =.6.y.5.=.#.;.6.8.6.y.6.#.` =.5.5.5.5.5.5.5.3.6.y.2.+.` #.=.#.=.;.2.:.+.E z r v C E C v = J m.m.",
"m.m.r R =.3.y.8.2.#.` ] ] ` ) ` #.:.6.5.=.] #.2.3.2.3.<.+.] -.5.5.5.3.5.5.5.5.5.3.;.+.` ` ) ) #.3.y.6.2.=.! N z z z r r - J m.m.",
"m.m.2 n ` 2.i.8.3.:.;.:.#.` ( ` ] +.;.3.3.;.$.+.+.#.=.#.` ` ;.8.6.3.3.5.5.6.8.3.-.+.#.] ) ! ! #.5.y.6.5.2.#.! V c z c r - J m.m.",
"m.m.- & V @.8.5.5.6.8.8.2.#.` ] ` ] =.3.8.6.;.] ) ` ) ` ` #.-.2.5.5.5.3.2.2.3.;.+.( ! ` ] +.+.=.:.3.3.6.6.2.#.L z r r w = K m.m.",
"m.m.U = n ` 5.5.8.y.y.6.3.2.#.] +.-.2.3.6.5.3.;.+.` ! ) =.:.#.#.<.8.8.2.$.+.=.=.$.! M L #.5.,.=.+.=.3.y.8.2.+.V ; - < m.m.m.m.m.",
"m.m.m.8 t N ` ;.2.-.;.3.8.8.;.] #.5.8.5.3.5.6.6.;.] ` #.3.5.=.] =.3.6.2.=.) ! Q ) E v E ;.s.y.:.+.#.3.6.2.;.+.V ; & = m.m.m.m.m.",
"m.m.m.m.m.= B ] ] C ! 3.s.y.;.] #.3.6.5.3.3.8.6.;.+.#.:.5.5.3.-.+.#.<.5.6.+.C r M S L [ 3.a.i.6.:.2.6.2.$.#.#.E r - ; m.m.m.m.m.",
"m.m.m.m.m.= n ! ! n C [ 3.2.=.] #.5.8.5.5.5.5.2.] ~ =.8.6.5.6.5.=.+.;.6.i.<.! r , M ) ;.2.<.=.;.5.8.3.=.` ) ( L n , ; m.m.m.m.m.",
"m.m.m.O t N ( ` ` ! E L ! +.+.` =.8.u.6.6.6.3.=.E V [ 8.8.5.5.5.2.2.3.5.6.5.3.^ y r ) 1.;.` C ^ 3.8.;.$.+.! C n v 1 ; m.m.m.m.m.",
"m.m.m.X c ( $.+.+.$.W r r ! +.] +.&.-.:.3.<.#.Q z z ! 2.6.5.5.5.3.3.5.6.5.6.u.@.y * C ) ! V c E ;.;.! Q ! C r r v e ; m.m.m.m.m.",
"m.m.m.X z ! #.] +.$.W < y ) ;.#.! C E +.=.#.! N r v E $.3.6.y.5.=.$.3.i.y.5.2.! y o < b M C E ] #.` C M V M v v v e ; m.m.m.m.m.",
"m.m.m.X z ! $.@.] ` N ; w E ] ) C m V ) +.` C r , m L ] =.2.3.;.] ) [ -.2.<.$.E b & o & , S ] ;.+.L r , r c v n v 2 ; m.m.m.m.m.",
"m.m.m.. z ( ;.$.` L r ; < M V N C ! ` ` +.] C r , m Q +.$.#.#.+.+.) A L ] ;.=.) V - * - r L ] ;.$.L < - v n n M n 2 - m.m.m.m.m.",
"m.m.m.$ u Z ( ) E n , - - < q w S +.$.+.+.] ! V v v C ! ` ] ] ] #.) n e V ! ) E V r - - , B Q ` ) B ; - r z z z r w 3 m.m.m.m.m.",
"m.m.m.m.m.t z B V M r , & - < r L ] $.#.+.] ] ( C v r V ( #.#.+.$.` V r m B B B M z , & - r M S V v , - < 1 < < < m.m.m.m.m.m.m.",
"m.m.m.m.m.% * - r z y 7 = & - z S ! ! E ! ] =.#.E v q z B E ! ! ) Q V z r r r z z r 7 : : ; , 1 , ; = @ 3 3 3 = 3 m.m.m.m.m.m.m.",
"m.m.m.m.m.m.m.; 1 , 7 m.m.* , c V V v w Z ] ;.+.E v z v r r v V V B M m v m n z 1 > m.m.m.m.- , - = m.m.m.m.m.m.m.m.m.m.m.m.m.m.",
"m.m.m.m.m.m.m.9 * + s m.m.f t r e q & o v ! ` ! C v r r = @ = , , q r r r z z < = $ m.m.m.m.d 8 8 s m.m.m.m.m.m.m.m.m.m.m.m.m.m.",
"m.m.m.m.m.m.m.m.m.m.m.m.m.m.m.; - - - - r M V B M v 1 - m.m.: - - - , < < < , ; m.m.m.m.m.m.m.m.m.m.m.m.m.m.m.m.m.m.m.m.m.m.m.m.",
"m.m.m.m.m.m.m.m.m.m.m.m.m.m.m.f : 5 6 6 t 1 1 1 e r t d m.m.g 8 6 : : @ @ 3 3 % m.m.m.m.m.m.m.m.m.m.m.m.m.m.m.m.m.m.m.m.m.m.m.m.",
"m.m.m.m.m.m.m.m.m.m.m.m.m.m.m.m.m.m.m.m.m.< , < , < m.m.m.m.m.m.m.m.m.m.m.m.m.m.m.m.m.m.m.m.m.m.m.m.O.m.O.m.m.m.m.m.m.m.m.m.m.m.",
"m.m.m.m.m.m.m.m.m.m.m.m.m.m.m.m.m.m.m.m.m.m.m.m.m.m.m.m.m.m.m.m.m.m.m.m.m.m.m.m.m.m.m.m.m.m.m.m.m.m.m.O.m.m.m.m.m.m.m.m.m.m.m.m.",
"m.m.m.m.m.m.m.m.m.m.m.m.m.m.m.m.m.m.m.m.m.m.m.m.m.m.m.m.m.m.m.m.m.m.m.m.m.m.m.m.m.m.m.m.m.m.m.m.m.m.m.m.m.m.m.m.m.m.m.m.m.m.m.m.",
"m.m.m.m.m.m.m.m.m.m.m.m.m.m.m.m.m.m.m.m.m.m.m.m.m.m.m.m.m.m.m.m.m.m.m.m.m.m.m.m.m.m.m.m.m.m.m.m.m.m.m.m.m.m.m.m.m.m.m.m.m.m.m.m.",
"m.m.m.m.m.m.m.m.m.m.m.m.m.m.m.m.m.m.m.m.m.m.m.m.m.m.m.m.m.m.m.m.m.m.m.m.m.m.m.m.m.m.m.m.m.m.m.m.m.m.m.m.m.m.m.m.m.m.m.m.m.m.m.m."
};